<svg width="658" height="852" viewBox="0 0 658 852" fill="none" xmlns="http://www.w3.org/2000/svg">
<path d="M25.6305 784.682L502.288 719.467L557.868 646.889L-165.807 654.252L25.6305 784.682Z" fill="#0023A2"/>
<path d="M-173.696 656.882L-190 815.433L180.544 852L657.793 786.785L559.445 646.889L180.666 694.126L-173.696 656.882Z" fill="#011F8B"/>
<path opacity="0.2" d="M181.135 852L657.792 786.785L559.444 646.889L181.135 694.126V852Z" fill="#333333"/>
<path d="M381.027 346.314L-104.577 493.937L-190 641.804L457.714 479.612L381.027 346.314Z" fill="#00D2CA"/>
<path opacity="0.3" d="M381.027 346.314L-104.577 493.937L-190 641.804L457.714 479.612L381.027 346.314Z" fill="#333333"/>
<path d="M287.512 184.975L-11.5234 332.131L65.2396 199.278L180.627 0L287.512 184.975Z" fill="#F9B248"/>
<path opacity="0.2" d="M287.512 184.975L-11.5234 332.131L65.2396 199.278L180.627 0L287.512 184.975Z" fill="#333333"/>
<path d="M-19.6729 346.84L295.661 199.751L372.613 332.543L-96.625 479.875L-19.6729 346.84Z" fill="#FC3A52"/>
<path opacity="0.3" d="M-19.6729 346.84L295.661 199.751L372.613 332.543L-96.625 479.875L-19.6729 346.84Z" fill="#333333"/>
<path d="M65.2068 199.751L-11.5234 332.465L180.545 341.586L372.613 332.465L295.64 199.751H65.2068Z" fill="#FC3A52"/>
<path d="M287.513 185.568L180.667 0L73.5781 185.568H287.513Z" fill="#F9B248"/>
<path d="M457.714 479.944L380.985 346.314L180.666 355.482L-19.6537 346.314L-96.625 479.944L180.544 504.697L457.714 479.944Z" fill="#00D2CA"/>
<path d="M-104.611 494.059L-190 641.877L180.544 678.445L551.089 632.735L465.942 494.059L180.666 520.57L-104.611 494.059Z" fill="#653C99"/>
<path opacity="0.2" d="M181.135 678.445L551.088 632.735L466.05 494.059L181.135 520.57V678.445Z" fill="#333333"/>
<path opacity="0.2" d="M181.135 504.697L457.713 479.944L381.115 346.314L181.135 355.482V504.697Z" fill="#333333"/>
<path opacity="0.2" d="M181.135 199.751V341.586L372.612 332.465L295.876 199.751H181.135Z" fill="#333333"/>
<path opacity="0.1" d="M287.511 185.568L181.135 0V185.568H287.511Z" fill="#333333"/>
</svg>
