<svg width="1600" height="532" viewBox="0 0 1600 532" fill="none" xmlns="http://www.w3.org/2000/svg">
<path d="M240.545 239.42L187.84 148.799C181.387 136.932 181.387 122.907 187.84 111.04L240.545 20.4188C246.999 8.55176 259.906 1 273.889 1H378.223C392.206 1 404.038 8.55176 411.567 20.4188L464.272 111.04C470.726 122.907 470.726 136.932 464.272 148.799L411.567 239.42C405.113 251.287 392.206 258.839 378.223 258.839H273.889C259.906 257.76 248.074 251.287 240.545 239.42Z" fill="url(#paint0_linear)"/>
<path d="M476.545 375.42L423.84 284.799C417.387 272.932 417.387 258.907 423.84 247.04L476.545 156.419C482.999 144.552 495.906 137 509.889 137H614.223C628.206 137 640.038 144.552 647.567 156.419L700.272 247.04C706.726 258.907 706.726 272.932 700.272 284.799L647.567 375.42C641.113 387.287 628.206 394.839 614.223 394.839H509.889C495.906 394.839 482.999 387.287 476.545 375.42Z" fill="url(#paint1_linear)"/>
<path d="M711.545 239.499L658.84 147.799C652.387 135.932 652.387 121.907 658.84 110.04L711.545 19.4188C717.999 7.55178 730.906 0 744.889 0H849.223C863.206 0 875.038 7.55178 882.567 19.4188L935.272 110.04C941.726 121.907 941.726 135.932 935.272 147.799L882.567 238.42C876.114 250.287 863.206 257.839 849.223 257.839H744.889C730.906 257.839 717.999 251.366 711.545 239.499Z" fill="url(#paint2_linear)"/>
<path d="M711.545 511.42L658.84 420.799C652.387 408.932 652.387 394.907 658.84 383.04L711.545 292.419C717.999 280.552 730.906 273 744.889 273H849.223C863.206 273 875.038 280.552 882.567 292.419L935.272 383.04C941.726 394.907 941.726 408.932 935.272 420.799L882.567 511.42C876.114 523.287 863.206 530.839 849.223 530.839H744.889C730.906 530.839 717.999 523.287 711.545 511.42Z" fill="url(#paint3_linear)"/>
<path d="M5.54515 374.42L-47.1598 283.799C-53.6134 271.932 -53.6134 257.907 -47.1598 246.04L5.54515 155.419C11.9988 143.552 24.9061 136 38.889 136H143.223C157.206 136 169.038 143.552 176.567 155.419L229.272 246.04C235.726 257.907 235.726 271.932 229.272 283.799L176.567 374.42C170.114 386.287 157.206 393.839 143.223 393.839H38.889C24.9061 393.839 11.9988 386.287 5.54515 374.42Z" fill="url(#paint4_linear)"/>
<path d="M238.545 511.42L185.84 420.799C179.387 408.932 179.387 394.907 185.84 383.04L238.545 292.419C244.999 280.552 257.906 273 271.889 273H376.223C390.206 273 402.038 280.552 409.567 292.419L462.272 383.04C468.726 394.907 468.726 408.932 462.272 420.799L409.567 511.42C403.114 523.287 390.206 530.839 376.223 530.839H271.889C257.906 530.839 244.999 523.287 238.545 511.42Z" fill="url(#paint5_linear)"/>
<path d="M1409.55 378.42L1356.84 287.799C1350.39 275.932 1350.39 261.907 1356.84 250.04L1409.55 159.419C1416 147.552 1428.91 140 1442.89 140H1547.22C1561.21 140 1573.04 147.552 1580.57 159.419L1633.27 250.04C1639.73 261.907 1639.73 275.932 1633.27 287.799L1580.57 378.42C1574.11 390.287 1561.21 397.839 1547.22 397.839H1442.89C1428.91 397.839 1416 390.287 1409.55 378.42Z" fill="url(#paint6_linear)"/>
<path d="M947.545 375.42L894.84 284.799C888.387 272.932 888.387 258.907 894.84 247.04L947.545 156.419C953.999 144.552 966.906 137 980.889 137H1085.22C1099.21 137 1111.04 144.552 1118.57 156.419L1171.27 247.04C1177.73 258.907 1177.73 272.932 1171.27 284.799L1118.57 375.42C1112.11 387.287 1099.21 394.839 1085.22 394.839H980.889C966.906 394.839 953.999 387.287 947.545 375.42Z" fill="url(#paint7_linear)"/>
<path d="M1181.55 239.42L1128.84 148.799C1122.39 136.932 1122.39 122.907 1128.84 111.04L1181.55 20.4188C1188 8.55176 1200.91 1 1214.89 1H1319.22C1333.21 1 1345.04 8.55176 1352.57 20.4188L1405.27 111.04C1411.73 122.907 1411.73 136.932 1405.27 148.799L1352.57 239.42C1346.11 251.287 1333.21 258.839 1319.22 258.839H1214.89C1200.91 257.76 1189.07 251.287 1181.55 239.42Z" fill="url(#paint8_linear)"/>
<path d="M1181.55 512.42L1128.84 421.799C1122.39 409.932 1122.39 395.907 1128.84 384.04L1181.55 293.419C1188 281.552 1200.91 274 1214.89 274H1319.22C1333.21 274 1345.04 281.552 1352.57 293.419L1405.27 384.04C1411.73 395.907 1411.73 409.932 1405.27 421.799L1352.57 512.42C1346.11 524.287 1333.21 531.839 1319.22 531.839H1214.89C1200.91 530.76 1189.07 524.287 1181.55 512.42Z" fill="url(#paint9_linear)"/>
<path d="M239.096 120.6H242.572L237.842 136H234.872L231.418 127.376L228.096 136H225.126L220.264 120.6H223.806L226.82 130.83L230.868 120.754H231.99L236.148 130.83L239.096 120.6ZM254.918 130.016C254.918 130.324 254.896 130.639 254.852 130.962H245.876C246.008 131.769 246.323 132.392 246.822 132.832C247.335 133.257 247.988 133.47 248.78 133.47C249.322 133.47 249.814 133.353 250.254 133.118C250.694 132.869 251.038 132.531 251.288 132.106H254.676C254.236 133.397 253.488 134.423 252.432 135.186C251.376 135.949 250.158 136.33 248.78 136.33C247.02 136.33 245.553 135.729 244.38 134.526C243.206 133.323 242.62 131.835 242.62 130.06C242.62 129.356 242.715 128.681 242.906 128.036C243.111 127.391 243.397 126.811 243.764 126.298C244.145 125.785 244.585 125.345 245.084 124.978C245.582 124.597 246.147 124.303 246.778 124.098C247.408 123.893 248.076 123.79 248.78 123.79C249.968 123.79 251.031 124.069 251.97 124.626C252.923 125.183 253.649 125.939 254.148 126.892C254.661 127.845 254.918 128.887 254.918 130.016ZM248.78 126.518C248.061 126.518 247.452 126.716 246.954 127.112C246.47 127.508 246.14 128.058 245.964 128.762H251.706C251.559 128.278 251.346 127.875 251.068 127.552C250.789 127.215 250.452 126.958 250.056 126.782C249.674 126.606 249.249 126.518 248.78 126.518ZM257.204 122.536V119.544H260.416V122.536H257.204ZM257.204 136V124.12H260.416V136H257.204ZM269.307 133.14H270.759V136H268.493C267.628 136 266.872 135.831 266.227 135.494C265.596 135.157 265.112 134.673 264.775 134.042C264.438 133.397 264.269 132.634 264.269 131.754V126.694H262.113V126.012L266.821 121.018H267.415V124.12H270.693V126.694H267.481V131.336C267.481 131.908 267.635 132.355 267.943 132.678C268.266 132.986 268.72 133.14 269.307 133.14ZM284.373 130.016C284.373 130.324 284.351 130.639 284.307 130.962H275.331C275.463 131.769 275.778 132.392 276.277 132.832C276.79 133.257 277.443 133.47 278.235 133.47C278.777 133.47 279.269 133.353 279.709 133.118C280.149 132.869 280.493 132.531 280.743 132.106H284.131C283.691 133.397 282.943 134.423 281.887 135.186C280.831 135.949 279.613 136.33 278.235 136.33C276.475 136.33 275.008 135.729 273.835 134.526C272.661 133.323 272.075 131.835 272.075 130.06C272.075 129.356 272.17 128.681 272.361 128.036C272.566 127.391 272.852 126.811 273.219 126.298C273.6 125.785 274.04 125.345 274.539 124.978C275.037 124.597 275.602 124.303 276.233 124.098C276.863 123.893 277.531 123.79 278.235 123.79C279.423 123.79 280.486 124.069 281.425 124.626C282.378 125.183 283.104 125.939 283.603 126.892C284.116 127.845 284.373 128.887 284.373 130.016ZM278.235 126.518C277.516 126.518 276.907 126.716 276.409 127.112C275.925 127.508 275.595 128.058 275.419 128.762H281.161C281.014 128.278 280.801 127.875 280.523 127.552C280.244 127.215 279.907 126.958 279.511 126.782C279.129 126.606 278.704 126.518 278.235 126.518ZM292.731 124.054H293.787V127.09H292.401C291.492 127.09 290.839 127.303 290.443 127.728C290.062 128.153 289.871 128.85 289.871 129.818V136H286.659V124.12H288.727L289.299 125.572C290.106 124.56 291.25 124.054 292.731 124.054ZM306.888 130.016C306.888 130.324 306.866 130.639 306.822 130.962H297.846C297.978 131.769 298.294 132.392 298.792 132.832C299.306 133.257 299.958 133.47 300.75 133.47C301.293 133.47 301.784 133.353 302.224 133.118C302.664 132.869 303.009 132.531 303.258 132.106H306.646C306.206 133.397 305.458 134.423 304.402 135.186C303.346 135.949 302.129 136.33 300.75 136.33C298.99 136.33 297.524 135.729 296.35 134.526C295.177 133.323 294.59 131.835 294.59 130.06C294.59 129.356 294.686 128.681 294.876 128.036C295.082 127.391 295.368 126.811 295.734 126.298C296.116 125.785 296.556 125.345 297.054 124.978C297.553 124.597 298.118 124.303 298.748 124.098C299.379 123.893 300.046 123.79 300.75 123.79C301.938 123.79 303.002 124.069 303.94 124.626C304.894 125.183 305.62 125.939 306.118 126.892C306.632 127.845 306.888 128.887 306.888 130.016ZM300.75 126.518C300.032 126.518 299.423 126.716 298.924 127.112C298.44 127.508 298.11 128.058 297.934 128.762H303.676C303.53 128.278 303.317 127.875 303.038 127.552C302.76 127.215 302.422 126.958 302.026 126.782C301.645 126.606 301.22 126.518 300.75 126.518ZM315.951 123.834C317.3 123.834 318.363 124.289 319.141 125.198C319.933 126.093 320.329 127.295 320.329 128.806V136H317.117V129.312C317.117 127.537 316.427 126.65 315.049 126.65C314.506 126.65 314.029 126.775 313.619 127.024C313.223 127.273 312.915 127.633 312.695 128.102C312.489 128.571 312.387 129.121 312.387 129.752V136H309.175V124.12H311.375L312.013 125.594C312.233 125.315 312.482 125.073 312.761 124.868C313.054 124.648 313.369 124.465 313.707 124.318C314.044 124.157 314.396 124.039 314.763 123.966C315.144 123.878 315.54 123.834 315.951 123.834ZM328.991 133.14H330.443V136H328.177C327.311 136 326.556 135.831 325.911 135.494C325.28 135.157 324.796 134.673 324.459 134.042C324.121 133.397 323.953 132.634 323.953 131.754V126.694H321.797V126.012L326.505 121.018H327.099V124.12H330.377V126.694H327.165V131.336C327.165 131.908 327.319 132.355 327.627 132.678C327.949 132.986 328.404 133.14 328.991 133.14ZM346.43 124.12H349.62L345.726 136H343.152L340.446 129.862L337.806 136H335.232L331.294 124.12H334.572L336.904 131.204L340.006 124.208H340.908L344.098 131.226L346.43 124.12ZM351.37 122.536V119.544H354.582V122.536H351.37ZM351.37 136V124.12H354.582V136H351.37ZM363.187 136.33C362.014 136.33 360.943 136.059 359.975 135.516C359.022 134.959 358.266 134.196 357.709 133.228C357.166 132.26 356.895 131.189 356.895 130.016C356.895 128.241 357.496 126.76 358.699 125.572C359.902 124.384 361.405 123.79 363.209 123.79C364.749 123.79 366.069 124.237 367.169 125.132C368.269 126.012 368.966 127.185 369.259 128.652H366.069C365.805 128.08 365.416 127.633 364.903 127.31C364.404 126.973 363.832 126.804 363.187 126.804C362.322 126.804 361.596 127.112 361.009 127.728C360.437 128.344 360.151 129.114 360.151 130.038C360.151 130.962 360.444 131.739 361.031 132.37C361.618 133.001 362.336 133.316 363.187 133.316C363.832 133.316 364.404 133.147 364.903 132.81C365.402 132.458 365.79 131.959 366.069 131.314H369.303C369.01 132.825 368.306 134.042 367.191 134.966C366.076 135.875 364.742 136.33 363.187 136.33ZM382.613 136H378.719L374.913 130.324V136H371.701V119.83H374.913V129.4L378.477 124.12H382.195L378.169 129.774L382.613 136ZM384.048 136V119.83H387.26V136H384.048ZM399.803 134.878C398.791 135.846 397.441 136.33 395.755 136.33C394.083 136.33 392.733 135.839 391.707 134.856C390.695 133.873 390.189 132.583 390.189 130.984V124.12H393.401V130.61C393.401 131.461 393.606 132.128 394.017 132.612C394.442 133.081 395.021 133.316 395.755 133.316C396.503 133.316 397.082 133.081 397.493 132.612C397.918 132.128 398.131 131.461 398.131 130.61V124.12H401.343V130.984C401.343 132.597 400.829 133.895 399.803 134.878ZM411.041 123.834C412.39 123.834 413.453 124.289 414.231 125.198C415.023 126.093 415.419 127.295 415.419 128.806V136H412.207V129.312C412.207 127.537 411.517 126.65 410.139 126.65C409.596 126.65 409.119 126.775 408.709 127.024C408.313 127.273 408.005 127.633 407.785 128.102C407.579 128.571 407.477 129.121 407.477 129.752V136H404.265V124.12H406.465L407.103 125.594C407.323 125.315 407.572 125.073 407.851 124.868C408.144 124.648 408.459 124.465 408.797 124.318C409.134 124.157 409.486 124.039 409.853 123.966C410.234 123.878 410.63 123.834 411.041 123.834ZM427.95 124.12H430.04V134.614C430.04 135.846 429.791 136.909 429.292 137.804C428.808 138.713 428.112 139.41 427.202 139.894C426.293 140.378 425.215 140.62 423.968 140.62C422.355 140.62 421.006 140.231 419.92 139.454C418.85 138.677 418.182 137.613 417.918 136.264H421.108C421.284 136.763 421.636 137.151 422.164 137.43C422.692 137.723 423.272 137.87 423.902 137.87C424.753 137.87 425.457 137.613 426.014 137.1C426.586 136.601 426.872 135.927 426.872 135.076V134.636C425.89 135.34 424.76 135.692 423.484 135.692C422.399 135.692 421.402 135.435 420.492 134.922C419.583 134.394 418.872 133.675 418.358 132.766C417.845 131.857 417.588 130.852 417.588 129.752C417.588 128.095 418.153 126.687 419.282 125.528C420.426 124.369 421.827 123.79 423.484 123.79C425.024 123.79 426.344 124.296 427.444 125.308L427.95 124.12ZM423.858 132.832C424.738 132.832 425.464 132.546 426.036 131.974C426.608 131.387 426.894 130.647 426.894 129.752C426.894 128.872 426.608 128.146 426.036 127.574C425.479 126.987 424.753 126.694 423.858 126.694C422.993 126.694 422.274 126.987 421.702 127.574C421.13 128.146 420.844 128.872 420.844 129.752C420.844 130.647 421.123 131.387 421.68 131.974C422.252 132.546 422.978 132.832 423.858 132.832Z" fill="white"/>
<path d="M521.595 268.898H527.733V272H518.251V256.6H527.491V259.68H521.595V262.716H526.919V265.73H521.595V268.898ZM545.701 260.274V262.936H542.709V272H539.497V262.936H534.481V272H531.269V262.936H529.201V260.274H531.291V259.196C531.291 258.037 531.614 257.128 532.259 256.468C532.905 255.808 533.836 255.478 535.053 255.478H537.451V258.008H535.691C534.826 258.008 534.393 258.433 534.393 259.284V260.274H539.519V259.196C539.519 258.624 539.6 258.111 539.761 257.656C539.923 257.201 540.157 256.813 540.465 256.49C540.773 256.167 541.162 255.918 541.631 255.742C542.115 255.566 542.665 255.478 543.281 255.478H545.679V258.008H543.919C543.054 258.008 542.621 258.433 542.621 259.284V260.274H545.701ZM547.551 258.536V255.544H550.763V258.536H547.551ZM547.551 272V260.12H550.763V272H547.551ZM557.586 269.052H562.58V272H552.768V271.648L557.828 263.024H553.252V260.12H562.58V260.56L557.586 269.052ZM564.846 258.536V255.544H568.058V258.536H564.846ZM564.846 272V260.12H568.058V272H564.846ZM582.669 266.016C582.669 266.324 582.647 266.639 582.603 266.962H573.627C573.759 267.769 574.074 268.392 574.573 268.832C575.086 269.257 575.739 269.47 576.531 269.47C577.073 269.47 577.565 269.353 578.005 269.118C578.445 268.869 578.789 268.531 579.039 268.106H582.427C581.987 269.397 581.239 270.423 580.183 271.186C579.127 271.949 577.909 272.33 576.531 272.33C574.771 272.33 573.304 271.729 572.131 270.526C570.957 269.323 570.371 267.835 570.371 266.06C570.371 265.356 570.466 264.681 570.657 264.036C570.862 263.391 571.148 262.811 571.515 262.298C571.896 261.785 572.336 261.345 572.835 260.978C573.333 260.597 573.898 260.303 574.529 260.098C575.159 259.893 575.827 259.79 576.531 259.79C577.719 259.79 578.782 260.069 579.721 260.626C580.674 261.183 581.4 261.939 581.899 262.892C582.412 263.845 582.669 264.887 582.669 266.016ZM576.531 262.518C575.812 262.518 575.203 262.716 574.705 263.112C574.221 263.508 573.891 264.058 573.715 264.762H579.457C579.31 264.278 579.097 263.875 578.819 263.552C578.54 263.215 578.203 262.958 577.807 262.782C577.425 262.606 577 262.518 576.531 262.518ZM591.731 259.834C593.08 259.834 594.144 260.289 594.921 261.198C595.713 262.093 596.109 263.295 596.109 264.806V272H592.897V265.312C592.897 263.537 592.208 262.65 590.829 262.65C590.286 262.65 589.81 262.775 589.399 263.024C589.003 263.273 588.695 263.633 588.475 264.102C588.27 264.571 588.167 265.121 588.167 265.752V272H584.955V260.12H587.155L587.793 261.594C588.013 261.315 588.262 261.073 588.541 260.868C588.834 260.648 589.15 260.465 589.487 260.318C589.824 260.157 590.176 260.039 590.543 259.966C590.924 259.878 591.32 259.834 591.731 259.834ZM602.789 269.052H607.783V272H597.971V271.648L603.031 263.024H598.455V260.12H607.783V260.56L602.789 269.052Z" fill="white"/>
<path d="M750.608 135H746.538L741.104 127.476V135H737.76V119.6H741.104V126.706L746.142 119.6H750.036L744.778 126.97L750.608 135ZM758.05 123.054H759.106V126.09H757.72C756.81 126.09 756.158 126.303 755.762 126.728C755.38 127.153 755.19 127.85 755.19 128.818V135H751.978V123.12H754.046L754.618 124.572C755.424 123.56 756.568 123.054 758.05 123.054ZM772.207 129.016C772.207 129.324 772.185 129.639 772.141 129.962H763.165C763.297 130.769 763.612 131.392 764.111 131.832C764.624 132.257 765.277 132.47 766.069 132.47C766.611 132.47 767.103 132.353 767.543 132.118C767.983 131.869 768.327 131.531 768.577 131.106H771.965C771.525 132.397 770.777 133.423 769.721 134.186C768.665 134.949 767.447 135.33 766.069 135.33C764.309 135.33 762.842 134.729 761.669 133.526C760.495 132.323 759.909 130.835 759.909 129.06C759.909 128.356 760.004 127.681 760.195 127.036C760.4 126.391 760.686 125.811 761.053 125.298C761.434 124.785 761.874 124.345 762.373 123.978C762.871 123.597 763.436 123.303 764.067 123.098C764.697 122.893 765.365 122.79 766.069 122.79C767.257 122.79 768.32 123.069 769.259 123.626C770.212 124.183 770.938 124.939 771.437 125.892C771.95 126.845 772.207 127.887 772.207 129.016ZM766.069 125.518C765.35 125.518 764.741 125.716 764.243 126.112C763.759 126.508 763.429 127.058 763.253 127.762H768.995C768.848 127.278 768.635 126.875 768.357 126.552C768.078 126.215 767.741 125.958 767.345 125.782C766.963 125.606 766.538 125.518 766.069 125.518ZM784.195 123.098H786.593V134.978H784.063L783.799 133.922C782.714 134.861 781.43 135.33 779.949 135.33C778.16 135.33 776.671 134.736 775.483 133.548C774.31 132.345 773.723 130.842 773.723 129.038C773.723 127.249 774.31 125.76 775.483 124.572C776.671 123.384 778.16 122.79 779.949 122.79C781.46 122.79 782.758 123.274 783.843 124.242L784.195 123.098ZM777.881 131.37C778.497 131.986 779.267 132.294 780.191 132.294C781.13 132.294 781.907 131.986 782.523 131.37C783.139 130.754 783.447 129.977 783.447 129.038C783.447 128.099 783.139 127.322 782.523 126.706C781.907 126.09 781.137 125.782 780.213 125.782C779.597 125.782 779.04 125.929 778.541 126.222C778.057 126.501 777.676 126.889 777.397 127.388C777.118 127.872 776.979 128.422 776.979 129.038C776.979 129.977 777.28 130.754 777.881 131.37ZM795.491 132.14H796.943V135H794.677C793.811 135 793.056 134.831 792.411 134.494C791.78 134.157 791.296 133.673 790.959 133.042C790.621 132.397 790.453 131.634 790.453 130.754V125.694H788.297V125.012L793.005 120.018H793.599V123.12H796.877V125.694H793.665V130.336C793.665 130.908 793.819 131.355 794.127 131.678C794.449 131.986 794.904 132.14 795.491 132.14ZM799.136 121.536V118.544H802.348V121.536H799.136ZM799.136 135V123.12H802.348V135H799.136ZM813.219 123.12H816.563L811.833 135H808.863L804.045 123.12H807.455L810.381 131.084L813.219 123.12ZM818.278 121.536V118.544H821.49V121.536H818.278ZM818.278 135V123.12H821.49V135H818.278ZM830.381 132.14H831.833V135H829.567C828.702 135 827.947 134.831 827.301 134.494C826.671 134.157 826.187 133.673 825.849 133.042C825.512 132.397 825.343 131.634 825.343 130.754V125.694H823.187V125.012L827.895 120.018H828.489V123.12H831.767V125.694H828.555V130.336C828.555 130.908 828.709 131.355 829.017 131.678C829.34 131.986 829.795 132.14 830.381 132.14ZM839.023 118.544V121.58H835.635V118.544H839.023ZM844.105 118.544V121.58H840.695V118.544H844.105ZM843.621 123.098H846.019V134.978H843.489L843.225 133.922C842.14 134.861 840.856 135.33 839.375 135.33C837.586 135.33 836.097 134.736 834.909 133.548C833.736 132.345 833.149 130.842 833.149 129.038C833.149 127.249 833.736 125.76 834.909 124.572C836.097 123.384 837.586 122.79 839.375 122.79C840.886 122.79 842.184 123.274 843.269 124.242L843.621 123.098ZM837.307 131.37C837.923 131.986 838.693 132.294 839.617 132.294C840.556 132.294 841.333 131.986 841.949 131.37C842.565 130.754 842.873 129.977 842.873 129.038C842.873 128.099 842.565 127.322 841.949 126.706C841.333 126.09 840.563 125.782 839.639 125.782C839.023 125.782 838.466 125.929 837.967 126.222C837.483 126.501 837.102 126.889 836.823 127.388C836.544 127.872 836.405 128.422 836.405 129.038C836.405 129.977 836.706 130.754 837.307 131.37ZM854.916 132.14H856.368V135H854.102C853.237 135 852.482 134.831 851.836 134.494C851.206 134.157 850.722 133.673 850.384 133.042C850.047 132.397 849.878 131.634 849.878 130.754V125.694H847.722V125.012L852.43 120.018H853.024V123.12H856.302V125.694H853.09V130.336C853.09 130.908 853.244 131.355 853.552 131.678C853.875 131.986 854.33 132.14 854.916 132.14Z" fill="white"/>
<path d="M746.243 380.426H739.511V385.508H745.671V387.312H739.511V394H737.597V378.6H746.243V380.426ZM753.961 382.054H755.017V383.836H753.807C752.737 383.836 751.901 384.166 751.299 384.826C750.713 385.471 750.419 386.381 750.419 387.554V394H748.549V382.12H749.869L750.177 383.924C751.043 382.677 752.304 382.054 753.961 382.054ZM767.78 388.104C767.78 388.265 767.766 388.493 767.736 388.786H757.594C757.741 389.886 758.196 390.773 758.958 391.448C759.721 392.108 760.66 392.438 761.774 392.438C762.596 392.438 763.322 392.262 763.952 391.91C764.598 391.543 765.111 391.03 765.492 390.37H767.45C766.952 391.602 766.204 392.563 765.206 393.252C764.209 393.927 763.065 394.264 761.774 394.264C760.058 394.264 758.621 393.67 757.462 392.482C756.304 391.294 755.724 389.82 755.724 388.06C755.724 386.285 756.304 384.811 757.462 383.638C758.621 382.45 760.058 381.856 761.774 381.856C763.549 381.856 764.994 382.457 766.108 383.66C767.223 384.863 767.78 386.344 767.78 388.104ZM761.774 383.638C761.07 383.638 760.425 383.777 759.838 384.056C759.266 384.335 758.79 384.738 758.408 385.266C758.027 385.779 757.77 386.373 757.638 387.048H765.888C765.756 386.359 765.5 385.757 765.118 385.244C764.737 384.716 764.26 384.32 763.688 384.056C763.116 383.777 762.478 383.638 761.774 383.638ZM775.631 394.264C774.032 394.264 772.749 393.787 771.781 392.834C770.827 391.866 770.351 390.583 770.351 388.984V382.12H772.221V388.676C772.221 389.453 772.36 390.128 772.639 390.7C772.917 391.257 773.313 391.69 773.827 391.998C774.34 392.306 774.941 392.46 775.631 392.46C776.687 392.46 777.515 392.123 778.117 391.448C778.718 390.773 779.019 389.849 779.019 388.676V382.12H780.889V388.984C780.889 390.583 780.412 391.866 779.459 392.834C778.505 393.787 777.229 394.264 775.631 394.264ZM794.041 377.874H795.911V394H794.481L794.217 392.306C793.044 393.611 791.526 394.264 789.663 394.264C787.874 394.264 786.4 393.677 785.241 392.504C784.097 391.316 783.525 389.835 783.525 388.06C783.525 386.271 784.097 384.789 785.241 383.616C786.4 382.443 787.874 381.856 789.663 381.856C791.423 381.856 792.882 382.443 794.041 383.616V377.874ZM786.671 391.206C787.492 392.042 788.526 392.46 789.773 392.46C791.034 392.46 792.083 392.042 792.919 391.206C793.755 390.355 794.173 389.307 794.173 388.06C794.173 386.799 793.755 385.75 792.919 384.914C792.098 384.078 791.056 383.66 789.795 383.66C789.179 383.66 788.6 383.777 788.057 384.012C787.514 384.232 787.052 384.533 786.671 384.914C786.29 385.295 785.989 385.765 785.769 386.322C785.549 386.865 785.439 387.444 785.439 388.06C785.439 389.321 785.85 390.37 786.671 391.206ZM810.814 388.104C810.814 388.265 810.799 388.493 810.77 388.786H800.628C800.774 389.886 801.229 390.773 801.992 391.448C802.754 392.108 803.693 392.438 804.808 392.438C805.629 392.438 806.355 392.262 806.986 391.91C807.631 391.543 808.144 391.03 808.526 390.37H810.484C809.985 391.602 809.237 392.563 808.24 393.252C807.242 393.927 806.098 394.264 804.808 394.264C803.092 394.264 801.654 393.67 800.496 392.482C799.337 391.294 798.758 389.82 798.758 388.06C798.758 386.285 799.337 384.811 800.496 383.638C801.654 382.45 803.092 381.856 804.808 381.856C806.582 381.856 808.027 382.457 809.142 383.66C810.256 384.863 810.814 386.344 810.814 388.104ZM804.808 383.638C804.104 383.638 803.458 383.777 802.872 384.056C802.3 384.335 801.823 384.738 801.442 385.266C801.06 385.779 800.804 386.373 800.672 387.048H808.922C808.79 386.359 808.533 385.757 808.152 385.244C807.77 384.716 807.294 384.32 806.722 384.056C806.15 383.777 805.512 383.638 804.808 383.638ZM829.482 382.12H830.978V394H829.416L829.218 392.196C828.66 392.856 827.978 393.369 827.172 393.736C826.38 394.088 825.507 394.264 824.554 394.264C822.808 394.264 821.349 393.677 820.176 392.504C819.002 391.316 818.416 389.835 818.416 388.06C818.416 386.285 819.002 384.811 820.176 383.638C821.349 382.45 822.808 381.856 824.554 381.856C825.522 381.856 826.402 382.039 827.194 382.406C828 382.773 828.682 383.286 829.24 383.946L829.482 382.12ZM821.562 391.206C822.398 392.042 823.446 392.46 824.708 392.46C825.969 392.46 827.01 392.042 827.832 391.206C828.653 390.37 829.064 389.321 829.064 388.06C829.064 386.799 828.653 385.75 827.832 384.914C827.01 384.078 825.969 383.66 824.708 383.66C823.446 383.66 822.398 384.085 821.562 384.936C820.74 385.772 820.33 386.813 820.33 388.06C820.33 389.307 820.74 390.355 821.562 391.206ZM847.857 381.856C848.693 381.856 849.426 382.054 850.057 382.45C850.687 382.831 851.171 383.367 851.509 384.056C851.861 384.745 852.037 385.53 852.037 386.41V394H850.167V386.982C850.167 386.278 850.057 385.669 849.837 385.156C849.631 384.643 849.323 384.254 848.913 383.99C848.517 383.711 848.04 383.572 847.483 383.572C846.617 383.572 845.869 383.946 845.239 384.694C844.623 385.427 844.315 386.337 844.315 387.422V394H842.489V386.982C842.489 385.911 842.247 385.075 841.763 384.474C841.293 383.873 840.633 383.572 839.783 383.572C839.357 383.572 838.947 383.675 838.551 383.88C838.169 384.071 837.832 384.335 837.539 384.672C837.26 385.009 837.033 385.42 836.857 385.904C836.695 386.373 836.615 386.879 836.615 387.422V394H834.745V382.12H836.087L836.395 383.748C836.615 383.455 836.864 383.191 837.143 382.956C837.436 382.721 837.744 382.523 838.067 382.362C838.389 382.201 838.734 382.076 839.101 381.988C839.467 381.9 839.834 381.856 840.201 381.856C841.037 381.856 841.77 382.061 842.401 382.472C843.031 382.868 843.508 383.418 843.831 384.122C844.124 383.653 844.483 383.249 844.909 382.912C845.334 382.575 845.796 382.318 846.295 382.142C846.808 381.951 847.329 381.856 847.857 381.856ZM743.285 422L741.745 418.304H734.353L732.835 422H730.789L737.081 406.6H738.885L745.375 422H743.285ZM738.027 409.262L735.079 416.544H741.019L738.027 409.262ZM753.059 410.054H754.115V411.836H752.905C751.834 411.836 750.998 412.166 750.397 412.826C749.81 413.471 749.517 414.381 749.517 415.554V422H747.647V410.12H748.967L749.275 411.924C750.14 410.677 751.402 410.054 753.059 410.054ZM762.403 409.856C764.178 409.856 765.637 410.443 766.781 411.616C767.94 412.789 768.519 414.271 768.519 416.06C768.519 417.835 767.94 419.316 766.781 420.504C765.637 421.677 764.178 422.264 762.403 422.264C760.541 422.264 759.015 421.611 757.827 420.306L757.585 422H756.133V405.874H758.003V411.616C759.162 410.443 760.629 409.856 762.403 409.856ZM762.249 420.46C763.085 420.46 763.833 420.269 764.493 419.888C765.153 419.507 765.667 418.986 766.033 418.326C766.415 417.651 766.605 416.896 766.605 416.06C766.605 414.799 766.195 413.75 765.373 412.914C764.552 412.078 763.511 411.66 762.249 411.66C761.003 411.66 759.961 412.085 759.125 412.936C758.289 413.772 757.871 414.813 757.871 416.06C757.871 416.544 757.937 417.013 758.069 417.468C758.216 417.923 758.421 418.333 758.685 418.7C758.949 419.052 759.257 419.36 759.609 419.624C759.976 419.888 760.379 420.093 760.819 420.24C761.274 420.387 761.751 420.46 762.249 420.46ZM782.476 416.104C782.476 416.265 782.461 416.493 782.432 416.786H772.29C772.436 417.886 772.891 418.773 773.654 419.448C774.416 420.108 775.355 420.438 776.47 420.438C777.291 420.438 778.017 420.262 778.648 419.91C779.293 419.543 779.806 419.03 780.188 418.37H782.146C781.647 419.602 780.899 420.563 779.902 421.252C778.904 421.927 777.76 422.264 776.47 422.264C774.754 422.264 773.316 421.67 772.158 420.482C770.999 419.294 770.42 417.82 770.42 416.06C770.42 414.285 770.999 412.811 772.158 411.638C773.316 410.45 774.754 409.856 776.47 409.856C778.244 409.856 779.689 410.457 780.804 411.66C781.918 412.863 782.476 414.344 782.476 416.104ZM776.47 411.638C775.766 411.638 775.12 411.777 774.534 412.056C773.962 412.335 773.485 412.738 773.104 413.266C772.722 413.779 772.466 414.373 772.334 415.048H780.584C780.452 414.359 780.195 413.757 779.814 413.244C779.432 412.716 778.956 412.32 778.384 412.056C777.812 411.777 777.174 411.638 776.47 411.638ZM785.178 408.052V405.918H787.202V408.052H785.178ZM785.266 422V410.12H787.136V422H785.266ZM795.801 420.262H797.099V422H795.559C794.283 422 793.278 421.633 792.545 420.9C791.812 420.152 791.445 419.133 791.445 417.842V411.814H789.355V411.484L793.029 407.612H793.315V410.12H797.033V411.814H793.315V417.776C793.315 418.319 793.41 418.773 793.601 419.14C793.792 419.507 794.07 419.785 794.437 419.976C794.818 420.167 795.273 420.262 795.801 420.262ZM803.38 422.264C802.441 422.264 801.62 422.11 800.916 421.802C800.212 421.479 799.662 421.025 799.266 420.438C798.87 419.837 798.657 419.14 798.628 418.348H800.454C800.498 419.037 800.791 419.573 801.334 419.954C801.876 420.335 802.573 420.526 803.424 420.526C804.26 420.526 804.934 420.365 805.448 420.042C805.961 419.705 806.218 419.25 806.218 418.678C806.218 418.458 806.181 418.26 806.108 418.084C806.049 417.908 805.939 417.754 805.778 417.622C805.616 417.49 805.455 417.38 805.294 417.292C805.132 417.204 804.912 417.123 804.634 417.05C804.37 416.977 804.135 416.925 803.93 416.896C803.739 416.852 803.475 416.801 803.138 416.742C802.756 416.683 802.463 416.632 802.258 416.588C802.052 416.544 801.774 416.478 801.422 416.39C801.07 416.287 800.791 416.185 800.586 416.082C800.38 415.979 800.153 415.84 799.904 415.664C799.654 415.488 799.464 415.297 799.332 415.092C799.2 414.887 799.082 414.63 798.98 414.322C798.892 414.014 798.848 413.669 798.848 413.288C798.848 412.789 798.95 412.327 799.156 411.902C799.376 411.477 799.676 411.117 800.058 410.824C800.454 410.516 800.93 410.281 801.488 410.12C802.045 409.944 802.654 409.856 803.314 409.856C804.663 409.856 805.741 410.186 806.548 410.846C807.354 411.506 807.772 412.401 807.802 413.53H806.042C806.012 413.105 805.88 412.745 805.646 412.452C805.426 412.144 805.11 411.917 804.7 411.77C804.304 411.609 803.834 411.528 803.292 411.528C802.749 411.528 802.28 411.601 801.884 411.748C801.488 411.88 801.18 412.078 800.96 412.342C800.754 412.606 800.652 412.907 800.652 413.244C800.652 413.479 800.71 413.691 800.828 413.882C800.945 414.058 801.077 414.205 801.224 414.322C801.37 414.425 801.598 414.527 801.906 414.63C802.214 414.718 802.47 414.784 802.676 414.828C802.896 414.857 803.204 414.909 803.6 414.982C804.01 415.041 804.311 415.092 804.502 415.136C804.707 415.165 804.993 415.231 805.36 415.334C805.741 415.422 806.034 415.517 806.24 415.62C806.445 415.723 806.68 415.869 806.944 416.06C807.222 416.236 807.428 416.441 807.56 416.676C807.692 416.896 807.809 417.175 807.912 417.512C808.014 417.835 808.066 418.194 808.066 418.59C808.066 419.705 807.633 420.599 806.768 421.274C805.917 421.934 804.788 422.264 803.38 422.264ZM817.189 409.856C818.964 409.856 820.423 410.443 821.567 411.616C822.726 412.789 823.305 414.271 823.305 416.06C823.305 417.835 822.726 419.316 821.567 420.504C820.423 421.677 818.964 422.264 817.189 422.264C815.4 422.264 813.926 421.648 812.767 420.416V426.246H810.897V410.12H812.173L812.547 411.946C813.104 411.286 813.779 410.773 814.571 410.406C815.378 410.039 816.25 409.856 817.189 409.856ZM817.057 420.46C818.318 420.46 819.36 420.042 820.181 419.206C821.002 418.37 821.413 417.321 821.413 416.06C821.413 414.799 821.002 413.75 820.181 412.914C819.36 412.078 818.318 411.66 817.057 411.66C815.796 411.66 814.747 412.085 813.911 412.936C813.09 413.772 812.679 414.813 812.679 416.06C812.679 416.881 812.862 417.629 813.229 418.304C813.61 418.979 814.138 419.507 814.813 419.888C815.488 420.269 816.236 420.46 817.057 420.46ZM826.151 422V405.874H828.021V422H826.151ZM841.9 410.12H843.396V422H841.834L841.636 420.196C841.078 420.856 840.396 421.369 839.59 421.736C838.798 422.088 837.925 422.264 836.972 422.264C835.226 422.264 833.767 421.677 832.594 420.504C831.42 419.316 830.834 417.835 830.834 416.06C830.834 414.285 831.42 412.811 832.594 411.638C833.767 410.45 835.226 409.856 836.972 409.856C837.94 409.856 838.82 410.039 839.612 410.406C840.418 410.773 841.1 411.286 841.658 411.946L841.9 410.12ZM833.98 419.206C834.816 420.042 835.864 420.46 837.126 420.46C838.387 420.46 839.428 420.042 840.25 419.206C841.071 418.37 841.482 417.321 841.482 416.06C841.482 414.799 841.071 413.75 840.25 412.914C839.428 412.078 838.387 411.66 837.126 411.66C835.864 411.66 834.816 412.085 833.98 412.936C833.158 413.772 832.748 414.813 832.748 416.06C832.748 417.307 833.158 418.355 833.98 419.206ZM852.069 420.262H853.367V422H851.827C850.551 422 849.546 421.633 848.813 420.9C848.079 420.152 847.713 419.133 847.713 417.842V411.814H845.623V411.484L849.297 407.612H849.583V410.12H853.301V411.814H849.583V417.776C849.583 418.319 849.678 418.773 849.869 419.14C850.059 419.507 850.338 419.785 850.705 419.976C851.086 420.167 851.541 420.262 852.069 420.262ZM857.557 420.24H863.849V422H854.543V421.714L860.857 411.858H854.961V410.12H863.827V410.428L857.557 420.24Z" fill="white"/>
<path d="M938.536 258V242.6H941.88V258H938.536ZM951.817 245.834C953.166 245.834 954.23 246.289 955.007 247.198C955.799 248.093 956.195 249.295 956.195 250.806V258H952.983V251.312C952.983 249.537 952.294 248.65 950.915 248.65C950.372 248.65 949.896 248.775 949.485 249.024C949.089 249.273 948.781 249.633 948.561 250.102C948.356 250.571 948.253 251.121 948.253 251.752V258H945.041V246.12H947.241L947.879 247.594C948.099 247.315 948.348 247.073 948.627 246.868C948.92 246.648 949.236 246.465 949.573 246.318C949.91 246.157 950.262 246.039 950.629 245.966C951.01 245.878 951.406 245.834 951.817 245.834ZM965.911 245.834C967.26 245.834 968.323 246.289 969.101 247.198C969.893 248.093 970.289 249.295 970.289 250.806V258H967.077V251.312C967.077 249.537 966.387 248.65 965.009 248.65C964.466 248.65 963.989 248.775 963.579 249.024C963.183 249.273 962.875 249.633 962.655 250.102C962.449 250.571 962.347 251.121 962.347 251.752V258H959.135V246.12H961.335L961.973 247.594C962.193 247.315 962.442 247.073 962.721 246.868C963.014 246.648 963.329 246.465 963.667 246.318C964.004 246.157 964.356 246.039 964.723 245.966C965.104 245.878 965.5 245.834 965.911 245.834ZM978.882 258.33C977.665 258.33 976.565 258.059 975.582 257.516C974.6 256.973 973.83 256.225 973.272 255.272C972.73 254.304 972.458 253.233 972.458 252.06C972.458 250.256 973.067 248.76 974.284 247.572C975.502 246.384 977.034 245.79 978.882 245.79C980.716 245.79 982.241 246.384 983.458 247.572C984.676 248.76 985.284 250.256 985.284 252.06C985.284 253.849 984.668 255.345 983.436 256.548C982.219 257.736 980.701 258.33 978.882 258.33ZM978.882 255.316C979.806 255.316 980.562 255.015 981.148 254.414C981.735 253.798 982.028 253.013 982.028 252.06C982.028 251.107 981.735 250.329 981.148 249.728C980.562 249.112 979.799 248.804 978.86 248.804C977.936 248.804 977.181 249.112 976.594 249.728C976.008 250.329 975.714 251.107 975.714 252.06C975.714 252.529 975.788 252.969 975.934 253.38C976.096 253.791 976.316 254.135 976.594 254.414C976.873 254.693 977.203 254.913 977.584 255.074C977.98 255.235 978.413 255.316 978.882 255.316ZM994.981 246.12H998.325L993.595 258H990.625L985.807 246.12H989.217L992.143 254.084L994.981 246.12ZM1009.31 246.098H1011.71V257.978H1009.18L1008.92 256.922C1007.83 257.861 1006.55 258.33 1005.07 258.33C1003.28 258.33 1001.79 257.736 1000.6 256.548C999.428 255.345 998.841 253.842 998.841 252.038C998.841 250.249 999.428 248.76 1000.6 247.572C1001.79 246.384 1003.28 245.79 1005.07 245.79C1006.58 245.79 1007.88 246.274 1008.96 247.242L1009.31 246.098ZM1003 254.37C1003.62 254.986 1004.39 255.294 1005.31 255.294C1006.25 255.294 1007.03 254.986 1007.64 254.37C1008.26 253.754 1008.57 252.977 1008.57 252.038C1008.57 251.099 1008.26 250.322 1007.64 249.706C1007.03 249.09 1006.26 248.782 1005.33 248.782C1004.72 248.782 1004.16 248.929 1003.66 249.222C1003.18 249.501 1002.79 249.889 1002.52 250.388C1002.24 250.872 1002.1 251.422 1002.1 252.038C1002.1 252.977 1002.4 253.754 1003 254.37ZM1020.61 255.14H1022.06V258H1019.79C1018.93 258 1018.17 257.831 1017.53 257.494C1016.9 257.157 1016.41 256.673 1016.08 256.042C1015.74 255.397 1015.57 254.634 1015.57 253.754V248.694H1013.41V248.012L1018.12 243.018H1018.72V246.12H1021.99V248.694H1018.78V253.336C1018.78 253.908 1018.94 254.355 1019.24 254.678C1019.57 254.986 1020.02 255.14 1020.61 255.14ZM1024.25 244.536V241.544H1027.47V244.536H1024.25ZM1024.25 258V246.12H1027.47V258H1024.25ZM1036.2 258.33C1034.99 258.33 1033.89 258.059 1032.9 257.516C1031.92 256.973 1031.15 256.225 1030.59 255.272C1030.05 254.304 1029.78 253.233 1029.78 252.06C1029.78 250.256 1030.39 248.76 1031.6 247.572C1032.82 246.384 1034.35 245.79 1036.2 245.79C1038.04 245.79 1039.56 246.384 1040.78 247.572C1042 248.76 1042.6 250.256 1042.6 252.06C1042.6 253.849 1041.99 255.345 1040.76 256.548C1039.54 257.736 1038.02 258.33 1036.2 258.33ZM1036.2 255.316C1037.13 255.316 1037.88 255.015 1038.47 254.414C1039.06 253.798 1039.35 253.013 1039.35 252.06C1039.35 251.107 1039.06 250.329 1038.47 249.728C1037.88 249.112 1037.12 248.804 1036.18 248.804C1035.26 248.804 1034.5 249.112 1033.91 249.728C1033.33 250.329 1033.03 251.107 1033.03 252.06C1033.03 252.529 1033.11 252.969 1033.25 253.38C1033.42 253.791 1033.64 254.135 1033.91 254.414C1034.19 254.693 1034.52 254.913 1034.9 255.074C1035.3 255.235 1035.73 255.316 1036.2 255.316ZM1051.7 245.834C1053.05 245.834 1054.11 246.289 1054.89 247.198C1055.68 248.093 1056.08 249.295 1056.08 250.806V258H1052.86V251.312C1052.86 249.537 1052.17 248.65 1050.8 248.65C1050.25 248.65 1049.78 248.775 1049.37 249.024C1048.97 249.273 1048.66 249.633 1048.44 250.102C1048.24 250.571 1048.13 251.121 1048.13 251.752V258H1044.92V246.12H1047.12L1047.76 247.594C1047.98 247.315 1048.23 247.073 1048.51 246.868C1048.8 246.648 1049.12 246.465 1049.45 246.318C1049.79 246.157 1050.14 246.039 1050.51 245.966C1050.89 245.878 1051.29 245.834 1051.7 245.834ZM1073.01 241.83H1076.23V258H1073.85L1073.48 257.01C1072.42 257.905 1071.18 258.352 1069.76 258.352C1068.57 258.352 1067.5 258.081 1066.55 257.538C1065.59 256.995 1064.84 256.247 1064.3 255.294C1063.77 254.326 1063.51 253.248 1063.51 252.06C1063.51 250.872 1063.77 249.801 1064.3 248.848C1064.84 247.895 1065.59 247.147 1066.55 246.604C1067.5 246.061 1068.57 245.79 1069.76 245.79C1070.96 245.79 1072.05 246.113 1073.01 246.758V241.83ZM1067.69 254.392C1068.31 255.008 1069.08 255.316 1070 255.316C1070.94 255.316 1071.72 255.008 1072.33 254.392C1072.95 253.761 1073.26 252.984 1073.26 252.06C1073.26 251.121 1072.95 250.344 1072.33 249.728C1071.72 249.112 1070.94 248.804 1070 248.804C1069.08 248.804 1068.31 249.112 1067.69 249.728C1067.07 250.344 1066.77 251.121 1066.77 252.06C1066.77 252.999 1067.07 253.776 1067.69 254.392ZM1088.76 256.878C1087.74 257.846 1086.4 258.33 1084.71 258.33C1083.04 258.33 1081.69 257.839 1080.66 256.856C1079.65 255.873 1079.14 254.583 1079.14 252.984V246.12H1082.35V252.61C1082.35 253.461 1082.56 254.128 1082.97 254.612C1083.4 255.081 1083.98 255.316 1084.71 255.316C1085.46 255.316 1086.04 255.081 1086.45 254.612C1086.87 254.128 1087.08 253.461 1087.08 252.61V246.12H1090.3V252.984C1090.3 254.597 1089.78 255.895 1088.76 256.878ZM1099.29 246.054H1100.35V249.09H1098.96C1098.05 249.09 1097.4 249.303 1097 249.728C1096.62 250.153 1096.43 250.85 1096.43 251.818V258H1093.22V246.12H1095.29L1095.86 247.572C1096.67 246.56 1097.81 246.054 1099.29 246.054ZM1107.44 258.33C1106.27 258.33 1105.2 258.059 1104.23 257.516C1103.28 256.959 1102.52 256.196 1101.96 255.228C1101.42 254.26 1101.15 253.189 1101.15 252.016C1101.15 250.241 1101.75 248.76 1102.95 247.572C1104.16 246.384 1105.66 245.79 1107.46 245.79C1109 245.79 1110.32 246.237 1111.42 247.132C1112.52 248.012 1113.22 249.185 1113.51 250.652H1110.32C1110.06 250.08 1109.67 249.633 1109.16 249.31C1108.66 248.973 1108.09 248.804 1107.44 248.804C1106.58 248.804 1105.85 249.112 1105.26 249.728C1104.69 250.344 1104.41 251.114 1104.41 252.038C1104.41 252.962 1104.7 253.739 1105.29 254.37C1105.87 255.001 1106.59 255.316 1107.44 255.316C1108.09 255.316 1108.66 255.147 1109.16 254.81C1109.66 254.458 1110.05 253.959 1110.32 253.314H1113.56C1113.26 254.825 1112.56 256.042 1111.45 256.966C1110.33 257.875 1109 258.33 1107.44 258.33ZM1122.47 245.834C1123.82 245.834 1124.88 246.281 1125.66 247.176C1126.44 248.071 1126.82 249.273 1126.82 250.784V258H1123.61V251.312C1123.61 250.417 1123.44 249.75 1123.11 249.31C1122.78 248.87 1122.26 248.65 1121.54 248.65C1120.74 248.65 1120.09 248.929 1119.61 249.486C1119.12 250.043 1118.88 250.799 1118.88 251.752V258H1115.67V241.83H1118.88V247.22C1119.85 246.296 1121.05 245.834 1122.47 245.834ZM991.605 286H988.217L986.699 275.946L982.101 285.978H981.287L976.689 275.946L975.171 286H971.761L974.181 270.6H977.525L981.683 280.038L985.863 270.6H989.207L991.605 286ZM999.454 286.33C998.236 286.33 997.136 286.059 996.154 285.516C995.171 284.973 994.401 284.225 993.844 283.272C993.301 282.304 993.03 281.233 993.03 280.06C993.03 278.256 993.638 276.76 994.856 275.572C996.073 274.384 997.606 273.79 999.454 273.79C1001.29 273.79 1002.81 274.384 1004.03 275.572C1005.25 276.76 1005.86 278.256 1005.86 280.06C1005.86 281.849 1005.24 283.345 1004.01 284.548C1002.79 285.736 1001.27 286.33 999.454 286.33ZM999.454 283.316C1000.38 283.316 1001.13 283.015 1001.72 282.414C1002.31 281.798 1002.6 281.013 1002.6 280.06C1002.6 279.107 1002.31 278.329 1001.72 277.728C1001.13 277.112 1000.37 276.804 999.432 276.804C998.508 276.804 997.752 277.112 997.166 277.728C996.579 278.329 996.286 279.107 996.286 280.06C996.286 280.529 996.359 280.969 996.506 281.38C996.667 281.791 996.887 282.135 997.166 282.414C997.444 282.693 997.774 282.913 998.156 283.074C998.552 283.235 998.984 283.316 999.454 283.316ZM1013.81 283.14H1015.26V286H1012.99C1012.13 286 1011.37 285.831 1010.73 285.494C1010.1 285.157 1009.61 284.673 1009.28 284.042C1008.94 283.397 1008.77 282.634 1008.77 281.754V276.694H1006.61V276.012L1011.32 271.018H1011.92V274.12H1015.19V276.694H1011.98V281.336C1011.98 281.908 1012.14 282.355 1012.44 282.678C1012.77 282.986 1013.22 283.14 1013.81 283.14ZM1017.45 272.536V269.544H1020.67V272.536H1017.45ZM1017.45 286V274.12H1020.67V286H1017.45ZM1031.54 274.12H1034.88L1030.15 286H1027.18L1022.36 274.12H1025.77L1028.7 282.084L1031.54 274.12ZM1045.87 274.098H1048.27V285.978H1045.74L1045.47 284.922C1044.39 285.861 1043.1 286.33 1041.62 286.33C1039.83 286.33 1038.34 285.736 1037.16 284.548C1035.98 283.345 1035.4 281.842 1035.4 280.038C1035.4 278.249 1035.98 276.76 1037.16 275.572C1038.34 274.384 1039.83 273.79 1041.62 273.79C1043.13 273.79 1044.43 274.274 1045.52 275.242L1045.87 274.098ZM1039.55 282.37C1040.17 282.986 1040.94 283.294 1041.86 283.294C1042.8 283.294 1043.58 282.986 1044.2 282.37C1044.81 281.754 1045.12 280.977 1045.12 280.038C1045.12 279.099 1044.81 278.322 1044.2 277.706C1043.58 277.09 1042.81 276.782 1041.89 276.782C1041.27 276.782 1040.71 276.929 1040.21 277.222C1039.73 277.501 1039.35 277.889 1039.07 278.388C1038.79 278.872 1038.65 279.422 1038.65 280.038C1038.65 280.977 1038.95 281.754 1039.55 282.37ZM1057.16 283.14H1058.62V286H1056.35C1055.49 286 1054.73 285.831 1054.08 285.494C1053.45 285.157 1052.97 284.673 1052.63 284.042C1052.3 283.397 1052.13 282.634 1052.13 281.754V276.694H1049.97V276.012L1054.68 271.018H1055.27V274.12H1058.55V276.694H1055.34V281.336C1055.34 281.908 1055.49 282.355 1055.8 282.678C1056.12 282.986 1056.58 283.14 1057.16 283.14ZM1060.81 272.536V269.544H1064.02V272.536H1060.81ZM1060.81 286V274.12H1064.02V286H1060.81ZM1072.76 286.33C1071.54 286.33 1070.44 286.059 1069.46 285.516C1068.48 284.973 1067.71 284.225 1067.15 283.272C1066.61 282.304 1066.33 281.233 1066.33 280.06C1066.33 278.256 1066.94 276.76 1068.16 275.572C1069.38 274.384 1070.91 273.79 1072.76 273.79C1074.59 273.79 1076.12 274.384 1077.33 275.572C1078.55 276.76 1079.16 278.256 1079.16 280.06C1079.16 281.849 1078.54 283.345 1077.31 284.548C1076.1 285.736 1074.58 286.33 1072.76 286.33ZM1072.76 283.316C1073.68 283.316 1074.44 283.015 1075.02 282.414C1075.61 281.798 1075.9 281.013 1075.9 280.06C1075.9 279.107 1075.61 278.329 1075.02 277.728C1074.44 277.112 1073.68 276.804 1072.74 276.804C1071.81 276.804 1071.06 277.112 1070.47 277.728C1069.88 278.329 1069.59 279.107 1069.59 280.06C1069.59 280.529 1069.66 280.969 1069.81 281.38C1069.97 281.791 1070.19 282.135 1070.47 282.414C1070.75 282.693 1071.08 282.913 1071.46 283.074C1071.86 283.235 1072.29 283.316 1072.76 283.316ZM1088.25 273.834C1089.6 273.834 1090.67 274.289 1091.44 275.198C1092.24 276.093 1092.63 277.295 1092.63 278.806V286H1089.42V279.312C1089.42 277.537 1088.73 276.65 1087.35 276.65C1086.81 276.65 1086.33 276.775 1085.92 277.024C1085.53 277.273 1085.22 277.633 1085 278.102C1084.79 278.571 1084.69 279.121 1084.69 279.752V286H1081.48V274.12H1083.68L1084.32 275.594C1084.54 275.315 1084.78 275.073 1085.06 274.868C1085.36 274.648 1085.67 274.465 1086.01 274.318C1086.35 274.157 1086.7 274.039 1087.07 273.966C1087.45 273.878 1087.84 273.834 1088.25 273.834Z" fill="white"/>
<path d="M1220.05 136L1218.98 133.074H1212.84L1211.78 136H1208.26L1214.29 120.6H1217.44L1223.66 136H1220.05ZM1215.9 124.67L1213.89 130.17H1217.92L1215.9 124.67ZM1234.45 134.878C1233.43 135.846 1232.08 136.33 1230.4 136.33C1228.73 136.33 1227.38 135.839 1226.35 134.856C1225.34 133.873 1224.83 132.583 1224.83 130.984V124.12H1228.04V130.61C1228.04 131.461 1228.25 132.128 1228.66 132.612C1229.09 133.081 1229.66 133.316 1230.4 133.316C1231.15 133.316 1231.73 133.081 1232.14 132.612C1232.56 132.128 1232.77 131.461 1232.77 130.61V124.12H1235.99V130.984C1235.99 132.597 1235.47 133.895 1234.45 134.878ZM1256.16 133.14H1257.61V136H1255.32C1254.01 136 1252.99 135.626 1252.24 134.878C1251.49 134.115 1251.12 133.074 1251.12 131.754V126.694H1248.96V126.012L1253.65 121.018H1254.26V124.12H1257.54V126.694H1254.33V131.336C1254.33 131.908 1254.48 132.355 1254.79 132.678C1255.11 132.986 1255.57 133.14 1256.16 133.14ZM1243.7 128.674C1244.1 128.747 1244.39 128.806 1244.56 128.85C1244.75 128.879 1245.03 128.945 1245.4 129.048C1245.78 129.151 1246.07 129.253 1246.26 129.356C1246.46 129.459 1246.7 129.605 1246.96 129.796C1247.24 129.987 1247.44 130.192 1247.58 130.412C1247.72 130.632 1247.85 130.911 1247.95 131.248C1248.05 131.571 1248.1 131.93 1248.1 132.326C1248.1 133.543 1247.65 134.519 1246.74 135.252C1245.83 135.971 1244.63 136.33 1243.13 136.33C1241.64 136.33 1240.43 135.941 1239.52 135.164C1238.61 134.387 1238.15 133.36 1238.14 132.084H1241.26C1241.28 132.597 1241.46 132.993 1241.81 133.272C1242.18 133.536 1242.66 133.668 1243.24 133.668C1243.73 133.668 1244.13 133.565 1244.45 133.36C1244.77 133.155 1244.94 132.861 1244.94 132.48C1244.94 132.289 1244.88 132.121 1244.76 131.974C1244.66 131.827 1244.49 131.71 1244.25 131.622C1244.02 131.519 1243.78 131.439 1243.55 131.38C1243.32 131.321 1243.01 131.263 1242.65 131.204C1242.16 131.131 1241.76 131.057 1241.44 130.984C1241.13 130.911 1240.76 130.786 1240.32 130.61C1239.89 130.419 1239.55 130.207 1239.28 129.972C1239.03 129.737 1238.81 129.415 1238.62 129.004C1238.43 128.593 1238.34 128.117 1238.34 127.574C1238.34 126.459 1238.78 125.55 1239.66 124.846C1240.54 124.142 1241.69 123.79 1243.11 123.79C1244.55 123.79 1245.7 124.157 1246.56 124.89C1247.44 125.609 1247.88 126.562 1247.88 127.75H1244.83C1244.83 126.811 1244.23 126.342 1243.04 126.342C1242.55 126.342 1242.16 126.445 1241.88 126.65C1241.6 126.855 1241.46 127.134 1241.46 127.486C1241.46 127.633 1241.5 127.772 1241.57 127.904C1241.66 128.021 1241.75 128.117 1241.86 128.19C1241.97 128.263 1242.15 128.337 1242.38 128.41C1242.62 128.469 1242.82 128.513 1242.98 128.542C1243.14 128.571 1243.38 128.615 1243.7 128.674ZM1269.66 124.098H1272.06V135.978H1269.53L1269.27 134.922C1268.18 135.861 1266.9 136.33 1265.42 136.33C1263.63 136.33 1262.14 135.736 1260.95 134.548C1259.78 133.345 1259.19 131.842 1259.19 130.038C1259.19 128.249 1259.78 126.76 1260.95 125.572C1262.14 124.384 1263.63 123.79 1265.42 123.79C1266.93 123.79 1268.23 124.274 1269.31 125.242L1269.66 124.098ZM1263.35 132.37C1263.97 132.986 1264.74 133.294 1265.66 133.294C1266.6 133.294 1267.38 132.986 1267.99 132.37C1268.61 131.754 1268.92 130.977 1268.92 130.038C1268.92 129.099 1268.61 128.322 1267.99 127.706C1267.38 127.09 1266.61 126.782 1265.68 126.782C1265.07 126.782 1264.51 126.929 1264.01 127.222C1263.53 127.501 1263.15 127.889 1262.87 128.388C1262.59 128.872 1262.45 129.422 1262.45 130.038C1262.45 130.977 1262.75 131.754 1263.35 132.37ZM1284.61 134.878C1283.6 135.846 1282.25 136.33 1280.56 136.33C1278.89 136.33 1277.54 135.839 1276.52 134.856C1275.5 133.873 1275 132.583 1275 130.984V124.12H1278.21V130.61C1278.21 131.461 1278.42 132.128 1278.83 132.612C1279.25 133.081 1279.83 133.316 1280.56 133.316C1281.31 133.316 1281.89 133.081 1282.3 132.612C1282.73 132.128 1282.94 131.461 1282.94 130.61V124.12H1286.15V130.984C1286.15 132.597 1285.64 133.895 1284.61 134.878ZM1293.3 136.33C1292.32 136.33 1291.44 136.154 1290.68 135.802C1289.93 135.45 1289.35 134.951 1288.92 134.306C1288.51 133.661 1288.3 132.92 1288.3 132.084H1291.43C1291.44 132.436 1291.53 132.737 1291.69 132.986C1291.87 133.221 1292.1 133.397 1292.4 133.514C1292.69 133.617 1293.03 133.668 1293.41 133.668C1293.72 133.668 1293.99 133.624 1294.24 133.536C1294.49 133.448 1294.7 133.316 1294.86 133.14C1295.02 132.949 1295.1 132.729 1295.1 132.48C1295.1 132.113 1294.91 131.842 1294.53 131.666C1294.15 131.49 1293.58 131.336 1292.81 131.204C1292.33 131.131 1291.93 131.057 1291.6 130.984C1291.3 130.911 1290.92 130.786 1290.48 130.61C1290.06 130.419 1289.71 130.207 1289.45 129.972C1289.2 129.737 1288.98 129.415 1288.79 129.004C1288.6 128.593 1288.5 128.117 1288.5 127.574C1288.5 126.459 1288.94 125.55 1289.82 124.846C1290.7 124.142 1291.85 123.79 1293.28 123.79C1294.71 123.79 1295.86 124.157 1296.73 124.89C1297.61 125.609 1298.05 126.562 1298.05 127.75H1294.99C1294.99 126.811 1294.4 126.342 1293.21 126.342C1292.71 126.342 1292.32 126.445 1292.04 126.65C1291.77 126.855 1291.63 127.134 1291.63 127.486C1291.63 127.633 1291.66 127.772 1291.74 127.904C1291.82 128.021 1291.92 128.117 1292.02 128.19C1292.14 128.263 1292.32 128.337 1292.55 128.41C1292.78 128.469 1292.98 128.513 1293.14 128.542C1293.31 128.571 1293.55 128.615 1293.87 128.674C1294.15 128.733 1294.35 128.777 1294.46 128.806C1294.58 128.821 1294.78 128.857 1295.06 128.916C1295.34 128.975 1295.54 129.033 1295.67 129.092C1295.82 129.136 1296.01 129.202 1296.25 129.29C1296.5 129.378 1296.68 129.473 1296.8 129.576C1296.93 129.664 1297.08 129.774 1297.26 129.906C1297.45 130.038 1297.6 130.185 1297.7 130.346C1297.8 130.507 1297.9 130.683 1298.01 130.874C1298.11 131.065 1298.17 131.285 1298.2 131.534C1298.25 131.783 1298.27 132.047 1298.27 132.326C1298.27 133.543 1297.82 134.519 1296.91 135.252C1296 135.971 1294.79 136.33 1293.3 136.33ZM1306.15 136.33C1304.98 136.33 1303.91 136.059 1302.94 135.516C1301.99 134.959 1301.23 134.196 1300.68 133.228C1300.13 132.26 1299.86 131.189 1299.86 130.016C1299.86 128.241 1300.46 126.76 1301.67 125.572C1302.87 124.384 1304.37 123.79 1306.18 123.79C1307.72 123.79 1309.04 124.237 1310.14 125.132C1311.24 126.012 1311.93 127.185 1312.23 128.652H1309.04C1308.77 128.08 1308.38 127.633 1307.87 127.31C1307.37 126.973 1306.8 126.804 1306.15 126.804C1305.29 126.804 1304.56 127.112 1303.98 127.728C1303.4 128.344 1303.12 129.114 1303.12 130.038C1303.12 130.962 1303.41 131.739 1304 132.37C1304.59 133.001 1305.3 133.316 1306.15 133.316C1306.8 133.316 1307.37 133.147 1307.87 132.81C1308.37 132.458 1308.76 131.959 1309.04 131.314H1312.27C1311.98 132.825 1311.27 134.042 1310.16 134.966C1309.04 135.875 1307.71 136.33 1306.15 136.33ZM1321.18 123.834C1322.53 123.834 1323.59 124.281 1324.37 125.176C1325.15 126.071 1325.54 127.273 1325.54 128.784V136H1322.32V129.312C1322.32 128.417 1322.16 127.75 1321.82 127.31C1321.5 126.87 1320.98 126.65 1320.26 126.65C1319.45 126.65 1318.8 126.929 1318.32 127.486C1317.84 128.043 1317.59 128.799 1317.59 129.752V136H1314.38V119.83H1317.59V125.22C1318.56 124.296 1319.76 123.834 1321.18 123.834Z" fill="white"/>
<path d="M1210.51 400.948H1218.72C1218.71 403.383 1217.96 405.392 1216.5 406.976C1215.03 408.545 1213.15 409.33 1210.84 409.33C1208.57 409.33 1206.67 408.575 1205.15 407.064C1203.64 405.539 1202.88 403.625 1202.88 401.322C1202.88 399.005 1203.63 397.083 1205.12 395.558C1206.62 394.033 1208.5 393.27 1210.78 393.27C1212.7 393.27 1214.38 393.82 1215.82 394.92C1217.25 396.005 1218.15 397.413 1218.5 399.144H1215.07C1214.85 398.587 1214.53 398.11 1214.12 397.714C1213.71 397.303 1213.22 396.988 1212.65 396.768C1212.09 396.548 1211.49 396.438 1210.84 396.438C1209.48 396.438 1208.37 396.893 1207.52 397.802C1206.67 398.711 1206.25 399.885 1206.25 401.322C1206.25 402.261 1206.44 403.097 1206.82 403.83C1207.2 404.563 1207.73 405.135 1208.42 405.546C1209.13 405.957 1209.93 406.162 1210.84 406.162C1211.5 406.162 1212.13 406.052 1212.71 405.832C1213.3 405.612 1213.8 405.304 1214.21 404.908C1214.64 404.497 1214.94 404.035 1215.13 403.522H1210.51V400.948ZM1232.6 403.016C1232.6 403.324 1232.58 403.639 1232.53 403.962H1223.56C1223.69 404.769 1224 405.392 1224.5 405.832C1225.02 406.257 1225.67 406.47 1226.46 406.47C1227 406.47 1227.5 406.353 1227.94 406.118C1228.38 405.869 1228.72 405.531 1228.97 405.106H1232.36C1231.92 406.397 1231.17 407.423 1230.11 408.186C1229.06 408.949 1227.84 409.33 1226.46 409.33C1224.7 409.33 1223.23 408.729 1222.06 407.526C1220.89 406.323 1220.3 404.835 1220.3 403.06C1220.3 402.356 1220.4 401.681 1220.59 401.036C1220.79 400.391 1221.08 399.811 1221.45 399.298C1221.83 398.785 1222.27 398.345 1222.77 397.978C1223.26 397.597 1223.83 397.303 1224.46 397.098C1225.09 396.893 1225.76 396.79 1226.46 396.79C1227.65 396.79 1228.71 397.069 1229.65 397.626C1230.6 398.183 1231.33 398.939 1231.83 399.892C1232.34 400.845 1232.6 401.887 1232.6 403.016ZM1226.46 399.518C1225.74 399.518 1225.13 399.716 1224.64 400.112C1224.15 400.508 1223.82 401.058 1223.65 401.762H1229.39C1229.24 401.278 1229.03 400.875 1228.75 400.552C1228.47 400.215 1228.13 399.958 1227.74 399.782C1227.36 399.606 1226.93 399.518 1226.46 399.518ZM1239.11 409.33C1238.13 409.33 1237.25 409.154 1236.49 408.802C1235.74 408.45 1235.16 407.951 1234.73 407.306C1234.32 406.661 1234.12 405.92 1234.12 405.084H1237.24C1237.25 405.436 1237.34 405.737 1237.5 405.986C1237.68 406.221 1237.91 406.397 1238.21 406.514C1238.5 406.617 1238.84 406.668 1239.22 406.668C1239.53 406.668 1239.81 406.624 1240.06 406.536C1240.31 406.448 1240.51 406.316 1240.67 406.14C1240.83 405.949 1240.91 405.729 1240.91 405.48C1240.91 405.113 1240.72 404.842 1240.34 404.666C1239.96 404.49 1239.39 404.336 1238.63 404.204C1238.14 404.131 1237.74 404.057 1237.42 403.984C1237.11 403.911 1236.73 403.786 1236.29 403.61C1235.87 403.419 1235.52 403.207 1235.26 402.972C1235.01 402.737 1234.79 402.415 1234.6 402.004C1234.41 401.593 1234.31 401.117 1234.31 400.574C1234.31 399.459 1234.75 398.55 1235.63 397.846C1236.51 397.142 1237.67 396.79 1239.09 396.79C1240.53 396.79 1241.68 397.157 1242.54 397.89C1243.42 398.609 1243.86 399.562 1243.86 400.75H1240.8C1240.8 399.811 1240.21 399.342 1239.02 399.342C1238.52 399.342 1238.13 399.445 1237.86 399.65C1237.58 399.855 1237.44 400.134 1237.44 400.486C1237.44 400.633 1237.47 400.772 1237.55 400.904C1237.64 401.021 1237.73 401.117 1237.83 401.19C1237.95 401.263 1238.13 401.337 1238.36 401.41C1238.6 401.469 1238.79 401.513 1238.96 401.542C1239.12 401.571 1239.36 401.615 1239.68 401.674C1239.96 401.733 1240.16 401.777 1240.28 401.806C1240.39 401.821 1240.59 401.857 1240.87 401.916C1241.15 401.975 1241.35 402.033 1241.49 402.092C1241.63 402.136 1241.82 402.202 1242.06 402.29C1242.31 402.378 1242.49 402.473 1242.61 402.576C1242.74 402.664 1242.89 402.774 1243.07 402.906C1243.26 403.038 1243.41 403.185 1243.51 403.346C1243.61 403.507 1243.72 403.683 1243.82 403.874C1243.92 404.065 1243.99 404.285 1244.02 404.534C1244.06 404.783 1244.08 405.047 1244.08 405.326C1244.08 406.543 1243.63 407.519 1242.72 408.252C1241.81 408.971 1240.61 409.33 1239.11 409.33ZM1255.9 407.878C1254.89 408.846 1253.54 409.33 1251.86 409.33C1250.18 409.33 1248.83 408.839 1247.81 407.856C1246.8 406.873 1246.29 405.583 1246.29 403.984V397.12H1249.5V403.61C1249.5 404.461 1249.71 405.128 1250.12 405.612C1250.54 406.081 1251.12 406.316 1251.86 406.316C1252.6 406.316 1253.18 406.081 1253.59 405.612C1254.02 405.128 1254.23 404.461 1254.23 403.61V397.12H1257.44V403.984C1257.44 405.597 1256.93 406.895 1255.9 407.878ZM1267.14 396.834C1268.49 396.834 1269.55 397.289 1270.33 398.198C1271.12 399.093 1271.52 400.295 1271.52 401.806V409H1268.31V402.312C1268.31 400.537 1267.62 399.65 1266.24 399.65C1265.7 399.65 1265.22 399.775 1264.81 400.024C1264.41 400.273 1264.11 400.633 1263.89 401.102C1263.68 401.571 1263.58 402.121 1263.58 402.752V409H1260.37V397.12H1262.57L1263.2 398.594C1263.42 398.315 1263.67 398.073 1263.95 397.868C1264.25 397.648 1264.56 397.465 1264.9 397.318C1265.24 397.157 1265.59 397.039 1265.95 396.966C1266.34 396.878 1266.73 396.834 1267.14 396.834ZM1283.19 392.83H1286.41V409H1284.03L1283.66 408.01C1282.6 408.905 1281.36 409.352 1279.94 409.352C1278.75 409.352 1277.68 409.081 1276.73 408.538C1275.77 407.995 1275.02 407.247 1274.48 406.294C1273.95 405.326 1273.69 404.248 1273.69 403.06C1273.69 401.872 1273.95 400.801 1274.48 399.848C1275.02 398.895 1275.77 398.147 1276.73 397.604C1277.68 397.061 1278.75 396.79 1279.94 396.79C1281.14 396.79 1282.23 397.113 1283.19 397.758V392.83ZM1277.87 405.392C1278.49 406.008 1279.26 406.316 1280.18 406.316C1281.12 406.316 1281.9 406.008 1282.51 405.392C1283.13 404.761 1283.44 403.984 1283.44 403.06C1283.44 402.121 1283.13 401.344 1282.51 400.728C1281.9 400.112 1281.12 399.804 1280.18 399.804C1279.26 399.804 1278.49 400.112 1277.87 400.728C1277.25 401.344 1276.95 402.121 1276.95 403.06C1276.95 403.999 1277.25 404.776 1277.87 405.392ZM1296.28 396.834C1297.62 396.834 1298.69 397.281 1299.47 398.176C1300.24 399.071 1300.63 400.273 1300.63 401.784V409H1297.42V402.312C1297.42 401.417 1297.25 400.75 1296.91 400.31C1296.59 399.87 1296.07 399.65 1295.35 399.65C1294.54 399.65 1293.9 399.929 1293.42 400.486C1292.93 401.043 1292.69 401.799 1292.69 402.752V409H1289.48V392.83H1292.69V398.22C1293.66 397.296 1294.85 396.834 1296.28 396.834ZM1315.1 403.016C1315.1 403.324 1315.08 403.639 1315.03 403.962H1306.06C1306.19 404.769 1306.5 405.392 1307 405.832C1307.52 406.257 1308.17 406.47 1308.96 406.47C1309.5 406.47 1310 406.353 1310.44 406.118C1310.88 405.869 1311.22 405.531 1311.47 405.106H1314.86C1314.42 406.397 1313.67 407.423 1312.61 408.186C1311.56 408.949 1310.34 409.33 1308.96 409.33C1307.2 409.33 1305.73 408.729 1304.56 407.526C1303.39 406.323 1302.8 404.835 1302.8 403.06C1302.8 402.356 1302.9 401.681 1303.09 401.036C1303.29 400.391 1303.58 399.811 1303.95 399.298C1304.33 398.785 1304.77 398.345 1305.27 397.978C1305.76 397.597 1306.33 397.303 1306.96 397.098C1307.59 396.893 1308.26 396.79 1308.96 396.79C1310.15 396.79 1311.21 397.069 1312.15 397.626C1313.1 398.183 1313.83 398.939 1314.33 399.892C1314.84 400.845 1315.1 401.887 1315.1 403.016ZM1308.96 399.518C1308.24 399.518 1307.63 399.716 1307.14 400.112C1306.65 400.508 1306.32 401.058 1306.15 401.762H1311.89C1311.74 401.278 1311.53 400.875 1311.25 400.552C1310.97 400.215 1310.63 399.958 1310.24 399.782C1309.86 399.606 1309.43 399.518 1308.96 399.518ZM1317.39 395.536V392.544H1320.6V395.536H1317.39ZM1317.39 409V397.12H1320.6V409H1317.39ZM1329.49 406.14H1330.94V409H1328.67C1327.81 409 1327.05 408.831 1326.41 408.494C1325.78 408.157 1325.29 407.673 1324.96 407.042C1324.62 406.397 1324.45 405.634 1324.45 404.754V399.694H1322.29V399.012L1327 394.018H1327.6V397.12H1330.87V399.694H1327.66V404.336C1327.66 404.908 1327.82 405.355 1328.12 405.678C1328.45 405.986 1328.9 406.14 1329.49 406.14Z" fill="white"/>
<path d="M279.792 404.898H285.93V408H276.448V392.6H285.688V395.68H279.792V398.716H285.116V401.73H279.792V404.898ZM288.496 394.536V391.544H291.708V394.536H288.496ZM288.496 408V396.12H291.708V408H288.496ZM301.567 395.834C302.916 395.834 303.98 396.289 304.757 397.198C305.549 398.093 305.945 399.295 305.945 400.806V408H302.733V401.312C302.733 399.537 302.044 398.65 300.665 398.65C300.122 398.65 299.646 398.775 299.235 399.024C298.839 399.273 298.531 399.633 298.311 400.102C298.106 400.571 298.003 401.121 298.003 401.752V408H294.791V396.12H296.991L297.629 397.594C297.849 397.315 298.098 397.073 298.377 396.868C298.67 396.648 298.986 396.465 299.323 396.318C299.66 396.157 300.012 396.039 300.379 395.966C300.76 395.878 301.156 395.834 301.567 395.834ZM324.328 392.6V395.702H320.038V408H316.694V395.702H312.426V392.6H324.328ZM329.894 404.898H336.032V408H326.55V392.6H335.79V395.68H329.894V398.716H335.218V401.73H329.894V404.898ZM349.069 408L347.991 405.074H341.853L340.797 408H337.277L343.305 392.6H346.451L352.677 408H349.069ZM344.911 396.67L342.909 402.17H346.935L344.911 396.67ZM373.506 408H370.118L368.6 397.946L364.002 407.978H363.188L358.59 397.946L357.072 408H353.662L356.082 392.6H359.426L363.584 402.038L367.764 392.6H371.108L373.506 408Z" fill="white"/>
<path d="M38.2937 258.65H34.9057L33.1017 256.582C31.987 257.081 30.7844 257.33 29.4937 257.33C27.147 257.33 25.189 256.567 23.6197 255.042C22.065 253.502 21.2877 251.588 21.2877 249.3C21.2877 247.012 22.065 245.105 23.6197 243.58C25.189 242.04 27.147 241.27 29.4937 241.27C31.8404 241.27 33.791 242.033 35.3457 243.558C36.9004 245.083 37.6777 246.997 37.6777 249.3C37.6777 250.459 37.465 251.537 37.0397 252.534C36.6144 253.531 36.0204 254.397 35.2577 255.13L38.2937 258.65ZM29.4937 254.184C29.9777 254.184 30.4397 254.125 30.8797 254.008L27.8217 250.466H31.2097L33.0797 252.622C33.901 251.713 34.3117 250.605 34.3117 249.3C34.3117 247.907 33.8497 246.748 32.9257 245.824C32.0164 244.885 30.8724 244.416 29.4937 244.416C28.1297 244.416 26.9784 244.885 26.0397 245.824C25.1157 246.748 24.6537 247.907 24.6537 249.3C24.6537 250.693 25.1157 251.859 26.0397 252.798C26.9784 253.722 28.1297 254.184 29.4937 254.184ZM49.584 255.878C48.572 256.846 47.2227 257.33 45.536 257.33C43.864 257.33 42.5147 256.839 41.488 255.856C40.476 254.873 39.97 253.583 39.97 251.984V245.12H43.182V251.61C43.182 252.461 43.3873 253.128 43.798 253.612C44.2233 254.081 44.8027 254.316 45.536 254.316C46.284 254.316 46.8633 254.081 47.274 253.612C47.6993 253.128 47.912 252.461 47.912 251.61V245.12H51.124V251.984C51.124 253.597 50.6107 254.895 49.584 255.878ZM63.7479 245.098H66.1459V256.978H63.6159L63.3519 255.922C62.2665 256.861 60.9832 257.33 59.5019 257.33C57.7125 257.33 56.2239 256.736 55.0359 255.548C53.8625 254.345 53.2759 252.842 53.2759 251.038C53.2759 249.249 53.8625 247.76 55.0359 246.572C56.2239 245.384 57.7125 244.79 59.5019 244.79C61.0125 244.79 62.3105 245.274 63.3959 246.242L63.7479 245.098ZM57.4339 253.37C58.0499 253.986 58.8199 254.294 59.7439 254.294C60.6825 254.294 61.4599 253.986 62.0759 253.37C62.6919 252.754 62.9999 251.977 62.9999 251.038C62.9999 250.099 62.6919 249.322 62.0759 248.706C61.4599 248.09 60.6899 247.782 59.7659 247.782C59.1499 247.782 58.5925 247.929 58.0939 248.222C57.6099 248.501 57.2285 248.889 56.9499 249.388C56.6712 249.872 56.5319 250.422 56.5319 251.038C56.5319 251.977 56.8325 252.754 57.4339 253.37ZM69.2353 257V240.83H72.4473V257H69.2353ZM75.5302 243.536V240.544H78.7422V243.536H75.5302ZM75.5302 257V245.12H78.7422V257H75.5302ZM87.6332 254.14H89.0852V257H86.8192C85.9538 257 85.1985 256.831 84.5532 256.494C83.9225 256.157 83.4385 255.673 83.1012 255.042C82.7638 254.397 82.5952 253.634 82.5952 252.754V247.694H80.4392V247.012L85.1472 242.018H85.7412V245.12H89.0192V247.694H85.8072V252.336C85.8072 252.908 85.9612 253.355 86.2692 253.678C86.5918 253.986 87.0465 254.14 87.6332 254.14ZM96.2749 240.544V243.58H92.8869V240.544H96.2749ZM101.357 240.544V243.58H97.9469V240.544H101.357ZM100.873 245.098H103.271V256.978H100.741L100.477 255.922C99.3915 256.861 98.1082 257.33 96.6269 257.33C94.8375 257.33 93.3489 256.736 92.1609 255.548C90.9875 254.345 90.4009 252.842 90.4009 251.038C90.4009 249.249 90.9875 247.76 92.1609 246.572C93.3489 245.384 94.8375 244.79 96.6269 244.79C98.1375 244.79 99.4355 245.274 100.521 246.242L100.873 245.098ZM94.5589 253.37C95.1749 253.986 95.9449 254.294 96.8689 254.294C97.8075 254.294 98.5849 253.986 99.2009 253.37C99.8169 252.754 100.125 251.977 100.125 251.038C100.125 250.099 99.8169 249.322 99.2009 248.706C98.5849 248.09 97.8149 247.782 96.8909 247.782C96.2749 247.782 95.7175 247.929 95.2189 248.222C94.7349 248.501 94.3535 248.889 94.0749 249.388C93.7962 249.872 93.6569 250.422 93.6569 251.038C93.6569 251.977 93.9575 252.754 94.5589 253.37ZM112.168 254.14H113.62V257H111.354C110.489 257 109.734 256.831 109.088 256.494C108.458 256.157 107.974 255.673 107.636 255.042C107.299 254.397 107.13 253.634 107.13 252.754V247.694H104.974V247.012L109.682 242.018H110.276V245.12H113.554V247.694H110.342V252.336C110.342 252.908 110.496 253.355 110.804 253.678C111.127 253.986 111.582 254.14 112.168 254.14ZM130.537 255.878C129.525 256.846 128.176 257.33 126.489 257.33C124.817 257.33 123.468 256.839 122.441 255.856C121.429 254.873 120.923 253.583 120.923 251.984V245.12H124.135V251.61C124.135 252.461 124.34 253.128 124.751 253.612C125.176 254.081 125.756 254.316 126.489 254.316C127.237 254.316 127.816 254.081 128.227 253.612C128.652 253.128 128.865 252.461 128.865 251.61V245.12H132.077V251.984C132.077 253.597 131.564 254.895 130.537 255.878ZM141.775 244.834C143.124 244.834 144.188 245.289 144.965 246.198C145.757 247.093 146.153 248.295 146.153 249.806V257H142.941V250.312C142.941 248.537 142.252 247.65 140.873 247.65C140.33 247.65 139.854 247.775 139.443 248.024C139.047 248.273 138.739 248.633 138.519 249.102C138.314 249.571 138.211 250.121 138.211 250.752V257H134.999V245.12H137.199L137.837 246.594C138.057 246.315 138.306 246.073 138.585 245.868C138.878 245.648 139.194 245.465 139.531 245.318C139.868 245.157 140.22 245.039 140.587 244.966C140.968 244.878 141.364 244.834 141.775 244.834ZM157.827 240.83H161.039V257H158.663L158.289 256.01C157.233 256.905 155.993 257.352 154.571 257.352C153.383 257.352 152.312 257.081 151.359 256.538C150.405 255.995 149.657 255.247 149.115 254.294C148.587 253.326 148.323 252.248 148.323 251.06C148.323 249.872 148.587 248.801 149.115 247.848C149.657 246.895 150.405 246.147 151.359 245.604C152.312 245.061 153.383 244.79 154.571 244.79C155.773 244.79 156.859 245.113 157.827 245.758V240.83ZM152.503 253.392C153.119 254.008 153.889 254.316 154.813 254.316C155.751 254.316 156.529 254.008 157.145 253.392C157.761 252.761 158.069 251.984 158.069 251.06C158.069 250.121 157.761 249.344 157.145 248.728C156.529 248.112 155.751 247.804 154.813 247.804C153.889 247.804 153.119 248.112 152.503 248.728C151.887 249.344 151.579 250.121 151.579 251.06C151.579 251.999 151.887 252.776 152.503 253.392ZM37.208 272.702H31.356V276.09H36.636V279.104H31.356V285H28.012V269.6H37.208V272.702ZM49.074 273.098H51.472V284.978H48.942L48.678 283.922C47.5927 284.861 46.3094 285.33 44.828 285.33C43.0387 285.33 41.55 284.736 40.362 283.548C39.1887 282.345 38.602 280.842 38.602 279.038C38.602 277.249 39.1887 275.76 40.362 274.572C41.55 273.384 43.0387 272.79 44.828 272.79C46.3387 272.79 47.6367 273.274 48.722 274.242L49.074 273.098ZM42.76 281.37C43.376 281.986 44.146 282.294 45.07 282.294C46.0087 282.294 46.786 281.986 47.402 281.37C48.018 280.754 48.326 279.977 48.326 279.038C48.326 278.099 48.018 277.322 47.402 276.706C46.786 276.09 46.016 275.782 45.092 275.782C44.476 275.782 43.9187 275.929 43.42 276.222C42.936 276.501 42.5547 276.889 42.276 277.388C41.9974 277.872 41.858 278.422 41.858 279.038C41.858 279.977 42.1587 280.754 42.76 281.37ZM60.0835 285.33C58.9102 285.33 57.8395 285.059 56.8715 284.516C55.9182 283.959 55.1628 283.196 54.6055 282.228C54.0628 281.26 53.7915 280.189 53.7915 279.016C53.7915 277.241 54.3928 275.76 55.5955 274.572C56.7982 273.384 58.3015 272.79 60.1055 272.79C61.6455 272.79 62.9655 273.237 64.0655 274.132C65.1655 275.012 65.8622 276.185 66.1555 277.652H62.9655C62.7015 277.08 62.3128 276.633 61.7995 276.31C61.3008 275.973 60.7288 275.804 60.0835 275.804C59.2182 275.804 58.4922 276.112 57.9055 276.728C57.3335 277.344 57.0475 278.114 57.0475 279.038C57.0475 279.962 57.3408 280.739 57.9275 281.37C58.5142 282.001 59.2328 282.316 60.0835 282.316C60.7288 282.316 61.3008 282.147 61.7995 281.81C62.2982 281.458 62.6868 280.959 62.9655 280.314H66.1995C65.9062 281.825 65.2022 283.042 64.0875 283.966C62.9728 284.875 61.6382 285.33 60.0835 285.33ZM75.1095 272.834C76.4588 272.834 77.5222 273.281 78.2995 274.176C79.0768 275.071 79.4655 276.273 79.4655 277.784V285H76.2535V278.312C76.2535 277.417 76.0848 276.75 75.7475 276.31C75.4248 275.87 74.9042 275.65 74.1855 275.65C73.3788 275.65 72.7335 275.929 72.2495 276.486C71.7655 277.043 71.5235 277.799 71.5235 278.752V285H68.3115V268.83H71.5235V274.22C72.4915 273.296 73.6868 272.834 75.1095 272.834ZM96.0274 273.12H99.2174L95.3234 285H92.7494L90.0434 278.862L87.4034 285H84.8294L80.8914 273.12H84.1694L86.5014 280.204L89.6034 273.208H90.5054L93.6954 280.226L96.0274 273.12ZM100.968 271.536V268.544H104.18V271.536H100.968ZM100.968 285V273.12H104.18V285H100.968ZM111.487 285.33C110.504 285.33 109.631 285.154 108.869 284.802C108.121 284.45 107.534 283.951 107.109 283.306C106.698 282.661 106.493 281.92 106.493 281.084H109.617C109.631 281.436 109.719 281.737 109.881 281.986C110.057 282.221 110.291 282.397 110.585 282.514C110.878 282.617 111.215 282.668 111.597 282.668C111.905 282.668 112.183 282.624 112.433 282.536C112.682 282.448 112.887 282.316 113.049 282.14C113.21 281.949 113.291 281.729 113.291 281.48C113.291 281.113 113.1 280.842 112.719 280.666C112.337 280.49 111.765 280.336 111.003 280.204C110.519 280.131 110.115 280.057 109.793 279.984C109.485 279.911 109.111 279.786 108.671 279.61C108.245 279.419 107.901 279.207 107.637 278.972C107.387 278.737 107.167 278.415 106.977 278.004C106.786 277.593 106.691 277.117 106.691 276.574C106.691 275.459 107.131 274.55 108.011 273.846C108.891 273.142 110.042 272.79 111.465 272.79C112.902 272.79 114.053 273.157 114.919 273.89C115.799 274.609 116.239 275.562 116.239 276.75H113.181C113.181 275.811 112.587 275.342 111.399 275.342C110.9 275.342 110.511 275.445 110.233 275.65C109.954 275.855 109.815 276.134 109.815 276.486C109.815 276.633 109.851 276.772 109.925 276.904C110.013 277.021 110.108 277.117 110.211 277.19C110.328 277.263 110.504 277.337 110.739 277.41C110.973 277.469 111.171 277.513 111.333 277.542C111.494 277.571 111.736 277.615 112.059 277.674C112.337 277.733 112.535 277.777 112.653 277.806C112.77 277.821 112.968 277.857 113.247 277.916C113.525 277.975 113.731 278.033 113.863 278.092C114.009 278.136 114.2 278.202 114.435 278.29C114.684 278.378 114.867 278.473 114.985 278.576C115.117 278.664 115.271 278.774 115.447 278.906C115.637 279.038 115.784 279.185 115.887 279.346C115.989 279.507 116.092 279.683 116.195 279.874C116.297 280.065 116.363 280.285 116.393 280.534C116.437 280.783 116.459 281.047 116.459 281.326C116.459 282.543 116.004 283.519 115.095 284.252C114.185 284.971 112.983 285.33 111.487 285.33ZM123.045 285.33C122.063 285.33 121.19 285.154 120.427 284.802C119.679 284.45 119.093 283.951 118.667 283.306C118.257 282.661 118.051 281.92 118.051 281.084H121.175C121.19 281.436 121.278 281.737 121.439 281.986C121.615 282.221 121.85 282.397 122.143 282.514C122.437 282.617 122.774 282.668 123.155 282.668C123.463 282.668 123.742 282.624 123.991 282.536C124.241 282.448 124.446 282.316 124.607 282.14C124.769 281.949 124.849 281.729 124.849 281.48C124.849 281.113 124.659 280.842 124.277 280.666C123.896 280.49 123.324 280.336 122.561 280.204C122.077 280.131 121.674 280.057 121.351 279.984C121.043 279.911 120.669 279.786 120.229 279.61C119.804 279.419 119.459 279.207 119.195 278.972C118.946 278.737 118.726 278.415 118.535 278.004C118.345 277.593 118.249 277.117 118.249 276.574C118.249 275.459 118.689 274.55 119.569 273.846C120.449 273.142 121.601 272.79 123.023 272.79C124.461 272.79 125.612 273.157 126.477 273.89C127.357 274.609 127.797 275.562 127.797 276.75H124.739C124.739 275.811 124.145 275.342 122.957 275.342C122.459 275.342 122.07 275.445 121.791 275.65C121.513 275.855 121.373 276.134 121.373 276.486C121.373 276.633 121.41 276.772 121.483 276.904C121.571 277.021 121.667 277.117 121.769 277.19C121.887 277.263 122.063 277.337 122.297 277.41C122.532 277.469 122.73 277.513 122.891 277.542C123.053 277.571 123.295 277.615 123.617 277.674C123.896 277.733 124.094 277.777 124.211 277.806C124.329 277.821 124.527 277.857 124.805 277.916C125.084 277.975 125.289 278.033 125.421 278.092C125.568 278.136 125.759 278.202 125.993 278.29C126.243 278.378 126.426 278.473 126.543 278.576C126.675 278.664 126.829 278.774 127.005 278.906C127.196 279.038 127.343 279.185 127.445 279.346C127.548 279.507 127.651 279.683 127.753 279.874C127.856 280.065 127.922 280.285 127.951 280.534C127.995 280.783 128.017 281.047 128.017 281.326C128.017 282.543 127.563 283.519 126.653 284.252C125.744 284.971 124.541 285.33 123.045 285.33ZM141.908 279.016C141.908 279.324 141.886 279.639 141.842 279.962H132.866C132.998 280.769 133.313 281.392 133.812 281.832C134.325 282.257 134.978 282.47 135.77 282.47C136.313 282.47 136.804 282.353 137.244 282.118C137.684 281.869 138.029 281.531 138.278 281.106H141.666C141.226 282.397 140.478 283.423 139.422 284.186C138.366 284.949 137.149 285.33 135.77 285.33C134.01 285.33 132.543 284.729 131.37 283.526C130.197 282.323 129.61 280.835 129.61 279.06C129.61 278.356 129.705 277.681 129.896 277.036C130.101 276.391 130.387 275.811 130.754 275.298C131.135 274.785 131.575 274.345 132.074 273.978C132.573 273.597 133.137 273.303 133.768 273.098C134.399 272.893 135.066 272.79 135.77 272.79C136.958 272.79 138.021 273.069 138.96 273.626C139.913 274.183 140.639 274.939 141.138 275.892C141.651 276.845 141.908 277.887 141.908 279.016ZM135.77 275.518C135.051 275.518 134.443 275.716 133.944 276.112C133.46 276.508 133.13 277.058 132.954 277.762H138.696C138.549 277.278 138.337 276.875 138.058 276.552C137.779 276.215 137.442 275.958 137.046 275.782C136.665 275.606 136.239 275.518 135.77 275.518ZM150.97 272.834C152.32 272.834 153.383 273.289 154.16 274.198C154.952 275.093 155.348 276.295 155.348 277.806V285H152.136V278.312C152.136 276.537 151.447 275.65 150.068 275.65C149.526 275.65 149.049 275.775 148.638 276.024C148.242 276.273 147.934 276.633 147.714 277.102C147.509 277.571 147.406 278.121 147.406 278.752V285H144.194V273.12H146.394L147.032 274.594C147.252 274.315 147.502 274.073 147.78 273.868C148.074 273.648 148.389 273.465 148.726 273.318C149.064 273.157 149.416 273.039 149.782 272.966C150.164 272.878 150.56 272.834 150.97 272.834Z" fill="white"/>
<path d="M1437.96 275.33C1435.62 275.33 1433.66 274.567 1432.09 273.042C1430.53 271.502 1429.76 269.588 1429.76 267.3C1429.76 265.012 1430.53 263.105 1432.09 261.58C1433.66 260.04 1435.62 259.27 1437.96 259.27C1439.5 259.27 1440.9 259.622 1442.14 260.326C1443.4 261.015 1444.39 261.976 1445.09 263.208C1445.79 264.425 1446.15 265.789 1446.15 267.3C1446.15 269.603 1445.37 271.517 1443.81 273.042C1442.26 274.567 1440.31 275.33 1437.96 275.33ZM1437.96 272.184C1438.87 272.184 1439.69 271.979 1440.43 271.568C1441.16 271.143 1441.73 270.556 1442.14 269.808C1442.57 269.06 1442.78 268.224 1442.78 267.3C1442.78 265.907 1442.32 264.748 1441.39 263.824C1440.49 262.885 1439.34 262.416 1437.96 262.416C1436.6 262.416 1435.45 262.885 1434.51 263.824C1433.58 264.748 1433.12 265.907 1433.12 267.3C1433.12 268.693 1433.58 269.859 1434.51 270.798C1435.45 271.722 1436.6 272.184 1437.96 272.184ZM1454.93 262.79C1456.72 262.79 1458.2 263.384 1459.38 264.572C1460.56 265.76 1461.16 267.256 1461.16 269.06C1461.16 270.864 1460.56 272.367 1459.38 273.57C1458.19 274.758 1456.71 275.352 1454.93 275.352C1453.72 275.352 1452.62 275.022 1451.65 274.362V279.29H1448.44V263.12H1450.58L1451.13 264.198C1452.18 263.259 1453.45 262.79 1454.93 262.79ZM1452.34 271.392C1452.95 272.008 1453.72 272.316 1454.65 272.316C1455.59 272.316 1456.36 272.008 1456.98 271.392C1457.59 270.776 1457.9 269.999 1457.9 269.06C1457.9 268.444 1457.76 267.887 1457.48 267.388C1457.21 266.889 1456.82 266.501 1456.32 266.222C1455.83 265.943 1455.28 265.804 1454.67 265.804C1454.05 265.804 1453.5 265.943 1453 266.222C1452.5 266.501 1452.11 266.889 1451.83 267.388C1451.57 267.887 1451.43 268.444 1451.43 269.06C1451.43 269.999 1451.74 270.776 1452.34 271.392ZM1469.07 272.14H1470.53V275H1468.26C1467.4 275 1466.64 274.831 1465.99 274.494C1465.36 274.157 1464.88 273.673 1464.54 273.042C1464.21 272.397 1464.04 271.634 1464.04 270.754V265.694H1461.88V265.012L1466.59 260.018H1467.18V263.12H1470.46V265.694H1467.25V270.336C1467.25 270.908 1467.4 271.355 1467.71 271.678C1468.03 271.986 1468.49 272.14 1469.07 272.14ZM1472.72 261.536V258.544H1475.93V261.536H1472.72ZM1472.72 275V263.12H1475.93V275H1472.72ZM1492.52 262.834C1493.75 262.834 1494.76 263.274 1495.54 264.154C1496.33 265.034 1496.72 266.163 1496.72 267.542V275H1493.51V268.07C1493.51 266.457 1492.91 265.65 1491.71 265.65C1491.24 265.65 1490.83 265.767 1490.48 266.002C1490.14 266.222 1489.88 266.552 1489.71 266.992C1489.53 267.432 1489.44 267.96 1489.44 268.576V275H1486.3V268.07C1486.3 266.457 1485.72 265.65 1484.56 265.65C1483.83 265.65 1483.25 265.907 1482.84 266.42C1482.43 266.933 1482.23 267.652 1482.23 268.576V275H1479.01V263.12H1481.26L1481.85 264.594C1482.29 264.051 1482.82 263.626 1483.44 263.318C1484.07 262.995 1484.73 262.834 1485.42 262.834C1486.16 262.834 1486.84 263.003 1487.44 263.34C1488.04 263.677 1488.51 264.147 1488.85 264.748C1489 264.543 1489.15 264.359 1489.31 264.198C1489.47 264.022 1489.65 263.868 1489.84 263.736C1490.03 263.589 1490.23 263.465 1490.43 263.362C1490.64 263.245 1490.85 263.149 1491.07 263.076C1491.31 263.003 1491.54 262.944 1491.77 262.9C1492.02 262.856 1492.27 262.834 1492.52 262.834ZM1499.66 261.536V258.544H1502.87V261.536H1499.66ZM1499.66 275V263.12H1502.87V275H1499.66ZM1510.18 275.33C1509.2 275.33 1508.32 275.154 1507.56 274.802C1506.81 274.45 1506.23 273.951 1505.8 273.306C1505.39 272.661 1505.19 271.92 1505.19 271.084H1508.31C1508.32 271.436 1508.41 271.737 1508.57 271.986C1508.75 272.221 1508.98 272.397 1509.28 272.514C1509.57 272.617 1509.91 272.668 1510.29 272.668C1510.6 272.668 1510.88 272.624 1511.13 272.536C1511.38 272.448 1511.58 272.316 1511.74 272.14C1511.9 271.949 1511.98 271.729 1511.98 271.48C1511.98 271.113 1511.79 270.842 1511.41 270.666C1511.03 270.49 1510.46 270.336 1509.7 270.204C1509.21 270.131 1508.81 270.057 1508.49 269.984C1508.18 269.911 1507.8 269.786 1507.36 269.61C1506.94 269.419 1506.59 269.207 1506.33 268.972C1506.08 268.737 1505.86 268.415 1505.67 268.004C1505.48 267.593 1505.38 267.117 1505.38 266.574C1505.38 265.459 1505.82 264.55 1506.7 263.846C1507.58 263.142 1508.74 262.79 1510.16 262.79C1511.6 262.79 1512.75 263.157 1513.61 263.89C1514.49 264.609 1514.93 265.562 1514.93 266.75H1511.87C1511.87 265.811 1511.28 265.342 1510.09 265.342C1509.59 265.342 1509.2 265.445 1508.93 265.65C1508.65 265.855 1508.51 266.134 1508.51 266.486C1508.51 266.633 1508.54 266.772 1508.62 266.904C1508.71 267.021 1508.8 267.117 1508.9 267.19C1509.02 267.263 1509.2 267.337 1509.43 267.41C1509.67 267.469 1509.86 267.513 1510.03 267.542C1510.19 267.571 1510.43 267.615 1510.75 267.674C1511.03 267.733 1511.23 267.777 1511.35 267.806C1511.46 267.821 1511.66 267.857 1511.94 267.916C1512.22 267.975 1512.42 268.033 1512.56 268.092C1512.7 268.136 1512.89 268.202 1513.13 268.29C1513.38 268.378 1513.56 268.473 1513.68 268.576C1513.81 268.664 1513.96 268.774 1514.14 268.906C1514.33 269.038 1514.48 269.185 1514.58 269.346C1514.68 269.507 1514.79 269.683 1514.89 269.874C1514.99 270.065 1515.06 270.285 1515.09 270.534C1515.13 270.783 1515.15 271.047 1515.15 271.326C1515.15 272.543 1514.7 273.519 1513.79 274.252C1512.88 274.971 1511.68 275.33 1510.18 275.33ZM1531.02 262.834C1532.25 262.834 1533.26 263.274 1534.04 264.154C1534.83 265.034 1535.22 266.163 1535.22 267.542V275H1532.01V268.07C1532.01 266.457 1531.41 265.65 1530.21 265.65C1529.74 265.65 1529.33 265.767 1528.98 266.002C1528.64 266.222 1528.38 266.552 1528.21 266.992C1528.03 267.432 1527.94 267.96 1527.94 268.576V275H1524.8V268.07C1524.8 266.457 1524.22 265.65 1523.06 265.65C1522.33 265.65 1521.75 265.907 1521.34 266.42C1520.93 266.933 1520.73 267.652 1520.73 268.576V275H1517.51V263.12H1519.76L1520.35 264.594C1520.79 264.051 1521.32 263.626 1521.94 263.318C1522.57 262.995 1523.23 262.834 1523.92 262.834C1524.66 262.834 1525.34 263.003 1525.94 263.34C1526.54 263.677 1527.01 264.147 1527.35 264.748C1527.5 264.543 1527.65 264.359 1527.81 264.198C1527.97 264.022 1528.15 263.868 1528.34 263.736C1528.53 263.589 1528.73 263.465 1528.93 263.362C1529.14 263.245 1529.35 263.149 1529.57 263.076C1529.81 263.003 1530.04 262.944 1530.27 262.9C1530.52 262.856 1530.77 262.834 1531.02 262.834ZM1547.62 273.878C1546.61 274.846 1545.26 275.33 1543.57 275.33C1541.9 275.33 1540.55 274.839 1539.53 273.856C1538.51 272.873 1538.01 271.583 1538.01 269.984V263.12H1541.22V269.61C1541.22 270.461 1541.42 271.128 1541.84 271.612C1542.26 272.081 1542.84 272.316 1543.57 272.316C1544.32 272.316 1544.9 272.081 1545.31 271.612C1545.74 271.128 1545.95 270.461 1545.95 269.61V263.12H1549.16V269.984C1549.16 271.597 1548.65 272.895 1547.62 273.878ZM1556.31 275.33C1555.32 275.33 1554.45 275.154 1553.69 274.802C1552.94 274.45 1552.35 273.951 1551.93 273.306C1551.52 272.661 1551.31 271.92 1551.31 271.084H1554.44C1554.45 271.436 1554.54 271.737 1554.7 271.986C1554.88 272.221 1555.11 272.397 1555.4 272.514C1555.7 272.617 1556.04 272.668 1556.42 272.668C1556.72 272.668 1557 272.624 1557.25 272.536C1557.5 272.448 1557.71 272.316 1557.87 272.14C1558.03 271.949 1558.11 271.729 1558.11 271.48C1558.11 271.113 1557.92 270.842 1557.54 270.666C1557.16 270.49 1556.59 270.336 1555.82 270.204C1555.34 270.131 1554.94 270.057 1554.61 269.984C1554.3 269.911 1553.93 269.786 1553.49 269.61C1553.07 269.419 1552.72 269.207 1552.46 268.972C1552.21 268.737 1551.99 268.415 1551.8 268.004C1551.61 267.593 1551.51 267.117 1551.51 266.574C1551.51 265.459 1551.95 264.55 1552.83 263.846C1553.71 263.142 1554.86 262.79 1556.28 262.79C1557.72 262.79 1558.87 263.157 1559.74 263.89C1560.62 264.609 1561.06 265.562 1561.06 266.75H1558C1558 265.811 1557.41 265.342 1556.22 265.342C1555.72 265.342 1555.33 265.445 1555.05 265.65C1554.77 265.855 1554.63 266.134 1554.63 266.486C1554.63 266.633 1554.67 266.772 1554.74 266.904C1554.83 267.021 1554.93 267.117 1555.03 267.19C1555.15 267.263 1555.32 267.337 1555.56 267.41C1555.79 267.469 1555.99 267.513 1556.15 267.542C1556.31 267.571 1556.56 267.615 1556.88 267.674C1557.16 267.733 1557.36 267.777 1557.47 267.806C1557.59 267.821 1557.79 267.857 1558.07 267.916C1558.35 267.975 1558.55 268.033 1558.68 268.092C1558.83 268.136 1559.02 268.202 1559.25 268.29C1559.5 268.378 1559.69 268.473 1559.8 268.576C1559.94 268.664 1560.09 268.774 1560.27 268.906C1560.46 269.038 1560.6 269.185 1560.71 269.346C1560.81 269.507 1560.91 269.683 1561.01 269.874C1561.12 270.065 1561.18 270.285 1561.21 270.534C1561.26 270.783 1561.28 271.047 1561.28 271.326C1561.28 272.543 1560.82 273.519 1559.91 274.252C1559.01 274.971 1557.8 275.33 1556.31 275.33Z" fill="white"/>
<defs>
<linearGradient id="paint0_linear" x1="326.276" y1="-0.00977904" x2="326.276" y2="258.148" gradientUnits="userSpaceOnUse">
<stop offset="1" stop-color="#4051A0"/>
</linearGradient>
<linearGradient id="paint1_linear" x1="561.993" y1="136.301" x2="561.993" y2="394.459" gradientUnits="userSpaceOnUse">
<stop offset="1" stop-color="#A62B8F"/>
</linearGradient>
<linearGradient id="paint2_linear" x1="796.71" y1="0.0690447" x2="796.71" y2="258.227" gradientUnits="userSpaceOnUse">
<stop offset="1" stop-color="#EC5131"/>
</linearGradient>
<linearGradient id="paint3_linear" x1="796.71" y1="272.612" x2="796.71" y2="530.77" gradientUnits="userSpaceOnUse">
<stop stop-color="#CA77C4"/>
</linearGradient>
<linearGradient id="paint4_linear" x1="90.7098" y1="135.612" x2="90.7098" y2="393.77" gradientUnits="userSpaceOnUse">
<stop stop-color="#76CFE7"/>
</linearGradient>
<linearGradient id="paint5_linear" x1="323.71" y1="272.612" x2="323.71" y2="530.77" gradientUnits="userSpaceOnUse">
<stop offset="1" stop-color="#FFA528"/>
</linearGradient>
<linearGradient id="paint6_linear" x1="1494.71" y1="139.612" x2="1494.71" y2="397.77" gradientUnits="userSpaceOnUse">
<stop offset="1" stop-color="#FFA528"/>
</linearGradient>
<linearGradient id="paint7_linear" x1="1032.43" y1="136.301" x2="1032.43" y2="394.459" gradientUnits="userSpaceOnUse">
<stop stop-color="#5E4ECE"/>
</linearGradient>
<linearGradient id="paint8_linear" x1="1267.22" y1="-0.00977904" x2="1267.22" y2="258.148" gradientUnits="userSpaceOnUse">
<stop offset="1" stop-color="#009FC4"/>
</linearGradient>
<linearGradient id="paint9_linear" x1="1267.22" y1="272.99" x2="1267.22" y2="531.148" gradientUnits="userSpaceOnUse">
<stop stop-color="#99D5A1"/>
</linearGradient>
</defs>
</svg>
