<svg width="402" height="272" viewBox="0 0 402 272" fill="none" xmlns="http://www.w3.org/2000/svg">
<path d="M401.785 126.495C399.933 109.284 381.656 92.2641 364.453 90.6753C352.411 89.4838 340.559 95.7204 332.62 103.134V33.7603C332.62 15.0928 317.534 0 298.875 0H102.76C84.2337 0 69.148 15.0928 69.0156 33.6279L68.8833 113.461C61.7374 105.12 51.1509 99.957 39.2411 99.957C15.5538 99.957 -3.23723 121.007 0.468049 145.368C3.11467 162.579 17.0095 176.083 34.2125 178.201C47.975 179.923 60.6788 174.362 68.8833 164.962L69.0156 237.646C69.0156 256.181 84.1014 271.274 102.76 271.274H298.875C317.534 271.274 332.62 256.181 332.62 237.514V160.593C339.633 167.213 349.161 171.317 359.615 171.317C382.773 171.449 404.299 150.326 401.785 126.495Z" fill="#FFCF0D"/>
</svg>
