<svg width="264" height="272" viewBox="0 0 264 272" fill="none" xmlns="http://www.w3.org/2000/svg">
<path d="M263.604 237.646L263.604 33.7604C263.604 15.093 248.518 0.000153907 229.86 0.000155538L33.7446 0.000172683C15.0859 0.000174314 9.96742e-05 15.093 0.000101306 33.7605L0.000107649 106.312C8.20465 96.9121 20.7761 91.3516 34.6709 93.0727C51.8739 95.191 65.9011 108.695 68.4154 125.906C72.1206 150.399 53.3296 171.317 29.6423 171.317C17.8648 171.317 7.27834 166.021 0.000112151 157.813L0.000119119 237.514C0.000120751 256.181 15.0859 271.274 33.7446 271.274L229.992 271.274C248.518 271.406 263.604 256.314 263.604 237.646Z" fill="#00A5A9"/>
</svg>
