<svg width="402" height="273" viewBox="0 0 402 273" fill="none" xmlns="http://www.w3.org/2000/svg">
<path d="M401.785 126.491C399.933 109.28 380.656 95.2601 363.453 93.6714C351.411 92.4799 340.559 96.7165 332.62 104.13V34.7564C332.62 16.0889 317.534 0.996094 298.875 0.996094H102.76C84.2337 0.996094 69.148 16.0889 69.0156 34.624L68.8833 114.457C61.7374 106.116 51.1509 100.953 39.2411 100.953C15.5538 100.953 -3.23723 122.004 0.468049 146.364C3.11467 163.575 17.0095 177.079 34.2125 179.197C47.975 180.919 60.6788 175.358 68.8833 165.958L69.0156 238.642C69.0156 257.177 84.1014 272.27 102.76 272.27H298.875C317.534 272.27 332.62 257.177 332.62 238.51V161.589C339.633 168.209 349.161 172.313 359.615 172.313C382.773 172.445 404.299 150.322 401.785 126.491Z" fill="#FFCF0D"/>
</svg>
