<svg width="108" height="157" viewBox="0 0 108 157" fill="none" xmlns="http://www.w3.org/2000/svg">
<path d="M44.9059 133.09L75.9931 132.932C75.9931 132.932 73.626 123.46 74.5728 116.198C74.8884 113.514 76.6243 110.988 78.9913 109.567C109.447 90.4636 102.031 68.8344 102.031 68.8344C102.031 68.8344 98.7167 41.2059 59.5816 38.6799C17.9216 35.996 20.6043 73.0971 20.6043 73.0971C20.6043 73.0971 18.8684 93.779 40.4874 107.672C43.6434 109.725 45.5371 113.04 46.0105 116.671C46.9573 125.986 44.9059 133.09 44.9059 133.09Z" fill="white"/>
<path d="M75.9935 132.933V144.142C75.9935 148.247 73.3108 151.72 69.997 151.72L51.0606 151.878C47.7467 151.878 45.0641 148.562 44.9062 144.3V133.09L75.9935 132.933Z" fill="#15ACB4"/>
<path d="M67.9448 151.72L65.8933 156.772H54.2159L51.5332 151.72H67.9448Z" fill="#01898C"/>
<path d="M75.8355 83.5167C80.5696 74.6756 68.8921 70.4129 63.369 76.4123C62.4222 77.5174 61.9488 78.9383 61.9488 80.517C61.9488 83.201 61.9488 87.1479 61.9488 87.1479C60.3707 86.8321 58.4771 86.5164 57.0568 86.0427C57.0568 83.5167 57.0568 80.8328 56.2678 78.7804C52.954 69.1499 40.6453 76.728 47.9043 83.5167C49.6401 85.0955 52.1649 86.3585 54.8476 87.1479C55.0054 102.462 55.321 117.618 55.4788 132.932H57.5303C57.3725 123.617 57.2147 114.145 57.2147 104.83C57.2147 99.9359 57.0568 95.0417 57.0568 90.3054C57.0568 89.516 57.0568 88.7267 57.0568 87.9373C58.6349 88.253 60.2129 88.5688 61.7909 88.7267L62.1066 132.932H64.158L63.8424 88.8845C64.3158 88.8845 64.7892 88.8845 65.1048 88.8845C69.2077 88.7266 73.784 87.3058 75.8355 83.5167ZM54.8476 85.4112C51.8493 84.464 47.5887 82.4116 47.2731 79.4119C47.1153 78.6225 47.4309 77.991 48.0621 77.5174C53.2696 72.7811 54.8476 81.3064 54.8476 82.2537C54.8476 83.3588 54.8476 84.3061 54.8476 85.4112ZM73.9418 83.201C71.5748 86.8321 67.7875 87.7794 63.8424 87.4636V80.6749C63.8424 79.4119 64.3158 78.1489 65.2626 77.3595C66.8407 75.7807 69.6811 74.0441 73.1528 75.7807C75.362 77.2016 75.6776 80.6749 73.9418 83.201Z" fill="#FFD247"/>
<path d="M19.4997 31.4174C20.1309 30.7859 20.1309 29.6808 19.4997 29.0493L3.71936 13.4194C3.08815 12.7879 1.98353 12.7879 1.35232 13.4194C0.721103 14.0509 0.721103 15.1561 1.35232 15.7876L17.1326 31.4174C17.9216 32.0489 18.8685 32.0489 19.4997 31.4174Z" fill="white"/>
<path d="M88.7752 30.9439C88.144 30.3124 88.144 29.2073 88.7752 28.5758L104.398 12.7881C105.029 12.1566 106.133 12.1566 106.765 12.7881C107.396 13.4196 107.396 14.5247 106.765 15.1562L91.1422 30.9439C90.511 31.5754 89.4064 31.5754 88.7752 30.9439Z" fill="white"/>
<path d="M59.1079 25.4182C60.0547 25.4182 60.6859 24.6288 60.6859 23.8394L60.5281 1.57877C60.5281 0.631508 59.7391 0 58.9501 0C58.0033 0 57.3721 0.789385 57.3721 1.57877L57.5299 23.8394C57.3721 24.6288 58.1611 25.4182 59.1079 25.4182Z" fill="white"/>
</svg>
