<svg width="88" height="88" viewBox="0 0 88 88" fill="none" xmlns="http://www.w3.org/2000/svg">
<path d="M44 88C68.3005 88 88 68.3005 88 44C88 19.6995 68.3005 0 44 0C19.6995 0 0 19.6995 0 44C0 68.3005 19.6995 88 44 88Z" fill="#00C7FF"/>
<path d="M88 44V43.9828L48 13L30 25.5L40.5109 87.8625C41.6625 87.9484 42.8313 88 44 88C68.3031 88 88 68.3031 88 44Z" fill="#0093C4" fill-opacity="0.3"/>
<g clip-path="url(#clip0)">
<path d="M67.5524 69H20.0027C18.7013 69 17.7395 67.7766 18.0676 66.5079L20.2743 57.7852C20.9419 55.1457 22.8656 53.0161 25.4117 52.0645L37.0445 47.7598C37.3614 47.6465 37.7009 47.6805 37.9838 47.8391L43.7775 51.2489L49.5147 47.8278C49.7976 47.6579 50.1484 47.6239 50.4653 47.7372L62.1433 52.0532C64.6894 52.9934 66.6132 55.1344 67.2808 57.7739L69.4874 66.4965C69.8156 67.7766 68.8537 69 67.5524 69Z" fill="#868491"/>
<path d="M37.1464 51.2601L40.4394 49.3004L37.9838 47.8617C37.7009 47.6918 37.3501 47.6578 37.0446 47.7824L33.4688 49.1078L37.1464 51.2601Z" fill="#787784"/>
<path d="M69.4874 66.5078L67.2808 57.7851C66.6132 55.1457 64.6895 53.016 62.1434 52.0644L50.4653 47.7484C50.1484 47.6351 49.7977 47.6691 49.5148 47.839L47.4326 49.0851L55.5122 52.0757C58.0583 53.016 59.982 55.157 60.6497 57.7964L62.8563 66.5191C63.1731 67.7879 62.2226 69.0113 60.9212 69.0113H67.5524C68.8537 69 69.8156 67.7765 69.4874 66.5078Z" fill="#787784"/>
<path d="M37.0337 47.769L33.1523 49.2076L38.5387 54.5659C38.9235 54.951 39.5459 54.9737 39.9532 54.6112L43.778 51.258L37.9843 47.8483C37.69 47.6784 37.3506 47.6557 37.0337 47.769Z" fill="#4F495B"/>
<path d="M50.4657 47.7484L54.4036 49.1984L48.8475 54.5679C48.4514 54.9531 47.829 54.9531 47.4217 54.5906L43.7666 51.2601L49.5038 47.839C49.8093 47.6691 50.1488 47.6351 50.4657 47.7484Z" fill="#4F495B"/>
<path d="M43.7779 66.3719C43.2687 66.3719 42.8613 65.9641 42.8613 65.4543V55.7008C42.8613 55.191 43.2687 54.7832 43.7779 54.7832C44.2871 54.7832 44.6945 55.191 44.6945 55.7008V65.4543C44.6945 65.9641 44.2871 66.3719 43.7779 66.3719Z" fill="#4F495B"/>
<path d="M43.7888 45.8227C41.3672 45.868 39.3756 43.8403 39.3756 41.4047V35.9899C39.3756 32.9766 41.5369 30.4504 44.5243 29.986C47.0704 29.5782 48.9489 27.3239 48.8923 24.7297C48.8244 21.9996 46.5612 19.734 43.8341 19.666C42.4196 19.6321 41.0843 20.1532 40.0772 21.1387C39.07 22.1243 38.5156 23.4496 38.5156 24.8543C38.5156 27.2446 36.5918 29.1703 34.2042 29.1817C31.7599 29.193 29.8249 27.12 29.8588 24.6844C29.9041 20.9801 31.3752 17.525 34.0231 14.9422C36.7276 12.3141 40.2808 10.9207 44.0377 11C47.591 11.0793 50.9518 12.5293 53.4866 15.0668C56.0214 17.6043 57.4585 20.9575 57.549 24.5258C57.6282 27.9129 56.474 31.1981 54.3013 33.7922C52.7737 35.6047 50.816 36.9867 48.632 37.8137C48.2812 37.9496 48.0436 38.2782 48.0436 38.6633V41.4953C48.0323 43.8629 46.1425 45.7774 43.7888 45.8227Z" fill="#FFD782"/>
<path d="M38.5161 24.8543C38.5161 23.4497 39.0706 22.1243 40.0777 21.1387C40.9264 20.3118 42.0015 19.8133 43.167 19.6887C42.3296 19.043 41.2885 18.6465 40.1796 18.6239C38.7651 18.5899 37.4298 19.111 36.4227 20.0965C35.4156 21.0821 34.8611 22.4075 34.8611 23.8122C34.8611 25.9305 33.3447 27.6864 31.3418 28.0715C32.1 28.7625 33.1071 29.193 34.2161 29.1817C36.5924 29.1817 38.5161 27.2446 38.5161 24.8543Z" fill="#FFC36F"/>
<path d="M57.5489 24.5258C57.4584 20.9688 56.0212 17.6043 53.4865 15.0668C51.3251 12.9032 48.5753 11.5438 45.6105 11.136C47.1608 11.827 48.5979 12.8012 49.8314 14.036C52.3662 16.5735 53.8033 19.9266 53.8938 23.495C53.973 26.8821 52.8188 30.1672 50.6461 32.7614C49.5711 34.0415 48.2811 35.1063 46.844 35.9106C45.3276 36.7715 44.3884 38.3801 44.3884 40.1247V40.4645C44.3884 42.5829 42.8721 44.3387 40.8691 44.7239C41.6499 45.4262 42.6797 45.8567 43.8113 45.834C46.165 45.7887 48.0548 43.8629 48.0548 41.5067V38.6747C48.0548 38.2895 48.2924 37.961 48.6432 37.8251C50.8272 36.9981 52.7849 35.6161 54.3125 33.8036C56.4739 31.1981 57.6281 27.9129 57.5489 24.5258Z" fill="#FFC36F"/>
</g>
<defs>
<clipPath id="clip0">
<rect width="51.5556" height="58" fill="white" transform="translate(18 11)"/>
</clipPath>
</defs>
</svg>
