<svg width="192" height="170" viewBox="0 0 192 170" fill="none" xmlns="http://www.w3.org/2000/svg">
<path d="M134.763 161.76C134.763 161.76 138.235 164.918 146.283 166.97C148.019 167.444 149.913 166.812 149.913 169.654C146.125 169.654 140.129 169.654 140.129 169.654L132.081 168.233V169.654H127.662C127.662 169.654 126.4 162.55 128.925 161.76C131.45 161.76 134.763 161.76 134.763 161.76Z" fill="#212B53"/>
<path d="M134.29 156.708L134.763 161.76C133.185 162.865 131.134 162.865 129.398 161.918L129.083 161.76L128.136 156.708H134.29Z" fill="#F8B68F"/>
<path d="M176.424 161.76C176.424 161.76 179.895 164.918 187.943 166.97C189.679 167.444 191.573 166.812 191.573 169.654C187.785 169.654 181.789 169.654 181.789 169.654L173.741 168.233V169.654H169.322C169.322 169.654 168.06 162.55 170.585 161.76C173.11 161.76 176.424 161.76 176.424 161.76Z" fill="#212B53"/>
<path d="M174.372 156.708L176.423 161.76C174.845 162.865 172.794 162.865 171.058 161.918L170.743 161.76L167.429 156.708H174.372Z" fill="#F8B68F"/>
<path d="M32.9809 169.812L48.6035 116.133L46.3942 115.502L30.4561 169.812H32.9809Z" fill="#E1E1E1"/>
<path d="M106.359 169.812L90.4211 115.502L88.2119 116.133L103.834 169.812H106.359Z" fill="#FFDB71"/>
<path d="M47.4981 24.5649L44.6576 33.5639L35.1895 30.0906L42.764 17.4604L47.4981 24.5649Z" fill="#F4A086"/>
<path d="M49.7075 27.4065C50.8121 27.8801 51.9167 28.038 52.5479 27.8801C57.5976 24.7226 59.1757 10.9873 59.1757 10.9873L55.0728 6.72461L47.0248 7.98763L43.2376 16.0393C42.2907 18.2496 42.4486 20.7756 43.711 22.828C45.289 24.8804 47.3404 26.4592 49.7075 27.4065Z" fill="#F8B68F"/>
<path d="M46.0775 13.0399C47.0244 11.7769 48.129 8.61936 49.3914 9.40874C50.3382 10.0402 53.8099 11.619 54.9145 12.0926C57.755 13.1978 63.1203 14.3029 65.014 10.0403C65.9608 7.82999 64.5405 5.14607 63.5937 4.04093C62.4891 2.93579 61.0689 2.30428 59.4909 2.30428C56.0192 2.1464 50.8116 2.77792 49.3914 1.67278C46.8665 -0.0638704 43.3949 0.409756 42.448 2.77791C41.5012 5.30394 41.1856 9.56662 41.3434 12.5663C41.5012 14.3029 41.9746 15.8817 42.6058 17.4605L46.0775 13.0399Z" fill="#212B53"/>
<path d="M43.0792 12.0929C43.8682 11.7771 45.1306 12.4086 45.604 13.3559C46.0774 14.461 45.9197 15.4083 44.9728 15.724C44.1838 16.0398 42.9214 15.4083 42.448 14.461C41.9746 13.5138 42.2902 12.4086 43.0792 12.0929Z" fill="#F8B68F"/>
<path d="M29.3514 37.353L0 51.0883C0 51.0883 22.7236 116.449 62.49 122.922C102.256 129.395 125.927 111.082 128.136 110.134C71.1692 94.0308 29.3514 37.353 29.3514 37.353Z" fill="#F7A605"/>
<path d="M29.3514 37.353L0 51.0883C0 51.0883 25.8797 110.134 65.646 116.607C105.412 123.08 126.716 111.082 128.136 110.134C68.6443 93.5572 29.3514 37.353 29.3514 37.353Z" fill="#F7A605"/>
<path d="M75.2718 82.0319L119.299 81.4004C123.244 81.4004 126.716 84.2422 127.189 88.347L134.763 158.286H128.136C128.136 158.286 112.355 124.817 115.038 107.45C117.563 90.0836 53.8105 92.7675 53.8105 92.7675L75.2718 82.0319Z" fill="#00666A"/>
<path d="M35.5055 28.9856C8.99464 55.9826 42.9222 103.03 42.9222 103.03L75.2718 82.0323C62.9632 60.4031 62.332 59.1401 45.1315 30.0908C43.08 26.6175 38.3459 25.986 35.5055 28.9856Z" fill="url(#paint0_linear)"/>
<path d="M96.2596 66.7184C96.2596 66.0869 95.9439 65.6133 95.3127 65.4554L89.7896 63.7188C88.3694 63.2451 86.9492 63.403 85.6867 64.0345L80.6371 66.4027L80.0059 66.5605V71.4547C80.9527 70.9811 81.5839 70.6653 81.5839 70.6653L84.74 69.0866C84.74 69.0866 92.6301 74.2965 94.5237 68.4551C95.9439 73.8229 97.3642 73.0335 97.3642 73.0335L96.2596 66.7184Z" fill="#F8B68F"/>
<path d="M37.8727 34.5112C23.3549 34.5112 24.4595 66.7181 25.8797 82.1901C26.3531 86.7685 30.6138 90.2418 35.1901 89.4524C56.4935 85.9791 82.3732 70.9808 82.3732 70.9808L80.4795 66.4024L42.7646 73.8226C42.9224 73.8226 56.4935 34.5112 37.8727 34.5112Z" fill="url(#paint1_linear)"/>
<path d="M80.7954 65.9285L43.5539 73.3487C44.5007 70.5069 48.1302 58.824 48.1302 49.0356C47.8146 49.1935 47.6568 49.3514 47.3412 49.5093C47.1834 60.4028 42.7649 73.5066 42.6071 73.8223L42.4493 74.4538L80.4798 67.0336L82.0578 70.9805C79.0595 72.7172 55.0735 85.9788 35.3482 89.1364C33.2967 89.4521 31.0875 88.9785 29.5095 87.7155C27.7737 86.4525 26.669 84.5579 26.5112 82.3477C26.0378 78.2429 25.4066 69.4018 25.88 60.5607C25.5644 60.7185 25.4066 60.7185 25.091 60.7185C24.6176 69.5596 25.4066 78.2429 25.7222 82.3477C25.88 84.7158 27.1424 86.9261 29.0361 88.347C30.6141 89.4521 32.3499 90.0836 34.0858 90.0836C34.5592 90.0836 35.0326 90.0836 35.506 89.9258C56.4937 86.4525 82.5312 71.612 82.8468 71.4542L83.1624 71.2963L80.7954 65.9285Z" fill="#15ACB4"/>
<path d="M42.9229 103.03C42.9229 103.03 50.024 118.66 79.8487 118.66C109.674 118.66 130.03 108.082 130.03 108.082C130.03 108.082 138.867 130.659 168.534 158.287C175.635 158.287 175.635 158.287 175.635 158.287L145.653 96.2414C142.97 90.7157 137.289 87.4003 131.135 87.716L60.9124 91.5051L42.9229 103.03Z" fill="#01898C"/>
<path d="M39.4502 22.9858L46.2357 28.8273L45.7623 31.0376L35.9785 28.5116L39.4502 22.9858Z" fill="white"/>
<path d="M108.253 83.6106H73.6943V81.2425H106.833L124.822 44.2993L126.874 45.2466L108.253 83.6106Z" fill="#043C5E"/>
<path d="M91.5102 123.586L33.0752 161.976L33.9414 163.295L92.3764 124.906L91.5102 123.586Z" fill="#F5F5F5"/>
<path d="M45.7596 123.615L44.8936 124.935L103.336 163.317L104.202 161.998L45.7596 123.615Z" fill="#F5F5F5"/>
<defs>
<linearGradient id="paint0_linear" x1="25.3968" y1="65.0466" x2="75.2738" y2="65.0466" gradientUnits="userSpaceOnUse">
<stop stop-color="#C0E4EF"/>
<stop offset="1" stop-color="#E0F0EB"/>
</linearGradient>
<linearGradient id="paint1_linear" x1="25.1212" y1="61.915" x2="82.4319" y2="61.915" gradientUnits="userSpaceOnUse">
<stop stop-color="#C0E4EF"/>
<stop offset="1" stop-color="#E0F0EB"/>
</linearGradient>
</defs>
</svg>
