<svg width="88" height="88" viewBox="0 0 88 88" fill="none" xmlns="http://www.w3.org/2000/svg">
<path d="M44 88C68.3005 88 88 68.3005 88 44C88 19.6995 68.3005 0 44 0C19.6995 0 0 19.6995 0 44C0 68.3005 19.6995 88 44 88Z" fill="#0081E7"/>
<path d="M88 44V43.9828L51 16.5L30 25.5L40.5109 87.8625C41.6625 87.9484 42.8313 88 44 88C68.3031 88 88 68.3031 88 44Z" fill="#005A78" fill-opacity="0.3"/>
<g clip-path="url(#clip0)">
<path d="M52.6078 62.7285V70H21.1465V62.7285C21.1465 59.6056 23.6402 57.0803 26.724 57.0803H47.0303C50.1029 57.0803 52.6078 59.6056 52.6078 62.7285Z" fill="#3B485B"/>
<path d="M52.6079 62.7285V70H23.0503V62.7285C23.0503 59.6056 25.544 57.0803 28.6278 57.0803H47.0192C50.103 57.0803 52.6079 59.6056 52.6079 62.7285Z" fill="#515F75"/>
<path d="M26.8799 57.0803L26.5459 65.7724L30.1529 66.6855L26.9133 69.9662H46.841L43.6014 66.6855L47.2084 65.7724L46.8744 57.0803" fill="#3B485B"/>
<path d="M43.7572 57.0803L40.1168 70H33.6264L29.9971 57.0803" fill="#F2F2F2"/>
<path d="M32.4243 60.2482L36.8663 65.8851L41.2638 60.2708L36.8663 59.4365L32.4243 60.2482Z" fill="#F74866"/>
<path d="M32.0344 64.3406L36.866 59.4478L41.6977 64.3406L43.735 57.0803H29.9971L32.0344 64.3406Z" fill="#E6E6E6"/>
<path d="M41.0075 49.8201V57.0804L36.8772 59.4366L35.597 58.7038L32.7358 57.0804V49.8201H35.597H41.0075Z" fill="#F9C2AF"/>
<path d="M33.6489 69.9999L36.8663 65.885L40.106 69.9999" fill="#F74866"/>
<path d="M35.597 49.8201H32.7358V57.0804L35.597 58.715V55.3555C36.02 55.4006 36.4431 55.4231 36.8772 55.4231C38.3245 55.4231 39.705 55.1864 41.0075 54.7467V49.8313L35.597 49.8201Z" fill="#EA9E8F"/>
<path d="M23.8965 42.1763C21.7479 42.1763 20 40.598 20 38.6364C20 36.686 21.7479 35.0964 23.8965 35.0964H49.8582C52.0068 35.0964 53.7547 36.6748 53.7547 38.6364C53.7547 40.5867 52.0068 42.1763 49.8582 42.1763" fill="#EA9E8F"/>
<path d="M49.8582 27.374V40.5192C49.8582 47.7795 44.0469 53.6644 36.8773 53.6644C33.2926 53.6644 30.0418 52.1875 27.6928 49.8088C25.3549 47.43 23.8965 44.1493 23.8965 40.5192V27.374H49.8582Z" fill="#F9C2AF"/>
<path d="M36.7883 53.6644C33.2369 53.6418 30.0307 52.1762 27.7039 49.82C25.3549 47.43 23.8965 44.1493 23.8965 40.5192V27.374H29.7412V40.5192C29.7412 44.1493 30.5428 47.4413 31.8342 49.82C33.1033 52.1537 34.8512 53.6193 36.7883 53.6644Z" fill="#EA9E8F"/>
<path d="M34.7622 39.7751C34.7622 39.2903 35.1519 38.907 35.6194 38.907H37.4229C37.9017 38.907 38.2802 39.3016 38.2802 39.7751C38.2802 40.2598 37.8905 40.6431 37.4229 40.6431H35.6194C35.1407 40.6431 34.7622 40.2486 34.7622 39.7751Z" fill="#293544"/>
<path d="M49.8582 27.374V30.666C48.9676 31.3086 47.8988 31.8722 46.6408 32.3345C41.9316 34.0481 37.3783 33.4731 34.1609 32.5599C31.3555 31.7708 29.5631 30.7223 29.5631 30.7223C29.5631 30.7223 28.383 36.5057 23.8965 36.5057V27.374H49.8582Z" fill="#EA9E8F"/>
<path d="M46.6408 30.9478C41.9316 32.6614 37.3783 32.0864 34.1609 31.1733C31.3555 30.3841 29.5631 29.3356 29.5631 29.3356C29.5631 29.3356 28.383 35.1078 23.8965 35.1078C23.8965 35.1078 20.9129 29.764 21.002 24.8149C21.0465 22.2557 23.1395 20.3279 25.5107 20.3279C25.9561 20.3279 26.4125 20.3956 26.8578 20.5421C28.127 17.0811 31.4891 14.894 35.1184 15.1195C35.6861 15.1533 36.2539 15.1984 36.8217 15.2547C36.933 15.266 37.0443 15.2773 37.1557 15.2886C37.1668 15.2886 37.1779 15.2886 37.1891 15.2886C43.1229 15.8523 49.1346 16.9458 52.6637 13C52.6748 13 58.5084 26.6187 46.6408 30.9478Z" fill="#515F75"/>
<path d="M35.1295 15.1307C35.6973 15.1645 36.265 15.2096 36.8328 15.266C31.6004 15.0405 27.4367 26.7201 34.1609 31.1732C31.3555 30.384 29.5631 29.3356 29.5631 29.3356C29.5631 29.3356 28.383 35.1077 23.8965 35.1077C23.8965 35.1077 20.9129 29.764 21.002 24.8148C21.0465 22.2557 23.1395 20.3279 25.5107 20.3279C25.9561 20.3279 26.4125 20.3955 26.8578 20.5421C28.1381 17.0923 31.4891 14.9052 35.1295 15.1307Z" fill="#3B485B"/>
<path d="M37.2004 15.3C37.1893 15.3 37.1781 15.3 37.167 15.3C37.1781 15.2887 37.1893 15.2887 37.2004 15.3Z" fill="#F4AF9D"/>
<path d="M39.516 49.4254C38.1355 49.4254 36.7662 48.8955 35.7085 47.8358C35.3634 47.4863 35.3634 46.9339 35.7085 46.5844C36.0537 46.2349 36.5992 46.2349 36.9443 46.5844C38.3582 48.0161 40.6627 48.0161 42.0765 46.5844C42.4216 46.2349 42.9671 46.2349 43.3123 46.5844C43.6574 46.9339 43.6574 47.4863 43.3123 47.8358C42.2658 48.8955 40.8964 49.4254 39.516 49.4254Z" fill="#E06E86"/>
<path d="M64.4532 45.5698V51.5336H57.1167V45.5698H58.3413H63.2286H64.4532Z" fill="#F4AF9D"/>
<path d="M64.4533 45.5698V51.5336H60.0781V45.5698H64.4533Z" fill="#F9C2AF"/>
<path d="M57.1167 51.5337H64.4532V69.955H57.1167V51.5337Z" fill="#515F75"/>
<path d="M57.1167 51.5337H60.0558V69.955H57.1167V51.5337Z" fill="#3B485B"/>
<path d="M71.6229 32.853V46.7197H59.3323C56.4601 46.7197 53.4653 43.8224 53.3095 40.181C53.2983 40.0457 53.2983 39.9217 53.2983 39.7864C53.2983 35.9533 56.3599 32.853 59.3323 32.853H71.6229Z" fill="#DD8C22"/>
<path d="M43.5682 43.8449H41.0744C39.3377 43.8449 37.9238 42.0298 37.9238 39.7863C37.9238 37.5429 39.3377 35.7278 41.0744 35.7278H43.5793" fill="#DD8C22"/>
<path d="M60.8687 32.853V46.7197H47.9323C45.0601 46.7197 42.7222 43.8224 42.5663 40.181C42.5552 40.0457 42.5552 39.9217 42.5552 39.7864C42.5552 35.9533 44.9599 32.853 47.9323 32.853H60.8687Z" fill="#EFA233"/>
<path d="M59.2768 40.1809V46.7197H47.9324C45.0602 46.7197 42.7223 43.8223 42.5664 40.1809H59.2768Z" fill="#DD8C22"/>
<path d="M66.2455 39.7864C66.2455 42.3906 65.1211 44.6679 63.4734 45.8516C62.7053 46.4041 61.8147 46.7197 60.8684 46.7197C57.8959 46.7197 55.4912 43.6194 55.4912 39.7864C55.4912 35.9533 57.8959 32.853 60.8684 32.853C61.8147 32.853 62.7053 33.1687 63.4734 33.7211C65.1211 34.9048 66.2455 37.1709 66.2455 39.7864Z" fill="#79BBE8"/>
<path d="M66.2458 39.7865C66.2458 42.3907 65.1214 44.668 63.4737 45.8517C61.8261 44.668 60.7017 42.3907 60.7017 39.7865C60.7017 37.1822 61.8261 34.9049 63.4737 33.7212C65.1214 34.9049 66.2458 37.171 66.2458 39.7865Z" fill="#AEDBF4"/>
<path d="M76.9999 39.7864C76.9999 35.9533 74.5952 32.853 71.6228 32.853C68.6503 32.853 66.2456 35.9533 66.2456 39.7864C66.2456 43.6194 68.6503 46.7197 71.6228 46.7197C74.5952 46.7197 76.9999 43.6082 76.9999 39.7864Z" fill="#79BBE8"/>
<path d="M77.0002 39.7865C77.0002 42.3907 75.8758 44.668 74.2281 45.8517C72.5805 44.668 71.4561 42.3907 71.4561 39.7865C71.4561 37.1822 72.5805 34.9049 74.2281 33.7212C75.8758 34.9049 77.0002 37.171 77.0002 39.7865Z" fill="#AEDBF4"/>
<path d="M54.1891 45.0399V51.2292H46.8525V45.0399C46.8525 44.3522 47.398 43.7998 48.0771 43.7998H52.9645C53.6324 43.7998 54.1891 44.3522 54.1891 45.0399Z" fill="#F4AF9D"/>
<path d="M54.1887 45.0399V51.2292H49.8135V45.0399C49.8135 44.3522 50.359 43.7998 51.0381 43.7998H52.9752C53.632 43.7998 54.1887 44.3522 54.1887 45.0399Z" fill="#F9C2AF"/>
<path d="M46.8525 51.2292H54.1891V69.9549H46.8525V51.2292Z" fill="#515F75"/>
<path d="M46.8525 51.2292H49.7916V69.9549H46.8525V51.2292Z" fill="#3B485B"/>
</g>
<defs>
<clipPath id="clip0">
<rect width="57" height="57" fill="white" transform="translate(20 13)"/>
</clipPath>
</defs>
</svg>
