<svg width="192" height="170" viewBox="0 0 168 197" fill="none" xmlns="http://www.w3.org/2000/svg">
<path d="M141.867 35.792L144.392 38.4759L141.709 54.1057L139.185 55.5266L141.867 35.792Z" fill="url(#paint0_linear)"/>
<path d="M32.9834 55.6847C32.9834 55.6847 44.8186 79.3663 52.0775 80.6293C59.3364 82.0502 92.3173 70.0515 92.3173 70.0515V65.3152L59.3365 66.1046L51.4464 49.8433L32.9834 55.6847Z" fill="#F4A086"/>
<path d="M45.7654 26.793C6.63039 28.8454 11.0489 95.3116 11.0489 95.3116H53.0244C53.0244 95.3116 60.4411 70.9986 45.7654 26.793Z" fill="#FFD247"/>
<path d="M47.0276 183.722C47.0276 183.722 47.0276 188.932 57.6005 192.09C59.8097 192.721 59.0207 193.353 59.4941 194.3C56.0225 194.3 47.3433 194.3 47.3433 194.3L42.6092 188.932L41.189 190.195L37.7173 186.88C37.7173 186.88 39.2953 181.986 41.978 181.986C44.0294 182.775 47.0276 183.722 47.0276 183.722Z" fill="#212B53"/>
<path d="M49.7104 177.25L46.87 183.723C45.1342 184.196 43.0828 183.723 41.9782 182.144L41.8203 181.828L43.3983 177.092H49.7104V177.25Z" fill="#F8B68F"/>
<path d="M38.6643 16.2153L37.4019 28.5297C37.4019 28.5297 39.1377 31.8452 42.9251 32.1609C46.7124 32.6346 47.028 29.7928 47.028 29.7928L47.817 21.741L42.4517 19.6886L38.6643 16.2153Z" fill="#F4A086"/>
<path d="M47.9746 24.2668C49.0792 24.4247 50.1838 24.2668 50.8151 23.7932C54.7601 18.899 52.5509 4.05859 52.5509 4.05859L40.2422 4.84798L38.822 14.4785C38.5064 17.0045 39.2954 19.6884 41.1891 21.4251C42.9249 23.0038 45.4498 24.109 47.9746 24.2668Z" fill="#F8B68F"/>
<path d="M45.7654 5.79544C45.7654 5.79544 49.7105 7.05845 53.9712 6.74269C58.2319 6.42694 56.0226 1.53275 56.0226 1.53275C56.0226 1.53275 52.7088 2.63789 47.1857 1.217C43.5562 0.269734 42.6094 -0.519651 40.0845 0.427611C36.6129 1.8485 36.7706 7.84783 36.7706 7.84783L37.2441 20.6359L37.8753 21.5831C37.8753 21.5831 38.8221 13.3735 39.1377 10.8475C39.9267 9.74236 40.7157 9.90023 41.347 10.216C41.9782 10.5317 42.2938 11.3211 42.136 12.1105L40.7157 25.0564C40.7157 25.0564 48.6059 29.477 50.8151 29.1612C53.0244 28.6876 52.5509 18.8992 52.5509 18.8992C52.5509 18.8992 50.1839 17.6362 48.1325 19.5307C46.081 21.4253 44.0296 19.0571 44.0296 19.0571L45.7654 5.79544Z" fill="#212B53"/>
<path d="M40.4 9.5846C41.3469 9.5846 42.1359 10.5319 42.1359 11.7949C42.1359 13.0579 41.5046 14.0052 40.5578 13.8473C39.611 13.8473 38.822 12.9 38.822 11.637C38.6642 10.374 39.4532 9.42672 40.4 9.5846Z" fill="#F8B68F"/>
<path d="M53.024 95.3115C53.024 95.3115 72.5916 106.205 82.3754 119.467C84.9002 122.782 84.9002 127.361 82.5331 130.834C68.3308 151.2 49.7101 178.197 49.7101 178.197H42.4512C42.4512 178.197 52.0771 142.99 63.9124 122.308C65.017 114.73 53.024 95.3115 53.024 95.3115Z" fill="#212B53"/>
<path d="M92.3173 65.3149L98.1559 66.2622L103.679 72.2615C103.679 72.2615 100.996 73.5245 96.8935 69.4197C88.8457 68.7882 91.0549 67.3673 91.0549 67.3673L92.3173 65.3149Z" fill="#F4A086"/>
<path d="M26.6709 62.631C26.6709 62.631 38.5061 86.3125 45.7651 87.5755C53.024 88.9964 84.7425 73.3666 84.7425 73.3666L86.0049 68.3146L53.0241 73.0509L45.1339 56.7896L26.6709 62.631Z" fill="#F8B68F"/>
<path d="M98.7872 186.564C98.7872 186.564 102.259 189.722 109.991 191.616C111.727 192.09 113.463 191.459 113.463 194.3C109.833 194.3 103.995 194.3 103.995 194.3L96.1046 192.88V194.3H91.8439C91.8439 194.3 90.7392 187.354 93.1063 186.564C95.6311 186.564 98.7872 186.564 98.7872 186.564Z" fill="#212B53"/>
<path d="M97.9986 181.67L98.7876 186.565C97.2096 187.67 95.158 187.67 93.58 186.723L93.2645 186.565L92.002 181.67H97.9986Z" fill="#F8B68F"/>
<path d="M98.6292 70.8409C98.6292 70.3673 98.3136 69.7358 97.8401 69.5779L92.9482 67.6833C91.6858 67.2097 90.4233 67.2097 89.1609 67.6833L84.269 68.6306L83.7956 69.5779L83.48 74.1563C84.4268 73.8406 85.058 73.5248 85.058 73.5248L88.2141 73.0512C88.2141 73.0512 94.9997 77.6296 97.209 72.4197C98.1558 77.4718 99.576 76.8402 99.576 76.8402L98.6292 70.8409Z" fill="#F8B68F"/>
<path d="M11.2067 95.3115C11.2067 95.3115 5.05232 121.045 61.3881 129.887C65.3332 130.518 68.4892 133.36 69.436 137.307C74.3279 156.41 92.0019 183.723 92.0019 183.723H99.2609L87.4256 131.623C86.6366 127.834 84.5851 124.519 81.7446 121.835L53.0245 95.3115H11.2067Z" fill="#043C5E"/>
<path d="M46.2386 196.353L36.7705 127.361L35.0347 127.519L44.5029 196.353H46.2386Z" fill="#B0D9C8"/>
<path d="M48.9215 127.519H7.41943C7.41943 127.519 7.41943 124.677 7.41943 119.309C21.9373 112.678 48.9215 123.414 48.9215 123.414V127.519Z" fill="#15ACB4"/>
<path d="M7.41919 126.571V124.835C7.26139 124.835 1.58046 124.677 1.58046 115.52C1.58046 105.574 7.73478 90.5755 7.89258 90.4176L6.31455 89.7861C5.99894 90.4176 0.00243186 105.258 0.00243186 115.52C-0.155371 126.414 7.41919 126.571 7.41919 126.571Z" fill="#B0D9C8"/>
<path d="M17.0451 92.4701C6.78781 90.102 5.52539 91.365 5.52539 91.365C5.52539 91.365 8.68154 79.3663 5.68325 72.104C18.1498 64.8416 20.5168 73.5249 20.5168 73.5249C20.5168 73.5249 22.7261 80.9451 17.0451 92.4701Z" fill="#15ACB4"/>
<path d="M3.31597 196.353L12.7842 127.519L11.0483 127.361L1.58008 196.353H3.31597Z" fill="#B0D9C8"/>
<path d="M167.904 81.5762H78.1143C78.1143 79.8395 79.5345 78.2607 81.4282 78.2607H164.748C166.484 78.4186 167.904 79.8395 167.904 81.5762Z" fill="#212B53"/>
<path d="M79.8503 196.353L77.7988 196.037L87.1092 81.5762L89.1606 81.8919L79.8503 196.353Z" fill="#B0D9C8"/>
<path d="M165.222 196.353L167.273 196.037L157.963 81.5762L156.069 81.8919L165.222 196.353Z" fill="#B0D9C8"/>
<path d="M108.097 76.8398H89.1611V78.4186H108.097V76.8398Z" fill="url(#paint1_linear)"/>
<path d="M128.139 78.1031H114.726V76.0507H128.139C131.768 76.0507 134.924 73.3668 135.398 69.7357L144.55 13.3735L146.602 13.6893L137.449 70.0514C136.818 74.6298 132.873 78.1031 128.139 78.1031Z" fill="url(#paint2_linear)"/>
<path d="M144.55 13.3735L143.13 14.3208L134.608 65.9466L135.713 67.3675L144.55 13.3735Z" fill="#212B53"/>
<defs>
<linearGradient id="paint0_linear" x1="138.223" y1="45.901" x2="145.098" y2="45.232" gradientUnits="userSpaceOnUse">
<stop stop-color="#E0F0EB"/>
<stop offset="1" stop-color="#C0E4EF"/>
</linearGradient>
<linearGradient id="paint1_linear" x1="89.0865" y1="77.5884" x2="107.944" y2="77.5884" gradientUnits="userSpaceOnUse">
<stop stop-color="#E0F0EB"/>
<stop offset="1" stop-color="#C0E4EF"/>
</linearGradient>
<linearGradient id="paint2_linear" x1="114.809" y1="45.6763" x2="146.532" y2="45.6763" gradientUnits="userSpaceOnUse">
<stop stop-color="#E0F0EB"/>
<stop offset="1" stop-color="#C0E4EF"/>
</linearGradient>
</defs>
</svg>
