<svg width="88" height="88" viewBox="0 0 88 88" fill="none" xmlns="http://www.w3.org/2000/svg">
<path d="M44 88C68.3005 88 88 68.3005 88 44C88 19.6995 68.3005 0 44 0C19.6995 0 0 19.6995 0 44C0 68.3005 19.6995 88 44 88Z" fill="#FF9D00"/>
<path d="M88 44V43.9828L41.5 19.5L18 40.5L40.5109 87.8625C41.6625 87.9484 42.8312 88 44 88C68.3031 88 88 68.3031 88 44Z" fill="#F49600"/>
<path d="M43.5 68C36.6867 68 30.2818 65.3504 25.4707 60.5293C20.6496 55.7182 18 49.3133 18 42.5C18 35.6867 20.6496 29.2818 25.4707 24.4707C30.2818 19.6496 36.6867 17 43.5 17C50.3133 17 56.7182 19.6496 61.5293 24.4707C66.3504 29.2918 69 35.6867 69 42.5C69 49.3133 66.3504 55.7182 61.5293 60.5293C56.7082 65.3404 50.3133 68 43.5 68ZM43.5 23.9527C33.2701 23.9527 24.9527 32.2701 24.9527 42.5C24.9527 52.7299 33.2701 61.0473 43.5 61.0473C53.7299 61.0473 62.0473 52.7299 62.0473 42.5C62.0473 32.2701 53.7299 23.9527 43.5 23.9527Z" fill="white"/>
<g opacity="0.1">
<path opacity="0.1" d="M30.1025 60.5293C25.2814 55.7082 22.6318 49.3133 22.6318 42.5C22.6318 35.6867 25.2814 29.2818 30.1025 24.4707C34.3658 20.2074 39.8842 17.6375 45.8209 17.1096C45.0539 17.0398 44.277 17 43.5 17C36.6867 17 30.2818 19.6496 25.4707 24.4707C20.6496 29.2818 18 35.6867 18 42.5C18 49.3133 20.6496 55.7182 25.4707 60.5293C30.2918 65.3504 36.6867 68 43.5 68C44.277 68 45.0539 67.9602 45.8209 67.8904C39.8842 67.3625 34.3658 64.7926 30.1025 60.5293Z" fill="black"/>
</g>
</svg>
