<svg width="88" height="88" viewBox="0 0 88 88" fill="none" xmlns="http://www.w3.org/2000/svg">
<path d="M44 88C68.3005 88 88 68.3005 88 44C88 19.6995 68.3005 0 44 0C19.6995 0 0 19.6995 0 44C0 68.3005 19.6995 88 44 88Z" fill="#00C7FF"/>
<path d="M88 44V43.9828L67.3922 23.375L17.2734 64.625L40.5109 87.8625C41.6625 87.9484 42.8312 88 44 88C68.3031 88 88 68.3031 88 44Z" fill="#0093C4"/>
<path d="M67.3924 23.375H44.0002L41.9033 60.0531L67.3924 57.9563V23.375Z" fill="#9ABADB"/>
<path d="M20.6074 23.375V57.9563L43.9996 60.0531V23.375H20.6074Z" fill="#D1E8FF"/>
<path d="M70.7258 57.9563H43.9992L41.9023 61.2907L43.9992 64.625H70.7258V57.9563Z" fill="#D1E8FF"/>
<path d="M44 57.9563H17.2734V64.6079H44V57.9563Z" fill="#F5F5FF"/>
<path d="M64.2643 26.5032H44.0002L41.9033 40.6657L44.0002 54.8282H64.2643V26.5032Z" fill="#294B6E"/>
<path d="M44.0004 26.5032H23.7363V54.8282H44.0004V26.5032Z" fill="#6283A3"/>
<path d="M35.9387 48.9673L27.6543 40.6657L35.9387 32.3813L38.1559 34.5813L32.0715 40.6657L38.1559 46.7501L35.9387 48.9673Z" fill="#F5F5FF"/>
<path d="M52.0609 48.967L49.8438 46.7499L55.9281 40.6655L49.8438 34.5811L52.0609 32.3811L60.3453 40.6655L52.0609 48.967Z" fill="#D1E8FF"/>
<path d="M44.3913 30.6546L40.5283 50.0745L43.5964 50.6848L47.4594 31.2649L44.3913 30.6546Z" fill="#D1E8FF"/>
</svg>
