<svg width="158" height="136" viewBox="0 0 158 136" fill="none" xmlns="http://www.w3.org/2000/svg">
<path d="M40.7133 11.9985L56.178 14.9982L44.1849 24.6287L0 55.2568L40.7133 11.9985Z" fill="#B0D9C8"/>
<path d="M56.178 14.9985L39.293 34.1016L40.5554 27.1551L56.178 14.9985Z" fill="#15ACB4"/>
<path d="M40.7134 11.9986L32.6653 0L0 55.2569L40.7134 11.9986Z" fill="url(#paint0_linear)"/>
<path d="M0 55.257L44.1849 24.6289L55.0734 42.7848L0 55.257Z" fill="url(#paint1_linear)"/>
<path d="M63.7528 28.1019C63.7528 27.944 63.7528 27.7861 63.7528 27.6283C63.595 26.9967 62.9638 26.5231 62.3325 26.681C60.2811 27.1546 58.2297 27.6283 56.336 28.4176C55.7048 28.7334 55.3893 29.3649 55.7049 29.9964C56.0205 30.6279 56.6517 30.9437 57.2829 30.6279C59.0187 29.9964 60.9124 29.3649 62.806 29.0491C63.4372 28.8913 63.7528 28.5755 63.7528 28.1019Z" fill="#15ACB4"/>
<path d="M155.752 123.144C155.12 122.986 154.647 122.512 154.647 121.723C155.12 117.934 154.963 114.145 154.016 110.04C153.858 109.408 154.331 108.777 154.963 108.619C155.594 108.461 156.225 108.935 156.383 109.566C157.33 113.829 157.487 118.092 157.014 122.039C157.014 122.828 156.383 123.302 155.752 123.144ZM153.542 104.199C152.911 104.514 152.28 104.199 151.964 103.567C150.386 99.9359 148.493 96.4626 145.968 93.4629C145.494 92.9893 145.652 92.1999 146.126 91.7262C146.599 91.2526 147.388 91.4105 147.862 91.8841C150.386 95.1995 152.596 98.6728 154.174 102.62C154.331 102.778 154.331 103.093 154.174 103.251C154.174 103.725 153.858 104.041 153.542 104.199ZM142.97 88.0951C142.496 88.5687 141.707 88.5687 141.234 88.253L140.76 87.9372C138.078 85.569 134.922 83.3588 131.45 81.4642C130.819 81.1485 130.661 80.3591 130.977 79.8855C131.292 79.254 132.081 79.0961 132.555 79.4118C136.026 81.3064 139.34 83.6745 142.181 86.2006L142.654 86.5163C142.97 86.8321 143.127 87.3057 142.97 87.6215C143.127 87.7793 142.97 87.9372 142.97 88.0951ZM126.716 77.6752C126.4 78.3067 125.769 78.6225 125.138 78.3067C121.666 76.8858 117.879 75.6228 113.776 74.5177C113.145 74.3598 112.829 73.7283 112.987 73.0968C113.145 72.4653 113.776 72.1495 114.407 72.3074C118.51 73.4125 122.455 74.8334 126.085 76.2543C126.558 76.4122 126.874 77.0437 126.716 77.5173V77.6752ZM108.253 71.8338C108.095 72.4653 107.464 72.9389 106.833 72.781C106.517 72.781 106.202 72.6231 105.886 72.6231C105.57 73.8862 105.097 75.1492 104.466 76.4122C104.15 77.0437 103.519 77.3595 102.888 77.0437C102.257 76.7279 101.941 76.0964 102.257 75.4649C102.73 74.3598 103.046 73.2546 103.519 72.1495C100.836 71.6759 98.1537 71.2022 94.9976 70.8865C94.3664 70.7286 93.893 70.255 94.0508 69.4656C94.2086 68.8341 94.682 68.3605 95.471 68.5183C98.6271 68.992 101.468 69.4656 104.308 69.9392C104.781 68.0447 105.097 66.1502 105.097 64.2557C105.097 63.6241 105.728 63.1505 106.359 63.1505C106.991 63.1505 107.464 63.782 107.464 64.4135C107.306 66.4659 106.991 68.3605 106.517 70.4129C106.833 70.4129 107.148 70.5707 107.306 70.5707C107.937 70.5707 108.411 71.2022 108.253 71.8338ZM106.044 58.2563C105.413 58.4142 104.781 57.9406 104.624 57.3091C104.308 54.9409 103.677 52.5728 102.888 50.3625C102.414 48.9416 101.625 47.6786 100.994 46.4156C100.678 45.7841 100.836 45.1525 101.468 44.8368C102.099 44.521 102.73 44.6789 103.046 45.3104C103.835 46.7313 104.624 48.1522 105.097 49.5731C106.044 51.9413 106.675 54.4673 106.991 56.9933C106.991 57.1512 106.991 57.3091 106.991 57.3091C106.991 57.7827 106.675 58.0985 106.044 58.2563ZM100.994 83.043C98.6271 86.6742 95.7866 89.6739 92.6306 92.1999C92.1572 92.6735 91.3682 92.5156 90.8948 92.042C90.4214 91.5684 90.5791 90.779 91.0526 90.3054C94.0508 87.9372 96.7334 85.0954 98.9427 81.6221C99.2583 80.9906 100.047 80.8327 100.679 81.3064C101.152 81.6221 101.31 82.0958 101.152 82.5694C101.152 82.8851 101.152 82.8851 100.994 83.043ZM98.6271 40.732C98.1537 41.2056 97.3647 41.2056 96.8913 40.5741C94.3664 37.7323 91.2104 35.2063 87.7387 33.3118C87.1075 32.996 86.9497 32.2066 87.2653 31.733C87.581 31.1015 88.37 30.9436 88.8434 31.2594C92.6306 33.3118 95.7866 35.9957 98.6271 38.9953C98.9427 39.3111 98.9427 39.6269 98.9427 40.1005C98.9427 40.2584 98.7849 40.4162 98.6271 40.732ZM86.3185 96.1468C85.3717 96.6204 84.2671 97.0941 83.3203 97.4098C80.322 98.3571 77.1659 98.8307 74.0099 98.8307C73.3787 98.8307 72.9052 98.1992 72.9052 97.5677C72.9052 96.9362 73.5364 96.4626 74.1676 96.4626C77.0081 96.6204 79.8486 96.1468 82.5313 95.1995C83.4781 94.8838 84.4249 94.568 85.3717 94.0944C86.0029 93.7786 86.6341 94.0944 86.9497 94.7259C87.1075 95.0417 87.1075 95.1995 87.1075 95.5153C86.7919 95.6732 86.6341 95.9889 86.3185 96.1468ZM87.8965 69.9392C83.1624 69.4656 79.3752 69.6235 76.2192 70.255C75.5879 70.4129 74.9567 69.9392 74.7989 69.3077C74.6411 68.6762 75.1145 68.0447 75.7457 67.8868C79.2173 67.2553 83.1625 67.2553 88.0544 67.5711C88.6856 67.5711 89.1589 68.2026 89.1589 68.8341V68.992C89.0011 69.6235 88.5277 70.0971 87.8965 69.9392ZM82.8468 29.6806C82.689 30.3121 81.9 30.6279 81.2688 30.47C79.5329 29.8385 77.7971 29.3649 76.0613 29.0491C74.0099 28.5755 71.8006 28.4176 69.7492 28.4176C69.118 28.4176 68.4867 27.7861 68.6445 27.1546C68.6445 26.5231 69.2758 25.8916 69.907 26.0494C72.1163 26.0494 74.4833 26.3652 76.6925 26.6809C78.5862 26.9967 80.322 27.4703 82.2156 28.1018C82.8469 28.2597 83.1625 28.8912 83.0047 29.5227C82.8469 29.5227 82.8468 29.6806 82.8468 29.6806ZM68.0134 96.6204C67.6978 97.2519 67.0666 97.5677 66.4354 97.2519C63.2793 95.8311 60.7544 93.4629 59.492 90.6211C59.0186 89.516 58.703 88.4108 58.5452 87.3057C58.3874 86.6742 58.8608 86.0427 59.492 85.8848C60.1232 85.7269 60.7545 86.2006 60.9123 86.8321C61.0701 87.7793 61.2279 88.7266 61.7013 89.516C62.8059 91.8841 64.6995 93.7786 67.3821 94.8838C67.8556 95.0417 68.1712 95.6732 68.0134 96.1468C68.1712 96.4626 68.1712 96.4626 68.0134 96.6204ZM69.5914 72.3074C66.2776 74.044 63.4371 77.0437 62.0169 80.3591C61.7013 80.9906 61.0701 81.3064 60.4389 80.9906C59.8077 80.6749 59.492 80.0434 59.8076 79.4118C61.5435 75.4649 64.6995 72.1495 68.4868 70.0971C69.118 69.7814 69.7492 70.0971 70.0648 70.5707C70.2226 70.8865 70.2226 71.0444 70.2226 71.3601C70.0648 71.8338 69.907 72.1495 69.5914 72.3074Z" fill="#15ACB4"/>
<path d="M155.278 129.459C155.436 128.986 155.12 128.354 154.489 128.196C153.858 127.88 153.227 128.196 152.911 128.828C152.122 130.564 151.333 132.301 150.229 133.88C149.913 134.353 149.913 135.143 150.544 135.616C151.018 135.932 151.807 135.932 152.28 135.301C153.542 133.564 154.489 131.669 155.278 129.775C155.278 129.617 155.278 129.459 155.278 129.459Z" fill="#15ACB4"/>
<defs>
<linearGradient id="paint0_linear" x1="-1.05313" y1="54.4738" x2="38.0177" y2="4.2568" gradientUnits="userSpaceOnUse">
<stop offset="6.3e-07" stop-color="#F1F8F8"/>
<stop offset="1" stop-color="#C0E4EF"/>
</linearGradient>
<linearGradient id="paint1_linear" x1="14.1342" y1="66.2903" x2="45.6422" y2="25.7938" gradientUnits="userSpaceOnUse">
<stop offset="6.3e-07" stop-color="#F1F8F8"/>
<stop offset="1" stop-color="#C0E4EF"/>
</linearGradient>
</defs>
</svg>
