<svg width="292" height="174" viewBox="0 0 292 174" fill="none" xmlns="http://www.w3.org/2000/svg">
<path d="M291.607 27.5694L250.105 4.67723L228.96 0.414551L213.021 2.7827L291.607 27.5694Z" fill="url(#paint0_linear)"/>
<path d="M291.607 27.5694L213.968 7.51902L213.021 2.78271" fill="#B0D9C8"/>
<path d="M211.759 20.9385V21.0964L215.073 33.095L291.449 27.5693L211.759 20.9385Z" fill="#15ACB4"/>
<path d="M196.926 13.8339L207.972 4.83496L291.134 27.4114L219.492 25.359L196.926 13.8339Z" fill="url(#paint1_linear)"/>
<path d="M22.2384 167.764C24.7633 166.817 27.2881 165.712 29.6552 164.449C30.2864 164.133 30.9176 164.449 31.2332 164.923C31.5488 165.554 31.2332 166.186 30.7598 166.501C28.235 167.764 25.7101 168.869 23.0274 169.817C22.0806 170.132 21.1338 170.448 20.187 170.764C19.8714 170.922 19.398 170.764 19.2402 170.606C19.0824 170.448 18.9246 170.29 18.7668 169.975C18.609 169.343 18.9246 168.712 19.5558 168.554C20.3448 168.396 21.2916 168.08 22.2384 167.764Z" fill="#15ACB4"/>
<path d="M174.202 5.46663C177.674 5.94026 181.461 6.57177 185.406 7.20328C186.038 7.36115 186.353 7.83478 186.353 8.46629C186.195 9.0978 185.722 9.41355 185.091 9.41355C181.146 8.62417 177.516 8.15054 174.045 7.67691C173.887 7.67691 173.729 7.51903 173.571 7.51903C173.256 7.36115 173.098 6.88752 173.098 6.41389C172.94 5.78239 173.571 5.30876 174.202 5.46663Z" fill="#15ACB4"/>
<path d="M155.424 6.25601C155.108 6.09813 154.95 5.78238 154.95 5.30875C154.95 4.67724 155.424 4.20361 156.055 4.20361C159.684 4.20361 163.472 4.36149 167.417 4.67724C168.048 4.67724 168.521 5.30875 168.521 5.94026C168.521 6.57176 167.89 7.04539 167.259 7.04539C163.472 6.72964 159.684 6.57177 156.055 6.57177C155.739 6.57177 155.581 6.41389 155.424 6.25601Z" fill="#15ACB4"/>
<path d="M44.0148 154.187C44.4882 153.713 45.1194 153.713 45.5929 154.187C46.0663 154.66 46.0663 155.292 45.5929 155.766C42.9102 158.449 39.9119 160.818 36.7559 163.028C36.2825 163.344 35.8091 163.344 35.4935 163.028C35.3357 163.028 35.3357 162.87 35.1779 162.712C34.8623 162.239 35.0201 161.449 35.4935 161.133C38.4917 159.081 41.3322 156.713 44.0148 154.187Z" fill="#15ACB4"/>
<path d="M48.5916 150.872C48.1182 150.398 48.1182 149.766 48.4338 149.293C49.065 148.503 49.6963 147.714 50.3275 146.925C51.9055 144.714 53.3257 142.504 54.5881 140.136C54.9037 139.662 55.5349 139.347 56.1661 139.662C56.6395 139.978 56.9551 140.61 56.6395 141.241C55.3771 143.609 53.7991 145.977 52.0633 148.345C51.4321 149.135 50.8009 150.082 50.1696 150.872C49.854 151.187 49.2228 151.345 48.5916 150.872Z" fill="#15ACB4"/>
<path d="M58.0591 135.557C57.9013 135.557 57.9013 135.399 57.7435 135.399C57.27 135.084 57.1123 134.61 57.4279 134.136C58.6903 130.821 59.9527 127.348 60.8995 123.559C61.0573 122.927 61.6886 122.611 62.3198 122.769C62.951 122.927 63.2666 123.559 63.1088 124.19C62.162 128.137 60.8995 131.768 59.6371 135.084C59.3215 135.557 58.6903 135.873 58.0591 135.557Z" fill="#15ACB4"/>
<path d="M88.0424 39.2521C87.0956 40.3573 86.1488 41.6203 85.3597 42.7254C84.0973 44.4621 82.8349 46.3566 81.5725 48.2511C81.2569 48.7247 80.4678 48.8826 79.9944 48.5668C79.521 48.2511 79.3632 47.6196 79.6789 46.9881C80.9413 45.0936 82.2037 43.199 83.6239 41.3045C84.5708 40.0415 85.5176 38.9364 86.4644 37.6733C86.9378 37.1997 87.569 37.0418 88.0424 37.5155C88.358 38.147 88.358 38.7785 88.0424 39.2521Z" fill="#15ACB4"/>
<path d="M78.2579 54.0929C76.522 57.4083 75.1018 60.8816 73.8394 64.3549C73.6816 64.9864 73.0504 65.3022 72.4192 64.9864C72.2614 64.9864 72.2613 64.8286 72.1035 64.8286C71.7879 64.5128 71.4724 64.0392 71.788 63.5655C73.0504 60.0922 74.6284 56.4611 76.3642 53.1457C76.6798 52.5142 77.3111 52.3563 77.9423 52.672C78.2579 52.8299 78.4157 53.6193 78.2579 54.0929Z" fill="#15ACB4"/>
<path d="M100.666 26.6222C97.8258 28.9904 94.9853 31.5164 92.4604 34.2003C91.987 34.674 91.3558 34.674 91.0402 34.3582C91.0402 34.3582 91.0402 34.3582 90.8824 34.2003C90.409 33.7267 90.409 33.0952 90.8824 32.6216C93.5651 29.9376 96.2478 27.2537 99.246 24.8856C99.7195 24.412 100.508 24.5698 100.824 25.0435C101.14 25.5171 101.14 26.3065 100.666 26.6222Z" fill="#15ACB4"/>
<path d="M121.496 13.834C121.181 13.9919 120.707 13.9919 120.392 13.6761C120.234 13.5182 120.076 13.3604 120.076 13.2025C119.76 12.571 120.076 11.9395 120.707 11.7816C124.179 10.2028 127.808 8.9398 131.438 7.83467C132.069 7.67679 132.7 7.99254 132.858 8.62405C133.016 9.25556 132.7 9.88706 132.069 10.0449C128.282 10.9922 124.81 12.4131 121.496 13.834Z" fill="#15ACB4"/>
<path d="M65.7916 100.508C65.6337 100.508 65.476 100.35 65.3182 100.35C65.0026 100.193 64.8447 99.7189 64.8447 99.2452L65.0025 97.8243C65.3181 94.5089 65.7916 91.3514 66.1072 88.036C66.265 87.4045 66.7384 86.9308 67.3696 87.0887C68.0008 87.2466 68.4742 87.7202 68.3164 88.3517C67.843 91.6671 67.5274 94.8247 67.2118 98.1401L67.054 99.561C67.054 100.035 66.4228 100.508 65.7916 100.508Z" fill="#15ACB4"/>
<path d="M105.874 22.6753C105.401 22.991 104.927 22.991 104.612 22.6753C104.454 22.6753 104.454 22.5174 104.296 22.3595C103.981 21.8859 103.981 21.0965 104.612 20.7807C107.768 18.5705 110.924 16.5181 114.396 14.7814C114.869 14.4657 115.658 14.6235 115.974 15.255C116.289 15.7287 116.131 16.5181 115.5 16.8338C112.186 18.5705 109.03 20.465 105.874 22.6753Z" fill="#15ACB4"/>
<path d="M65.3186 104.929C65.9498 105.087 66.4232 105.561 66.2654 106.192C65.6342 110.613 65.1607 114.086 64.5295 117.401C64.3717 118.033 63.8983 118.349 63.2671 118.349C63.1093 118.349 62.9515 118.191 62.7937 118.191C62.4781 117.875 62.3203 117.559 62.3203 117.086C62.9515 113.928 63.4249 110.297 64.0561 106.034C64.0561 105.245 64.6873 104.929 65.3186 104.929Z" fill="#15ACB4"/>
<path d="M12.9277 170.29C13.5589 170.132 14.1901 170.606 14.1901 171.238C14.348 171.869 13.8746 172.501 13.2433 172.501C9.77169 173.132 5.98441 173.606 1.88154 173.922C1.56594 173.922 1.40813 173.922 1.09253 173.764C0.776924 173.606 0.619141 173.29 0.619141 172.974C0.619141 172.343 1.09254 171.869 1.72375 171.711C5.98442 171.395 9.45607 170.922 12.9277 170.29Z" fill="#15ACB4"/>
<path d="M70.9992 69.2487C71.6304 69.4066 71.9461 70.0381 71.7882 70.6696C70.8414 73.985 70.2102 77.6162 69.4212 81.5631C69.2634 82.1946 68.79 82.6683 68.1587 82.5104C68.0009 82.5104 67.8432 82.3525 67.6854 82.3525C67.3697 82.0368 67.2119 81.721 67.2119 81.2474C67.8431 77.1426 68.6321 73.5114 69.579 70.0381C69.7368 69.5645 70.368 69.0909 70.9992 69.2487Z" fill="#15ACB4"/>
<path d="M145.166 4.993C146.429 4.83512 147.849 4.67725 149.111 4.67725C149.742 4.67725 150.216 5.15088 150.374 5.78239C150.374 6.41389 149.9 6.88752 149.269 7.0454C148.007 7.20328 146.744 7.20328 145.482 7.36116C143.115 7.67691 140.748 7.99266 138.38 8.46629C138.065 8.46629 137.749 8.46629 137.434 8.30841C137.276 8.15054 137.118 7.99266 136.96 7.6769C136.802 7.0454 137.276 6.41389 137.907 6.41389C140.274 5.62451 142.799 5.30876 145.166 4.993Z" fill="#15ACB4"/>
<defs>
<linearGradient id="paint0_linear" x1="212.949" y1="13.9972" x2="291.595" y2="13.9972" gradientUnits="userSpaceOnUse">
<stop offset="6.3e-07" stop-color="#F1F8F8"/>
<stop offset="1" stop-color="#C0E4EF"/>
</linearGradient>
<linearGradient id="paint1_linear" x1="196.887" y1="16.147" x2="291.091" y2="16.147" gradientUnits="userSpaceOnUse">
<stop offset="6.3e-07" stop-color="#F1F8F8"/>
<stop offset="1" stop-color="#C0E4EF"/>
</linearGradient>
</defs>
</svg>
