<svg width="271" height="235" viewBox="0 0 271 235" fill="none" xmlns="http://www.w3.org/2000/svg">
<path d="M67.6809 235L0 117.5L67.6809 0H203.319L271 117.5L203.319 235H67.6809Z" fill="url(#paint0_linear)"/>
<path d="M83.0693 207L31 117.5L83.0693 28H186.931L239 117.5L186.931 207H83.0693Z" fill="url(#paint1_linear)"/>
<path d="M83.0693 207L31 117.5L83.0693 28H186.931L239 117.5L186.931 207H83.0693Z" fill="white"/>
<g clip-path="url(#clip0)">
<path d="M176.906 147.25H167.472V140.219H176.906C181.182 140.219 184.704 136.75 184.704 132.469V109.969C184.704 105.719 181.214 102.219 176.906 102.219H167.472V95.1874H176.906C185.113 95.1874 191.748 101.812 191.748 109.937V132.437C191.748 140.625 185.113 147.25 176.906 147.25Z" fill="#4895FF"/>
<path d="M170.993 89.375V140.25L162.44 162.75H99.2952L92.2197 140.25V89.375C92.2197 87.4375 93.7921 85.875 95.7417 85.875H128.069L131.622 87.25L135.144 85.8438H167.471C169.421 85.8438 170.993 87.4063 170.993 89.375Z" fill="#7ED8F6"/>
<path d="M170.994 89.375V140.25L162.44 162.75H131.623V87.25L135.145 85.8438H167.472C169.421 85.8438 170.994 87.4063 170.994 89.375Z" fill="#6AA9FF"/>
<path d="M135.144 104.375V85.8438H128.069V104.375L131.622 106L135.144 104.375Z" fill="#EDF5FF"/>
<path d="M131.623 85.8438V106L135.145 104.375V85.8438H131.623Z" fill="#D5E8FE"/>
<path d="M110.616 77.4062C109.987 77.4062 109.358 77.2499 108.792 76.9062C107.126 75.9062 106.56 73.7499 107.566 72.0937L109.956 68.1874C110.427 67.4062 110.302 66.6874 110.207 66.3124C110.082 65.9374 109.799 65.2499 108.981 64.8749C106.622 63.7187 104.83 61.6249 104.075 59.0937C103.321 56.5937 103.666 53.8437 105.05 51.5937L107.409 47.6874C108.383 46.0312 110.553 45.4999 112.22 46.4999C113.887 47.4999 114.453 49.6562 113.446 51.3124L111.088 55.2187C110.616 55.9999 110.742 56.7187 110.836 57.0937C110.962 57.4687 111.245 58.1562 112.063 58.5312C114.421 59.6874 116.214 61.7812 116.968 64.3124C117.723 66.8124 117.377 69.5624 116.025 71.8124L113.666 75.6874C113.006 76.8124 111.843 77.4062 110.616 77.4062Z" fill="#D9E1EB"/>
<path d="M131.371 77.4062C130.742 77.4062 130.113 77.2499 129.547 76.9062C127.88 75.9062 127.314 73.7499 128.32 72.0937L130.679 68.1874C131.151 67.4062 131.025 66.6874 130.931 66.3124C130.805 65.9374 130.522 65.2499 129.704 64.8749C127.346 63.7187 125.553 61.6249 124.798 59.0937C124.044 56.5937 124.39 53.8437 125.773 51.5937L128.132 47.6874C129.138 46.0312 131.308 45.4687 132.975 46.4687C134.641 47.4687 135.207 49.6249 134.201 51.2812L131.842 55.1874C131.371 55.9687 131.497 56.6874 131.591 57.0624C131.717 57.4374 132 58.1249 132.817 58.4999C135.176 59.6562 136.968 61.7499 137.723 64.2812C138.478 66.7812 138.132 69.5312 136.78 71.7812L134.421 75.6874C133.761 76.8124 132.597 77.4062 131.371 77.4062Z" fill="#D9E1EB"/>
<path d="M152.849 77.4062C152.22 77.4062 151.591 77.2499 151.025 76.9062C149.358 75.9062 148.792 73.7499 149.798 72.0937L152.157 68.1874C152.629 67.4062 152.503 66.6874 152.409 66.3124C152.283 65.9374 152 65.2499 151.182 64.8749C148.824 63.7187 147.031 61.6249 146.276 59.0937C145.522 56.5937 145.868 53.8437 147.251 51.5937L149.61 47.6874C150.616 46.0312 152.786 45.4687 154.453 46.4687C156.119 47.4687 156.685 49.6249 155.679 51.2812L153.32 55.1874C152.849 55.9687 152.975 56.6874 153.069 57.0624C153.195 57.4374 153.478 58.1249 154.295 58.4999C156.654 59.6562 158.446 61.7499 159.201 64.2812C159.956 66.7812 159.61 69.5312 158.258 71.7812L155.868 75.6874C155.207 76.8124 154.044 77.4062 152.849 77.4062Z" fill="#D9E1EB"/>
<path d="M145.459 113.125L134.138 101.875C132.754 100.5 130.521 100.5 129.138 101.875L117.817 113.125C117.157 113.781 116.779 114.687 116.779 115.625V128.5C116.779 130.437 118.352 132 120.333 132H142.974C144.924 132 146.496 130.437 146.496 128.5V115.625C146.465 114.687 146.119 113.781 145.459 113.125Z" fill="#FED843"/>
<path d="M142.943 132.031C144.893 132.031 146.465 130.469 146.465 128.531V115.656C146.465 114.719 146.088 113.844 145.427 113.156L134.107 101.906C133.415 101.219 132.503 100.875 131.591 100.875V132.062H142.943V132.031Z" fill="#FF9100"/>
<path d="M92.251 140.219V154.969C92.251 161.063 97.1881 166 103.32 166H159.924C166.056 166 170.993 161.063 170.993 154.969V140.219H92.251ZM135.144 147.25H145.993V158.969H135.144V147.25ZM128.1 158.969H117.22V147.25H128.069V158.969H128.1ZM99.295 155V147.25H110.144V158.969H103.32C101.119 158.969 99.295 157.187 99.295 155ZM163.949 155C163.949 157.187 162.157 159 159.924 159H153.069V147.25H163.918V155H163.949Z" fill="#5F55AF"/>
<path d="M131.623 166H159.924C166.057 166 170.994 161.063 170.994 154.969V140.219H131.623V166ZM153.069 147.25H163.918V155C163.918 157.187 162.126 159 159.893 159H153.038V147.25H153.069ZM145.994 147.25V158.969H135.145V147.25H145.994Z" fill="#453D83"/>
</g>
<defs>
<linearGradient id="paint0_linear" x1="42.9219" y1="24.8307" x2="228.26" y2="210.021" gradientUnits="userSpaceOnUse">
<stop stop-color="#D4394C"/>
<stop offset="1" stop-color="#FC3A52"/>
</linearGradient>
<linearGradient id="paint1_linear" x1="64.0255" y1="46.9134" x2="205.196" y2="188.894" gradientUnits="userSpaceOnUse">
<stop stop-color="white"/>
<stop offset="0.2511" stop-color="#FAFAFA"/>
<stop offset="0.5396" stop-color="#ECECEC"/>
<stop offset="0.8455" stop-color="#D5D5D5"/>
<stop offset="1" stop-color="#C7C7C7"/>
</linearGradient>
<clipPath id="clip0">
<rect width="100" height="120" fill="white" transform="translate(92 46)"/>
</clipPath>
</defs>
</svg>
