<svg width="1400" height="469" viewBox="0 0 1400 469" fill="none" xmlns="http://www.w3.org/2000/svg">
<g opacity="0.3">
<path d="M1395.17 230H960.828C958.162 230 956 232.162 956 234.828C956 237.494 958.162 239.656 960.828 239.656H1395.17C1397.84 239.656 1400 237.494 1400 234.828C1400 232.162 1397.84 230 1395.17 230Z" fill="#E6E6E6"/>
</g>
<path d="M735.172 112.56H4.82794C2.16154 112.56 0 114.721 0 117.388C0 120.054 2.16156 122.216 4.82796 122.216H735.172C737.839 122.216 740 120.054 740 117.388C740 114.721 737.838 112.56 735.172 112.56Z" fill="#E6E6E6" fill-opacity="0.3"/>
<path d="M735.172 459.06H4.82795C2.16155 459.06 0 461.221 0 463.888C0 466.554 2.16155 468.716 4.82796 468.716H735.172C737.839 468.716 740 466.554 740 463.888C740 461.221 737.838 459.06 735.172 459.06Z" fill="#E6E6E6" fill-opacity="0.3"/>
<path d="M663.681 235L596 117L663.681 0H799.319L867 117L799.319 235H663.681Z" fill="url(#paint0_linear)"/>
<path d="M679.819 207L628 117.5L679.819 28H783.181L835 117.5L783.181 207H679.819Z" fill="url(#paint1_linear)"/>
<path d="M679.819 207L628 117.5L679.819 28H783.181L835 117.5L783.181 207H679.819Z" fill="white"/>
<g clip-path="url(#clip0)">
<path d="M736.589 146.374L721.04 161.916C720.378 162.578 719.506 162.91 718.633 162.91C717.761 162.91 716.889 162.578 716.227 161.916C714.904 160.59 714.904 158.452 716.227 157.127L731.777 141.584C733.1 140.259 735.236 140.259 736.559 141.584C737.912 142.91 737.912 145.048 736.589 146.374Z" fill="#EDF5FF"/>
<path d="M736.589 146.374L721.039 161.916C720.378 162.578 719.505 162.91 718.633 162.91C717.761 162.91 716.889 162.578 716.227 161.916L736.529 141.584C737.912 142.91 737.912 145.048 736.589 146.374Z" fill="#D5E8FE"/>
<path d="M774.756 116.163L761.973 103.361C760.71 102.096 758.695 102.036 757.342 103.211L737.04 120.982C736.348 121.584 735.927 122.488 735.897 123.422C735.867 124.355 736.228 125.259 736.89 125.922L752.379 141.434C753.011 142.066 753.883 142.428 754.785 142.428C754.815 142.428 754.875 142.428 754.905 142.428C755.838 142.398 756.74 141.976 757.342 141.253L774.906 120.771C776.079 119.416 775.989 117.398 774.756 116.163Z" fill="#E63950"/>
<path d="M774.906 120.771L757.342 141.253C756.74 141.976 755.838 142.398 754.905 142.428C754.875 142.428 754.815 142.428 754.785 142.428C753.883 142.428 753.041 142.066 752.379 141.434L744.559 133.602L768.349 109.777L774.756 116.193C775.989 117.398 776.079 119.416 774.906 120.771Z" fill="#AE2538"/>
<path d="M761.552 145.41C761.552 148.241 760.44 150.922 758.455 152.91L750.785 160.59C750.154 161.223 749.281 161.584 748.379 161.584C747.477 161.584 746.635 161.223 745.973 160.59L717.731 132.307C717.1 131.675 716.739 130.801 716.739 129.898C716.739 128.994 717.1 128.151 717.731 127.488L725.401 119.807C727.416 117.789 730.063 116.705 732.89 116.705C735.717 116.705 738.394 117.819 740.379 119.807L758.394 137.849C760.44 139.928 761.552 142.578 761.552 145.41Z" fill="#FF7B4A"/>
<path d="M761.552 145.41C761.552 148.241 760.439 150.922 758.454 152.91L750.785 160.59C750.153 161.223 749.281 161.584 748.379 161.584C747.476 161.584 746.634 161.223 745.973 160.59L731.747 146.343L749.311 128.753L758.424 137.88C760.439 139.928 761.552 142.578 761.552 145.41Z" fill="#E63950"/>
<path d="M786.395 122.398C784.38 124.416 781.733 125.5 778.906 125.5C776.079 125.5 773.402 124.386 771.417 122.398L755.928 106.886C753.913 104.868 752.83 102.217 752.83 99.3856C752.83 96.5543 753.943 93.8735 755.928 91.8856C760.048 87.7591 766.785 87.7591 770.936 91.8856L786.425 107.398C790.516 111.494 790.516 118.241 786.395 122.398Z" fill="#FF7B4A"/>
<path d="M786.395 122.398C784.38 124.416 781.733 125.5 778.906 125.5C776.079 125.5 773.402 124.386 771.417 122.398L763.597 114.566L778.605 99.5362L786.425 107.368C790.515 111.494 790.515 118.241 786.395 122.398Z" fill="#E63950"/>
<path d="M729.13 85.4398C728.258 85.4398 727.385 85.1085 726.754 84.4458C725.43 83.1205 725.43 80.982 726.754 79.6567L742.273 64.0844C743.596 62.7591 745.732 62.7591 747.055 64.0844C748.379 65.4097 748.379 67.5482 747.055 68.8735L731.536 84.4458C730.874 85.1085 730.002 85.4398 729.13 85.4398Z" fill="#EDF5FF"/>
<path d="M747.056 68.8735L731.536 84.4458C730.874 85.1084 730.002 85.4398 729.13 85.4398C728.258 85.4398 727.386 85.1084 726.724 84.4458L726.694 84.4157L746.995 64.0844C748.379 65.4097 748.379 67.5482 747.056 68.8735Z" fill="#D5E8FE"/>
<path d="M726.574 100.259L711.085 84.747C710.423 84.0843 709.521 83.7229 708.588 83.753C707.656 83.7831 706.784 84.2048 706.152 84.8976L688.407 105.229C687.234 106.584 687.294 108.602 688.557 109.867L701.34 122.639C702.001 123.301 702.874 123.633 703.746 123.633C704.528 123.633 705.31 123.361 705.941 122.819L726.393 105.229C727.115 104.627 727.536 103.723 727.566 102.789C727.626 101.825 727.266 100.922 726.574 100.259Z" fill="#FF9100"/>
<path d="M727.566 102.789C727.536 103.723 727.115 104.627 726.393 105.229L705.941 122.819C705.309 123.361 704.527 123.633 703.745 123.633C702.873 123.633 702.001 123.301 701.339 122.639L694.933 116.223L718.723 92.3976L726.543 100.229C727.265 100.922 727.626 101.825 727.566 102.789Z" fill="#FF641A"/>
<path d="M707.565 119.295L692.076 103.783C687.925 99.6266 681.218 99.6266 677.068 103.783C672.947 107.91 672.947 114.657 677.068 118.813L692.557 134.325C694.572 136.343 697.219 137.428 700.046 137.428C702.873 137.428 705.55 136.313 707.535 134.325C709.52 132.337 710.633 129.657 710.633 126.825C710.633 123.994 709.58 121.313 707.565 119.295Z" fill="#FED843"/>
<path d="M710.693 126.795C710.693 129.627 709.58 132.307 707.595 134.295C705.58 136.313 702.933 137.398 700.106 137.398C697.279 137.398 694.602 136.283 692.617 134.295L684.797 126.464L699.805 111.434L707.625 119.265C709.58 121.313 710.693 123.964 710.693 126.795Z" fill="#FF9100"/>
<path d="M745.732 98.6627L738.063 106.313C735.987 108.392 733.28 109.416 730.574 109.416C727.867 109.416 725.13 108.392 723.085 106.313L713.971 97.1868L705.039 88.241C703.054 86.2531 701.941 83.6025 701.941 80.7711C701.941 77.9398 703.054 75.2591 705.039 73.2711L712.708 65.5904C713.34 64.9579 714.212 64.5964 715.114 64.5964C716.017 64.5964 716.859 64.9579 717.52 65.5904L731.536 79.6266L745.762 93.8735C747.055 95.1988 747.055 97.3374 745.732 98.6627Z" fill="#FED843"/>
<path d="M745.732 98.6627L738.063 106.313C735.988 108.392 733.281 109.416 730.574 109.416C727.867 109.416 725.13 108.392 723.085 106.313L713.972 97.1868L731.536 79.5964L745.762 93.8434C747.056 95.1988 747.056 97.3374 745.732 98.6627Z" fill="#FF9100"/>
</g>
<path d="M866.681 352L799 234.5L866.681 117H1002.32L1070 234.5L1002.32 352H866.681Z" fill="url(#paint2_linear)"/>
<path d="M882.069 324L830 234.5L882.069 145H985.931L1038 234.5L985.931 324H882.069Z" fill="url(#paint3_linear)"/>
<path d="M882.069 324L830 234.5L882.069 145H985.931L1038 234.5L985.931 324H882.069Z" fill="white"/>
<g clip-path="url(#clip1)">
<path d="M975.906 264.25H966.472V257.219H975.906C980.182 257.219 983.704 253.75 983.704 249.469V226.969C983.704 222.719 980.214 219.219 975.906 219.219H966.472V212.187H975.906C984.113 212.187 990.748 218.812 990.748 226.937V249.437C990.748 257.625 984.113 264.25 975.906 264.25Z" fill="#4895FF"/>
<path d="M969.993 206.375V257.25L961.44 279.75H898.295L891.22 257.25V206.375C891.22 204.438 892.792 202.875 894.742 202.875H927.069L930.622 204.25L934.144 202.844H966.471C968.421 202.844 969.993 204.406 969.993 206.375Z" fill="#7ED8F6"/>
<path d="M969.994 206.375V257.25L961.44 279.75H930.623V204.25L934.145 202.844H966.472C968.421 202.844 969.994 204.406 969.994 206.375Z" fill="#6AA9FF"/>
<path d="M934.144 221.375V202.844H927.069V221.375L930.622 223L934.144 221.375Z" fill="#EDF5FF"/>
<path d="M930.623 202.844V223L934.145 221.375V202.844H930.623Z" fill="#D5E8FE"/>
<path d="M909.616 194.406C908.987 194.406 908.358 194.25 907.792 193.906C906.126 192.906 905.56 190.75 906.566 189.094L908.956 185.187C909.427 184.406 909.302 183.687 909.207 183.312C909.082 182.937 908.799 182.25 907.981 181.875C905.622 180.719 903.83 178.625 903.075 176.094C902.321 173.594 902.666 170.844 904.05 168.594L906.409 164.687C907.383 163.031 909.553 162.5 911.22 163.5C912.887 164.5 913.453 166.656 912.446 168.312L910.088 172.219C909.616 173 909.742 173.719 909.836 174.094C909.962 174.469 910.245 175.156 911.063 175.531C913.421 176.687 915.214 178.781 915.968 181.312C916.723 183.812 916.377 186.562 915.025 188.812L912.666 192.687C912.006 193.812 910.843 194.406 909.616 194.406Z" fill="#D9E1EB"/>
<path d="M930.371 194.406C929.742 194.406 929.113 194.25 928.547 193.906C926.88 192.906 926.314 190.75 927.32 189.094L929.679 185.187C930.151 184.406 930.025 183.687 929.931 183.312C929.805 182.937 929.522 182.25 928.704 181.875C926.346 180.719 924.553 178.625 923.798 176.094C923.044 173.594 923.39 170.844 924.773 168.594L927.132 164.687C928.138 163.031 930.308 162.469 931.975 163.469C933.641 164.469 934.207 166.625 933.201 168.281L930.842 172.187C930.371 172.969 930.497 173.687 930.591 174.062C930.717 174.437 931 175.125 931.817 175.5C934.176 176.656 935.968 178.75 936.723 181.281C937.478 183.781 937.132 186.531 935.78 188.781L933.421 192.687C932.761 193.812 931.597 194.406 930.371 194.406Z" fill="#D9E1EB"/>
<path d="M951.849 194.406C951.22 194.406 950.591 194.25 950.025 193.906C948.358 192.906 947.792 190.75 948.798 189.094L951.157 185.187C951.629 184.406 951.503 183.687 951.409 183.312C951.283 182.937 951 182.25 950.182 181.875C947.824 180.719 946.031 178.625 945.276 176.094C944.522 173.594 944.868 170.844 946.251 168.594L948.61 164.687C949.616 163.031 951.786 162.469 953.453 163.469C955.119 164.469 955.685 166.625 954.679 168.281L952.32 172.187C951.849 172.969 951.975 173.687 952.069 174.062C952.195 174.437 952.478 175.125 953.295 175.5C955.654 176.656 957.446 178.75 958.201 181.281C958.956 183.781 958.61 186.531 957.258 188.781L954.868 192.687C954.207 193.812 953.044 194.406 951.849 194.406Z" fill="#D9E1EB"/>
<path d="M944.459 230.125L933.138 218.875C931.754 217.5 929.521 217.5 928.138 218.875L916.817 230.125C916.157 230.781 915.779 231.687 915.779 232.625V245.5C915.779 247.437 917.352 249 919.333 249H941.974C943.924 249 945.496 247.437 945.496 245.5V232.625C945.465 231.687 945.119 230.781 944.459 230.125Z" fill="#FED843"/>
<path d="M941.943 249.031C943.893 249.031 945.465 247.469 945.465 245.531V232.656C945.465 231.719 945.088 230.844 944.427 230.156L933.107 218.906C932.415 218.219 931.503 217.875 930.591 217.875V249.062H941.943V249.031Z" fill="#FF9100"/>
<path d="M891.251 257.219V271.969C891.251 278.063 896.188 283 902.32 283H958.924C965.056 283 969.993 278.063 969.993 271.969V257.219H891.251ZM934.144 264.25H944.993V275.969H934.144V264.25ZM927.1 275.969H916.22V264.25H927.069V275.969H927.1ZM898.295 272V264.25H909.144V275.969H902.32C900.119 275.969 898.295 274.187 898.295 272ZM962.949 272C962.949 274.187 961.157 276 958.924 276H952.069V264.25H962.918V272H962.949Z" fill="#5F55AF"/>
<path d="M930.623 283H958.924C965.057 283 969.994 278.063 969.994 271.969V257.219H930.623V283ZM952.069 264.25H962.918V272C962.918 274.187 961.126 276 958.893 276H952.038V264.25H952.069ZM944.994 264.25V275.969H934.145V264.25H944.994Z" fill="#453D83"/>
</g>
<path d="M664 469L596 352L663.681 235H799.319L867 352L799.319 469H664Z" fill="url(#paint4_linear)"/>
<path d="M679.819 441L628 351.5L679.819 262H783.181L835 351.5L783.181 441H679.819Z" fill="url(#paint5_linear)"/>
<path d="M679.819 441L628 351.5L679.819 262H783.181L835 351.5L783.181 441H679.819Z" fill="white"/>
<g clip-path="url(#clip2)">
<path d="M774.095 329.092L773.058 349.545L764.326 358.718L772.116 368.139L771.268 384.935L768.692 390.266H693.308L690.701 384.935L689.853 368.139L695.35 358.842L688.942 349.545L687.905 329.092H774.095Z" fill="#EDF5FF"/>
<path d="M774.095 329.092L773.058 349.545L764.326 358.718L772.116 368.139L771.268 384.935L768.692 390.266H731V329.092H774.095Z" fill="#D5E8FE"/>
<path d="M764.326 386.826L764.169 389.863L763.824 396.526C763.573 401.329 759.552 405.11 754.683 405.11H707.317C702.417 405.11 698.396 401.329 698.176 396.526L697.957 392.404L697.674 386.826H764.326Z" fill="#EDF5FF"/>
<path d="M764.326 386.826L764.012 392.9L763.824 396.494C763.572 401.298 759.552 405.079 754.683 405.079H731V386.795H764.326V386.826Z" fill="#D5E8FE"/>
<path d="M772.211 309.972L770.326 291.13C770.137 289.271 768.504 287.907 766.62 288L695.004 291.719C693.277 291.812 691.895 293.082 691.675 294.787L689.79 309.91L772.211 309.972Z" fill="#5F55AF"/>
<path d="M770.326 291.13C770.137 289.271 768.504 287.907 766.619 288L731 289.859V309.941L772.21 309.972L770.326 291.13Z" fill="#453D83"/>
<path d="M776.231 306.842H685.769C683.822 306.842 682.251 308.391 682.251 310.343V328.937C682.251 330.859 683.822 332.408 685.769 332.408H776.231C778.178 332.408 779.749 330.859 779.749 328.937V310.313C779.749 308.391 778.178 306.842 776.231 306.842Z" fill="#453D83"/>
<path d="M776.231 306.842H731V332.408H776.231C778.178 332.408 779.749 330.859 779.749 328.937V310.313C779.749 308.391 778.178 306.842 776.231 306.842Z" fill="#2D2755"/>
<path d="M690.701 384.935L691.297 396.649C691.612 402.444 696.449 407 702.354 407H759.615C765.52 407 770.388 402.444 770.671 396.618L771.268 384.935H690.701ZM734.424 391.908H745.26V400.027H734.424V391.908ZM727.356 400.027H716.52V391.908H727.356V400.027ZM698.365 396.278L698.145 391.908H709.453V400.027H702.354C700.218 400.027 698.459 398.385 698.365 396.278ZM763.635 396.278C763.541 398.385 761.782 400.027 759.646 400.027H752.328V391.908H763.855L763.635 396.278Z" fill="#FF7B4A"/>
<path d="M731 407H759.646C765.551 407 770.42 402.444 770.703 396.618L771.299 384.935H731V407ZM752.328 391.908H763.855L763.635 396.278C763.541 398.385 761.782 400.027 759.646 400.027H752.328V391.908ZM745.26 391.908V400.027H734.424V391.908H745.26Z" fill="#E63950"/>
<path d="M723.053 351.746C719.064 355.96 718.059 361.972 720.697 366.094C721.106 366.714 721.263 367.426 721.231 368.139H689.852L688.91 349.545H723.995C723.964 350.351 723.65 351.126 723.053 351.746Z" fill="#FF7B4A"/>
<path d="M773.058 349.545L772.116 368.139H737.973C737.91 367.209 738.287 366.28 738.915 365.567C742.81 361.29 743.658 355.309 740.957 351.281C740.612 350.754 740.392 350.134 740.36 349.514H773.058V349.545Z" fill="#E63950"/>
<path d="M744.129 370.308C743.878 370.587 743.627 370.835 743.376 371.114C739.261 375.174 733.921 377.25 728.833 377.25C726.069 377.25 723.367 376.661 720.98 375.422L719.033 370.835L715.201 370.432C710.238 363.46 711.494 353.357 718.467 346.477C724.749 340.279 733.827 338.699 740.706 342.046L742.088 347.655L746.548 346.911C746.674 347.066 746.799 347.252 746.894 347.407C751.385 354.194 750.286 363.584 744.129 370.308Z" fill="#FED843"/>
<path d="M746.485 346.911L742.025 347.655L740.643 342.046C737.722 340.62 734.361 340.094 731 340.434V377.095C735.397 376.599 739.826 374.585 743.344 371.083C743.596 370.835 743.847 370.587 744.098 370.308C750.254 363.615 751.354 354.194 746.831 347.438C746.737 347.252 746.611 347.097 746.485 346.911Z" fill="#FF9100"/>
<path d="M746.486 346.911L745.921 348.709C745.921 348.74 745.921 348.74 745.889 348.771L745.795 349.08C743.879 354.783 739.262 359.307 733.514 361.197L730.592 362.158C726.917 363.367 723.996 366.249 722.771 369.874L722.457 370.773L720.949 375.391C719.505 374.647 718.154 373.717 716.96 372.509C716.803 372.354 716.678 372.199 716.521 372.044C716.489 372.013 716.458 371.982 716.458 371.951C715.987 371.455 715.578 370.928 715.17 370.37L715.767 368.573V368.542L716.081 367.612C717.997 361.91 722.583 357.386 728.362 355.495L731.283 354.535C734.958 353.326 737.88 350.444 739.105 346.818L739.199 346.539L740.644 341.984C742.183 342.728 743.596 343.719 744.853 344.959C744.947 345.052 745.041 345.145 745.135 345.238C745.606 345.796 746.078 346.353 746.486 346.911Z" fill="#5F55AF"/>
<path d="M744.821 345.021C743.564 343.781 742.151 342.79 740.612 342.046L739.167 346.601L739.072 346.88C737.847 350.506 734.926 353.388 731.251 354.597L731 354.69V362.034L733.481 361.228C739.261 359.338 743.847 354.783 745.763 349.111L745.857 348.802C745.857 348.771 745.857 348.771 745.888 348.74L746.454 346.942C746.046 346.353 745.574 345.827 745.072 345.3C745.009 345.176 744.915 345.114 744.821 345.021Z" fill="#453D83"/>
</g>
<defs>
<linearGradient id="paint0_linear" x1="638.922" y1="24.725" x2="823.471" y2="209.914" gradientUnits="userSpaceOnUse">
<stop offset="1.834e-05" stop-color="#FFCF0D"/>
<stop offset="1" stop-color="#EDA704"/>
</linearGradient>
<linearGradient id="paint1_linear" x1="660.867" y1="46.9134" x2="802.04" y2="188.214" gradientUnits="userSpaceOnUse">
<stop stop-color="white"/>
<stop offset="0.2511" stop-color="#FAFAFA"/>
<stop offset="0.5396" stop-color="#ECECEC"/>
<stop offset="0.8455" stop-color="#D5D5D5"/>
<stop offset="1" stop-color="#C7C7C7"/>
</linearGradient>
<linearGradient id="paint2_linear" x1="841.922" y1="141.831" x2="1027.26" y2="327.021" gradientUnits="userSpaceOnUse">
<stop stop-color="#D4394C"/>
<stop offset="1" stop-color="#FC3A52"/>
</linearGradient>
<linearGradient id="paint3_linear" x1="863.025" y1="163.913" x2="1004.2" y2="305.894" gradientUnits="userSpaceOnUse">
<stop stop-color="white"/>
<stop offset="0.2511" stop-color="#FAFAFA"/>
<stop offset="0.5396" stop-color="#ECECEC"/>
<stop offset="0.8455" stop-color="#D5D5D5"/>
<stop offset="1" stop-color="#C7C7C7"/>
</linearGradient>
<linearGradient id="paint4_linear" x1="638.922" y1="259.725" x2="823.471" y2="444.914" gradientUnits="userSpaceOnUse">
<stop stop-color="#53BFD3"/>
<stop offset="1" stop-color="#00A5A9"/>
</linearGradient>
<linearGradient id="paint5_linear" x1="660.867" y1="280.913" x2="802.04" y2="422.214" gradientUnits="userSpaceOnUse">
<stop stop-color="white"/>
<stop offset="0.2511" stop-color="#FAFAFA"/>
<stop offset="0.5396" stop-color="#ECECEC"/>
<stop offset="0.8455" stop-color="#D5D5D5"/>
<stop offset="1" stop-color="#C7C7C7"/>
</linearGradient>
<clipPath id="clip0">
<rect width="115.493" height="100" fill="white" transform="translate(674 63)"/>
</clipPath>
<clipPath id="clip1">
<rect width="100" height="120" fill="white" transform="translate(891 163)"/>
</clipPath>
<clipPath id="clip2">
<rect width="98" height="119" fill="white" transform="translate(682 288)"/>
</clipPath>
</defs>
</svg>
