<svg width="451" height="1204" viewBox="0 0 451 1204" fill="none" xmlns="http://www.w3.org/2000/svg">
<path d="M150 601L0 751.5L150 902L300 751.5L150 601Z" fill="url(#paint0_linear)"/>
<path d="M45 752L150 647L255 752L150 857L45 752Z" fill="white"/>
<path d="M190.418 739.557H109.582L104 745.307V791.304C104 792.783 105.222 794 106.707 794H193.293C194.778 794 196 792.783 196 791.304V745.307L190.418 739.557Z" fill="#5F55AF"/>
<path d="M190.418 739.557H150V793.976H193.293C194.778 793.976 196 792.759 196 791.28V745.307L190.418 739.557Z" fill="#453D83"/>
<path d="M167.322 730.754C165.836 730.754 164.614 729.537 164.614 728.058V719.446C164.614 717.752 163.249 716.392 161.548 716.392H138.452C136.751 716.392 135.385 717.752 135.385 719.446V728.058C135.385 729.537 134.163 730.754 132.678 730.754C131.193 730.754 129.971 729.537 129.971 728.058V719.446C129.971 714.793 133.78 711 138.452 711H161.548C166.22 711 170.029 714.793 170.029 719.446V728.058C170.029 729.561 168.807 730.754 167.322 730.754Z" fill="#5F55AF"/>
<path d="M161.548 711H150V716.392H161.548C163.249 716.392 164.615 717.752 164.615 719.446V728.058C164.615 729.537 165.836 730.754 167.322 730.754C168.807 730.754 170.029 729.537 170.029 728.058V719.446C170.029 714.793 166.22 711 161.548 711Z" fill="#453D83"/>
<path d="M193.293 725.362H106.707C105.222 725.362 104 726.579 104 728.058V745.307C104 749.959 107.809 753.753 112.481 753.753H187.519C192.191 753.753 196 749.959 196 745.307V728.058C196 726.579 194.778 725.362 193.293 725.362Z" fill="#FED843"/>
<path d="M193.293 725.362H150V753.753H187.519C192.191 753.753 196 749.959 196 745.307V728.058C196 726.579 194.778 725.362 193.293 725.362Z" fill="#FF9100"/>
<path d="M158.649 742.253H141.327C139.842 742.253 138.62 741.036 138.62 739.557C138.62 738.078 139.842 736.861 141.327 736.861H158.649C160.135 736.861 161.357 738.078 161.357 739.557C161.357 741.06 160.159 742.253 158.649 742.253Z" fill="#FF9100"/>
<path d="M158.649 736.861H150V742.253H158.649C160.134 742.253 161.356 741.036 161.356 739.557C161.356 738.078 160.158 736.861 158.649 736.861Z" fill="#FF641A"/>
<path d="M144.226 759.86H133.948L131.241 761.291L128.533 759.86H118.255C116.77 759.86 115.548 761.077 115.548 762.556V779.805C115.548 781.284 116.77 782.501 118.255 782.501H144.226C145.711 782.501 146.933 781.284 146.933 779.805V762.556C146.933 761.077 145.711 759.86 144.226 759.86Z" fill="#FED843"/>
<path d="M133.948 759.86V768.305C133.948 769.785 132.726 771.001 131.24 771.001C129.755 771.001 128.533 769.785 128.533 768.305V759.86H133.948Z" fill="#FF9100"/>
<path d="M181.745 759.86H171.466L168.759 761.291L166.052 759.86H155.774C154.288 759.86 153.066 761.077 153.066 762.556V779.805C153.066 781.284 154.288 782.501 155.774 782.501H181.745C183.23 782.501 184.452 781.284 184.452 779.805V762.556C184.452 761.077 183.254 759.86 181.745 759.86Z" fill="#FF9100"/>
<path d="M171.467 759.86V768.305C171.467 769.785 170.245 771.001 168.76 771.001C167.274 771.001 166.052 769.785 166.052 768.305V759.86H171.467Z" fill="#FF641A"/>
<path d="M300.5 451L150 601.5L300.5 752L451 601.5L300.5 451Z" fill="url(#paint1_linear)"/>
<path d="M195 601.906L300.5 497L406 601.906L300.5 707L195 601.906Z" fill="white"/>
<path d="M343 560.479V624.397L301 633.449L259 624.397V560.479C259 559.107 260.094 558 261.45 558H340.528C341.906 558 343 559.107 343 560.479Z" fill="#EDF5FF"/>
<path d="M343 560.479V624.397L301 633.449V558H340.55C341.906 558 343 559.107 343 560.479Z" fill="#D5E8FE"/>
<path d="M343 624.397H259V637.499C259 638.871 260.094 640 261.45 640H340.528C341.884 640 342.978 638.894 342.978 637.499V624.397H343Z" fill="#5F55AF"/>
<path d="M301 640H340.55C341.906 640 343 638.894 343 637.499V624.397H301V640Z" fill="#453D83"/>
<path d="M331.1 575.573C330.728 575.042 330.159 574.665 329.503 574.555L308.831 570.859C308.197 570.748 307.519 570.903 306.994 571.279C306.469 571.655 306.097 572.231 305.987 572.895L303.712 585.975C303.472 587.325 304.369 588.631 305.703 588.852L326.375 592.526C326.528 592.548 326.659 592.57 326.812 592.57C327.994 592.57 329.022 591.729 329.241 590.512L331.516 577.432C331.625 576.79 331.472 576.126 331.1 575.573Z" fill="#59C36A"/>
<path d="M318.303 580.265C318.172 580.265 318.019 580.243 317.866 580.22C316.531 579.977 315.634 578.693 315.875 577.343L317.012 570.814C317.253 569.464 318.522 568.557 319.856 568.8C321.191 569.044 322.087 570.327 321.847 571.677L320.709 578.206C320.512 579.424 319.462 580.265 318.303 580.265Z" fill="#453D83"/>
<path d="M328.563 600.494H307.563C306.207 600.494 305.113 601.601 305.113 602.973V616.252C305.113 617.625 306.207 618.731 307.563 618.731H328.563C329.919 618.731 331.013 617.625 331.013 616.252V602.973C331.013 601.601 329.919 600.494 328.563 600.494Z" fill="#FF9100"/>
<path d="M318.063 608.13C316.707 608.13 315.613 607.023 315.613 605.651V599.011C315.613 597.639 316.707 596.532 318.063 596.532C319.419 596.532 320.513 597.639 320.513 599.011V605.651C320.513 607.023 319.419 608.13 318.063 608.13Z" fill="#453D83"/>
<path d="M294.438 572.607H273.438C272.082 572.607 270.988 573.714 270.988 575.086V588.366C270.988 589.738 272.082 590.844 273.438 590.844H294.438C295.794 590.844 296.888 589.738 296.888 588.366V575.086C296.888 573.714 295.794 572.607 294.438 572.607Z" fill="#FED843"/>
<path d="M283.937 580.243C282.581 580.243 281.465 579.136 281.465 577.764V571.124C281.465 569.752 282.559 568.646 283.937 568.646C285.293 568.646 286.387 569.752 286.387 571.124V577.764C286.387 579.136 285.293 580.243 283.937 580.243Z" fill="#5F55AF"/>
<path d="M298.069 612.379L295.794 599.299C295.684 598.657 295.312 598.059 294.787 597.683C294.262 597.307 293.584 597.152 292.95 597.263L272.278 600.959C271.644 601.069 271.075 601.446 270.681 601.977C270.309 602.508 270.156 603.194 270.266 603.836L272.541 616.916C272.759 618.133 273.787 618.974 274.969 618.974C275.122 618.974 275.253 618.952 275.406 618.93L296.078 615.234C297.412 615.013 298.309 613.729 298.069 612.379Z" fill="#97DE3D"/>
<path d="M283.478 606.669C282.297 606.669 281.269 605.828 281.05 604.611L279.913 598.082C279.672 596.732 280.569 595.426 281.903 595.205C283.238 594.961 284.528 595.869 284.747 597.219L285.884 603.748C286.125 605.098 285.228 606.403 283.894 606.625C283.763 606.669 283.631 606.669 283.478 606.669Z" fill="#5F55AF"/>
<path d="M150 301L0 451L150 601L300 451L150 301Z" fill="url(#paint2_linear)"/>
<path d="M45 451L150 346L255 451L150 556L45 451Z" fill="white"/>
<g clip-path="url(#clip0)">
<path d="M183.459 407.47V488H110.831C109.264 488 108 486.737 108 485.171V407.47C108 405.904 109.264 404.641 110.831 404.641H180.602C182.195 404.641 183.459 405.904 183.459 407.47Z" fill="#5F55AF"/>
<path d="M180.602 404.641H145.717V488H183.434V407.47C183.459 405.904 182.195 404.641 180.602 404.641Z" fill="#453D83"/>
<path d="M163.918 398.578H154.54C153.908 394.284 150.191 391 145.717 391C141.243 391 137.552 394.284 136.895 398.578H127.516C125.949 398.578 124.685 399.841 124.685 401.407V413.532C124.685 415.098 125.949 416.361 127.516 416.361H163.918C165.486 416.361 166.75 415.098 166.75 413.532V401.407C166.775 399.841 165.511 398.578 163.918 398.578Z" fill="#EDF5FF"/>
<path d="M135.099 427.577H122.965C121.398 427.577 120.134 428.84 120.134 430.406V442.531C120.134 444.097 121.398 445.36 122.965 445.36H135.099C136.667 445.36 137.956 444.097 137.956 442.531V430.406C137.956 428.84 136.692 427.577 135.099 427.577Z" fill="#97DE3D"/>
<path d="M168.291 439.323H150.292C148.725 439.323 147.461 438.06 147.461 436.469C147.461 434.877 148.725 433.64 150.292 433.64H168.291C169.858 433.64 171.148 434.903 171.148 436.469C171.148 438.035 169.858 439.323 168.291 439.323Z" fill="#D5E8FE"/>
<path d="M135.099 454.858H122.965C121.398 454.858 120.134 456.121 120.134 457.688V469.813C120.134 471.379 121.398 472.642 122.965 472.642H135.099C136.667 472.642 137.956 471.379 137.956 469.813V457.688C137.956 456.121 136.692 454.858 135.099 454.858Z" fill="#FF7B4A"/>
<path d="M164.626 466.579H150.292C148.725 466.579 147.461 465.316 147.461 463.75C147.461 462.184 148.725 460.921 150.292 460.921H164.626C166.193 460.921 167.457 462.184 167.457 463.75C167.457 465.316 166.193 466.579 164.626 466.579Z" fill="#D5E8FE"/>
<path d="M203 468.499C203 479.285 194.253 488.025 183.484 488.025C172.715 488.025 163.943 479.285 163.943 468.499C163.943 457.713 172.69 448.998 183.484 448.998C194.279 448.998 203 457.713 203 468.499Z" fill="#FED843"/>
<path d="M203 468.499C203 457.738 194.228 448.998 183.484 448.998V488C194.228 488 203 479.235 203 468.499Z" fill="#FF9100"/>
<path d="M181.184 477.189C180.451 477.189 179.718 476.886 179.187 476.381L174.637 471.935C173.525 470.823 173.499 469.03 174.586 467.918C175.699 466.807 177.493 466.782 178.606 467.868L181.108 470.318L188.212 462.917C189.299 461.78 191.094 461.755 192.231 462.841C193.369 463.927 193.394 465.721 192.307 466.857L183.207 476.33C182.676 476.886 181.968 477.189 181.21 477.214C181.21 477.189 181.21 477.189 181.184 477.189Z" fill="#97DE3D"/>
<path d="M163.918 416.387C165.485 416.387 166.749 415.124 166.749 413.557V401.432C166.749 399.866 165.485 398.603 163.918 398.603H154.539C153.907 394.309 150.191 391.025 145.717 391.025V416.412H163.918V416.387Z" fill="#D5E8FE"/>
<path d="M188.237 462.917L183.459 467.893V476.103L192.332 466.857C193.419 465.721 193.394 463.927 192.256 462.841C191.119 461.755 189.324 461.78 188.237 462.917Z" fill="#59C36A"/>
</g>
<path d="M300.5 150L150 300.5L300.5 451L451 300.5L300.5 150Z" fill="url(#paint3_linear)"/>
<path d="M195 300.5L300.5 195L406 300.5L300.5 406L195 300.5Z" fill="white"/>
<path d="M280.859 323.726L272.005 314.789C270.859 313.632 269.01 313.632 267.865 314.789L250.859 331.927C250.026 332.768 249.766 334.056 250.234 335.16C250.677 336.264 251.771 337 252.943 337H270.651C271.432 337 272.188 336.685 272.734 336.133L280.859 327.931C282.005 326.775 282.005 324.882 280.859 323.726Z" fill="#7ED8F6"/>
<path d="M270.651 337C271.432 337 272.187 336.685 272.734 336.133L280.859 327.931C282.005 326.775 282.005 324.909 280.859 323.752L276.432 319.283L258.854 337H270.651Z" fill="#6AA9FF"/>
<path d="M305.911 318.574L277.135 289.502C276.328 288.687 275.104 288.424 274.036 288.818C272.969 289.213 272.213 290.238 272.135 291.394C271.953 293.918 271.12 301.173 269.531 304.406C267.578 308.375 264.583 311.424 264.557 311.45C264.01 312.002 263.698 312.765 263.698 313.553C263.698 314.342 264.01 315.104 264.557 315.656L280.052 331.296C280.625 331.874 281.38 332.163 282.135 332.163C282.89 332.163 283.646 331.874 284.219 331.296C284.245 331.27 287.292 328.247 291.198 326.249C294.401 324.646 301.588 323.805 304.088 323.621C305.234 323.542 306.224 322.779 306.64 321.702C307.005 320.598 306.719 319.389 305.911 318.574Z" fill="#6AA9FF"/>
<path d="M304.062 323.62C305.208 323.542 306.198 322.779 306.614 321.702C307.005 320.624 306.745 319.388 305.937 318.574L291.536 304.038L272.292 323.463L280.052 331.296C280.625 331.874 281.38 332.163 282.135 332.163C282.89 332.163 283.646 331.874 284.219 331.296C284.245 331.27 287.292 328.247 291.198 326.249C294.375 324.619 301.562 323.804 304.062 323.62Z" fill="#4895FF"/>
<path d="M347.318 265.608L329.609 247.734C327.838 245.973 325.547 245 323.073 245C320.625 245 318.307 245.973 316.562 247.707L307.292 257.091C306.745 257.643 306.432 258.406 306.432 259.194C306.432 259.983 306.745 260.745 307.292 261.297L316.146 270.234C317.292 271.391 319.14 271.391 320.286 270.234L325 274.992C323.854 276.149 323.854 278.015 325 279.171L333.854 288.109C334.401 288.661 335.156 288.976 335.937 288.976C336.719 288.976 337.474 288.661 338.021 288.109L347.292 278.751C349.036 276.99 349.974 274.677 349.974 272.179C350 269.682 349.036 267.369 347.318 265.608Z" fill="#453D83"/>
<path d="M325.026 279.171L333.88 288.109C334.427 288.661 335.182 288.976 335.964 288.976C336.745 288.976 337.5 288.661 338.047 288.109L347.318 278.751C349.063 276.99 350 274.677 350 272.179C350 269.709 349.036 267.369 347.318 265.608L338.464 256.671L322.656 272.6L325 274.966C323.88 276.122 323.88 278.015 325.026 279.171Z" fill="#2D2755"/>
<path d="M305.99 322.674L338.099 288.03L307.37 257.013L273.047 289.423L305.99 322.674Z" fill="#5F55AF"/>
<path d="M305.989 322.674L338.099 288.03L322.734 272.521L289.505 306.062L305.989 322.674Z" fill="#453D83"/>
<path d="M325.156 265.319C324.01 264.162 322.161 264.162 321.016 265.319L306.484 279.986C304.036 282.457 304.036 286.453 306.484 288.923C308.932 291.394 312.891 291.394 315.339 288.923L329.87 274.256C331.016 273.099 331.016 271.233 329.87 270.077L325.156 265.319Z" fill="#FED843"/>
<path d="M306.458 288.95C308.906 291.42 312.864 291.42 315.312 288.95L329.843 274.282C330.989 273.126 330.989 271.259 329.843 270.103L327.5 267.737L306.458 288.95Z" fill="#FF9100"/>
<path d="M150 0L0 150L150 300L300 150L150 0Z" fill="url(#paint4_linear)"/>
<path d="M45 150L150 45L255 150L150 255L45 150Z" fill="white"/>
<path d="M179.297 102H167.578H155.859C144.551 102 135.156 111.211 135.156 122.533C135.156 132.859 143.008 141.424 152.93 142.852V151.867C152.93 153.06 153.633 154.116 154.746 154.585C155.82 155.035 157.09 154.8 157.93 153.94L167.578 144.279L168.789 143.067H179.297C190.605 143.067 200 133.856 200 122.533C200 111.211 190.605 102 179.297 102Z" fill="#FED843"/>
<path d="M179.297 143.067C190.605 143.067 200 133.856 200 122.533C200 111.211 190.605 102 179.297 102H167.578V144.279L168.789 143.067H179.297Z" fill="#FABE2C"/>
<path d="M174.609 169.467V181.2C174.609 186.304 170.449 190 165.859 190C148.984 190 132.52 182.021 120.273 169.799C108.027 157.577 100 141.15 100 124.254C100 119.405 103.945 115.493 108.789 115.493H120.508C121.777 115.493 122.891 116.295 123.281 117.488L129.141 135.049C129.434 135.909 129.297 136.848 128.809 137.611L123.828 145.081C125.703 149.031 129.043 153.353 132.891 157.166C136.738 160.98 141.113 164.265 145.059 166.142L152.52 161.175C153.281 160.686 154.219 160.549 155.078 160.843L172.656 166.709C173.848 167.081 174.609 168.196 174.609 169.467Z" fill="#FF641A"/>
<path d="M174.609 169.467V181.2C174.609 186.304 170.449 190 165.859 190C148.984 190 132.52 182.021 120.273 169.799L132.891 157.166C136.738 160.98 141.113 164.265 145.059 166.142L152.52 161.175C153.281 160.686 154.219 160.549 155.078 160.843L172.656 166.709C173.848 167.081 174.609 168.196 174.609 169.467Z" fill="#F03800"/>
<path d="M155.859 125.467C157.477 125.467 158.789 124.153 158.789 122.533C158.789 120.913 157.477 119.6 155.859 119.6C154.241 119.6 152.93 120.913 152.93 122.533C152.93 124.153 154.241 125.467 155.859 125.467Z" fill="#613D5C"/>
<path d="M167.578 125.467C169.196 125.467 170.508 124.153 170.508 122.533C170.508 120.913 169.196 119.6 167.578 119.6C165.96 119.6 164.648 120.913 164.648 122.533C164.648 124.153 165.96 125.467 167.578 125.467Z" fill="#613D5C"/>
<path d="M170.508 122.533C170.508 120.91 169.199 119.6 167.578 119.6V125.467C169.199 125.467 170.508 124.157 170.508 122.533Z" fill="#4B2746"/>
<path d="M179.297 125.467C180.915 125.467 182.227 124.153 182.227 122.533C182.227 120.913 180.915 119.6 179.297 119.6C177.679 119.6 176.367 120.913 176.367 122.533C176.367 124.153 177.679 125.467 179.297 125.467Z" fill="#4B2746"/>
<path d="M246.362 844.006C266.29 824.078 286.218 804.15 306.146 784.222C308.778 781.59 304.642 777.642 302.198 780.274C282.27 800.202 262.342 820.13 242.414 840.058C239.782 842.502 243.73 846.45 246.362 844.006Z" fill="#CCCCCC"/>
<path d="M300 752L150 902.5L300 1053L450 902.5L300 752Z" fill="url(#paint5_linear)"/>
<path d="M150 903L0 1053.5L150 1204L300 1053.5L150 903Z" fill="url(#paint6_linear)"/>
<path d="M195 903L300 798L405 903L300 1008L195 903Z" fill="white"/>
<g clip-path="url(#clip1)">
<path d="M345.044 875.758H307.778V930.058H345.044V875.758Z" fill="#453D83"/>
<path d="M345.072 875.758H326.425V930.058H345.072V875.758Z" fill="#2D2755"/>
<path d="M329.8 919.637H323.022C321.278 919.637 319.844 918.201 319.844 916.455C319.844 914.708 321.278 913.272 323.022 913.272H329.8C331.544 913.272 332.978 914.708 332.978 916.455C332.978 918.229 331.544 919.637 329.8 919.637Z" fill="#D5E8FE"/>
<path d="M329.8 913.301H326.425V919.666H329.8C331.544 919.666 332.978 918.23 332.978 916.483C332.978 914.709 331.544 913.301 329.8 913.301Z" fill="#B5DBFF"/>
<path d="M329.8 892.515H323.022C321.278 892.515 319.844 891.079 319.844 889.333C319.844 887.587 321.278 886.15 323.022 886.15H329.8C331.544 886.15 332.978 887.587 332.978 889.333C332.978 891.079 331.544 892.515 329.8 892.515Z" fill="#D5E8FE"/>
<path d="M329.8 886.15H326.425V892.515H329.8C331.544 892.515 332.978 891.079 332.978 889.333C332.978 887.559 331.544 886.15 329.8 886.15Z" fill="#B5DBFF"/>
<path d="M341.866 926.848H310.956V906.062H341.866V926.848ZM304.6 875.758V913.301H260.135V875.758H253.778V936.818C253.778 938.564 255.213 940 256.956 940C258.7 940 260.135 938.564 260.135 936.818V919.638H304.6V930.03C304.6 931.776 306.035 933.213 307.778 933.213H341.866V936.818C341.866 938.564 343.3 940 345.044 940C346.788 940 348.222 938.564 348.222 936.818V875.758H341.866V899.725H310.956V875.758H304.6Z" fill="#5F55AF"/>
<path d="M348.222 875.758V936.818C348.222 938.564 346.788 940 345.044 940C343.3 940 341.866 938.564 341.866 936.818V933.213H326.397V926.848H341.866V906.062H326.397V899.697H341.866V875.758H348.222Z" fill="#453D83"/>
<path d="M351.822 859H250.178C248.434 859 247 860.436 247 862.183V875.758C247 877.504 248.434 878.94 250.178 878.94H351.822C353.566 878.94 355 877.504 355 875.758V862.183C355 860.436 353.566 859 351.822 859Z" fill="#EDF5FF"/>
<path d="M351.822 859H326.397V878.94H351.822C353.566 878.94 355 877.504 355 875.758V862.183C355 860.436 353.566 859 351.822 859Z" fill="#D5E8FE"/>
</g>
<path d="M44 1054L149 949L254 1054L149 1159L44 1054Z" fill="white"/>
<path d="M168.177 1014C168.177 1014.15 168.177 1014.3 168.177 1014.45C168.177 1022.62 168.177 1030.79 168.177 1038.95C168.177 1039.5 168.231 1039.49 167.658 1039.49C164.644 1039.49 161.641 1039.49 158.627 1039.49C158.055 1039.49 158.109 1039.5 158.109 1038.99C158.109 1034.15 158.109 1029.31 158.109 1024.47C158.109 1023.94 158.141 1023.96 157.59 1023.96C140.284 1023.96 122.979 1023.96 105.684 1023.96C105.1 1023.96 105.133 1023.94 105.133 1024.51C105.133 1041.91 105.133 1059.32 105.133 1076.72C105.133 1077.28 105.111 1077.25 105.673 1077.25C122.979 1077.25 140.284 1077.25 157.579 1077.25C158.141 1077.25 158.109 1077.28 158.109 1076.72C158.109 1072 158.109 1067.28 158.109 1062.56C158.109 1062.01 158.066 1062.04 158.649 1062.04C161.674 1062.04 164.688 1062.04 167.712 1062.04C168.188 1062.04 168.188 1062.04 168.188 1062.5C168.188 1070.62 168.188 1078.74 168.188 1086.85C168.188 1086.98 168.188 1087.11 168.188 1087.25H95V1014H168.177Z" fill="#609CD2"/>
<path d="M209.14 1046.7C208.752 1047.06 208.384 1047.4 207.985 1047.77C207.877 1047.67 207.779 1047.6 207.693 1047.51C206.71 1046.61 205.576 1045.95 204.29 1045.6C202.464 1045.1 200.725 1045.32 199.072 1046.23C197.668 1047.02 196.696 1048.18 196.221 1049.7C195.734 1051.28 195.918 1052.8 196.717 1054.24C197.495 1055.63 198.651 1056.56 200.131 1057.13C201.373 1057.61 202.659 1057.7 203.944 1057.47C205.662 1057.17 206.991 1056.26 207.812 1054.69C208.017 1054.29 208.114 1053.83 208.255 1053.4C208.276 1053.34 208.255 1053.28 208.255 1053.19C208.125 1053.18 208.006 1053.17 207.887 1053.17C206.645 1053.17 205.403 1053.17 204.16 1053.17C204.074 1053.17 203.977 1053.17 203.89 1053.17C203.696 1053.16 203.664 1053.13 203.653 1052.93C203.642 1052.6 203.653 1052.26 203.653 1051.93C203.653 1051.78 203.728 1051.7 203.88 1051.71C203.944 1051.71 203.998 1051.71 204.063 1051.71C205.9 1051.71 207.747 1051.71 209.583 1051.71C210.005 1051.71 210.015 1051.72 209.994 1052.13C209.94 1053.48 209.637 1054.77 208.903 1055.92C207.985 1057.36 206.699 1058.3 205.057 1058.73C203.134 1059.24 201.211 1059.2 199.353 1058.5C196.89 1057.58 195.238 1055.82 194.579 1053.26C194.06 1051.25 194.373 1049.31 195.464 1047.53C196.318 1046.15 197.506 1045.15 198.997 1044.52C200.358 1043.94 201.784 1043.79 203.242 1043.9C203.944 1043.96 204.636 1044.1 205.306 1044.3C206.256 1044.59 207.131 1045.06 207.931 1045.64C208.298 1045.91 208.644 1046.21 209 1046.5C209.043 1046.57 209.076 1046.62 209.14 1046.7Z" fill="black"/>
<path d="M163.715 1045.35C163.434 1045.36 163.186 1045.36 162.926 1045.39C160.582 1045.71 158.432 1047.35 157.795 1049.84C157.287 1051.82 157.568 1053.68 158.886 1055.31C159.707 1056.32 160.733 1057.06 162.008 1057.37C163.369 1057.72 164.73 1057.68 166.048 1057.15C167.604 1056.52 168.727 1055.45 169.386 1053.89C169.808 1052.91 169.916 1051.87 169.829 1050.82C169.721 1049.57 169.267 1048.46 168.446 1047.52C167.193 1046.11 165.595 1045.38 163.715 1045.35ZM171.428 1051.42C171.514 1054.94 169.127 1057.64 166.47 1058.6C164.914 1059.17 163.326 1059.22 161.727 1058.83C159.491 1058.27 157.86 1056.92 156.769 1054.9C156.304 1054.05 156.088 1053.12 156.013 1052.15C155.948 1051.31 156.002 1050.48 156.207 1049.67C156.661 1047.9 157.611 1046.44 159.102 1045.35C160.085 1044.64 161.166 1044.17 162.365 1043.99C163.801 1043.77 165.238 1043.86 166.599 1044.41C168.943 1045.36 170.521 1047.03 171.212 1049.5C171.385 1050.15 171.46 1050.82 171.428 1051.42Z" fill="black"/>
<path d="M132.302 1055.2C132.723 1055.51 133.09 1055.8 133.49 1056.09C133.425 1056.19 133.382 1056.28 133.317 1056.36C132.334 1057.51 131.103 1058.3 129.644 1058.71C127.743 1059.24 125.842 1059.21 123.973 1058.56C122.32 1057.98 121.067 1056.89 120.17 1055.37C119.274 1053.85 119.014 1052.2 119.198 1050.47C119.393 1048.58 120.268 1047.05 121.693 1045.8C122.957 1044.7 124.427 1044.11 126.09 1043.96C127.419 1043.83 128.726 1043.93 130.001 1044.38C131.329 1044.84 132.442 1045.62 133.328 1046.71C133.382 1046.77 133.425 1046.86 133.49 1046.96C133.123 1047.28 132.734 1047.55 132.356 1047.83C132.302 1047.79 132.248 1047.77 132.215 1047.74C130.757 1045.96 128.856 1045.23 126.598 1045.38C124.74 1045.5 123.195 1046.29 122.018 1047.74C121.197 1048.76 120.808 1049.95 120.764 1051.27C120.743 1052.13 120.851 1052.98 121.175 1053.78C121.585 1054.82 122.277 1055.67 123.173 1056.35C124.491 1057.35 126.014 1057.65 127.635 1057.58C129.32 1057.49 130.735 1056.83 131.913 1055.63C132.032 1055.5 132.15 1055.36 132.302 1055.2Z" fill="black"/>
<path d="M188.205 1052.49C187.394 1050.79 186.606 1049.14 185.817 1047.49C185.796 1047.49 185.763 1047.49 185.742 1047.49C185.342 1048.32 184.942 1049.14 184.543 1049.97C184.143 1050.8 183.732 1051.61 183.343 1052.49H188.205ZM192.785 1058.68C192.623 1058.69 192.526 1058.7 192.428 1058.7C192.169 1058.7 191.899 1058.7 191.64 1058.7C191.121 1058.69 191.219 1058.78 190.97 1058.27C190.311 1056.91 189.652 1055.55 188.993 1054.17C188.918 1054.01 188.81 1053.98 188.647 1053.99C188.097 1053.99 187.546 1053.99 186.995 1053.99C185.644 1053.99 184.294 1054 182.933 1053.99C182.695 1053.99 182.576 1054.07 182.468 1054.28C181.82 1055.65 181.161 1057.02 180.513 1058.39C180.394 1058.63 180.265 1058.76 179.984 1058.72C179.671 1058.69 179.357 1058.72 179.033 1058.71C178.936 1058.71 178.839 1058.7 178.688 1058.69C178.731 1058.56 178.752 1058.45 178.806 1058.37C179.876 1056.14 180.945 1053.92 182.015 1051.69C182.738 1050.18 183.462 1048.67 184.186 1047.15C184.575 1046.34 184.964 1045.54 185.353 1044.73C185.396 1044.65 185.45 1044.56 185.493 1044.46C185.547 1044.33 185.634 1044.28 185.774 1044.28C185.925 1044.28 186.022 1044.34 186.076 1044.47C186.293 1044.94 186.519 1045.39 186.735 1045.85C187.729 1047.95 188.734 1050.05 189.728 1052.15C190.333 1053.44 190.938 1054.73 191.553 1056.01C191.921 1056.78 192.288 1057.56 192.644 1058.32C192.688 1058.42 192.72 1058.52 192.785 1058.68Z" fill="black"/>
<path d="M145.772 1044.28H154.154C154.208 1044.76 154.208 1045.2 154.154 1045.67C154.003 1045.68 153.874 1045.69 153.744 1045.69C151.724 1045.69 149.693 1045.69 147.673 1045.69C147.262 1045.69 147.262 1045.69 147.262 1046.12C147.262 1047.33 147.262 1048.54 147.262 1049.75C147.262 1049.83 147.262 1049.91 147.262 1049.99C147.262 1050.12 147.327 1050.18 147.457 1050.18C147.543 1050.18 147.64 1050.18 147.727 1050.18C149.704 1050.18 151.67 1050.18 153.647 1050.18H154.068C154.133 1050.66 154.111 1051.11 154.09 1051.59C153.938 1051.6 153.82 1051.61 153.69 1051.61C151.691 1051.61 149.682 1051.61 147.684 1051.61C147.273 1051.61 147.273 1051.61 147.273 1052.01C147.273 1053.63 147.273 1055.24 147.273 1056.86C147.273 1056.91 147.273 1056.95 147.273 1056.98C147.284 1057.23 147.295 1057.24 147.532 1057.25C147.619 1057.25 147.694 1057.25 147.781 1057.25C149.747 1057.25 151.702 1057.25 153.668 1057.25C153.798 1057.25 153.928 1057.25 154.079 1057.25C154.144 1057.74 154.122 1058.19 154.09 1058.63C153.83 1058.7 146.15 1058.71 145.782 1058.64C145.772 1058.54 145.75 1058.43 145.75 1058.32C145.75 1053.74 145.75 1049.17 145.75 1044.59C145.75 1044.52 145.772 1044.41 145.772 1044.28Z" fill="black"/>
<path d="M137.897 1057.25H143.428C143.525 1057.53 143.536 1058.32 143.45 1058.67C143.353 1058.68 143.245 1058.69 143.137 1058.69C140.998 1058.69 138.869 1058.69 136.731 1058.69C136.666 1058.69 136.612 1058.69 136.547 1058.69C136.439 1058.69 136.374 1058.64 136.374 1058.52C136.374 1058.43 136.363 1058.36 136.363 1058.27C136.363 1053.73 136.363 1049.19 136.363 1044.67C136.363 1044.26 136.363 1044.26 136.795 1044.26C137.141 1044.26 137.487 1044.26 137.865 1044.26C137.876 1044.43 137.897 1044.57 137.897 1044.7C137.897 1046.25 137.897 1047.79 137.897 1049.34C137.897 1051.82 137.897 1054.29 137.897 1056.78V1057.25Z" fill="black"/>
<defs>
<linearGradient id="paint0_linear" x1="74.9964" y1="676.246" x2="225.503" y2="826.253" gradientUnits="userSpaceOnUse">
<stop offset="1.834e-05" stop-color="#0AB2AC"/>
<stop offset="1" stop-color="#00D2CA"/>
</linearGradient>
<linearGradient id="paint1_linear" x1="225.246" y1="526.294" x2="375.754" y2="676.801" gradientUnits="userSpaceOnUse">
<stop offset="1.834e-05" stop-color="#011F8B"/>
<stop offset="1" stop-color="#3179DE"/>
</linearGradient>
<linearGradient id="paint2_linear" x1="74.9964" y1="375.996" x2="225.004" y2="526.004" gradientUnits="userSpaceOnUse">
<stop offset="1.834e-05" stop-color="#E8277E"/>
<stop offset="1" stop-color="#CC0044"/>
</linearGradient>
<linearGradient id="paint3_linear" x1="225.246" y1="225.246" x2="375.754" y2="375.754" gradientUnits="userSpaceOnUse">
<stop offset="1.834e-05" stop-color="#F49600"/>
<stop offset="1" stop-color="#E8520E"/>
</linearGradient>
<linearGradient id="paint4_linear" x1="74.9964" y1="74.9964" x2="225.004" y2="225.004" gradientUnits="userSpaceOnUse">
<stop offset="1.834e-05" stop-color="#FFCF0D"/>
<stop offset="1" stop-color="#EDA704"/>
</linearGradient>
<linearGradient id="paint5_linear" x1="224.996" y1="827.246" x2="375.503" y2="977.253" gradientUnits="userSpaceOnUse">
<stop offset="1.834e-05" stop-color="#FF9D00"/>
<stop offset="1" stop-color="#FFE000"/>
</linearGradient>
<linearGradient id="paint6_linear" x1="74.9964" y1="978.246" x2="225.503" y2="1128.25" gradientUnits="userSpaceOnUse">
<stop offset="1.834e-05" stop-color="#0085FF"/>
<stop offset="1" stop-color="#00D1FF"/>
</linearGradient>
<clipPath id="clip0">
<rect width="95" height="97" fill="white" transform="translate(108 391)"/>
</clipPath>
<clipPath id="clip1">
<rect width="108" height="81" fill="white" transform="translate(247 859)"/>
</clipPath>
</defs>
</svg>
