<svg width="300" height="301" viewBox="0 0 300 301" fill="none" xmlns="http://www.w3.org/2000/svg">
<path d="M150 0L0 150.5L150 301L300 150.5L150 0Z" fill="url(#paint0_linear)"/>
<path d="M45 151L150 46L255 151L150 256L45 151Z" fill="white"/>
<g clip-path="url(#clip0)">
<path d="M195.044 123.758H157.778V178.058H195.044V123.758Z" fill="#453D83"/>
<path d="M195.072 123.758H176.425V178.058H195.072V123.758Z" fill="#2D2755"/>
<path d="M179.8 167.637H173.022C171.278 167.637 169.844 166.201 169.844 164.455C169.844 162.708 171.278 161.272 173.022 161.272H179.8C181.544 161.272 182.978 162.708 182.978 164.455C182.978 166.229 181.544 167.637 179.8 167.637Z" fill="#D5E8FE"/>
<path d="M179.8 161.301H176.425V167.666H179.8C181.544 167.666 182.978 166.23 182.978 164.483C182.978 162.709 181.544 161.301 179.8 161.301Z" fill="#B5DBFF"/>
<path d="M179.8 140.515H173.022C171.278 140.515 169.844 139.079 169.844 137.333C169.844 135.587 171.278 134.15 173.022 134.15H179.8C181.544 134.15 182.978 135.587 182.978 137.333C182.978 139.079 181.544 140.515 179.8 140.515Z" fill="#D5E8FE"/>
<path d="M179.8 134.15H176.425V140.515H179.8C181.544 140.515 182.978 139.079 182.978 137.333C182.978 135.559 181.544 134.15 179.8 134.15Z" fill="#B5DBFF"/>
<path d="M191.866 174.848H160.956V154.062H191.866V174.848ZM154.6 123.758V161.301H110.135V123.758H103.778V184.818C103.778 186.564 105.213 188 106.956 188C108.7 188 110.135 186.564 110.135 184.818V167.638H154.6V178.03C154.6 179.776 156.035 181.213 157.778 181.213H191.866V184.818C191.866 186.564 193.3 188 195.044 188C196.788 188 198.222 186.564 198.222 184.818V123.758H191.866V147.725H160.956V123.758H154.6Z" fill="#5F55AF"/>
<path d="M198.222 123.758V184.818C198.222 186.564 196.788 188 195.044 188C193.3 188 191.866 186.564 191.866 184.818V181.213H176.397V174.848H191.866V154.062H176.397V147.697H191.866V123.758H198.222Z" fill="#453D83"/>
<path d="M201.822 107H100.178C98.4344 107 97 108.436 97 110.183V123.758C97 125.504 98.4344 126.94 100.178 126.94H201.822C203.566 126.94 205 125.504 205 123.758V110.183C205 108.436 203.566 107 201.822 107Z" fill="#EDF5FF"/>
<path d="M201.822 107H176.397V126.94H201.822C203.566 126.94 205 125.504 205 123.758V110.183C205 108.436 203.566 107 201.822 107Z" fill="#D5E8FE"/>
</g>
<defs>
<linearGradient id="paint0_linear" x1="74.9964" y1="75.2464" x2="225.503" y2="225.253" gradientUnits="userSpaceOnUse">
<stop offset="1.834e-05" stop-color="#FF9D00"/>
<stop offset="1" stop-color="#FFE000"/>
</linearGradient>
<clipPath id="clip0">
<rect width="108" height="81" fill="white" transform="translate(97 107)"/>
</clipPath>
</defs>
</svg>
