<svg width="474" height="469" viewBox="0 0 474 469" fill="none" xmlns="http://www.w3.org/2000/svg">
<path d="M67.6809 235L0 117L67.6809 0H203.319L271 117L203.319 235H67.6809Z" fill="url(#paint0_linear)"/>
<path d="M83.8189 207L32 117.5L83.8189 28H187.181L239 117.5L187.181 207H83.8189Z" fill="url(#paint1_linear)"/>
<path d="M83.8189 207L32 117.5L83.8189 28H187.181L239 117.5L187.181 207H83.8189Z" fill="white"/>
<g clip-path="url(#clip0)">
<path d="M140.589 146.374L125.04 161.916C124.378 162.578 123.506 162.91 122.633 162.91C121.761 162.91 120.889 162.578 120.227 161.916C118.904 160.59 118.904 158.452 120.227 157.127L135.777 141.584C137.1 140.259 139.236 140.259 140.559 141.584C141.912 142.91 141.912 145.048 140.589 146.374Z" fill="#EDF5FF"/>
<path d="M140.589 146.374L125.039 161.916C124.378 162.578 123.505 162.91 122.633 162.91C121.761 162.91 120.889 162.578 120.227 161.916L140.529 141.584C141.912 142.91 141.912 145.048 140.589 146.374Z" fill="#D5E8FE"/>
<path d="M178.756 116.163L165.973 103.361C164.71 102.096 162.695 102.036 161.342 103.211L141.04 120.982C140.348 121.584 139.927 122.488 139.897 123.422C139.867 124.355 140.228 125.259 140.89 125.922L156.379 141.434C157.011 142.066 157.883 142.428 158.785 142.428C158.815 142.428 158.875 142.428 158.905 142.428C159.838 142.398 160.74 141.976 161.342 141.253L178.906 120.771C180.079 119.416 179.989 117.398 178.756 116.163Z" fill="#E63950"/>
<path d="M178.906 120.771L161.342 141.253C160.74 141.976 159.838 142.398 158.905 142.428C158.875 142.428 158.815 142.428 158.785 142.428C157.883 142.428 157.041 142.066 156.379 141.434L148.559 133.602L172.349 109.777L178.756 116.193C179.989 117.398 180.079 119.416 178.906 120.771Z" fill="#AE2538"/>
<path d="M165.552 145.41C165.552 148.241 164.44 150.922 162.455 152.91L154.785 160.59C154.154 161.223 153.281 161.584 152.379 161.584C151.477 161.584 150.635 161.223 149.973 160.59L121.731 132.307C121.1 131.675 120.739 130.801 120.739 129.898C120.739 128.994 121.1 128.151 121.731 127.488L129.401 119.807C131.416 117.789 134.063 116.705 136.89 116.705C139.717 116.705 142.394 117.819 144.379 119.807L162.394 137.849C164.44 139.928 165.552 142.578 165.552 145.41Z" fill="#FF7B4A"/>
<path d="M165.552 145.41C165.552 148.241 164.439 150.922 162.454 152.91L154.785 160.59C154.153 161.223 153.281 161.584 152.379 161.584C151.476 161.584 150.634 161.223 149.973 160.59L135.747 146.343L153.311 128.753L162.424 137.88C164.439 139.928 165.552 142.578 165.552 145.41Z" fill="#E63950"/>
<path d="M190.395 122.398C188.38 124.416 185.733 125.5 182.906 125.5C180.079 125.5 177.402 124.386 175.417 122.398L159.928 106.886C157.913 104.868 156.83 102.217 156.83 99.3856C156.83 96.5543 157.943 93.8735 159.928 91.8856C164.048 87.7591 170.785 87.7591 174.936 91.8856L190.425 107.398C194.516 111.494 194.516 118.241 190.395 122.398Z" fill="#FF7B4A"/>
<path d="M190.395 122.398C188.38 124.416 185.733 125.5 182.906 125.5C180.079 125.5 177.402 124.386 175.417 122.398L167.597 114.566L182.605 99.5362L190.425 107.368C194.515 111.494 194.515 118.241 190.395 122.398Z" fill="#E63950"/>
<path d="M133.13 85.4398C132.258 85.4398 131.385 85.1085 130.754 84.4458C129.43 83.1205 129.43 80.982 130.754 79.6567L146.273 64.0844C147.596 62.7591 149.732 62.7591 151.055 64.0844C152.379 65.4097 152.379 67.5482 151.055 68.8735L135.536 84.4458C134.874 85.1085 134.002 85.4398 133.13 85.4398Z" fill="#EDF5FF"/>
<path d="M151.056 68.8735L135.536 84.4458C134.874 85.1084 134.002 85.4398 133.13 85.4398C132.258 85.4398 131.386 85.1084 130.724 84.4458L130.694 84.4157L150.995 64.0844C152.379 65.4097 152.379 67.5482 151.056 68.8735Z" fill="#D5E8FE"/>
<path d="M130.574 100.259L115.085 84.747C114.423 84.0843 113.521 83.7229 112.588 83.753C111.656 83.7831 110.784 84.2048 110.152 84.8976L92.407 105.229C91.234 106.584 91.2942 108.602 92.5574 109.867L105.34 122.639C106.001 123.301 106.874 123.633 107.746 123.633C108.528 123.633 109.31 123.361 109.941 122.819L130.393 105.229C131.115 104.627 131.536 103.723 131.566 102.789C131.626 101.825 131.266 100.922 130.574 100.259Z" fill="#FF9100"/>
<path d="M131.566 102.789C131.536 103.723 131.115 104.627 130.393 105.229L109.941 122.819C109.309 123.361 108.527 123.633 107.745 123.633C106.873 123.633 106.001 123.301 105.339 122.639L98.9331 116.223L122.723 92.3976L130.543 100.229C131.265 100.922 131.626 101.825 131.566 102.789Z" fill="#FF641A"/>
<path d="M111.565 119.295L96.0759 103.783C91.9254 99.6266 85.2184 99.6266 81.0679 103.783C76.9474 107.91 76.9474 114.657 81.0679 118.813L96.5572 134.325C98.5723 136.343 101.219 137.428 104.046 137.428C106.873 137.428 109.55 136.313 111.535 134.325C113.52 132.337 114.633 129.657 114.633 126.825C114.633 123.994 113.58 121.313 111.565 119.295Z" fill="#FED843"/>
<path d="M114.693 126.795C114.693 129.627 113.58 132.307 111.595 134.295C109.58 136.313 106.933 137.398 104.106 137.398C101.279 137.398 98.6022 136.283 96.6172 134.295L88.7974 126.464L103.805 111.434L111.625 119.265C113.58 121.313 114.693 123.964 114.693 126.795Z" fill="#FF9100"/>
<path d="M149.732 98.6627L142.063 106.313C139.987 108.392 137.28 109.416 134.574 109.416C131.867 109.416 129.13 108.392 127.085 106.313L117.971 97.1868L109.039 88.241C107.054 86.2531 105.941 83.6025 105.941 80.7711C105.941 77.9398 107.054 75.2591 109.039 73.2711L116.708 65.5904C117.34 64.9579 118.212 64.5964 119.114 64.5964C120.017 64.5964 120.859 64.9579 121.52 65.5904L135.536 79.6266L149.762 93.8735C151.055 95.1988 151.055 97.3374 149.732 98.6627Z" fill="#FED843"/>
<path d="M149.732 98.6627L142.063 106.313C139.988 108.392 137.281 109.416 134.574 109.416C131.867 109.416 129.13 108.392 127.085 106.313L117.972 97.1868L135.536 79.5964L149.762 93.8434C151.056 95.1988 151.056 97.3374 149.732 98.6627Z" fill="#FF9100"/>
</g>
<path d="M270.681 352L203 234.5L270.681 117H406.319L474 234.5L406.319 352H270.681Z" fill="url(#paint2_linear)"/>
<path d="M286.069 324L234 234.5L286.069 145H389.931L442 234.5L389.931 324H286.069Z" fill="url(#paint3_linear)"/>
<path d="M286.069 324L234 234.5L286.069 145H389.931L442 234.5L389.931 324H286.069Z" fill="white"/>
<g clip-path="url(#clip1)">
<path d="M379.906 264.25H370.472V257.219H379.906C384.182 257.219 387.704 253.75 387.704 249.469V226.969C387.704 222.719 384.214 219.219 379.906 219.219H370.472V212.187H379.906C388.113 212.187 394.748 218.812 394.748 226.937V249.437C394.748 257.625 388.113 264.25 379.906 264.25Z" fill="#4895FF"/>
<path d="M373.993 206.375V257.25L365.44 279.75H302.295L295.22 257.25V206.375C295.22 204.438 296.792 202.875 298.742 202.875H331.069L334.622 204.25L338.144 202.844H370.471C372.421 202.844 373.993 204.406 373.993 206.375Z" fill="#7ED8F6"/>
<path d="M373.994 206.375V257.25L365.44 279.75H334.623V204.25L338.145 202.844H370.472C372.421 202.844 373.994 204.406 373.994 206.375Z" fill="#6AA9FF"/>
<path d="M338.144 221.375V202.844H331.069V221.375L334.622 223L338.144 221.375Z" fill="#EDF5FF"/>
<path d="M334.623 202.844V223L338.145 221.375V202.844H334.623Z" fill="#D5E8FE"/>
<path d="M313.616 194.406C312.987 194.406 312.358 194.25 311.792 193.906C310.126 192.906 309.56 190.75 310.566 189.094L312.956 185.187C313.427 184.406 313.302 183.687 313.207 183.312C313.082 182.937 312.799 182.25 311.981 181.875C309.622 180.719 307.83 178.625 307.075 176.094C306.321 173.594 306.666 170.844 308.05 168.594L310.409 164.687C311.383 163.031 313.553 162.5 315.22 163.5C316.887 164.5 317.453 166.656 316.446 168.312L314.088 172.219C313.616 173 313.742 173.719 313.836 174.094C313.962 174.469 314.245 175.156 315.063 175.531C317.421 176.687 319.214 178.781 319.968 181.312C320.723 183.812 320.377 186.562 319.025 188.812L316.666 192.687C316.006 193.812 314.843 194.406 313.616 194.406Z" fill="#D9E1EB"/>
<path d="M334.371 194.406C333.742 194.406 333.113 194.25 332.547 193.906C330.88 192.906 330.314 190.75 331.32 189.094L333.679 185.187C334.151 184.406 334.025 183.687 333.931 183.312C333.805 182.937 333.522 182.25 332.704 181.875C330.346 180.719 328.553 178.625 327.798 176.094C327.044 173.594 327.39 170.844 328.773 168.594L331.132 164.687C332.138 163.031 334.308 162.469 335.975 163.469C337.641 164.469 338.207 166.625 337.201 168.281L334.842 172.187C334.371 172.969 334.497 173.687 334.591 174.062C334.717 174.437 335 175.125 335.817 175.5C338.176 176.656 339.968 178.75 340.723 181.281C341.478 183.781 341.132 186.531 339.78 188.781L337.421 192.687C336.761 193.812 335.597 194.406 334.371 194.406Z" fill="#D9E1EB"/>
<path d="M355.849 194.406C355.22 194.406 354.591 194.25 354.025 193.906C352.358 192.906 351.792 190.75 352.798 189.094L355.157 185.187C355.629 184.406 355.503 183.687 355.409 183.312C355.283 182.937 355 182.25 354.182 181.875C351.824 180.719 350.031 178.625 349.276 176.094C348.522 173.594 348.868 170.844 350.251 168.594L352.61 164.687C353.616 163.031 355.786 162.469 357.453 163.469C359.119 164.469 359.685 166.625 358.679 168.281L356.32 172.187C355.849 172.969 355.975 173.687 356.069 174.062C356.195 174.437 356.478 175.125 357.295 175.5C359.654 176.656 361.446 178.75 362.201 181.281C362.956 183.781 362.61 186.531 361.258 188.781L358.868 192.687C358.207 193.812 357.044 194.406 355.849 194.406Z" fill="#D9E1EB"/>
<path d="M348.459 230.125L337.138 218.875C335.754 217.5 333.521 217.5 332.138 218.875L320.817 230.125C320.157 230.781 319.779 231.687 319.779 232.625V245.5C319.779 247.437 321.352 249 323.333 249H345.974C347.924 249 349.496 247.437 349.496 245.5V232.625C349.465 231.687 349.119 230.781 348.459 230.125Z" fill="#FED843"/>
<path d="M345.943 249.031C347.893 249.031 349.465 247.469 349.465 245.531V232.656C349.465 231.719 349.088 230.844 348.427 230.156L337.107 218.906C336.415 218.219 335.503 217.875 334.591 217.875V249.062H345.943V249.031Z" fill="#FF9100"/>
<path d="M295.251 257.219V271.969C295.251 278.063 300.188 283 306.32 283H362.924C369.056 283 373.993 278.063 373.993 271.969V257.219H295.251ZM338.144 264.25H348.993V275.969H338.144V264.25ZM331.1 275.969H320.22V264.25H331.069V275.969H331.1ZM302.295 272V264.25H313.144V275.969H306.32C304.119 275.969 302.295 274.187 302.295 272ZM366.949 272C366.949 274.187 365.157 276 362.924 276H356.069V264.25H366.918V272H366.949Z" fill="#5F55AF"/>
<path d="M334.623 283H362.924C369.057 283 373.994 278.063 373.994 271.969V257.219H334.623V283ZM356.069 264.25H366.918V272C366.918 274.187 365.126 276 362.893 276H356.038V264.25H356.069ZM348.994 264.25V275.969H338.145V264.25H348.994Z" fill="#453D83"/>
</g>
<path d="M68 469L0 352L67.6809 235H203.319L271 352L203.319 469H68Z" fill="url(#paint4_linear)"/>
<path d="M83.8189 441L32 351.5L83.8189 262H187.181L239 351.5L187.181 441H83.8189Z" fill="url(#paint5_linear)"/>
<path d="M83.8189 441L32 351.5L83.8189 262H187.181L239 351.5L187.181 441H83.8189Z" fill="white"/>
<g clip-path="url(#clip2)">
<path d="M178.095 329.092L177.058 349.545L168.326 358.718L176.116 368.139L175.268 384.935L172.692 390.266H97.3078L94.7008 384.935L93.8527 368.139L99.3495 358.842L92.9418 349.545L91.9053 329.092H178.095Z" fill="#EDF5FF"/>
<path d="M178.095 329.092L177.058 349.545L168.326 358.718L176.116 368.139L175.268 384.935L172.692 390.266H135V329.092H178.095Z" fill="#D5E8FE"/>
<path d="M168.326 386.826L168.169 389.863L167.824 396.526C167.573 401.329 163.552 405.11 158.683 405.11H111.317C106.417 405.11 102.396 401.329 102.176 396.526L101.957 392.404L101.674 386.826H168.326Z" fill="#EDF5FF"/>
<path d="M168.326 386.826L168.012 392.9L167.824 396.494C167.572 401.298 163.552 405.079 158.683 405.079H135V386.795H168.326V386.826Z" fill="#D5E8FE"/>
<path d="M176.211 309.972L174.326 291.13C174.137 289.271 172.504 287.907 170.62 288L99.0041 291.719C97.2766 291.812 95.8945 293.082 95.6747 294.787L93.79 309.91L176.211 309.972Z" fill="#5F55AF"/>
<path d="M174.326 291.13C174.137 289.271 172.504 287.907 170.619 288L135 289.859V309.941L176.21 309.972L174.326 291.13Z" fill="#453D83"/>
<path d="M180.231 306.842H89.7694C87.822 306.842 86.2515 308.391 86.2515 310.343V328.937C86.2515 330.859 87.822 332.408 89.7694 332.408H180.231C182.178 332.408 183.749 330.859 183.749 328.937V310.313C183.749 308.391 182.178 306.842 180.231 306.842Z" fill="#453D83"/>
<path d="M180.231 306.842H135V332.408H180.231C182.178 332.408 183.749 330.859 183.749 328.937V310.313C183.749 308.391 182.178 306.842 180.231 306.842Z" fill="#2D2755"/>
<path d="M94.7007 384.935L95.2975 396.649C95.6116 402.444 100.449 407 106.354 407H163.615C169.52 407 174.388 402.444 174.671 396.618L175.268 384.935H94.7007ZM138.424 391.908H149.26V400.027H138.424V391.908ZM131.356 400.027H120.52V391.908H131.356V400.027ZM102.365 396.278L102.145 391.908H113.453V400.027H106.354C104.218 400.027 102.459 398.385 102.365 396.278ZM167.635 396.278C167.541 398.385 165.782 400.027 163.646 400.027H156.328V391.908H167.855L167.635 396.278Z" fill="#FF7B4A"/>
<path d="M135 407H163.646C169.551 407 174.42 402.444 174.703 396.618L175.299 384.935H135V407ZM156.328 391.908H167.855L167.635 396.278C167.541 398.385 165.782 400.027 163.646 400.027H156.328V391.908ZM149.26 391.908V400.027H138.424V391.908H149.26Z" fill="#E63950"/>
<path d="M127.053 351.746C123.064 355.96 122.059 361.972 124.697 366.094C125.106 366.714 125.263 367.426 125.231 368.139H93.8525L92.9102 349.545H127.995C127.964 350.351 127.65 351.126 127.053 351.746Z" fill="#FF7B4A"/>
<path d="M177.058 349.545L176.116 368.139H141.973C141.91 367.209 142.287 366.28 142.915 365.567C146.81 361.29 147.658 355.309 144.957 351.281C144.612 350.754 144.392 350.134 144.36 349.514H177.058V349.545Z" fill="#E63950"/>
<path d="M148.129 370.308C147.878 370.587 147.627 370.835 147.376 371.114C143.261 375.174 137.921 377.25 132.833 377.25C130.069 377.25 127.367 376.661 124.98 375.422L123.033 370.835L119.201 370.432C114.238 363.46 115.494 353.357 122.467 346.477C128.749 340.279 137.827 338.699 144.706 342.046L146.088 347.655L150.548 346.911C150.674 347.066 150.799 347.252 150.894 347.407C155.385 354.194 154.286 363.584 148.129 370.308Z" fill="#FED843"/>
<path d="M150.485 346.911L146.025 347.655L144.643 342.046C141.722 340.62 138.361 340.094 135 340.434V377.095C139.397 376.599 143.826 374.585 147.344 371.083C147.596 370.835 147.847 370.587 148.098 370.308C154.254 363.615 155.354 354.194 150.831 347.438C150.737 347.252 150.611 347.097 150.485 346.911Z" fill="#FF9100"/>
<path d="M150.486 346.911L149.921 348.709C149.921 348.74 149.921 348.74 149.889 348.771L149.795 349.08C147.879 354.783 143.262 359.307 137.514 361.197L134.592 362.158C130.917 363.367 127.996 366.249 126.771 369.874L126.457 370.773L124.949 375.391C123.505 374.647 122.154 373.717 120.96 372.509C120.803 372.354 120.678 372.199 120.521 372.044C120.489 372.013 120.458 371.982 120.458 371.951C119.987 371.455 119.578 370.928 119.17 370.37L119.767 368.573V368.542L120.081 367.612C121.997 361.91 126.583 357.386 132.362 355.495L135.283 354.535C138.958 353.326 141.88 350.444 143.105 346.818L143.199 346.539L144.644 341.984C146.183 342.728 147.596 343.719 148.853 344.959C148.947 345.052 149.041 345.145 149.135 345.238C149.606 345.796 150.078 346.353 150.486 346.911Z" fill="#5F55AF"/>
<path d="M148.821 345.021C147.564 343.781 146.151 342.79 144.612 342.046L143.167 346.601L143.072 346.88C141.847 350.506 138.926 353.388 135.251 354.597L135 354.69V362.034L137.481 361.228C143.261 359.338 147.847 354.783 149.763 349.111L149.857 348.802C149.857 348.771 149.857 348.771 149.888 348.74L150.454 346.942C150.046 346.353 149.574 345.827 149.072 345.3C149.009 345.176 148.915 345.114 148.821 345.021Z" fill="#453D83"/>
</g>
<defs>
<linearGradient id="paint0_linear" x1="42.9219" y1="24.725" x2="227.471" y2="209.914" gradientUnits="userSpaceOnUse">
<stop offset="1.834e-05" stop-color="#FFCF0D"/>
<stop offset="1" stop-color="#EDA704"/>
</linearGradient>
<linearGradient id="paint1_linear" x1="64.8667" y1="46.9134" x2="206.04" y2="188.214" gradientUnits="userSpaceOnUse">
<stop stop-color="white"/>
<stop offset="0.2511" stop-color="#FAFAFA"/>
<stop offset="0.5396" stop-color="#ECECEC"/>
<stop offset="0.8455" stop-color="#D5D5D5"/>
<stop offset="1" stop-color="#C7C7C7"/>
</linearGradient>
<linearGradient id="paint2_linear" x1="245.922" y1="141.831" x2="431.26" y2="327.021" gradientUnits="userSpaceOnUse">
<stop stop-color="#D4394C"/>
<stop offset="1" stop-color="#FC3A52"/>
</linearGradient>
<linearGradient id="paint3_linear" x1="267.025" y1="163.913" x2="408.196" y2="305.894" gradientUnits="userSpaceOnUse">
<stop stop-color="white"/>
<stop offset="0.2511" stop-color="#FAFAFA"/>
<stop offset="0.5396" stop-color="#ECECEC"/>
<stop offset="0.8455" stop-color="#D5D5D5"/>
<stop offset="1" stop-color="#C7C7C7"/>
</linearGradient>
<linearGradient id="paint4_linear" x1="42.9219" y1="259.725" x2="227.471" y2="444.914" gradientUnits="userSpaceOnUse">
<stop stop-color="#53BFD3"/>
<stop offset="1" stop-color="#00A5A9"/>
</linearGradient>
<linearGradient id="paint5_linear" x1="64.8667" y1="280.913" x2="206.04" y2="422.214" gradientUnits="userSpaceOnUse">
<stop stop-color="white"/>
<stop offset="0.2511" stop-color="#FAFAFA"/>
<stop offset="0.5396" stop-color="#ECECEC"/>
<stop offset="0.8455" stop-color="#D5D5D5"/>
<stop offset="1" stop-color="#C7C7C7"/>
</linearGradient>
<clipPath id="clip0">
<rect width="115.493" height="100" fill="white" transform="translate(78 63)"/>
</clipPath>
<clipPath id="clip1">
<rect width="100" height="120" fill="white" transform="translate(295 163)"/>
</clipPath>
<clipPath id="clip2">
<rect width="98" height="119" fill="white" transform="translate(86 288)"/>
</clipPath>
</defs>
</svg>
