<svg width="344" height="80" viewBox="0 0 344 80" fill="none" xmlns="http://www.w3.org/2000/svg">
<path d="M77.9958 0.271973L115.144 37.42L77.9958 76.344L48.5439 59.472L45.8799 29.724L77.9958 0.271973Z" fill="#102571"/>
<path opacity="0.3" d="M77.9958 0.271973L115.144 37.42L77.9958 76.344L48.5439 59.472L45.8799 29.724L77.9958 0.271973Z" fill="#333333"/>
<path d="M39.0707 69H87.0005V80H343.043V8H39.0707C23.6351 8 11.043 21.7029 11.043 38.5C11.043 55.4444 23.6351 69 39.0707 69Z" fill="#F9F9F9"/>
<path opacity="0.1" d="M80.5121 23.9519V7.67188H38.0363C21.1643 7.67188 7.40039 21.4359 7.40039 38.3079C7.40039 55.1799 21.1643 68.9439 38.0363 68.9439H80.5121V52.6639C72.5201 52.6639 66.0082 46.1519 66.0082 38.1599C66.0082 30.1679 72.6682 23.9519 80.5121 23.9519Z" fill="#333333"/>
<path d="M63.6398 38.3075C63.6398 30.3155 70.1517 23.8035 78.1437 23.8035V0.123535H38.1839C17.1679 0.271535 0 17.4395 0 38.3075C0 59.3235 17.0199 76.3435 38.0359 76.3435H77.9957V52.6635C70.0037 52.8115 63.6398 46.2995 63.6398 38.3075Z" fill="#03218C"/>
<g opacity="0.1">
<path opacity="0.1" d="M77.9966 0.271973H50.6167L1.62891 49.26C4.2929 58.14 10.0649 65.54 17.6128 70.424L77.9966 10.04V0.271973Z" fill="white"/>
<path opacity="0.1" d="M66.8968 29.2803L22.793 73.2363C27.529 75.3083 32.5609 76.4923 38.0369 76.4923H38.1849L66.8968 47.7803C64.8248 45.2643 63.4928 42.0083 63.4928 38.4563C63.6408 34.9043 64.8248 31.6483 66.8968 29.2803Z" fill="white"/>
<path opacity="0.1" d="M77.9963 18.0317L68.8203 27.2077C71.3363 25.1357 74.4443 23.9517 77.9963 23.9517V18.0317Z" fill="white"/>
</g>
<path d="M41.2622 33.342C44.5262 33.342 47.1982 34.334 49.2782 36.318C51.3902 38.302 52.4462 40.782 52.4462 43.758C52.4462 46.798 51.4062 49.326 49.3262 51.342C47.2462 53.358 44.6542 54.366 41.5502 54.366C38.4782 54.366 35.9182 53.406 33.8702 51.486C31.8542 49.566 30.7982 47.118 30.7022 44.142H35.8862C35.9502 45.71 36.5102 46.99 37.5662 47.982C38.6222 48.974 39.9502 49.47 41.5502 49.47C43.1822 49.47 44.5262 48.926 45.5822 47.838C46.6702 46.75 47.2142 45.39 47.2142 43.758C47.2142 43.214 47.1342 42.686 46.9742 42.174C46.8462 41.662 46.6542 41.198 46.3982 40.782C46.1422 40.334 45.8222 39.934 45.4382 39.582C45.0862 39.23 44.6862 38.926 44.2382 38.67C43.7902 38.414 43.2942 38.222 42.7502 38.094C42.2382 37.966 41.6782 37.902 41.0702 37.902H32.6222L31.9982 37.182L33.7262 21.87H50.2382V26.574H37.9022L37.1822 33.342H41.2622Z" fill="white"/>
</svg>
