<svg width="271" height="234" viewBox="0 0 271 234" fill="none" xmlns="http://www.w3.org/2000/svg">
<path d="M68 234L0 117L67.6809 0H203.319L271 117L203.319 234H68Z" fill="url(#paint0_linear)"/>
<path d="M83.8189 206L32 116.5L83.8189 27H187.181L239 116.5L187.181 206H83.8189Z" fill="url(#paint1_linear)"/>
<path d="M83.8189 206L32 116.5L83.8189 27H187.181L239 116.5L187.181 206H83.8189Z" fill="white"/>
<g clip-path="url(#clip0)">
<path d="M178.095 94.0922L177.058 114.545L168.326 123.718L176.116 133.139L175.268 149.935L172.692 155.266H97.3078L94.7008 149.935L93.8527 133.139L99.3495 123.842L92.9418 114.545L91.9053 94.0922H178.095Z" fill="#EDF5FF"/>
<path d="M178.095 94.0922L177.058 114.545L168.326 123.718L176.116 133.139L175.268 149.935L172.692 155.266H135V94.0922H178.095Z" fill="#D5E8FE"/>
<path d="M168.326 151.826L168.169 154.863L167.824 161.526C167.573 166.329 163.552 170.11 158.683 170.11H111.317C106.417 170.11 102.396 166.329 102.176 161.526L101.957 157.404L101.674 151.826H168.326Z" fill="#EDF5FF"/>
<path d="M168.326 151.826L168.012 157.9L167.824 161.494C167.572 166.298 163.552 170.079 158.683 170.079H135V151.795H168.326V151.826Z" fill="#D5E8FE"/>
<path d="M176.211 74.9716L174.326 56.13C174.137 54.2706 172.504 52.9071 170.62 53L99.0041 56.7188C97.2766 56.8117 95.8945 58.0823 95.6747 59.7867L93.79 74.9097L176.211 74.9716Z" fill="#5F55AF"/>
<path d="M174.326 56.13C174.137 54.2706 172.504 52.9071 170.619 53L135 54.8594V74.9406L176.21 74.9716L174.326 56.13Z" fill="#453D83"/>
<path d="M180.231 71.8417H89.7694C87.822 71.8417 86.2515 73.3912 86.2515 75.3435V93.9373C86.2515 95.8586 87.822 97.4081 89.7694 97.4081H180.231C182.178 97.4081 183.749 95.8586 183.749 93.9373V75.3125C183.749 73.3912 182.178 71.8417 180.231 71.8417Z" fill="#453D83"/>
<path d="M180.231 71.8417H135V97.4081H180.231C182.178 97.4081 183.749 95.8586 183.749 93.9373V75.3125C183.749 73.3912 182.178 71.8417 180.231 71.8417Z" fill="#2D2755"/>
<path d="M94.7007 149.935L95.2975 161.649C95.6116 167.444 100.449 172 106.354 172H163.615C169.52 172 174.388 167.444 174.671 161.618L175.268 149.935H94.7007ZM138.424 156.908H149.26V165.027H138.424V156.908ZM131.356 165.027H120.52V156.908H131.356V165.027ZM102.365 161.278L102.145 156.908H113.453V165.027H106.354C104.218 165.027 102.459 163.385 102.365 161.278ZM167.635 161.278C167.541 163.385 165.782 165.027 163.646 165.027H156.328V156.908H167.855L167.635 161.278Z" fill="#FF7B4A"/>
<path d="M135 172H163.646C169.551 172 174.42 167.444 174.703 161.618L175.299 149.935H135V172ZM156.328 156.908H167.855L167.635 161.278C167.541 163.385 165.782 165.027 163.646 165.027H156.328V156.908ZM149.26 156.908V165.027H138.424V156.908H149.26Z" fill="#E63950"/>
<path d="M127.053 116.746C123.064 120.96 122.059 126.972 124.697 131.094C125.106 131.714 125.263 132.426 125.231 133.139H93.8525L92.9102 114.545H127.995C127.964 115.351 127.65 116.126 127.053 116.746Z" fill="#FF7B4A"/>
<path d="M177.058 114.545L176.116 133.139H141.973C141.91 132.209 142.287 131.28 142.915 130.567C146.81 126.29 147.658 120.309 144.957 116.281C144.612 115.754 144.392 115.134 144.36 114.514H177.058V114.545Z" fill="#E63950"/>
<path d="M148.129 135.308C147.878 135.587 147.627 135.835 147.376 136.114C143.261 140.174 137.921 142.25 132.833 142.25C130.069 142.25 127.367 141.661 124.98 140.422L123.033 135.835L119.201 135.432C114.238 128.46 115.494 118.357 122.467 111.477C128.749 105.279 137.827 103.699 144.706 107.046L146.088 112.655L150.548 111.911C150.674 112.066 150.799 112.252 150.894 112.407C155.385 119.194 154.286 128.584 148.129 135.308Z" fill="#FED843"/>
<path d="M150.485 111.911L146.025 112.655L144.643 107.046C141.722 105.62 138.361 105.094 135 105.434V142.095C139.397 141.599 143.826 139.585 147.344 136.083C147.596 135.835 147.847 135.587 148.098 135.308C154.254 128.615 155.354 119.194 150.831 112.438C150.737 112.252 150.611 112.097 150.485 111.911Z" fill="#FF9100"/>
<path d="M150.486 111.911L149.921 113.709C149.921 113.74 149.921 113.74 149.889 113.771L149.795 114.08C147.879 119.783 143.262 124.307 137.514 126.197L134.592 127.158C130.917 128.367 127.996 131.249 126.771 134.874L126.457 135.773L124.949 140.391C123.505 139.647 122.154 138.717 120.96 137.509C120.803 137.354 120.678 137.199 120.521 137.044C120.489 137.013 120.458 136.982 120.458 136.951C119.987 136.455 119.578 135.928 119.17 135.37L119.767 133.573V133.542L120.081 132.612C121.997 126.91 126.583 122.386 132.362 120.495L135.283 119.535C138.958 118.326 141.88 115.444 143.105 111.818L143.199 111.539L144.644 106.984C146.183 107.728 147.596 108.719 148.853 109.959C148.947 110.052 149.041 110.145 149.135 110.238C149.606 110.796 150.078 111.353 150.486 111.911Z" fill="#5F55AF"/>
<path d="M148.821 110.021C147.564 108.781 146.151 107.79 144.612 107.046L143.167 111.601L143.072 111.88C141.847 115.506 138.926 118.388 135.251 119.597L135 119.69V127.034L137.481 126.228C143.261 124.338 147.847 119.783 149.763 114.111L149.857 113.802C149.857 113.771 149.857 113.771 149.888 113.74L150.454 111.942C150.046 111.353 149.574 110.827 149.072 110.3C149.009 110.176 148.915 110.114 148.821 110.021Z" fill="#453D83"/>
</g>
<defs>
<linearGradient id="paint0_linear" x1="42.9219" y1="24.725" x2="227.471" y2="209.914" gradientUnits="userSpaceOnUse">
<stop stop-color="#53BFD3"/>
<stop offset="1" stop-color="#00A5A9"/>
</linearGradient>
<linearGradient id="paint1_linear" x1="64.8667" y1="45.9134" x2="206.04" y2="187.214" gradientUnits="userSpaceOnUse">
<stop stop-color="white"/>
<stop offset="0.2511" stop-color="#FAFAFA"/>
<stop offset="0.5396" stop-color="#ECECEC"/>
<stop offset="0.8455" stop-color="#D5D5D5"/>
<stop offset="1" stop-color="#C7C7C7"/>
</linearGradient>
<clipPath id="clip0">
<rect width="98" height="119" fill="white" transform="translate(86 53)"/>
</clipPath>
</defs>
</svg>
