<svg width="115" height="77" viewBox="0 0 115 77" fill="none" xmlns="http://www.w3.org/2000/svg">
<path d="M76.9958 0.271973L114.144 37.42L76.9958 76.344L47.5439 59.472L44.8799 29.724L76.9958 0.271973Z" fill="#F9B248"/>
<path opacity="0.3" d="M76.9958 0.271973L114.144 37.42L76.9958 76.344L47.5439 59.472L44.8799 29.724L76.9958 0.271973Z" fill="#333333"/>
<path opacity="0.1" d="M79.5121 23.9519V7.67188H37.0363C20.1643 7.67188 6.40039 21.4359 6.40039 38.3079C6.40039 55.1799 20.1643 68.9439 37.0363 68.9439H79.5121V52.6639C71.5201 52.6639 65.0082 46.1519 65.0082 38.1599C65.0082 30.1679 71.6682 23.9519 79.5121 23.9519Z" fill="#333333"/>
<g opacity="0.1">
<path opacity="0.1" d="M76.9966 0.271973H49.6167L0.628906 49.26C3.2929 58.14 9.06487 65.54 16.6128 70.424L76.9966 10.04V0.271973Z" fill="white"/>
<path opacity="0.1" d="M65.8968 29.2803L21.793 73.2363C26.529 75.3083 31.5609 76.4923 37.0369 76.4923H37.1849L65.8968 47.7803C63.8248 45.2643 62.4928 42.0083 62.4928 38.4563C62.6408 34.9043 63.8248 31.6483 65.8968 29.2803Z" fill="white"/>
<path opacity="0.1" d="M76.9963 18.0317L67.8203 27.2077C70.3363 25.1357 73.4443 23.9517 76.9963 23.9517V18.0317Z" fill="white"/>
</g>
</svg>
