<svg width="300" height="300" viewBox="0 0 300 300" fill="none" xmlns="http://www.w3.org/2000/svg">
<path d="M150 0L0 150L150 300L300 150L150 0Z" fill="url(#paint0_linear)"/>
<path d="M45 150L150 45L255 150L150 255L45 150Z" fill="white"/>
<path d="M179.297 102H167.578H155.859C144.551 102 135.156 111.211 135.156 122.533C135.156 132.859 143.008 141.424 152.93 142.852V151.867C152.93 153.06 153.633 154.116 154.746 154.585C155.82 155.035 157.09 154.8 157.93 153.94L167.578 144.279L168.789 143.067H179.297C190.605 143.067 200 133.856 200 122.533C200 111.211 190.605 102 179.297 102Z" fill="#FED843"/>
<path d="M179.297 143.067C190.605 143.067 200 133.856 200 122.533C200 111.211 190.605 102 179.297 102H167.578V144.279L168.789 143.067H179.297Z" fill="#FABE2C"/>
<path d="M174.609 169.467V181.2C174.609 186.304 170.449 190 165.859 190C148.984 190 132.52 182.021 120.273 169.799C108.027 157.577 100 141.15 100 124.254C100 119.405 103.945 115.493 108.789 115.493H120.508C121.777 115.493 122.891 116.295 123.281 117.488L129.141 135.049C129.434 135.909 129.297 136.848 128.809 137.611L123.828 145.081C125.703 149.031 129.043 153.353 132.891 157.166C136.738 160.98 141.113 164.265 145.059 166.142L152.52 161.175C153.281 160.686 154.219 160.549 155.078 160.843L172.656 166.709C173.848 167.081 174.609 168.196 174.609 169.467Z" fill="#FF641A"/>
<path d="M174.609 169.467V181.2C174.609 186.304 170.449 190 165.859 190C148.984 190 132.52 182.021 120.273 169.799L132.891 157.166C136.738 160.98 141.113 164.265 145.059 166.142L152.52 161.175C153.281 160.686 154.219 160.549 155.078 160.843L172.656 166.709C173.848 167.081 174.609 168.196 174.609 169.467Z" fill="#F03800"/>
<path d="M155.859 125.467C157.477 125.467 158.789 124.153 158.789 122.533C158.789 120.913 157.477 119.6 155.859 119.6C154.241 119.6 152.93 120.913 152.93 122.533C152.93 124.153 154.241 125.467 155.859 125.467Z" fill="#613D5C"/>
<path d="M167.578 125.467C169.196 125.467 170.508 124.153 170.508 122.533C170.508 120.913 169.196 119.6 167.578 119.6C165.96 119.6 164.648 120.913 164.648 122.533C164.648 124.153 165.96 125.467 167.578 125.467Z" fill="#613D5C"/>
<path d="M170.508 122.533C170.508 120.91 169.199 119.6 167.578 119.6V125.467C169.199 125.467 170.508 124.157 170.508 122.533Z" fill="#4B2746"/>
<path d="M179.297 125.467C180.915 125.467 182.227 124.153 182.227 122.533C182.227 120.913 180.915 119.6 179.297 119.6C177.679 119.6 176.367 120.913 176.367 122.533C176.367 124.153 177.679 125.467 179.297 125.467Z" fill="#4B2746"/>
<defs>
<linearGradient id="paint0_linear" x1="74.9964" y1="74.9964" x2="225.004" y2="225.004" gradientUnits="userSpaceOnUse">
<stop offset="1.834e-05" stop-color="#FFCF0D"/>
<stop offset="1" stop-color="#EDA704"/>
</linearGradient>
</defs>
</svg>
