<svg width="157" height="82" viewBox="0 0 157 82" fill="none" xmlns="http://www.w3.org/2000/svg">
<path d="M119.035 49.0996L122.822 58.5722L116.51 74.6757L109.725 52.5729L119.035 49.0996Z" fill="#F8B68F"/>
<path d="M19.9348 25.7339L14.4116 38.2062L9.04639 70.7288C9.04639 70.7288 13.1492 70.7288 14.4116 70.7288C28.2983 55.4148 28.2984 27.4705 28.2984 27.4705L19.9348 25.7339Z" fill="#15ACB4"/>
<path d="M65.8555 81.3066H6.20598C2.4187 81.3066 -0.42179 77.9912 0.0516193 74.2021L6.52151 23.8394H15.0429C15.0429 23.8394 16.7788 38.0483 16.9366 45.9421C17.7256 54.6254 12.6759 67.887 12.6759 67.887C12.6759 67.887 41.8695 50.0469 54.3359 51.3099C64.1197 52.573 66.6445 50.6784 66.6445 50.6784L65.8555 81.3066Z" fill="#B0D9C8"/>
<path d="M104.517 36.6278C104.517 36.6278 113.039 35.5226 119.035 48.9422C116.51 52.0997 112.881 53.9942 112.881 53.9942C112.881 53.9942 113.512 63.7826 110.04 65.9929C106.569 68.2032 85.5808 81.3069 85.5808 81.3069H65.8555V54.9415L93.471 35.8384L104.517 36.6278Z" fill="#01898C"/>
<path d="M97.2584 28.7339C95.996 28.7339 97.7319 36.9435 97.7319 36.9435C97.7319 36.9435 97.8897 49.1 102.15 49.1C107.042 49.1 107.042 36.6277 107.042 36.6277V33.3123C106.884 33.3123 98.5208 28.7339 97.2584 28.7339Z" fill="#F4A086"/>
<path d="M105.937 35.6799C107.042 35.8378 108.304 35.8378 108.935 35.522C113.354 30.7857 113.354 15.4717 113.354 15.4717H99.4672L97.2579 25.1022C96.6267 27.6282 97.4157 30.3121 99.1516 32.3645C100.887 34.1012 103.254 35.3642 105.937 35.6799Z" fill="#F8B68F"/>
<path d="M62.6993 34.417C73.7455 28.4177 80.8466 31.4173 84.6339 29.8385C90.7882 27.1546 94.1021 8.2094 104.833 9.31454C115.563 10.2618 115.563 17.5241 115.563 17.5241C115.563 17.5241 117.93 23.6813 103.097 22.2605C100.73 22.1026 97.7315 23.3656 97.5737 25.7337C97.4159 31.7331 97.7316 36.943 97.7316 36.943C97.7316 36.943 86.6854 40.4163 82.4247 44.3632C78.164 48.3102 70.5895 68.2027 58.2808 68.2027C46.6034 67.2554 44.7098 44.2053 62.6993 34.417Z" fill="#212B53"/>
<path d="M76.1124 56.9937L87.3164 63.6245L82.2666 72.9392C81.0042 74.518 82.1089 75.781 84.1603 75.781L111.934 76.4125V81.4646C111.934 81.4646 73.7453 81.4646 68.6956 81.4646C63.8037 81.3067 76.1124 56.9937 76.1124 56.9937Z" fill="#F8B68F"/>
<path d="M156.592 54.9409H117.773L105.148 81.3064H143.968L156.592 54.9409Z" fill="#212B53"/>
<path d="M143.968 78.9385H94.1021V81.3066H143.968V78.9385Z" fill="#212B53"/>
<path d="M132.606 64.5714C132.606 65.3608 133.237 66.1502 134.184 66.1502C134.973 66.1502 135.762 65.5187 135.762 64.5714C135.762 63.7821 135.131 62.9927 134.184 62.9927C133.237 62.9927 132.606 63.7821 132.606 64.5714Z" fill="#EFEEEE"/>
<path d="M7.46875 23.8391L8.88894 16.1031L9.99359 15.7874C10.7826 15.6295 11.5717 15.6295 12.2029 15.7874L13.7809 16.1031V23.8391H7.46875Z" fill="#F8B68F"/>
<path d="M8.88815 16.2611L2.26049 7.57792C1.15587 6.15702 0.366855 4.42038 1.47148 2.68373C1.47148 2.68373 2.26046 1.57859 3.20727 0.631333C3.99629 0.473456 15.6738 13.2615 15.6738 13.2615V13.4194C15.6738 14.9981 14.5691 16.419 12.3598 16.419L8.88815 16.2611Z" fill="#F7A605"/>
<path d="M3.36475 0.63151L15.8314 13.2617L16.3047 12.4723L3.83824 0L3.36475 0.63151Z" fill="white"/>
<path d="M8.5796 12.0916L6.77832 13.3716L7.41802 14.2726L9.2193 12.9926L8.5796 12.0916Z" fill="white"/>
<path d="M6.89938 9.69984L4.96289 11.0615L5.59805 11.9656L7.53455 10.604L6.89938 9.69984Z" fill="white"/>
<path d="M24.9845 19.7345L21.5129 9.31459C20.8817 7.73582 20.7239 5.68342 22.3019 4.4204C22.3019 4.4204 23.4065 3.63102 24.5112 2.99951C25.3002 3.15739 32.4012 18.9451 32.4012 18.9451V19.103C31.77 20.5239 30.3499 21.629 28.2984 20.9975L24.9845 19.7345Z" fill="#F7A605"/>
<path d="M24.6689 3.15755L32.4012 19.1031L33.1902 18.4716L25.3002 2.8418L24.6689 3.15755Z" fill="white"/>
<path d="M26.0328 15.6044L23.9199 16.25L24.2426 17.307L26.3555 16.6613L26.0328 15.6044Z" fill="white"/>
<path d="M25.2418 12.9063L22.9746 13.5869L23.2921 14.6454L25.5593 13.9648L25.2418 12.9063Z" fill="white"/>
<path d="M21.5127 26.0496L24.9844 19.5767L29.7185 21.3133L27.5093 27.3126L21.5127 26.0496Z" fill="#F8B68F"/>
</svg>
