<svg width="68" height="68" viewBox="0 0 68 68" fill="none" xmlns="http://www.w3.org/2000/svg">
<rect width="68" height="68" rx="8" fill="#EDF0F4"/>
<g clip-path="url(#clip0)">
<path d="M52.4642 34.6702C52.4106 33.5202 51.9897 32.4094 51.3008 31.4941C49.7472 29.429 49.4487 27.7862 49.4487 27.7862C48.2318 24.5163 47.1449 22.3416 46.349 20.9648C45.5071 19.5176 44.0605 18.5398 42.4227 18.3207C39.1316 17.8827 28.8605 17.8827 25.5695 18.3207C23.9393 18.5398 22.4851 19.5176 21.6509 20.9648C20.8549 22.3494 19.7681 24.5241 18.5512 27.7862C18.5512 27.7862 18.245 29.429 16.6914 31.4941C16.0025 32.4094 15.5816 33.5124 15.528 34.6702C15.4132 37.1734 16.1173 37.721 16.7526 43.3846C16.8062 43.8305 17.1735 44.1669 17.6098 44.1669H50.3824C50.8187 44.1669 51.186 43.8305 51.2396 43.3846C51.4156 41.7966 51.9437 38.5737 51.9437 38.5737C52.4106 36.9778 52.5101 35.6715 52.4642 34.6702Z" fill="#E95353"/>
<path d="M48.7599 27.6611C47.7956 25.2048 46.8159 23.0535 45.8439 21.3403C45.1015 20.0418 43.8004 19.1422 42.3539 18.9466C39.0552 18.5007 28.9218 18.5007 25.6538 18.9466C24.2072 19.1422 22.9061 20.0496 22.1637 21.3403C21.1764 23.077 20.1815 25.2517 19.2324 27.6611C29.0596 28.4512 38.9327 28.4512 48.7599 27.6611Z" fill="#168DE2"/>
<path d="M47.3594 30.5085C46.9844 30.6259 46.6323 30.798 46.3415 30.9622C45.8057 31.2673 45.2623 31.5489 44.696 31.768C43.7469 32.1356 43.5939 32.6832 43.5939 32.6832C43.5632 32.7223 43.5403 32.7614 43.5097 32.8006C42.7902 33.8879 43.7316 35.3351 45.0021 35.1552C46.839 34.8892 48.3544 34.3416 49.1274 34.0287C49.5713 33.8488 49.9157 33.4733 50.0228 32.9961C50.0305 32.9492 50.0458 32.9101 50.0535 32.8631C50.3366 31.3064 48.8442 30.0313 47.3594 30.5085Z" fill="white"/>
<path d="M49.3263 39.2307H47.2828C46.9767 39.2307 46.8236 39.614 47.0379 39.8331L49.0814 41.9217C49.2957 42.1408 49.6707 41.9843 49.6707 41.6714V39.5827C49.6707 39.3872 49.5176 39.2307 49.3263 39.2307Z" fill="#FFE21F"/>
<path d="M51.2399 43.3846C51.1863 43.8305 50.8189 44.1669 50.3827 44.1669H46.4487V46.5059C46.4487 47.3351 47.1069 48 47.9106 48H50.3827C51.1939 48 51.8445 47.3272 51.8445 46.5059V39.1995C51.6914 40.2008 51.37 42.2268 51.2399 43.3846Z" fill="#454545"/>
<path d="M52.969 26.0261C52.8466 25.4785 52.3491 25.1108 51.8057 25.1108H50.8184C50.1831 25.1108 49.6703 25.635 49.6703 26.2842V27.0039H49.1499L49.4484 27.7314H50.5964C51.1934 27.7314 51.7827 27.5985 52.3261 27.3481C52.816 27.1213 53.0915 26.5737 52.969 26.0261Z" fill="#ED6262"/>
<path d="M48.0097 33.8644C48.8043 33.8644 49.4485 33.206 49.4485 32.3938C49.4485 31.5815 48.8043 30.9231 48.0097 30.9231C47.215 30.9231 46.5708 31.5815 46.5708 32.3938C46.5708 33.206 47.215 33.8644 48.0097 33.8644Z" fill="#FFBD49"/>
<path d="M45.1167 34.631C45.7001 34.631 46.1729 34.1477 46.1729 33.5515C46.1729 32.9552 45.7001 32.4719 45.1167 32.4719C44.5334 32.4719 44.0605 32.9552 44.0605 33.5515C44.0605 34.1477 44.5334 34.631 45.1167 34.631Z" fill="#FFDB6F"/>
<path d="M42.3695 33.5515L40.7164 36.5007H27.2844L25.6235 33.5515H42.3695Z" fill="#6F6F6F"/>
<path d="M24.4828 32.8006C24.4598 32.7614 24.4292 32.7223 24.3986 32.6832C24.3986 32.6832 24.2379 32.1356 23.2965 31.768C22.7301 31.5489 22.1791 31.2673 21.651 30.9622C21.3601 30.798 21.0081 30.6259 20.633 30.5085C19.1559 30.0313 17.6558 31.3064 17.939 32.8631C17.9466 32.9101 17.9543 32.9492 17.9696 32.9961C18.0844 33.4655 18.4288 33.841 18.8651 34.0287C19.6381 34.3416 21.1535 34.8892 22.9903 35.1552C24.2608 35.3351 25.2022 33.8879 24.4828 32.8006Z" fill="white"/>
<path d="M20.717 39.2307H18.6735C18.4822 39.2307 18.3291 39.3872 18.3291 39.5827V41.6714C18.3291 41.9843 18.7041 42.1408 18.9184 41.9217L20.9619 39.8331C21.1762 39.6062 21.0232 39.2307 20.717 39.2307Z" fill="#FFE21F"/>
<path d="M47.6195 42.8761C45.4918 39.1056 43.0427 39.2229 43.0427 39.2229H24.9573C24.9573 39.2229 22.5081 39.1056 20.3804 42.8761H16.6914L16.7373 43.3612C16.7756 43.8149 17.1506 44.1669 17.5945 44.1669H50.3977C50.8417 44.1669 51.2167 43.8227 51.255 43.3612L51.3009 42.8761H47.6195Z" fill="#777777"/>
<path d="M17.6098 44.1669C17.1735 44.1669 16.7985 43.8305 16.7526 43.3846C16.6225 42.2269 16.3087 40.2008 16.1479 39.1917V46.498C16.1479 47.3272 16.8062 47.9922 17.6098 47.9922H20.0819C20.8932 47.9922 21.5437 47.3194 21.5437 46.498V44.1591L17.6098 44.1669Z" fill="#454545"/>
<path d="M18.3215 27.0039V26.2842C18.3215 25.635 17.8087 25.1108 17.1734 25.1108H16.1938C15.6504 25.1108 15.1452 25.4785 15.0304 26.0261C14.908 26.5737 15.1835 27.1213 15.6733 27.3481C16.2167 27.5985 16.8061 27.7314 17.403 27.7314H18.5587L18.8572 27.0039H18.3215Z" fill="#ED6262"/>
<path d="M19.9828 33.8644C20.7775 33.8644 21.4217 33.206 21.4217 32.3938C21.4217 31.5815 20.7775 30.9231 19.9828 30.9231C19.1882 30.9231 18.5439 31.5815 18.5439 32.3938C18.5439 33.206 19.1882 33.8644 19.9828 33.8644Z" fill="#FFBD49"/>
<path d="M22.8829 34.631C23.4662 34.631 23.939 34.1477 23.939 33.5515C23.939 32.9552 23.4662 32.4719 22.8829 32.4719C22.2995 32.4719 21.8267 32.9552 21.8267 33.5515C21.8267 34.1477 22.2995 34.631 22.8829 34.631Z" fill="#FFDB6F"/>
<path d="M41.6573 40.2555H26.3425C26.1052 40.2555 25.9062 40.4511 25.9062 40.7014C25.9062 40.9439 26.0976 41.1473 26.3425 41.1473H41.6573C41.8946 41.1473 42.0936 40.9517 42.0936 40.7014C42.0936 40.4589 41.8946 40.2555 41.6573 40.2555Z" fill="#6F6F6F"/>
<path d="M41.6573 42.0234H26.3425C26.1052 42.0234 25.9062 42.219 25.9062 42.4693C25.9062 42.7118 26.0976 42.9152 26.3425 42.9152H41.6573C41.8946 42.9152 42.0936 42.7197 42.0936 42.4693C42.0936 42.2268 41.8946 42.0234 41.6573 42.0234Z" fill="#6F6F6F"/>
<path d="M47.1527 23.9062V24.0548C47.1527 24.665 46.6628 25.1578 46.0506 25.1265C45.4919 25.0874 45.0556 24.5789 45.0556 23.9922V21.8175C45.0556 21.3012 44.6347 20.9101 44.1372 20.9257C44.1219 20.9257 44.1219 20.9257 44.1142 20.9257C44.1142 20.9257 44.1142 20.9257 44.0989 20.9257C43.5938 20.9101 43.1805 21.3012 43.1805 21.8175V23.7888C43.1805 24.399 42.6677 24.8918 42.0707 24.8527C41.512 24.8292 41.0757 24.3051 41.0757 23.7262V22.0131C41.0757 21.4968 40.6548 21.0743 40.142 21.0743H40.0731C39.5909 21.0743 39.2006 21.4811 39.2006 21.9661V24.1956C39.2006 24.8058 38.6955 25.2908 38.0908 25.2673C37.5321 25.2282 37.1112 24.7197 37.1112 24.133V21.1447C37.1112 20.6676 36.7055 20.2686 36.2234 20.2999H36.1545C35.6647 20.2999 35.2743 20.7067 35.2743 21.1917V24.2425C35.2743 24.8292 34.8075 25.3142 34.2258 25.3142C33.6671 25.3142 33.2002 24.8527 33.1849 24.2738V21.7236C33.1849 21.1369 32.7563 20.6285 32.1899 20.5893C31.5777 20.5659 31.0878 21.0509 31.0878 21.661L31.0725 24.0313C31.0725 24.6415 30.5827 25.1265 29.9704 25.103C29.4193 25.0717 28.9984 24.5711 28.9831 24.0157V21.2308C28.9831 20.6519 28.5621 20.1356 27.9958 20.1043C27.3911 20.0809 26.8937 20.5659 26.8937 21.176V24.0861C26.8784 24.6806 26.3885 25.1578 25.7915 25.1343C25.2328 25.0952 24.8119 24.5867 24.8119 24V21.8175C24.8119 21.3012 24.3833 20.9101 23.8782 20.9257C23.8628 20.9257 23.8628 20.9257 23.8628 20.9257C23.8475 20.9257 23.8475 20.9257 23.8475 20.9257C23.3347 20.9101 22.9138 21.3012 22.9138 21.8175V23.7888C22.9138 24.399 22.4087 24.8918 21.8117 24.8527C21.2912 24.8292 20.9009 24.3912 20.8397 23.8749C20.2886 25.0404 19.7376 26.3077 19.2095 27.661C29.0367 28.4511 38.9098 28.4511 48.737 27.661C48.2242 26.2999 47.6884 25.0561 47.1527 23.9062Z" fill="#3AA2EB"/>
</g>
<defs>
<clipPath id="clip0">
<rect width="38" height="30" fill="white" transform="translate(15 18)"/>
</clipPath>
</defs>
</svg>
