<svg width="68" height="68" viewBox="0 0 68 68" fill="none" xmlns="http://www.w3.org/2000/svg">
<rect width="68" height="68" rx="8" fill="#E4F0FF"/>
<g clip-path="url(#clip0)">
<path d="M52.9415 25.4342L49.3447 27.812L50.0012 28.8505L53.598 26.4728L52.9415 25.4342Z" fill="#3EA69B"/>
<path d="M53.6621 23.2977H52.8761C52.342 23.2977 51.9087 23.7409 51.9087 24.287V26.8531C51.9087 27.3993 52.342 27.8424 52.8761 27.8424H53.6621C54.1962 27.8424 54.6296 27.3993 54.6296 26.8531V24.2973C54.6296 23.7409 54.1962 23.2977 53.6621 23.2977Z" fill="#44C4A1"/>
<path d="M15.8197 25.4278L15.1636 26.4666L18.7612 28.843L19.4173 27.8042L15.8197 25.4278Z" fill="#3EA69B"/>
<path d="M15.8921 23.2977H15.1061C14.572 23.2977 14.1387 23.7409 14.1387 24.287V26.8531C14.1387 27.3993 14.572 27.8424 15.1061 27.8424H15.8921C16.4262 27.8424 16.8596 27.3993 16.8596 26.8531V24.2973C16.8596 23.7409 16.4262 23.2977 15.8921 23.2977Z" fill="#44C4A1"/>
<path d="M14.9248 37.1276V44.0837C14.9248 45.6913 16.2046 47.0001 17.7767 47.0001H22.6642C24.2363 47.0001 25.5161 45.6913 25.5161 44.0837V37.1276H14.9248Z" fill="#2F4859"/>
<path d="M43.252 37.1276V44.0837C43.252 45.6913 44.5318 47.0001 46.1038 47.0001H50.9913C52.5634 47.0001 53.8432 45.6913 53.8432 44.0837V37.1276H43.252Z" fill="#2F4859"/>
<path d="M50.6379 29.3573L49.0659 22.0714C48.8039 20.8656 47.7558 20 46.5465 20H21.8571C20.5974 20 19.5292 20.9172 19.3075 22.1847L18.068 29.3573C18.068 29.3573 11.7394 29.079 13.2208 39.2607C13.2208 39.2607 12.9487 43.8053 23.8524 42.4244L35.1591 43.5271L46.3248 42.0122C46.3248 42.0122 55.072 44.2176 55.8782 38.158C55.8782 38.1683 57.2285 29.7695 50.6379 29.3573Z" fill="#44C4A1"/>
<path d="M19.0464 29.4294L28.771 35.2107H40.229L49.6714 29.4294H19.0464Z" fill="#31978C"/>
<path d="M38.4553 42.847H30.5345L28.771 35.2107H40.2289L38.4553 42.847Z" fill="#D5D6DB"/>
<path d="M39.6043 37.9107H29.396L29.0332 36.334H39.9671L39.6043 37.9107Z" fill="#3A556A"/>
<path d="M39.0399 40.3119H29.9501L29.668 39.0649H39.3321L39.0399 40.3119Z" fill="#3A556A"/>
<path d="M38.5965 42.2698H30.4037L30.1719 41.2599H38.8283L38.5965 42.2698Z" fill="#3A556A"/>
<path d="M22.3216 38.4259L15.1566 34.5202C14.7938 34.3244 14.4008 34.7469 14.6225 35.1076L16.2047 37.684C17.3837 39.6111 19.7922 40.3118 21.7875 39.3225L22.3015 39.0649C22.5735 38.9412 22.5836 38.5599 22.3216 38.4259Z" fill="#F6C358"/>
<path d="M54.0753 34.5202L46.9103 38.4259C46.6483 38.5702 46.6584 38.9411 46.9204 39.0751L47.4343 39.3327C49.4296 40.3221 51.8381 39.6213 53.0172 37.6942L54.5993 35.1179C54.8311 34.7469 54.4481 34.3244 54.0753 34.5202Z" fill="#F6C358"/>
<path d="M47.0414 22.7C46.8499 21.9992 46.2352 21.5149 45.5298 21.5149H22.6945C21.9287 21.5149 21.2736 22.0817 21.1426 22.8546L20.2256 28.3267H48.553L47.0414 22.7Z" fill="#D5D6DB"/>
<path d="M22.6945 21.5149C21.9287 21.5149 21.2736 22.0817 21.1426 22.8546L20.2256 28.3267L45.5298 21.5149H22.6945Z" fill="#EBF0F3"/>
</g>
<defs>
<clipPath id="clip0">
<rect width="43" height="27" fill="white" transform="translate(13 20)"/>
</clipPath>
</defs>
</svg>
