<svg width="68" height="68" viewBox="0 0 68 68" fill="none" xmlns="http://www.w3.org/2000/svg">
<rect width="68" height="68" rx="8" fill="#FFFAD4"/>
<g clip-path="url(#clip0)">
<path d="M43.7784 25.7969H38.6043L44.8295 15.7734C45.0576 15.4141 45.0658 14.9609 44.8458 14.5938C44.6258 14.2266 44.2183 14 43.7784 14H34.0006H29.1117C28.5495 14 28.0606 14.3672 27.9302 14.8906L23.0413 33.7188C22.9517 34.0703 23.0332 34.4375 23.2613 34.7266C23.4895 35.0078 23.848 35.1719 24.2228 35.1719H29.7961L23.0821 52.4141C22.8702 52.9609 23.1065 53.5781 23.6443 53.8594C24.1821 54.1406 24.8502 53.9922 25.2087 53.5156L34.0006 41.8516L44.7643 27.6562C45.0332 27.2969 45.0739 26.8281 44.8621 26.4375C44.6583 26.0469 44.2346 25.7969 43.7784 25.7969Z" fill="#FED843"/>
<path d="M44.8696 26.4375C44.6578 26.0469 44.2422 25.7969 43.7778 25.7969H38.6037L44.8289 15.7734C45.057 15.4141 45.0652 14.9609 44.8452 14.5938C44.6252 14.2266 44.2178 14 43.7778 14H34V41.8516L44.7637 27.6562C45.0407 27.3047 45.0733 26.8281 44.8696 26.4375Z" fill="#FABE2C"/>
</g>
<defs>
<clipPath id="clip0">
<rect width="22" height="40" fill="white" transform="translate(23 14)"/>
</clipPath>
</defs>
</svg>
