<svg width="68" height="68" viewBox="0 0 68 68" fill="none" xmlns="http://www.w3.org/2000/svg">
<rect width="68" height="68" rx="8" fill="#EFF6E5"/>
<path d="M24.8645 54L26.7806 50.2039H21.7901L19.874 54H24.8645Z" fill="#373C41"/>
<path d="M47.117 54L45.2009 50.2039H40.2104L42.1265 54H47.117Z" fill="#373C41"/>
<path d="M50 42.049C50 45.2488 47.3088 47.8439 43.9905 47.8439H23.0095C19.6912 47.8439 17 45.2488 17 42.049V22.2119C17 19.0121 19.6912 16.417 23.0095 16.417H43.9818C47.3001 16.417 49.9913 19.0121 49.9913 22.2119L50 42.049Z" fill="#E64937"/>
<path d="M44.2605 34.1797H22.7395C21.6943 34.1797 20.8408 33.3651 20.8408 32.3489V23.3373C20.8408 22.3295 21.6856 21.5065 22.7395 21.5065H44.2605C45.3056 21.5065 46.1591 22.3211 46.1591 23.3373V32.3489C46.1591 33.3567 45.3143 34.1797 44.2605 34.1797Z" fill="#6EE1FF"/>
<path d="M23.6365 44.5181C25.1806 44.5181 26.4323 43.3111 26.4323 41.8222C26.4323 40.3333 25.1806 39.1263 23.6365 39.1263C22.0925 39.1263 20.8408 40.3333 20.8408 41.8222C20.8408 43.3111 22.0925 44.5181 23.6365 44.5181Z" fill="#FFEBB4"/>
<path d="M43.3548 44.4594C44.8988 44.4594 46.1505 43.2524 46.1505 41.7635C46.1505 40.2746 44.8988 39.0676 43.3548 39.0676C41.8108 39.0676 40.5591 40.2746 40.5591 41.7635C40.5591 43.2524 41.8108 44.4594 43.3548 44.4594Z" fill="#FFEBB4"/>
<path d="M38.4426 14.0402H28.5574C27.6864 14.0402 26.981 13.36 26.981 12.5201C26.981 11.6803 27.6864 11 28.5574 11H38.4513C39.3222 11 40.0277 11.6803 40.0277 12.5201C40.0277 13.36 39.3135 14.0402 38.4426 14.0402Z" fill="#55696E"/>
<path d="M38.1115 47.844H28.8882C28.3918 47.844 27.9824 47.4576 27.9824 46.9705V44.9717C27.9824 44.493 28.3831 44.0983 28.8882 44.0983H38.1115C38.6079 44.0983 39.0173 44.4846 39.0173 44.9717V46.9705C39.0173 47.4576 38.6079 47.844 38.1115 47.844Z" fill="#C8462D"/>
<path d="M21.834 33.9614C22.104 34.1042 22.4088 34.1797 22.7311 34.1797H28.3486L37.8593 21.5149H31.1792L21.834 33.9614Z" fill="white"/>
<path d="M30.0381 34.1797H33.4696L42.9803 21.5149H39.5488L30.0381 34.1797Z" fill="white"/>
</svg>
