<svg width="68" height="68" viewBox="0 0 68 68" fill="none" xmlns="http://www.w3.org/2000/svg">
<rect width="68" height="68" rx="8" fill="#FFECEB"/>
<g clip-path="url(#clip0)">
<path fill-rule="evenodd" clip-rule="evenodd" d="M22.2485 39.2163V45.8128H23.9034C24.1491 45.8128 24.3515 45.9654 24.3515 46.147V48.2611H30.2411V46.147C30.2411 45.9654 30.4435 45.8128 30.6892 45.8128H32.344V39.2163H30.6892C30.4435 39.2163 30.2411 39.0638 30.2411 38.8821V36.7681H24.3515V38.8821C24.3515 39.0638 24.1491 39.2163 23.9034 39.2163H22.2485Z" fill="#B6B1B7"/>
<path fill-rule="evenodd" clip-rule="evenodd" d="M34.4175 39.2163V45.8128H36.1519C36.412 45.8128 36.6216 45.9654 36.6216 46.147V48.2611H42.7858V46.147C42.7858 45.9654 42.9954 45.8128 43.2556 45.8128H44.9899V39.2163H43.2556C42.9954 39.2163 42.7858 39.0638 42.7858 38.8821V36.7681H36.6216V38.8821C36.6216 39.0638 36.412 39.2163 36.1519 39.2163H34.4175Z" fill="#B6B1B7"/>
<path fill-rule="evenodd" clip-rule="evenodd" d="M17.5073 24.9192V34.4725H49.4849V24.9192L33.4997 15.6346L17.5073 24.9192Z" fill="#ECEAEC"/>
<path fill-rule="evenodd" clip-rule="evenodd" d="M15.1945 26.0597C15.5991 26.7644 16.4952 27.0041 17.1962 26.5973L17.5142 26.4157L33.4993 17.1312L49.4917 26.4157L49.8097 26.5973C50.5034 27.0041 51.4068 26.7571 51.8115 26.0597C52.2161 25.3623 51.9704 24.4542 51.2767 24.0473L34.3015 14.2034C34.0702 14.0654 33.7884 14 33.4993 14C33.2175 14 32.9284 14.0654 32.6972 14.2034L15.7292 24.0473C15.0355 24.4542 14.7898 25.355 15.1945 26.0597Z" fill="#9FD4FE"/>
<path fill-rule="evenodd" clip-rule="evenodd" d="M43.4507 38.083H48.3647V46.9534H43.4507V38.083Z" fill="#FFE07D"/>
<path fill-rule="evenodd" clip-rule="evenodd" d="M31.043 38.083H35.957V46.9534H31.043V38.083Z" fill="#FFE07D"/>
<path fill-rule="evenodd" clip-rule="evenodd" d="M18.6353 38.083H23.5493V46.9534H18.6353V38.083Z" fill="#FFE07D"/>
<path fill-rule="evenodd" clip-rule="evenodd" d="M17.0737 48.2613L20.6726 49.6343L25.1097 48.2613V46.1472C25.1097 45.9656 24.9579 45.813 24.7772 45.813H23.5487H18.6347H17.4062C17.2255 45.813 17.0737 45.9656 17.0737 46.1472V48.2613Z" fill="#ECEAEC"/>
<path fill-rule="evenodd" clip-rule="evenodd" d="M41.8896 48.2613L46.2328 49.6343L49.9328 48.2613V46.1472C49.9328 45.9656 49.7811 45.813 49.6004 45.813H48.3719H43.4578H42.2293C42.0486 45.813 41.8969 45.9656 41.8969 46.1472V48.2613H41.8896Z" fill="#ECEAEC"/>
<path fill-rule="evenodd" clip-rule="evenodd" d="M29.4824 48.2612L33.5004 49.242L37.5184 48.2612V46.1472C37.5184 45.9656 37.3666 45.813 37.1859 45.813H35.9574H31.0434H29.8148C29.6342 45.813 29.4824 45.9656 29.4824 46.1472V48.2612Z" fill="#ECEAEC"/>
<path fill-rule="evenodd" clip-rule="evenodd" d="M15.3396 50.9998H51.6531C51.841 50.9998 51.9928 50.8472 51.9928 50.6584V48.6024C51.9928 48.4135 51.841 48.261 51.6531 48.261H49.926H41.89H37.518H29.482H25.11H17.074H15.3396C15.1518 48.261 15 48.4135 15 48.6024V50.6584C15 50.8472 15.1518 50.9998 15.3396 50.9998Z" fill="#9FD4FE"/>
<path fill-rule="evenodd" clip-rule="evenodd" d="M31.7949 22.2456C31.7949 23.2409 32.5971 24.04 33.5799 24.04C34.5627 24.04 35.3648 23.2336 35.3648 22.2456C35.3648 21.2576 34.5627 20.4512 33.5799 20.4512C32.5971 20.4512 31.7949 21.2576 31.7949 22.2456Z" fill="#FFE07D"/>
<path fill-rule="evenodd" clip-rule="evenodd" d="M33.4997 17.1312L17.5073 26.4157V28.5008L33.4997 19.2235L49.4921 28.508V26.423L33.4997 17.1312Z" fill="#DAD8DB"/>
<path fill-rule="evenodd" clip-rule="evenodd" d="M33.5799 20.4512C32.5898 20.4512 31.7949 21.2576 31.7949 22.2456C31.7949 22.449 31.8311 22.6452 31.8889 22.8341C32.149 22.1729 32.7994 21.708 33.5438 21.708C34.3242 21.708 34.9963 22.2165 35.2348 22.9212C35.3215 22.7105 35.3648 22.4853 35.3648 22.2456C35.3721 21.2576 34.5699 20.4512 33.5799 20.4512Z" fill="#FFC269"/>
<path fill-rule="evenodd" clip-rule="evenodd" d="M18.6353 39.2164H23.5493V41.0109H18.6353V39.2164Z" fill="#FFC269"/>
<path fill-rule="evenodd" clip-rule="evenodd" d="M31.043 39.2164H35.957V41.0109H31.043V39.2164Z" fill="#FFC269"/>
<path fill-rule="evenodd" clip-rule="evenodd" d="M43.4507 39.2164H48.3647V41.0109H43.4507V39.2164Z" fill="#FFC269"/>
<path fill-rule="evenodd" clip-rule="evenodd" d="M18.6347 39.2166H23.5487H24.7772C24.9579 39.2166 25.1097 39.064 25.1097 38.8824V36.3179H17.0737V38.8824C17.0737 39.064 17.2255 39.2166 17.4062 39.2166H18.6347Z" fill="#ECEAEC"/>
<path fill-rule="evenodd" clip-rule="evenodd" d="M31.0434 39.2166H35.9574H37.1859C37.3666 39.2166 37.5184 39.064 37.5184 38.8824V36.3179H29.4824V38.8824C29.4824 39.064 29.6342 39.2166 29.8148 39.2166H31.0434Z" fill="#ECEAEC"/>
<path fill-rule="evenodd" clip-rule="evenodd" d="M42.2221 39.2166H43.4506H48.3646H49.5932C49.7738 39.2166 49.9256 39.064 49.9256 38.8824V36.3179H41.8896V38.8824C41.8896 39.064 42.0414 39.2166 42.2221 39.2166Z" fill="#ECEAEC"/>
<path fill-rule="evenodd" clip-rule="evenodd" d="M17.0737 36.7681H25.1097V38.083H17.0737V36.7681Z" fill="#DAD8DB"/>
<path fill-rule="evenodd" clip-rule="evenodd" d="M29.4824 36.7681H37.5256V38.083H29.4824V36.7681Z" fill="#DAD8DB"/>
<path fill-rule="evenodd" clip-rule="evenodd" d="M41.8896 36.7681H49.9328V38.083H41.8896V36.7681Z" fill="#DAD8DB"/>
<path fill-rule="evenodd" clip-rule="evenodd" d="M17.074 36.7683H25.11H29.482H37.5252H41.8973H49.9404H51.6676C51.8555 36.7683 52.0072 36.6157 52.0072 36.4268V34.3709C52.0072 34.182 51.8555 34.0294 51.6676 34.0294H49.4996H17.5076H15.3396C15.1518 34.0294 15 34.182 15 34.3709V36.4268C15 36.6157 15.1518 36.7683 15.3396 36.7683H17.074Z" fill="#9FD4FE"/>
<path d="M26.7644 28.7043C26.9162 28.4646 27.0101 28.174 27.0101 27.8688C27.0101 27.0043 26.3092 26.3069 25.4564 26.3069H24.199C23.8883 26.3069 23.6426 26.5612 23.6426 26.8663V28.8714V31.2179C23.6426 31.3705 23.7004 31.5085 23.8088 31.6175C23.91 31.7192 24.0545 31.7846 24.2062 31.7846C24.2062 31.7846 25.3625 31.7773 25.6805 31.7773C26.6344 31.7773 27.4076 31 27.4076 30.041C27.4004 29.5034 27.1475 29.0239 26.7644 28.7043ZM25.4492 27.4257C25.6949 27.4257 25.89 27.6218 25.89 27.8688C25.89 28.1158 25.6949 28.312 25.4492 28.312C25.3553 28.312 24.7482 28.312 24.7482 28.312V27.4257H25.4492ZM25.6732 30.6585C25.4998 30.6585 25.0951 30.6585 24.7555 30.6585V29.4308C24.835 29.4308 25.6732 29.4308 25.6732 29.4308C26.0057 29.4308 26.2803 29.7068 26.2803 30.041C26.2803 30.3825 26.0057 30.6585 25.6732 30.6585Z" fill="#6F6571"/>
<path d="M31.2738 26.7282C31.2738 26.721 31.2666 26.721 31.2666 26.7137C31.1654 26.4667 30.9269 26.3069 30.6595 26.3069C30.3921 26.3069 30.1537 26.4667 30.0525 26.7137C30.0525 26.721 30.0525 26.721 30.0453 26.7282L28.4193 31.0291C28.3109 31.3197 28.4554 31.6466 28.7445 31.7556C29.0335 31.8645 29.3587 31.7192 29.4671 31.4286L29.7345 30.7167H31.5773L31.8447 31.4214C31.9314 31.6466 32.141 31.7846 32.365 31.7846C32.43 31.7846 32.4951 31.7701 32.5601 31.7483C32.8492 31.6393 32.9937 31.3124 32.8853 31.0218L31.2738 26.7282ZM30.1537 29.5906L30.6523 28.2684L31.1509 29.5906H30.1537Z" fill="#6F6571"/>
<path d="M37.6404 26.3069C37.6404 26.3069 37.6332 26.3069 37.6404 26.3069C37.3297 26.3069 37.0768 26.5612 37.084 26.8735L37.1057 29.4744L35.1039 26.5539C34.9666 26.3505 34.7137 26.2633 34.4752 26.3359C34.2439 26.4086 34.085 26.6265 34.085 26.8735V31.2252C34.085 31.5376 34.3379 31.7846 34.6414 31.7846C34.9449 31.7846 35.1979 31.5303 35.1979 31.2252V28.6752L37.1057 31.4504C37.2719 31.6902 37.5393 31.7919 37.7994 31.7047C38.0668 31.6248 38.233 31.3705 38.233 31.0654L38.1896 26.8518C38.1969 26.5539 37.9439 26.3069 37.6404 26.3069Z" fill="#6F6571"/>
<path d="M43.3205 30.8183L41.3693 28.9294L43.1543 27.2803C43.3783 27.0696 43.3928 26.7136 43.1904 26.4884C42.9809 26.2632 42.6268 26.2487 42.4027 26.4521L40.9791 27.767V26.8081C40.9791 26.4957 40.7262 26.2487 40.4227 26.2487C40.1191 26.2487 39.8662 26.5029 39.8662 26.8081V31.2251C39.8662 31.5375 40.1191 31.7845 40.4227 31.7845C40.7262 31.7845 40.9791 31.5302 40.9791 31.2251V30.1063L42.5473 31.6319C42.6557 31.7336 42.793 31.7918 42.9375 31.7918C43.082 31.7918 43.2266 31.7336 43.3422 31.6174C43.5518 31.3922 43.5445 31.0362 43.3205 30.8183Z" fill="#6F6571"/>
</g>
<defs>
<clipPath id="clip0">
<rect width="37" height="37" fill="white" transform="translate(15 14)"/>
</clipPath>
</defs>
</svg>
