<svg width="219" height="294" viewBox="0 0 219 294" fill="none" xmlns="http://www.w3.org/2000/svg">
<path d="M197.064 144.159C197.064 144.159 192.164 28.4084 112.212 0C17.0053 110.737 126.132 204.095 126.132 204.095L197.064 144.159Z" fill="#15ACB4"/>
<path d="M112.213 0C111.879 0.334216 111.545 0.779838 111.211 1.11405L150.964 131.681L73.2393 96.9228C73.2393 97.9254 73.3506 98.8167 73.3506 99.7079L151.855 134.912L163.324 172.567L165.44 170.785L142.612 95.8087L173.903 57.5966C173.457 56.8168 173.012 55.9256 172.566 55.1457L141.722 92.8008L113.66 0.557027C113.215 0.334216 112.658 0.222811 112.213 0Z" fill="white"/>
<path d="M160.094 130.902C160.094 130.902 84.1512 43.8939 4.86765 61.8302C-22.8593 155.634 76.9132 202.424 76.9132 202.424L177.799 206.88L160.094 130.902Z" fill="#01898C"/>
<path d="M93.5048 78.207L87.4918 129.119L6.76064 61.3848C6.09252 61.4962 5.53575 61.6076 4.86763 61.719C4.75628 62.0532 4.64492 62.4988 4.53357 62.833L47.7386 99.1512L0.747559 106.281C0.858912 106.727 0.858912 107.172 0.970265 107.618L1.08162 108.844L50.4111 101.379L122.457 161.873L40.278 177.024C41.0574 177.804 41.8369 178.472 42.7277 179.14L125.018 163.878L176.129 206.769L177.799 206.88L177.243 204.429L89.8302 131.013L95.9546 79.5439C95.0638 79.0982 94.2843 78.6526 93.5048 78.207Z" fill="#00666A"/>
<path d="M185.483 276.62C197.063 273.946 208.31 270.158 219 265.145L150.74 185.49C150.74 185.49 56.981 162.986 20.123 216.238C52.0814 289.654 122.457 297.118 173.122 291.66C174.125 284.752 178.579 278.179 185.483 276.62Z" fill="#B0D9C8"/>
<path d="M20.123 216.127C20.3458 216.572 20.5685 217.018 20.7912 217.463L149.738 238.073L97.1795 285.866C98.1817 286.201 99.0725 286.423 100.075 286.758L152.968 238.63L203.299 246.652L200.738 243.644L102.747 227.936L70.7888 184.376C69.898 184.599 69.0071 184.822 68.1163 185.044L99.1839 227.378L20.9025 215.012C20.6798 215.347 20.3458 215.792 20.123 216.127Z" fill="white"/>
</svg>
