<svg width="375" height="593" viewBox="0 0 375 593" fill="none" xmlns="http://www.w3.org/2000/svg">
<path d="M270.778 206.9L241.673 156.397C238.109 149.862 238.109 142.138 241.673 135.603L270.778 85.6946C274.342 79.159 281.47 75 289.192 75H346.808C354.53 75 361.064 79.159 365.222 85.6946L394.327 135.603C397.891 142.138 397.891 149.862 394.327 156.397L365.222 206.305C361.658 212.841 354.53 217 346.808 217H289.192C281.47 217 274.342 213.435 270.778 206.9Z" fill="url(#paint0_linear)"/>
<path d="M270.778 357.305L241.673 307.397C238.109 300.862 238.109 293.138 241.673 286.603L270.778 236.695C274.342 230.159 281.47 226 289.192 226H346.808C354.53 226 361.064 230.159 365.222 236.695L394.327 286.603C397.891 293.138 397.891 300.862 394.327 307.397L365.222 357.305C361.658 363.841 354.53 368 346.808 368H289.192C281.47 368 274.342 363.841 270.778 357.305Z" fill="url(#paint1_linear)"/>
<path d="M265.577 508.305L236.656 458.397C233.115 451.862 233.115 444.138 236.656 437.603L265.577 387.695C269.118 381.159 276.201 377 283.874 377H341.126C348.799 377 355.291 381.159 359.423 387.695L388.344 437.603C391.885 444.138 391.885 451.862 388.344 458.397L359.423 508.305C355.882 514.841 348.799 519 341.126 519H283.874C276.201 519 269.118 514.841 265.577 508.305Z" fill="url(#paint2_linear)"/>
<path d="M9.77821 506.305L-19.3271 456.397C-22.891 449.862 -22.891 442.138 -19.3271 435.603L9.77821 385.695C13.3421 379.159 20.4699 375 28.1917 375H85.8083C93.5301 375 100.064 379.159 104.222 385.695L133.327 435.603C136.891 442.138 136.891 449.862 133.327 456.397L104.222 506.305C100.658 512.841 93.5301 517 85.8083 517H28.1917C20.4699 517 13.3421 512.841 9.77821 506.305Z" fill="url(#paint3_linear)"/>
<path d="M138.778 431.305L109.673 381.397C106.109 374.862 106.109 367.138 109.673 360.603L138.778 310.695C142.342 304.159 149.47 300 157.192 300H214.808C222.53 300 229.064 304.159 233.222 310.695L262.327 360.603C265.891 367.138 265.891 374.862 262.327 381.397L233.222 431.305C229.658 437.841 222.53 442 214.808 442H157.192C149.47 441.406 142.936 437.841 138.778 431.305Z" fill="url(#paint4_linear)"/>
<path d="M138.778 582.305L109.673 532.397C106.109 525.862 106.109 518.138 109.673 511.603L138.778 461.695C142.342 455.159 149.47 451 157.192 451H214.808C222.53 451 229.064 455.159 233.222 461.695L262.327 511.603C265.891 518.138 265.891 525.862 262.327 532.397L233.222 582.305C229.658 588.841 222.53 593 214.808 593H157.192C149.47 592.406 142.936 588.841 138.778 582.305Z" fill="url(#paint5_linear)"/>
<path d="M141.577 281.305L112.656 231.397C109.115 224.862 109.115 217.138 112.656 210.603L141.577 160.695C145.118 154.159 152.201 150 159.874 150H217.126C224.799 150 231.291 154.159 235.423 160.695L264.344 210.603C267.885 217.138 267.885 224.862 264.344 231.397L235.423 281.305C231.882 287.841 224.799 292 217.126 292H159.874C152.201 291.406 145.709 287.841 141.577 281.305Z" fill="url(#paint6_linear)"/>
<path d="M133.152 215.2H135.364L132.354 225H130.464L128.266 219.512L126.152 225H124.262L121.168 215.2H123.422L125.34 221.71L127.916 215.298H128.63L131.276 221.71L133.152 215.2ZM143.22 221.192C143.22 221.388 143.206 221.589 143.178 221.794H137.466C137.55 222.307 137.751 222.704 138.068 222.984C138.395 223.255 138.81 223.39 139.314 223.39C139.66 223.39 139.972 223.315 140.252 223.166C140.532 223.007 140.752 222.793 140.91 222.522H143.066C142.786 223.343 142.31 223.997 141.638 224.482C140.966 224.967 140.192 225.21 139.314 225.21C138.194 225.21 137.261 224.827 136.514 224.062C135.768 223.297 135.394 222.349 135.394 221.22C135.394 220.772 135.455 220.343 135.576 219.932C135.707 219.521 135.889 219.153 136.122 218.826C136.365 218.499 136.645 218.219 136.962 217.986C137.28 217.743 137.639 217.557 138.04 217.426C138.442 217.295 138.866 217.23 139.314 217.23C140.07 217.23 140.747 217.407 141.344 217.762C141.951 218.117 142.413 218.597 142.73 219.204C143.057 219.811 143.22 220.473 143.22 221.192ZM139.314 218.966C138.857 218.966 138.47 219.092 138.152 219.344C137.844 219.596 137.634 219.946 137.522 220.394H141.176C141.083 220.086 140.948 219.829 140.77 219.624C140.593 219.409 140.378 219.246 140.126 219.134C139.884 219.022 139.613 218.966 139.314 218.966ZM144.675 216.432V214.528H146.719V216.432H144.675ZM144.675 225V217.44H146.719V225H144.675ZM152.377 223.18H153.301V225H151.859C151.309 225 150.828 224.893 150.417 224.678C150.016 224.463 149.708 224.155 149.493 223.754C149.279 223.343 149.171 222.858 149.171 222.298V219.078H147.799V218.644L150.795 215.466H151.173V217.44H153.259V219.078H151.215V222.032C151.215 222.396 151.313 222.681 151.509 222.886C151.715 223.082 152.004 223.18 152.377 223.18ZM161.964 221.192C161.964 221.388 161.95 221.589 161.922 221.794H156.21C156.294 222.307 156.495 222.704 156.812 222.984C157.139 223.255 157.554 223.39 158.058 223.39C158.404 223.39 158.716 223.315 158.996 223.166C159.276 223.007 159.496 222.793 159.654 222.522H161.81C161.53 223.343 161.054 223.997 160.382 224.482C159.71 224.967 158.936 225.21 158.058 225.21C156.938 225.21 156.005 224.827 155.258 224.062C154.512 223.297 154.138 222.349 154.138 221.22C154.138 220.772 154.199 220.343 154.32 219.932C154.451 219.521 154.633 219.153 154.866 218.826C155.109 218.499 155.389 218.219 155.706 217.986C156.024 217.743 156.383 217.557 156.784 217.426C157.186 217.295 157.61 217.23 158.058 217.23C158.814 217.23 159.491 217.407 160.088 217.762C160.695 218.117 161.157 218.597 161.474 219.204C161.801 219.811 161.964 220.473 161.964 221.192ZM158.058 218.966C157.601 218.966 157.214 219.092 156.896 219.344C156.588 219.596 156.378 219.946 156.266 220.394H159.92C159.827 220.086 159.692 219.829 159.514 219.624C159.337 219.409 159.122 219.246 158.87 219.134C158.628 219.022 158.357 218.966 158.058 218.966ZM167.283 217.398H167.955V219.33H167.073C166.495 219.33 166.079 219.465 165.827 219.736C165.585 220.007 165.463 220.45 165.463 221.066V225H163.419V217.44H164.735L165.099 218.364C165.613 217.72 166.341 217.398 167.283 217.398ZM176.293 221.192C176.293 221.388 176.279 221.589 176.251 221.794H170.539C170.623 222.307 170.823 222.704 171.141 222.984C171.467 223.255 171.883 223.39 172.387 223.39C172.732 223.39 173.045 223.315 173.325 223.166C173.605 223.007 173.824 222.793 173.983 222.522H176.139C175.859 223.343 175.383 223.997 174.711 224.482C174.039 224.967 173.264 225.21 172.387 225.21C171.267 225.21 170.333 224.827 169.587 224.062C168.84 223.297 168.467 222.349 168.467 221.22C168.467 220.772 168.527 220.343 168.649 219.932C168.779 219.521 168.961 219.153 169.195 218.826C169.437 218.499 169.717 218.219 170.035 217.986C170.352 217.743 170.711 217.557 171.113 217.426C171.514 217.295 171.939 217.23 172.387 217.23C173.143 217.23 173.819 217.407 174.417 217.762C175.023 218.117 175.485 218.597 175.803 219.204C176.129 219.811 176.293 220.473 176.293 221.192ZM172.387 218.966C171.929 218.966 171.542 219.092 171.225 219.344C170.917 219.596 170.707 219.946 170.595 220.394H174.249C174.155 220.086 174.02 219.829 173.843 219.624C173.665 219.409 173.451 219.246 173.199 219.134C172.956 219.022 172.685 218.966 172.387 218.966ZM182.06 217.258C182.918 217.258 183.595 217.547 184.09 218.126C184.594 218.695 184.846 219.461 184.846 220.422V225H182.802V220.744C182.802 219.615 182.363 219.05 181.486 219.05C181.14 219.05 180.837 219.129 180.576 219.288C180.324 219.447 180.128 219.675 179.988 219.974C179.857 220.273 179.792 220.623 179.792 221.024V225H177.748V217.44H179.148L179.554 218.378C179.694 218.201 179.852 218.047 180.03 217.916C180.216 217.776 180.417 217.659 180.632 217.566C180.846 217.463 181.07 217.389 181.304 217.342C181.546 217.286 181.798 217.258 182.06 217.258ZM190.358 223.18H191.282V225H189.84C189.289 225 188.808 224.893 188.398 224.678C187.996 224.463 187.688 224.155 187.474 223.754C187.259 223.343 187.152 222.858 187.152 222.298V219.078H185.78V218.644L188.776 215.466H189.154V217.44H191.24V219.078H189.196V222.032C189.196 222.396 189.294 222.681 189.49 222.886C189.695 223.082 189.984 223.18 190.358 223.18ZM201.455 217.44H203.485L201.007 225H199.369L197.647 221.094L195.967 225H194.329L191.823 217.44H193.909L195.393 221.948L197.367 217.496H197.941L199.971 221.962L201.455 217.44ZM204.599 216.432V214.528H206.643V216.432H204.599ZM204.599 225V217.44H206.643V225H204.599ZM212.119 225.21C211.372 225.21 210.691 225.037 210.075 224.692C209.468 224.337 208.988 223.852 208.633 223.236C208.288 222.62 208.115 221.939 208.115 221.192C208.115 220.063 208.498 219.12 209.263 218.364C210.028 217.608 210.985 217.23 212.133 217.23C213.113 217.23 213.953 217.515 214.653 218.084C215.353 218.644 215.796 219.391 215.983 220.324H213.953C213.785 219.96 213.538 219.675 213.211 219.47C212.894 219.255 212.53 219.148 212.119 219.148C211.568 219.148 211.106 219.344 210.733 219.736C210.369 220.128 210.187 220.618 210.187 221.206C210.187 221.794 210.374 222.289 210.747 222.69C211.12 223.091 211.578 223.292 212.119 223.292C212.53 223.292 212.894 223.185 213.211 222.97C213.528 222.746 213.776 222.429 213.953 222.018H216.011C215.824 222.979 215.376 223.754 214.667 224.342C213.958 224.921 213.108 225.21 212.119 225.21ZM224.481 225H222.003L219.581 221.388V225H217.537V214.71H219.581V220.8L221.849 217.44H224.215L221.653 221.038L224.481 225ZM225.394 225V214.71H227.438V225H225.394ZM235.42 224.286C234.776 224.902 233.917 225.21 232.844 225.21C231.78 225.21 230.921 224.897 230.268 224.272C229.624 223.647 229.302 222.825 229.302 221.808V217.44H231.346V221.57C231.346 222.111 231.477 222.536 231.738 222.844C232.009 223.143 232.377 223.292 232.844 223.292C233.32 223.292 233.689 223.143 233.95 222.844C234.221 222.536 234.356 222.111 234.356 221.57V217.44H236.4V221.808C236.4 222.835 236.073 223.661 235.42 224.286ZM242.571 217.258C243.43 217.258 244.107 217.547 244.601 218.126C245.105 218.695 245.357 219.461 245.357 220.422V225H243.313V220.744C243.313 219.615 242.875 219.05 241.997 219.05C241.652 219.05 241.349 219.129 241.087 219.288C240.835 219.447 240.639 219.675 240.499 219.974C240.369 220.273 240.303 220.623 240.303 221.024V225H238.259V217.44H239.659L240.065 218.378C240.205 218.201 240.364 218.047 240.541 217.916C240.728 217.776 240.929 217.659 241.143 217.566C241.358 217.463 241.582 217.389 241.815 217.342C242.058 217.286 242.31 217.258 242.571 217.258ZM253.332 217.44H254.662V224.118C254.662 224.902 254.503 225.579 254.186 226.148C253.878 226.727 253.435 227.17 252.856 227.478C252.277 227.786 251.591 227.94 250.798 227.94C249.771 227.94 248.913 227.693 248.222 227.198C247.541 226.703 247.116 226.027 246.948 225.168H248.978C249.09 225.485 249.314 225.733 249.65 225.91C249.986 226.097 250.355 226.19 250.756 226.19C251.297 226.19 251.745 226.027 252.1 225.7C252.464 225.383 252.646 224.953 252.646 224.412V224.132C252.021 224.58 251.302 224.804 250.49 224.804C249.799 224.804 249.165 224.641 248.586 224.314C248.007 223.978 247.555 223.521 247.228 222.942C246.901 222.363 246.738 221.724 246.738 221.024C246.738 219.969 247.097 219.073 247.816 218.336C248.544 217.599 249.435 217.23 250.49 217.23C251.47 217.23 252.31 217.552 253.01 218.196L253.332 217.44ZM250.728 222.984C251.288 222.984 251.75 222.802 252.114 222.438C252.478 222.065 252.66 221.593 252.66 221.024C252.66 220.464 252.478 220.002 252.114 219.638C251.759 219.265 251.297 219.078 250.728 219.078C250.177 219.078 249.72 219.265 249.356 219.638C248.992 220.002 248.81 220.464 248.81 221.024C248.81 221.593 248.987 222.065 249.342 222.438C249.706 222.802 250.168 222.984 250.728 222.984Z" fill="white"/>
<path d="M11.5771 357.23L-17.344 306.971C-20.8853 300.389 -20.8853 292.611 -17.344 286.029L11.5771 235.77C15.1184 229.188 22.2011 225 29.8741 225H87.1259C94.7989 225 101.291 229.188 105.423 235.77L134.344 286.029C137.885 292.611 137.885 300.389 134.344 306.971L105.423 357.23C101.882 363.812 94.7989 368 87.1259 368H29.8741C22.2011 368 15.1184 363.812 11.5771 357.23Z" fill="url(#paint7_linear)"/>
<path d="M32.4697 299.026H36.3757V301H30.3417V291.2H36.2217V293.16H32.4697V295.092H35.8577V297.01H32.4697V299.026ZM47.81 293.538V295.232H45.906V301H43.862V295.232H40.67V301H38.626V295.232H37.31V293.538H38.64V292.852C38.64 292.115 38.8453 291.536 39.256 291.116C39.6666 290.696 40.2593 290.486 41.034 290.486H42.56V292.096H41.44C40.8893 292.096 40.614 292.367 40.614 292.908V293.538H43.876V292.852C43.876 292.488 43.9273 292.161 44.03 291.872C44.1326 291.583 44.282 291.335 44.478 291.13C44.674 290.925 44.9213 290.766 45.22 290.654C45.528 290.542 45.878 290.486 46.27 290.486H47.796V292.096H46.676C46.1253 292.096 45.85 292.367 45.85 292.908V293.538H47.81ZM48.9868 292.432V290.528H51.0308V292.432H48.9868ZM48.9868 301V293.44H51.0308V301H48.9868ZM55.3727 299.124H58.5507V301H52.3067V300.776L55.5267 295.288H52.6147V293.44H58.5507V293.72L55.3727 299.124ZM59.9927 292.432V290.528H62.0367V292.432H59.9927ZM59.9927 301V293.44H62.0367V301H59.9927ZM71.3346 297.192C71.3346 297.388 71.3206 297.589 71.2926 297.794H65.5806C65.6646 298.307 65.8652 298.704 66.1826 298.984C66.5092 299.255 66.9246 299.39 67.4286 299.39C67.7739 299.39 68.0866 299.315 68.3666 299.166C68.6466 299.007 68.8659 298.793 69.0246 298.522H71.1806C70.9006 299.343 70.4246 299.997 69.7526 300.482C69.0806 300.967 68.3059 301.21 67.4286 301.21C66.3086 301.21 65.3752 300.827 64.6286 300.062C63.8819 299.297 63.5086 298.349 63.5086 297.22C63.5086 296.772 63.5692 296.343 63.6906 295.932C63.8212 295.521 64.0032 295.153 64.2366 294.826C64.4792 294.499 64.7592 294.219 65.0766 293.986C65.3939 293.743 65.7532 293.557 66.1546 293.426C66.5559 293.295 66.9806 293.23 67.4286 293.23C68.1846 293.23 68.8612 293.407 69.4586 293.762C70.0652 294.117 70.5272 294.597 70.8446 295.204C71.1712 295.811 71.3346 296.473 71.3346 297.192ZM67.4286 294.966C66.9712 294.966 66.5839 295.092 66.2666 295.344C65.9586 295.596 65.7486 295.946 65.6366 296.394H69.2906C69.1972 296.086 69.0619 295.829 68.8846 295.624C68.7072 295.409 68.4926 295.246 68.2406 295.134C67.9979 295.022 67.7272 294.966 67.4286 294.966ZM77.1016 293.258C77.9602 293.258 78.6369 293.547 79.1316 294.126C79.6356 294.695 79.8876 295.461 79.8876 296.422V301H77.8436V296.744C77.8436 295.615 77.4049 295.05 76.5276 295.05C76.1822 295.05 75.8789 295.129 75.6176 295.288C75.3656 295.447 75.1696 295.675 75.0296 295.974C74.8989 296.273 74.8336 296.623 74.8336 297.024V301H72.7896V293.44H74.1896L74.5956 294.378C74.7356 294.201 74.8942 294.047 75.0716 293.916C75.2582 293.776 75.4589 293.659 75.6736 293.566C75.8882 293.463 76.1122 293.389 76.3456 293.342C76.5882 293.286 76.8402 293.258 77.1016 293.258ZM84.1383 299.124H87.3163V301H81.0723V300.776L84.2923 295.288H81.3803V293.44H87.3163V293.72L84.1383 299.124Z" fill="white"/>
<path d="M288.296 150H285.706L282.248 145.212V150H280.12V140.2H282.248V144.722L285.454 140.2H287.932L284.586 144.89L288.296 150ZM293.032 142.398H293.704V144.33H292.822C292.243 144.33 291.828 144.465 291.576 144.736C291.333 145.007 291.212 145.45 291.212 146.066V150H289.168V142.44H290.484L290.848 143.364C291.361 142.72 292.089 142.398 293.032 142.398ZM302.041 146.192C302.041 146.388 302.027 146.589 301.999 146.794H296.287C296.371 147.307 296.571 147.704 296.889 147.984C297.215 148.255 297.631 148.39 298.135 148.39C298.48 148.39 298.793 148.315 299.073 148.166C299.353 148.007 299.572 147.793 299.731 147.522H301.887C301.607 148.343 301.131 148.997 300.459 149.482C299.787 149.967 299.012 150.21 298.135 150.21C297.015 150.21 296.081 149.827 295.335 149.062C294.588 148.297 294.215 147.349 294.215 146.22C294.215 145.772 294.275 145.343 294.397 144.932C294.527 144.521 294.709 144.153 294.943 143.826C295.185 143.499 295.465 143.219 295.783 142.986C296.1 142.743 296.459 142.557 296.861 142.426C297.262 142.295 297.687 142.23 298.135 142.23C298.891 142.23 299.567 142.407 300.165 142.762C300.771 143.117 301.233 143.597 301.551 144.204C301.877 144.811 302.041 145.473 302.041 146.192ZM298.135 143.966C297.677 143.966 297.29 144.092 296.973 144.344C296.665 144.596 296.455 144.946 296.343 145.394H299.997C299.903 145.086 299.768 144.829 299.591 144.624C299.413 144.409 299.199 144.246 298.947 144.134C298.704 144.022 298.433 143.966 298.135 143.966ZM309.67 142.426H311.196V149.986H309.586L309.418 149.314C308.727 149.911 307.91 150.21 306.968 150.21C305.829 150.21 304.882 149.832 304.126 149.076C303.379 148.311 303.006 147.354 303.006 146.206C303.006 145.067 303.379 144.12 304.126 143.364C304.882 142.608 305.829 142.23 306.968 142.23C307.929 142.23 308.755 142.538 309.446 143.154L309.67 142.426ZM305.652 147.69C306.044 148.082 306.534 148.278 307.122 148.278C307.719 148.278 308.214 148.082 308.606 147.69C308.998 147.298 309.194 146.803 309.194 146.206C309.194 145.609 308.998 145.114 308.606 144.722C308.214 144.33 307.724 144.134 307.136 144.134C306.744 144.134 306.389 144.227 306.072 144.414C305.764 144.591 305.521 144.839 305.344 145.156C305.166 145.464 305.078 145.814 305.078 146.206C305.078 146.803 305.269 147.298 305.652 147.69ZM316.858 148.18H317.782V150H316.34C315.789 150 315.308 149.893 314.898 149.678C314.496 149.463 314.188 149.155 313.974 148.754C313.759 148.343 313.652 147.858 313.652 147.298V144.078H312.28V143.644L315.276 140.466H315.654V142.44H317.74V144.078H315.696V147.032C315.696 147.396 315.794 147.681 315.99 147.886C316.195 148.082 316.484 148.18 316.858 148.18ZM319.177 141.432V139.528H321.221V141.432H319.177ZM319.177 150V142.44H321.221V150H319.177ZM328.139 142.44H330.267L327.257 150H325.367L322.301 142.44H324.471L326.333 147.508L328.139 142.44ZM331.359 141.432V139.528H333.403V141.432H331.359ZM331.359 150V142.44H333.403V150H331.359ZM339.061 148.18H339.985V150H338.543C337.992 150 337.511 149.893 337.101 149.678C336.699 149.463 336.391 149.155 336.177 148.754C335.962 148.343 335.855 147.858 335.855 147.298V144.078H334.483V143.644L337.479 140.466H337.857V142.44H339.943V144.078H337.899V147.032C337.899 147.396 337.997 147.681 338.193 147.886C338.398 148.082 338.687 148.18 339.061 148.18ZM344.56 139.528V141.46H342.404V139.528H344.56ZM347.794 139.528V141.46H345.624V139.528H347.794ZM347.486 142.426H349.012V149.986H347.402L347.234 149.314C346.543 149.911 345.727 150.21 344.784 150.21C343.645 150.21 342.698 149.832 341.942 149.076C341.195 148.311 340.822 147.354 340.822 146.206C340.822 145.067 341.195 144.12 341.942 143.364C342.698 142.608 343.645 142.23 344.784 142.23C345.745 142.23 346.571 142.538 347.262 143.154L347.486 142.426ZM343.468 147.69C343.86 148.082 344.35 148.278 344.938 148.278C345.535 148.278 346.03 148.082 346.422 147.69C346.814 147.298 347.01 146.803 347.01 146.206C347.01 145.609 346.814 145.114 346.422 144.722C346.03 144.33 345.54 144.134 344.952 144.134C344.56 144.134 344.205 144.227 343.888 144.414C343.58 144.591 343.337 144.839 343.16 145.156C342.983 145.464 342.894 145.814 342.894 146.206C342.894 146.803 343.085 147.298 343.468 147.69ZM354.674 148.18H355.598V150H354.156C353.605 150 353.125 149.893 352.714 149.678C352.313 149.463 352.005 149.155 351.79 148.754C351.575 148.343 351.468 147.858 351.468 147.298V144.078H350.096V143.644L353.092 140.466H353.47V142.44H355.556V144.078H353.512V147.032C353.512 147.396 353.61 147.681 353.806 147.886C354.011 148.082 354.301 148.18 354.674 148.18Z" fill="white"/>
<path d="M285.788 284.174H282.064V286.33H285.424V288.248H282.064V292H279.936V282.2H285.788V284.174ZM290.989 284.398H291.661V286.33H290.779C290.2 286.33 289.785 286.465 289.533 286.736C289.29 287.007 289.169 287.45 289.169 288.066V292H287.125V284.44H288.441L288.805 285.364C289.318 284.72 290.046 284.398 290.989 284.398ZM299.998 288.192C299.998 288.388 299.984 288.589 299.956 288.794H294.244C294.328 289.307 294.528 289.704 294.846 289.984C295.172 290.255 295.588 290.39 296.092 290.39C296.437 290.39 296.75 290.315 297.03 290.166C297.31 290.007 297.529 289.793 297.688 289.522H299.844C299.564 290.343 299.088 290.997 298.416 291.482C297.744 291.967 296.969 292.21 296.092 292.21C294.972 292.21 294.038 291.827 293.292 291.062C292.545 290.297 292.172 289.349 292.172 288.22C292.172 287.772 292.232 287.343 292.354 286.932C292.484 286.521 292.666 286.153 292.9 285.826C293.142 285.499 293.422 285.219 293.74 284.986C294.057 284.743 294.416 284.557 294.818 284.426C295.219 284.295 295.644 284.23 296.092 284.23C296.848 284.23 297.524 284.407 298.122 284.762C298.728 285.117 299.19 285.597 299.508 286.204C299.834 286.811 299.998 287.473 299.998 288.192ZM296.092 285.966C295.634 285.966 295.247 286.092 294.93 286.344C294.622 286.596 294.412 286.946 294.3 287.394H297.954C297.86 287.086 297.725 286.829 297.548 286.624C297.37 286.409 297.156 286.246 296.904 286.134C296.661 286.022 296.39 285.966 296.092 285.966ZM307.473 291.286C306.829 291.902 305.97 292.21 304.897 292.21C303.833 292.21 302.974 291.897 302.321 291.272C301.677 290.647 301.355 289.825 301.355 288.808V284.44H303.399V288.57C303.399 289.111 303.529 289.536 303.791 289.844C304.061 290.143 304.43 290.292 304.897 290.292C305.373 290.292 305.741 290.143 306.003 289.844C306.273 289.536 306.409 289.111 306.409 288.57V284.44H308.453V288.808C308.453 289.835 308.126 290.661 307.473 291.286ZM315.87 281.71H317.914V292H316.402L316.164 291.37C315.492 291.939 314.703 292.224 313.798 292.224C313.042 292.224 312.361 292.051 311.754 291.706C311.147 291.361 310.671 290.885 310.326 290.278C309.99 289.662 309.822 288.976 309.822 288.22C309.822 287.464 309.99 286.783 310.326 286.176C310.671 285.569 311.147 285.093 311.754 284.748C312.361 284.403 313.042 284.23 313.798 284.23C314.563 284.23 315.254 284.435 315.87 284.846V281.71ZM312.482 289.704C312.874 290.096 313.364 290.292 313.952 290.292C314.549 290.292 315.044 290.096 315.436 289.704C315.828 289.303 316.024 288.808 316.024 288.22C316.024 287.623 315.828 287.128 315.436 286.736C315.044 286.344 314.549 286.148 313.952 286.148C313.364 286.148 312.874 286.344 312.482 286.736C312.09 287.128 311.894 287.623 311.894 288.22C311.894 288.817 312.09 289.312 312.482 289.704ZM327.205 288.192C327.205 288.388 327.191 288.589 327.163 288.794H321.451C321.535 289.307 321.735 289.704 322.053 289.984C322.379 290.255 322.795 290.39 323.299 290.39C323.644 290.39 323.957 290.315 324.237 290.166C324.517 290.007 324.736 289.793 324.895 289.522H327.051C326.771 290.343 326.295 290.997 325.623 291.482C324.951 291.967 324.176 292.21 323.299 292.21C322.179 292.21 321.245 291.827 320.499 291.062C319.752 290.297 319.379 289.349 319.379 288.22C319.379 287.772 319.439 287.343 319.561 286.932C319.691 286.521 319.873 286.153 320.107 285.826C320.349 285.499 320.629 285.219 320.947 284.986C321.264 284.743 321.623 284.557 322.025 284.426C322.426 284.295 322.851 284.23 323.299 284.23C324.055 284.23 324.731 284.407 325.329 284.762C325.935 285.117 326.397 285.597 326.715 286.204C327.041 286.811 327.205 287.473 327.205 288.192ZM323.299 285.966C322.841 285.966 322.454 286.092 322.137 286.344C321.829 286.596 321.619 286.946 321.507 287.394H325.161C325.067 287.086 324.932 286.829 324.755 286.624C324.577 286.409 324.363 286.246 324.111 286.134C323.868 286.022 323.597 285.966 323.299 285.966ZM338.183 284.426H339.709V291.986H338.099L337.931 291.314C337.241 291.911 336.424 292.21 335.481 292.21C334.343 292.21 333.395 291.832 332.639 291.076C331.893 290.311 331.519 289.354 331.519 288.206C331.519 287.067 331.893 286.12 332.639 285.364C333.395 284.608 334.343 284.23 335.481 284.23C336.443 284.23 337.269 284.538 337.959 285.154L338.183 284.426ZM334.165 289.69C334.557 290.082 335.047 290.278 335.635 290.278C336.233 290.278 336.727 290.082 337.119 289.69C337.511 289.298 337.707 288.803 337.707 288.206C337.707 287.609 337.511 287.114 337.119 286.722C336.727 286.33 336.237 286.134 335.649 286.134C335.257 286.134 334.903 286.227 334.585 286.414C334.277 286.591 334.035 286.839 333.857 287.156C333.68 287.464 333.591 287.814 333.591 288.206C333.591 288.803 333.783 289.298 334.165 289.69ZM350.271 284.258C351.055 284.258 351.695 284.538 352.189 285.098C352.693 285.658 352.945 286.377 352.945 287.254V292H350.901V287.59C350.901 286.563 350.519 286.05 349.753 286.05C349.455 286.05 349.193 286.125 348.969 286.274C348.755 286.414 348.591 286.624 348.479 286.904C348.367 287.184 348.311 287.52 348.311 287.912V292H346.309V287.59C346.309 286.563 345.941 286.05 345.203 286.05C344.737 286.05 344.373 286.213 344.111 286.54C343.85 286.867 343.719 287.324 343.719 287.912V292H341.675V284.44H343.103L343.481 285.378C343.761 285.033 344.097 284.762 344.489 284.566C344.891 284.361 345.311 284.258 345.749 284.258C346.225 284.258 346.655 284.365 347.037 284.58C347.42 284.795 347.719 285.093 347.933 285.476C348.027 285.345 348.125 285.229 348.227 285.126C348.33 285.014 348.442 284.916 348.563 284.832C348.685 284.739 348.811 284.659 348.941 284.594C349.072 284.519 349.207 284.459 349.347 284.412C349.497 284.365 349.646 284.328 349.795 284.3C349.954 284.272 350.113 284.258 350.271 284.258ZM281.777 310L281.091 308.138H277.185L276.513 310H274.273L278.109 300.2H280.111L284.073 310H281.777ZM279.131 302.79L277.857 306.29H280.419L279.131 302.79ZM289.04 302.398H289.712V304.33H288.83C288.252 304.33 287.836 304.465 287.584 304.736C287.342 305.007 287.22 305.45 287.22 306.066V310H285.176V302.44H286.492L286.856 303.364C287.37 302.72 288.098 302.398 289.04 302.398ZM294.993 302.23C296.141 302.23 297.089 302.608 297.835 303.364C298.591 304.12 298.969 305.072 298.969 306.22C298.969 307.368 298.591 308.32 297.835 309.076C297.089 309.832 296.141 310.21 294.993 310.21C294.088 310.21 293.299 309.93 292.627 309.37L292.389 310H290.877V299.71H292.921V302.846C293.528 302.435 294.219 302.23 294.993 302.23ZM293.355 307.69C293.747 308.082 294.237 308.278 294.825 308.278C295.423 308.278 295.913 308.082 296.295 307.69C296.687 307.298 296.883 306.808 296.883 306.22C296.883 305.828 296.795 305.473 296.617 305.156C296.449 304.839 296.207 304.591 295.889 304.414C295.572 304.237 295.217 304.148 294.825 304.148C294.443 304.148 294.093 304.237 293.775 304.414C293.458 304.591 293.211 304.839 293.033 305.156C292.856 305.473 292.767 305.828 292.767 306.22C292.767 306.808 292.963 307.298 293.355 307.69ZM307.77 306.192C307.77 306.388 307.756 306.589 307.728 306.794H302.016C302.1 307.307 302.301 307.704 302.618 307.984C302.945 308.255 303.36 308.39 303.864 308.39C304.209 308.39 304.522 308.315 304.802 308.166C305.082 308.007 305.301 307.793 305.46 307.522H307.616C307.336 308.343 306.86 308.997 306.188 309.482C305.516 309.967 304.741 310.21 303.864 310.21C302.744 310.21 301.811 309.827 301.064 309.062C300.317 308.297 299.944 307.349 299.944 306.22C299.944 305.772 300.005 305.343 300.126 304.932C300.257 304.521 300.439 304.153 300.672 303.826C300.915 303.499 301.195 303.219 301.512 302.986C301.829 302.743 302.189 302.557 302.59 302.426C302.991 302.295 303.416 302.23 303.864 302.23C304.62 302.23 305.297 302.407 305.894 302.762C306.501 303.117 306.963 303.597 307.28 304.204C307.607 304.811 307.77 305.473 307.77 306.192ZM303.864 303.966C303.407 303.966 303.019 304.092 302.702 304.344C302.394 304.596 302.184 304.946 302.072 305.394H305.726C305.633 305.086 305.497 304.829 305.32 304.624C305.143 304.409 304.928 304.246 304.676 304.134C304.433 304.022 304.163 303.966 303.864 303.966ZM309.225 301.432V299.528H311.269V301.432H309.225ZM309.225 310V302.44H311.269V310H309.225ZM316.927 308.18H317.851V310H316.409C315.858 310 315.378 309.893 314.967 309.678C314.566 309.463 314.258 309.155 314.043 308.754C313.828 308.343 313.721 307.858 313.721 307.298V304.078H312.349V303.644L315.345 300.466H315.723V302.44H317.809V304.078H315.765V307.032C315.765 307.396 315.863 307.681 316.059 307.886C316.264 308.082 316.554 308.18 316.927 308.18ZM321.935 310.21C321.309 310.21 320.754 310.098 320.269 309.874C319.793 309.65 319.419 309.333 319.149 308.922C318.887 308.511 318.757 308.04 318.757 307.508H320.745C320.754 307.732 320.81 307.923 320.913 308.082C321.025 308.231 321.174 308.343 321.361 308.418C321.547 308.483 321.762 308.516 322.005 308.516C322.201 308.516 322.378 308.488 322.537 308.432C322.695 308.376 322.826 308.292 322.929 308.18C323.031 308.059 323.083 307.919 323.083 307.76C323.083 307.527 322.961 307.354 322.719 307.242C322.476 307.13 322.112 307.032 321.627 306.948C321.319 306.901 321.062 306.855 320.857 306.808C320.661 306.761 320.423 306.682 320.143 306.57C319.872 306.449 319.653 306.313 319.485 306.164C319.326 306.015 319.186 305.809 319.065 305.548C318.943 305.287 318.883 304.983 318.883 304.638C318.883 303.929 319.163 303.35 319.723 302.902C320.283 302.454 321.015 302.23 321.921 302.23C322.835 302.23 323.568 302.463 324.119 302.93C324.679 303.387 324.959 303.994 324.959 304.75H323.013C323.013 304.153 322.635 303.854 321.879 303.854C321.561 303.854 321.314 303.919 321.137 304.05C320.959 304.181 320.871 304.358 320.871 304.582C320.871 304.675 320.894 304.764 320.941 304.848C320.997 304.923 321.057 304.983 321.123 305.03C321.197 305.077 321.309 305.123 321.459 305.17C321.608 305.207 321.734 305.235 321.837 305.254C321.939 305.273 322.093 305.301 322.299 305.338C322.476 305.375 322.602 305.403 322.677 305.422C322.751 305.431 322.877 305.455 323.055 305.492C323.232 305.529 323.363 305.567 323.447 305.604C323.54 305.632 323.661 305.674 323.811 305.73C323.969 305.786 324.086 305.847 324.161 305.912C324.245 305.968 324.343 306.038 324.455 306.122C324.576 306.206 324.669 306.299 324.735 306.402C324.8 306.505 324.865 306.617 324.931 306.738C324.996 306.859 325.038 306.999 325.057 307.158C325.085 307.317 325.099 307.485 325.099 307.662C325.099 308.437 324.809 309.057 324.231 309.524C323.652 309.981 322.887 310.21 321.935 310.21ZM330.732 302.23C331.871 302.23 332.813 302.608 333.56 303.364C334.316 304.12 334.694 305.072 334.694 306.22C334.694 307.368 334.316 308.325 333.56 309.09C332.804 309.846 331.861 310.224 330.732 310.224C329.957 310.224 329.262 310.014 328.646 309.594V312.73H326.602V302.44H327.96L328.31 303.126C328.982 302.529 329.789 302.23 330.732 302.23ZM329.08 307.704C329.472 308.096 329.962 308.292 330.55 308.292C331.147 308.292 331.642 308.096 332.034 307.704C332.426 307.312 332.622 306.817 332.622 306.22C332.622 305.828 332.533 305.473 332.356 305.156C332.179 304.839 331.931 304.591 331.614 304.414C331.306 304.237 330.956 304.148 330.564 304.148C330.172 304.148 329.817 304.237 329.5 304.414C329.183 304.591 328.935 304.839 328.758 305.156C328.59 305.473 328.506 305.828 328.506 306.22C328.506 306.817 328.697 307.312 329.08 307.704ZM336.145 310V299.71H338.189V310H336.145ZM346.325 302.426H347.851V309.986H346.241L346.073 309.314C345.382 309.911 344.566 310.21 343.623 310.21C342.484 310.21 341.537 309.832 340.781 309.076C340.034 308.311 339.661 307.354 339.661 306.206C339.661 305.067 340.034 304.12 340.781 303.364C341.537 302.608 342.484 302.23 343.623 302.23C344.584 302.23 345.41 302.538 346.101 303.154L346.325 302.426ZM342.307 307.69C342.699 308.082 343.189 308.278 343.777 308.278C344.374 308.278 344.869 308.082 345.261 307.69C345.653 307.298 345.849 306.803 345.849 306.206C345.849 305.609 345.653 305.114 345.261 304.722C344.869 304.33 344.379 304.134 343.791 304.134C343.399 304.134 343.044 304.227 342.727 304.414C342.419 304.591 342.176 304.839 341.999 305.156C341.822 305.464 341.733 305.814 341.733 306.206C341.733 306.803 341.924 307.298 342.307 307.69ZM353.513 308.18H354.437V310H352.995C352.444 310 351.964 309.893 351.553 309.678C351.152 309.463 350.844 309.155 350.629 308.754C350.414 308.343 350.307 307.858 350.307 307.298V304.078H348.935V303.644L351.931 300.466H352.309V302.44H354.395V304.078H352.351V307.032C352.351 307.396 352.449 307.681 352.645 307.886C352.85 308.082 353.14 308.18 353.513 308.18ZM358.213 308.124H361.391V310H355.147V309.776L358.367 304.288H355.455V302.44H361.391V302.72L358.213 308.124Z" fill="white"/>
<path d="M19.7157 432V422.2H21.8437V432H19.7157ZM28.167 424.258C29.0257 424.258 29.7023 424.547 30.197 425.126C30.701 425.695 30.953 426.461 30.953 427.422V432H28.909V427.744C28.909 426.615 28.4703 426.05 27.593 426.05C27.2477 426.05 26.9443 426.129 26.683 426.288C26.431 426.447 26.235 426.675 26.095 426.974C25.9643 427.273 25.899 427.623 25.899 428.024V432H23.855V424.44H25.255L25.661 425.378C25.801 425.201 25.9597 425.047 26.137 424.916C26.3237 424.776 26.5243 424.659 26.739 424.566C26.9537 424.463 27.1777 424.389 27.411 424.342C27.6537 424.286 27.9057 424.258 28.167 424.258ZM37.1358 424.258C37.9944 424.258 38.6711 424.547 39.1658 425.126C39.6698 425.695 39.9218 426.461 39.9218 427.422V432H37.8778V427.744C37.8778 426.615 37.4391 426.05 36.5618 426.05C36.2164 426.05 35.9131 426.129 35.6518 426.288C35.3998 426.447 35.2038 426.675 35.0638 426.974C34.9331 427.273 34.8678 427.623 34.8678 428.024V432H32.8238V424.44H34.2238L34.6298 425.378C34.7698 425.201 34.9284 425.047 35.1058 424.916C35.2924 424.776 35.4931 424.659 35.7078 424.566C35.9224 424.463 36.1464 424.389 36.3798 424.342C36.6224 424.286 36.8744 424.258 37.1358 424.258ZM45.3905 432.21C44.6158 432.21 43.9158 432.037 43.2905 431.692C42.6652 431.347 42.1752 430.871 41.8205 430.264C41.4752 429.648 41.3025 428.967 41.3025 428.22C41.3025 427.072 41.6898 426.12 42.4645 425.364C43.2392 424.608 44.2145 424.23 45.3905 424.23C46.5572 424.23 47.5278 424.608 48.3025 425.364C49.0772 426.12 49.4645 427.072 49.4645 428.22C49.4645 429.359 49.0725 430.311 48.2885 431.076C47.5138 431.832 46.5478 432.21 45.3905 432.21ZM45.3905 430.292C45.9785 430.292 46.4592 430.101 46.8325 429.718C47.2058 429.326 47.3925 428.827 47.3925 428.22C47.3925 427.613 47.2058 427.119 46.8325 426.736C46.4592 426.344 45.9738 426.148 45.3765 426.148C44.7885 426.148 44.3078 426.344 43.9345 426.736C43.5612 427.119 43.3745 427.613 43.3745 428.22C43.3745 428.519 43.4212 428.799 43.5145 429.06C43.6172 429.321 43.7572 429.541 43.9345 429.718C44.1118 429.895 44.3218 430.035 44.5645 430.138C44.8165 430.241 45.0918 430.292 45.3905 430.292ZM55.6352 424.44H57.7632L54.7532 432H52.8632L49.7972 424.44H51.9672L53.8292 429.508L55.6352 424.44ZM64.7556 424.426H66.2816V431.986H64.6716L64.5036 431.314C63.8129 431.911 62.9962 432.21 62.0536 432.21C60.9149 432.21 59.9676 431.832 59.2116 431.076C58.4649 430.311 58.0916 429.354 58.0916 428.206C58.0916 427.067 58.4649 426.12 59.2116 425.364C59.9676 424.608 60.9149 424.23 62.0536 424.23C63.0149 424.23 63.8409 424.538 64.5316 425.154L64.7556 424.426ZM60.7376 429.69C61.1296 430.082 61.6196 430.278 62.2076 430.278C62.8049 430.278 63.2996 430.082 63.6916 429.69C64.0836 429.298 64.2796 428.803 64.2796 428.206C64.2796 427.609 64.0836 427.114 63.6916 426.722C63.2996 426.33 62.8096 426.134 62.2216 426.134C61.8296 426.134 61.4749 426.227 61.1576 426.414C60.8496 426.591 60.6069 426.839 60.4296 427.156C60.2522 427.464 60.1636 427.814 60.1636 428.206C60.1636 428.803 60.3549 429.298 60.7376 429.69ZM71.9436 430.18H72.8676V432H71.4256C70.8749 432 70.3942 431.893 69.9836 431.678C69.5822 431.463 69.2742 431.155 69.0596 430.754C68.8449 430.343 68.7376 429.858 68.7376 429.298V426.078H67.3656V425.644L70.3616 422.466H70.7396V424.44H72.8256V426.078H70.7816V429.032C70.7816 429.396 70.8796 429.681 71.0756 429.886C71.2809 430.082 71.5702 430.18 71.9436 430.18ZM74.2632 423.432V421.528H76.3072V423.432H74.2632ZM74.2632 432V424.44H76.3072V432H74.2632ZM81.8671 432.21C81.0924 432.21 80.3924 432.037 79.7671 431.692C79.1417 431.347 78.6517 430.871 78.2971 430.264C77.9517 429.648 77.7791 428.967 77.7791 428.22C77.7791 427.072 78.1664 426.12 78.9411 425.364C79.7157 424.608 80.6911 424.23 81.8671 424.23C83.0337 424.23 84.0044 424.608 84.7791 425.364C85.5537 426.12 85.9411 427.072 85.9411 428.22C85.9411 429.359 85.5491 430.311 84.7651 431.076C83.9904 431.832 83.0244 432.21 81.8671 432.21ZM81.8671 430.292C82.4551 430.292 82.9357 430.101 83.3091 429.718C83.6824 429.326 83.8691 428.827 83.8691 428.22C83.8691 427.613 83.6824 427.119 83.3091 426.736C82.9357 426.344 82.4504 426.148 81.8531 426.148C81.2651 426.148 80.7844 426.344 80.4111 426.736C80.0377 427.119 79.8511 427.613 79.8511 428.22C79.8511 428.519 79.8977 428.799 79.9911 429.06C80.0937 429.321 80.2337 429.541 80.4111 429.718C80.5884 429.895 80.7984 430.035 81.0411 430.138C81.2931 430.241 81.5684 430.292 81.8671 430.292ZM91.7275 424.258C92.5862 424.258 93.2629 424.547 93.7575 425.126C94.2615 425.695 94.5135 426.461 94.5135 427.422V432H92.4695V427.744C92.4695 426.615 92.0309 426.05 91.1535 426.05C90.8082 426.05 90.5049 426.129 90.2435 426.288C89.9915 426.447 89.7955 426.675 89.6555 426.974C89.5249 427.273 89.4595 427.623 89.4595 428.024V432H87.4155V424.44H88.8155L89.2215 425.378C89.3615 425.201 89.5202 425.047 89.6975 424.916C89.8842 424.776 90.0849 424.659 90.2995 424.566C90.5142 424.463 90.7382 424.389 90.9715 424.342C91.2142 424.286 91.4662 424.258 91.7275 424.258ZM42.7021 439.71H44.7461V450H43.2341L42.9961 449.37C42.3241 449.939 41.5354 450.224 40.6301 450.224C39.8741 450.224 39.1927 450.051 38.5861 449.706C37.9794 449.361 37.5034 448.885 37.1581 448.278C36.8221 447.662 36.6541 446.976 36.6541 446.22C36.6541 445.464 36.8221 444.783 37.1581 444.176C37.5034 443.569 37.9794 443.093 38.5861 442.748C39.1927 442.403 39.8741 442.23 40.6301 442.23C41.3954 442.23 42.0861 442.435 42.7021 442.846V439.71ZM39.3141 447.704C39.7061 448.096 40.1961 448.292 40.7841 448.292C41.3814 448.292 41.8761 448.096 42.2681 447.704C42.6601 447.303 42.8561 446.808 42.8561 446.22C42.8561 445.623 42.6601 445.128 42.2681 444.736C41.8761 444.344 41.3814 444.148 40.7841 444.148C40.1961 444.148 39.7061 444.344 39.3141 444.736C38.9221 445.128 38.7261 445.623 38.7261 446.22C38.7261 446.817 38.9221 447.312 39.3141 447.704ZM52.7207 449.286C52.0767 449.902 51.218 450.21 50.1447 450.21C49.0807 450.21 48.222 449.897 47.5687 449.272C46.9247 448.647 46.6027 447.825 46.6027 446.808V442.44H48.6467V446.57C48.6467 447.111 48.7774 447.536 49.0387 447.844C49.3094 448.143 49.678 448.292 50.1447 448.292C50.6207 448.292 50.9894 448.143 51.2507 447.844C51.5214 447.536 51.6567 447.111 51.6567 446.57V442.44H53.7007V446.808C53.7007 447.835 53.374 448.661 52.7207 449.286ZM59.4241 442.398H60.0961V444.33H59.2141C58.6354 444.33 58.2201 444.465 57.9681 444.736C57.7254 445.007 57.6041 445.45 57.6041 446.066V450H55.5601V442.44H56.8761L57.2401 443.364C57.7534 442.72 58.4814 442.398 59.4241 442.398ZM64.6112 450.21C63.8645 450.21 63.1832 450.037 62.5672 449.692C61.9605 449.337 61.4799 448.852 61.1252 448.236C60.7799 447.62 60.6072 446.939 60.6072 446.192C60.6072 445.063 60.9899 444.12 61.7552 443.364C62.5205 442.608 63.4772 442.23 64.6252 442.23C65.6052 442.23 66.4452 442.515 67.1452 443.084C67.8452 443.644 68.2885 444.391 68.4752 445.324H66.4452C66.2772 444.96 66.0299 444.675 65.7032 444.47C65.3859 444.255 65.0219 444.148 64.6112 444.148C64.0605 444.148 63.5985 444.344 63.2252 444.736C62.8612 445.128 62.6792 445.618 62.6792 446.206C62.6792 446.794 62.8659 447.289 63.2392 447.69C63.6125 448.091 64.0699 448.292 64.6112 448.292C65.0219 448.292 65.3859 448.185 65.7032 447.97C66.0205 447.746 66.2679 447.429 66.4452 447.018H68.5032C68.3165 447.979 67.8685 448.754 67.1592 449.342C66.4499 449.921 65.6005 450.21 64.6112 450.21ZM74.1732 442.258C75.0319 442.258 75.7085 442.543 76.2032 443.112C76.6979 443.681 76.9452 444.447 76.9452 445.408V450H74.9012V445.744C74.9012 445.175 74.7939 444.75 74.5792 444.47C74.3739 444.19 74.0425 444.05 73.5852 444.05C73.0719 444.05 72.6612 444.227 72.3532 444.582C72.0452 444.937 71.8912 445.417 71.8912 446.024V450H69.8472V439.71H71.8912V443.14C72.5072 442.552 73.2679 442.258 74.1732 442.258ZM30.9758 468H28.8198L27.8538 461.602L24.9278 467.986H24.4098L21.4838 461.602L20.5178 468H18.3478L19.8878 458.2H22.0158L24.6618 464.206L27.3218 458.2H29.4498L30.9758 468ZM35.9706 468.21C35.1959 468.21 34.4959 468.037 33.8706 467.692C33.2452 467.347 32.7552 466.871 32.4006 466.264C32.0552 465.648 31.8826 464.967 31.8826 464.22C31.8826 463.072 32.2699 462.12 33.0446 461.364C33.8192 460.608 34.7946 460.23 35.9706 460.23C37.1372 460.23 38.1079 460.608 38.8826 461.364C39.6572 462.12 40.0446 463.072 40.0446 464.22C40.0446 465.359 39.6526 466.311 38.8686 467.076C38.0939 467.832 37.1279 468.21 35.9706 468.21ZM35.9706 466.292C36.5586 466.292 37.0392 466.101 37.4126 465.718C37.7859 465.326 37.9726 464.827 37.9726 464.22C37.9726 463.613 37.7859 463.119 37.4126 462.736C37.0392 462.344 36.5539 462.148 35.9566 462.148C35.3686 462.148 34.8879 462.344 34.5146 462.736C34.1412 463.119 33.9546 463.613 33.9546 464.22C33.9546 464.519 34.0012 464.799 34.0946 465.06C34.1972 465.321 34.3372 465.541 34.5146 465.718C34.6919 465.895 34.9019 466.035 35.1446 466.138C35.3966 466.241 35.6719 466.292 35.9706 466.292ZM45.1057 466.18H46.0297V468H44.5877C44.037 468 43.5564 467.893 43.1457 467.678C42.7444 467.463 42.4364 467.155 42.2217 466.754C42.007 466.343 41.8997 465.858 41.8997 465.298V462.078H40.5277V461.644L43.5237 458.466H43.9017V460.44H45.9877V462.078H43.9437V465.032C43.9437 465.396 44.0417 465.681 44.2377 465.886C44.443 466.082 44.7324 466.18 45.1057 466.18ZM47.4253 459.432V457.528H49.4693V459.432H47.4253ZM47.4253 468V460.44H49.4693V468H47.4253ZM56.3872 460.44H58.5152L55.5052 468H53.6152L50.5492 460.44H52.7192L54.5812 465.508L56.3872 460.44ZM65.5075 460.426H67.0335V467.986H65.4235L65.2555 467.314C64.5648 467.911 63.7482 468.21 62.8055 468.21C61.6668 468.21 60.7195 467.832 59.9635 467.076C59.2168 466.311 58.8435 465.354 58.8435 464.206C58.8435 463.067 59.2168 462.12 59.9635 461.364C60.7195 460.608 61.6668 460.23 62.8055 460.23C63.7668 460.23 64.5928 460.538 65.2835 461.154L65.5075 460.426ZM61.4895 465.69C61.8815 466.082 62.3715 466.278 62.9595 466.278C63.5568 466.278 64.0515 466.082 64.4435 465.69C64.8355 465.298 65.0315 464.803 65.0315 464.206C65.0315 463.609 64.8355 463.114 64.4435 462.722C64.0515 462.33 63.5615 462.134 62.9735 462.134C62.5815 462.134 62.2268 462.227 61.9095 462.414C61.6015 462.591 61.3588 462.839 61.1815 463.156C61.0042 463.464 60.9155 463.814 60.9155 464.206C60.9155 464.803 61.1068 465.298 61.4895 465.69ZM72.6955 466.18H73.6195V468H72.1775C71.6269 468 71.1462 467.893 70.7355 467.678C70.3342 467.463 70.0262 467.155 69.8115 466.754C69.5969 466.343 69.4895 465.858 69.4895 465.298V462.078H68.1175V461.644L71.1135 458.466H71.4915V460.44H73.5775V462.078H71.5335V465.032C71.5335 465.396 71.6315 465.681 71.8275 465.886C72.0329 466.082 72.3222 466.18 72.6955 466.18ZM75.0152 459.432V457.528H77.0592V459.432H75.0152ZM75.0152 468V460.44H77.0592V468H75.0152ZM82.619 468.21C81.8443 468.21 81.1443 468.037 80.519 467.692C79.8937 467.347 79.4037 466.871 79.049 466.264C78.7037 465.648 78.531 464.967 78.531 464.22C78.531 463.072 78.9183 462.12 79.693 461.364C80.4677 460.608 81.443 460.23 82.619 460.23C83.7857 460.23 84.7563 460.608 85.531 461.364C86.3057 462.12 86.693 463.072 86.693 464.22C86.693 465.359 86.301 466.311 85.517 467.076C84.7423 467.832 83.7763 468.21 82.619 468.21ZM82.619 466.292C83.207 466.292 83.6877 466.101 84.061 465.718C84.4343 465.326 84.621 464.827 84.621 464.22C84.621 463.613 84.4343 463.119 84.061 462.736C83.6877 462.344 83.2023 462.148 82.605 462.148C82.017 462.148 81.5363 462.344 81.163 462.736C80.7897 463.119 80.603 463.613 80.603 464.22C80.603 464.519 80.6497 464.799 80.743 465.06C80.8457 465.321 80.9857 465.541 81.163 465.718C81.3403 465.895 81.5503 466.035 81.793 466.138C82.045 466.241 82.3203 466.292 82.619 466.292ZM92.4795 460.258C93.3382 460.258 94.0148 460.547 94.5095 461.126C95.0135 461.695 95.2655 462.461 95.2655 463.422V468H93.2215V463.744C93.2215 462.615 92.7828 462.05 91.9055 462.05C91.5602 462.05 91.2568 462.129 90.9955 462.288C90.7435 462.447 90.5475 462.675 90.4075 462.974C90.2768 463.273 90.2115 463.623 90.2115 464.024V468H88.1675V460.44H89.5675L89.9735 461.378C90.1135 461.201 90.2722 461.047 90.4495 460.916C90.6362 460.776 90.8368 460.659 91.0515 460.566C91.2662 460.463 91.4902 460.389 91.7235 460.342C91.9662 460.286 92.2182 460.258 92.4795 460.258Z" fill="white"/>
<path d="M155.807 375L155.121 373.138H151.215L150.543 375H148.303L152.139 365.2H154.141L158.103 375H155.807ZM153.161 367.79L151.887 371.29H154.449L153.161 367.79ZM164.966 374.286C164.322 374.902 163.463 375.21 162.39 375.21C161.326 375.21 160.467 374.897 159.814 374.272C159.17 373.647 158.848 372.825 158.848 371.808V367.44H160.892V371.57C160.892 372.111 161.022 372.536 161.284 372.844C161.554 373.143 161.923 373.292 162.39 373.292C162.866 373.292 163.234 373.143 163.496 372.844C163.766 372.536 163.902 372.111 163.902 371.57V367.44H165.946V371.808C165.946 372.835 165.619 373.661 164.966 374.286ZM178.781 373.18H179.705V375H178.249C177.419 375 176.765 374.762 176.289 374.286C175.813 373.801 175.575 373.138 175.575 372.298V369.078H174.203V368.644L177.185 365.466H177.577V367.44H179.663V369.078H177.619V372.032C177.619 372.396 177.717 372.681 177.913 372.886C178.119 373.082 178.408 373.18 178.781 373.18ZM170.857 370.338C171.109 370.385 171.291 370.422 171.403 370.45C171.525 370.469 171.702 370.511 171.935 370.576C172.178 370.641 172.36 370.707 172.481 370.772C172.612 370.837 172.761 370.931 172.929 371.052C173.107 371.173 173.237 371.304 173.321 371.444C173.415 371.584 173.494 371.761 173.559 371.976C173.625 372.181 173.657 372.41 173.657 372.662C173.657 373.437 173.368 374.057 172.789 374.524C172.211 374.981 171.445 375.21 170.493 375.21C169.541 375.21 168.776 374.963 168.197 374.468C167.619 373.973 167.325 373.32 167.315 372.508H169.303C169.313 372.835 169.429 373.087 169.653 373.264C169.887 373.432 170.19 373.516 170.563 373.516C170.871 373.516 171.128 373.451 171.333 373.32C171.539 373.189 171.641 373.003 171.641 372.76C171.641 372.639 171.604 372.531 171.529 372.438C171.464 372.345 171.357 372.27 171.207 372.214C171.058 372.149 170.909 372.097 170.759 372.06C170.61 372.023 170.419 371.985 170.185 371.948C169.877 371.901 169.621 371.855 169.415 371.808C169.219 371.761 168.981 371.682 168.701 371.57C168.431 371.449 168.211 371.313 168.043 371.164C167.885 371.015 167.745 370.809 167.623 370.548C167.502 370.287 167.441 369.983 167.441 369.638C167.441 368.929 167.721 368.35 168.281 367.902C168.841 367.454 169.574 367.23 170.479 367.23C171.394 367.23 172.127 367.463 172.677 367.93C173.237 368.387 173.517 368.994 173.517 369.75H171.571C171.571 369.153 171.193 368.854 170.437 368.854C170.12 368.854 169.873 368.919 169.695 369.05C169.518 369.181 169.429 369.358 169.429 369.582C169.429 369.675 169.453 369.764 169.499 369.848C169.555 369.923 169.616 369.983 169.681 370.03C169.756 370.077 169.868 370.123 170.017 370.17C170.167 370.207 170.293 370.235 170.395 370.254C170.498 370.273 170.652 370.301 170.857 370.338ZM187.378 367.426H188.904V374.986H187.294L187.126 374.314C186.435 374.911 185.618 375.21 184.676 375.21C183.537 375.21 182.59 374.832 181.834 374.076C181.087 373.311 180.714 372.354 180.714 371.206C180.714 370.067 181.087 369.12 181.834 368.364C182.59 367.608 183.537 367.23 184.676 367.23C185.637 367.23 186.463 367.538 187.154 368.154L187.378 367.426ZM183.36 372.69C183.752 373.082 184.242 373.278 184.83 373.278C185.427 373.278 185.922 373.082 186.314 372.69C186.706 372.298 186.902 371.803 186.902 371.206C186.902 370.609 186.706 370.114 186.314 369.722C185.922 369.33 185.432 369.134 184.844 369.134C184.452 369.134 184.097 369.227 183.78 369.414C183.472 369.591 183.229 369.839 183.052 370.156C182.874 370.464 182.786 370.814 182.786 371.206C182.786 371.803 182.977 372.298 183.36 372.69ZM196.89 374.286C196.246 374.902 195.387 375.21 194.314 375.21C193.25 375.21 192.391 374.897 191.738 374.272C191.094 373.647 190.772 372.825 190.772 371.808V367.44H192.816V371.57C192.816 372.111 192.946 372.536 193.208 372.844C193.478 373.143 193.847 373.292 194.314 373.292C194.79 373.292 195.158 373.143 195.42 372.844C195.69 372.536 195.826 372.111 195.826 371.57V367.44H197.87V371.808C197.87 372.835 197.543 373.661 196.89 374.286ZM202.417 375.21C201.792 375.21 201.236 375.098 200.751 374.874C200.275 374.65 199.902 374.333 199.631 373.922C199.37 373.511 199.239 373.04 199.239 372.508H201.227C201.236 372.732 201.292 372.923 201.395 373.082C201.507 373.231 201.656 373.343 201.843 373.418C202.03 373.483 202.244 373.516 202.487 373.516C202.683 373.516 202.86 373.488 203.019 373.432C203.178 373.376 203.308 373.292 203.411 373.18C203.514 373.059 203.565 372.919 203.565 372.76C203.565 372.527 203.444 372.354 203.201 372.242C202.958 372.13 202.594 372.032 202.109 371.948C201.801 371.901 201.544 371.855 201.339 371.808C201.143 371.761 200.905 371.682 200.625 371.57C200.354 371.449 200.135 371.313 199.967 371.164C199.808 371.015 199.668 370.809 199.547 370.548C199.426 370.287 199.365 369.983 199.365 369.638C199.365 368.929 199.645 368.35 200.205 367.902C200.765 367.454 201.498 367.23 202.403 367.23C203.318 367.23 204.05 367.463 204.601 367.93C205.161 368.387 205.441 368.994 205.441 369.75H203.495C203.495 369.153 203.117 368.854 202.361 368.854C202.044 368.854 201.796 368.919 201.619 369.05C201.442 369.181 201.353 369.358 201.353 369.582C201.353 369.675 201.376 369.764 201.423 369.848C201.479 369.923 201.54 369.983 201.605 370.03C201.68 370.077 201.792 370.123 201.941 370.17C202.09 370.207 202.216 370.235 202.319 370.254C202.422 370.273 202.576 370.301 202.781 370.338C202.958 370.375 203.084 370.403 203.159 370.422C203.234 370.431 203.36 370.455 203.537 370.492C203.714 370.529 203.845 370.567 203.929 370.604C204.022 370.632 204.144 370.674 204.293 370.73C204.452 370.786 204.568 370.847 204.643 370.912C204.727 370.968 204.825 371.038 204.937 371.122C205.058 371.206 205.152 371.299 205.217 371.402C205.282 371.505 205.348 371.617 205.413 371.738C205.478 371.859 205.52 371.999 205.539 372.158C205.567 372.317 205.581 372.485 205.581 372.662C205.581 373.437 205.292 374.057 204.713 374.524C204.134 374.981 203.369 375.21 202.417 375.21ZM210.598 375.21C209.852 375.21 209.17 375.037 208.554 374.692C207.948 374.337 207.467 373.852 207.112 373.236C206.767 372.62 206.594 371.939 206.594 371.192C206.594 370.063 206.977 369.12 207.742 368.364C208.508 367.608 209.464 367.23 210.612 367.23C211.592 367.23 212.432 367.515 213.132 368.084C213.832 368.644 214.276 369.391 214.462 370.324H212.432C212.264 369.96 212.017 369.675 211.69 369.47C211.373 369.255 211.009 369.148 210.598 369.148C210.048 369.148 209.586 369.344 209.212 369.736C208.848 370.128 208.666 370.618 208.666 371.206C208.666 371.794 208.853 372.289 209.226 372.69C209.6 373.091 210.057 373.292 210.598 373.292C211.009 373.292 211.373 373.185 211.69 372.97C212.008 372.746 212.255 372.429 212.432 372.018H214.49C214.304 372.979 213.856 373.754 213.146 374.342C212.437 374.921 211.588 375.21 210.598 375.21ZM220.16 367.258C221.019 367.258 221.696 367.543 222.19 368.112C222.685 368.681 222.932 369.447 222.932 370.408V375H220.888V370.744C220.888 370.175 220.781 369.75 220.566 369.47C220.361 369.19 220.03 369.05 219.572 369.05C219.059 369.05 218.648 369.227 218.34 369.582C218.032 369.937 217.878 370.417 217.878 371.024V375H215.834V364.71H217.878V368.14C218.494 367.552 219.255 367.258 220.16 367.258Z" fill="white"/>
<path d="M149.418 520.876H154.64C154.631 522.425 154.159 523.704 153.226 524.712C152.293 525.711 151.093 526.21 149.628 526.21C148.181 526.21 146.973 525.729 146.002 524.768C145.041 523.797 144.56 522.579 144.56 521.114C144.56 519.639 145.036 518.417 145.988 517.446C146.94 516.475 148.139 515.99 149.586 515.99C150.809 515.99 151.877 516.34 152.792 517.04C153.707 517.731 154.276 518.627 154.5 519.728H152.316C152.176 519.373 151.975 519.07 151.714 518.818C151.453 518.557 151.14 518.356 150.776 518.216C150.421 518.076 150.039 518.006 149.628 518.006C148.76 518.006 148.055 518.295 147.514 518.874C146.973 519.453 146.702 520.199 146.702 521.114C146.702 521.711 146.823 522.243 147.066 522.71C147.309 523.177 147.649 523.541 148.088 523.802C148.536 524.063 149.049 524.194 149.628 524.194C150.048 524.194 150.445 524.124 150.818 523.984C151.191 523.844 151.509 523.648 151.77 523.396C152.041 523.135 152.237 522.841 152.358 522.514H149.418V520.876ZM163.472 522.192C163.472 522.388 163.458 522.589 163.43 522.794H157.718C157.802 523.307 158.003 523.704 158.32 523.984C158.647 524.255 159.062 524.39 159.566 524.39C159.912 524.39 160.224 524.315 160.504 524.166C160.784 524.007 161.004 523.793 161.162 523.522H163.318C163.038 524.343 162.562 524.997 161.89 525.482C161.218 525.967 160.444 526.21 159.566 526.21C158.446 526.21 157.513 525.827 156.766 525.062C156.02 524.297 155.646 523.349 155.646 522.22C155.646 521.772 155.707 521.343 155.828 520.932C155.959 520.521 156.141 520.153 156.374 519.826C156.617 519.499 156.897 519.219 157.214 518.986C157.532 518.743 157.891 518.557 158.292 518.426C158.694 518.295 159.118 518.23 159.566 518.23C160.322 518.23 160.999 518.407 161.596 518.762C162.203 519.117 162.665 519.597 162.982 520.204C163.309 520.811 163.472 521.473 163.472 522.192ZM159.566 519.966C159.109 519.966 158.722 520.092 158.404 520.344C158.096 520.596 157.886 520.946 157.774 521.394H161.428C161.335 521.086 161.2 520.829 161.022 520.624C160.845 520.409 160.63 520.246 160.378 520.134C160.136 520.022 159.865 519.966 159.566 519.966ZM167.615 526.21C166.99 526.21 166.435 526.098 165.949 525.874C165.473 525.65 165.1 525.333 164.829 524.922C164.568 524.511 164.437 524.04 164.437 523.508H166.425C166.435 523.732 166.491 523.923 166.593 524.082C166.705 524.231 166.855 524.343 167.041 524.418C167.228 524.483 167.443 524.516 167.685 524.516C167.881 524.516 168.059 524.488 168.217 524.432C168.376 524.376 168.507 524.292 168.609 524.18C168.712 524.059 168.763 523.919 168.763 523.76C168.763 523.527 168.642 523.354 168.399 523.242C168.157 523.13 167.793 523.032 167.307 522.948C166.999 522.901 166.743 522.855 166.537 522.808C166.341 522.761 166.103 522.682 165.823 522.57C165.553 522.449 165.333 522.313 165.165 522.164C165.007 522.015 164.867 521.809 164.745 521.548C164.624 521.287 164.563 520.983 164.563 520.638C164.563 519.929 164.843 519.35 165.403 518.902C165.963 518.454 166.696 518.23 167.601 518.23C168.516 518.23 169.249 518.463 169.799 518.93C170.359 519.387 170.639 519.994 170.639 520.75H168.693C168.693 520.153 168.315 519.854 167.559 519.854C167.242 519.854 166.995 519.919 166.817 520.05C166.64 520.181 166.551 520.358 166.551 520.582C166.551 520.675 166.575 520.764 166.621 520.848C166.677 520.923 166.738 520.983 166.803 521.03C166.878 521.077 166.99 521.123 167.139 521.17C167.289 521.207 167.415 521.235 167.517 521.254C167.62 521.273 167.774 521.301 167.979 521.338C168.157 521.375 168.283 521.403 168.357 521.422C168.432 521.431 168.558 521.455 168.735 521.492C168.913 521.529 169.043 521.567 169.127 521.604C169.221 521.632 169.342 521.674 169.491 521.73C169.65 521.786 169.767 521.847 169.841 521.912C169.925 521.968 170.023 522.038 170.135 522.122C170.257 522.206 170.35 522.299 170.415 522.402C170.481 522.505 170.546 522.617 170.611 522.738C170.677 522.859 170.719 522.999 170.737 523.158C170.765 523.317 170.779 523.485 170.779 523.662C170.779 524.437 170.49 525.057 169.911 525.524C169.333 525.981 168.567 526.21 167.615 526.21ZM178.303 525.286C177.659 525.902 176.8 526.21 175.727 526.21C174.663 526.21 173.804 525.897 173.151 525.272C172.507 524.647 172.185 523.825 172.185 522.808V518.44H174.229V522.57C174.229 523.111 174.359 523.536 174.621 523.844C174.891 524.143 175.26 524.292 175.727 524.292C176.203 524.292 176.571 524.143 176.833 523.844C177.103 523.536 177.239 523.111 177.239 522.57V518.44H179.283V522.808C179.283 523.835 178.956 524.661 178.303 525.286ZM185.454 518.258C186.313 518.258 186.989 518.547 187.484 519.126C187.988 519.695 188.24 520.461 188.24 521.422V526H186.196V521.744C186.196 520.615 185.757 520.05 184.88 520.05C184.535 520.05 184.231 520.129 183.97 520.288C183.718 520.447 183.522 520.675 183.382 520.974C183.251 521.273 183.186 521.623 183.186 522.024V526H181.142V518.44H182.542L182.948 519.378C183.088 519.201 183.247 519.047 183.424 518.916C183.611 518.776 183.811 518.659 184.026 518.566C184.241 518.463 184.465 518.389 184.698 518.342C184.941 518.286 185.193 518.258 185.454 518.258ZM195.669 515.71H197.713V526H196.201L195.963 525.37C195.291 525.939 194.502 526.224 193.597 526.224C192.841 526.224 192.16 526.051 191.553 525.706C190.946 525.361 190.47 524.885 190.125 524.278C189.789 523.662 189.621 522.976 189.621 522.22C189.621 521.464 189.789 520.783 190.125 520.176C190.47 519.569 190.946 519.093 191.553 518.748C192.16 518.403 192.841 518.23 193.597 518.23C194.362 518.23 195.053 518.435 195.669 518.846V515.71ZM192.281 523.704C192.673 524.096 193.163 524.292 193.751 524.292C194.348 524.292 194.843 524.096 195.235 523.704C195.627 523.303 195.823 522.808 195.823 522.22C195.823 521.623 195.627 521.128 195.235 520.736C194.843 520.344 194.348 520.148 193.751 520.148C193.163 520.148 192.673 520.344 192.281 520.736C191.889 521.128 191.693 521.623 191.693 522.22C191.693 522.817 191.889 523.312 192.281 523.704ZM203.994 518.258C204.852 518.258 205.529 518.543 206.024 519.112C206.518 519.681 206.766 520.447 206.766 521.408V526H204.722V521.744C204.722 521.175 204.614 520.75 204.4 520.47C204.194 520.19 203.863 520.05 203.406 520.05C202.892 520.05 202.482 520.227 202.174 520.582C201.866 520.937 201.712 521.417 201.712 522.024V526H199.668V515.71H201.712V519.14C202.328 518.552 203.088 518.258 203.994 518.258ZM215.972 522.192C215.972 522.388 215.958 522.589 215.93 522.794H210.218C210.302 523.307 210.503 523.704 210.82 523.984C211.147 524.255 211.562 524.39 212.066 524.39C212.412 524.39 212.724 524.315 213.004 524.166C213.284 524.007 213.504 523.793 213.662 523.522H215.818C215.538 524.343 215.062 524.997 214.39 525.482C213.718 525.967 212.944 526.21 212.066 526.21C210.946 526.21 210.013 525.827 209.266 525.062C208.52 524.297 208.146 523.349 208.146 522.22C208.146 521.772 208.207 521.343 208.328 520.932C208.459 520.521 208.641 520.153 208.874 519.826C209.117 519.499 209.397 519.219 209.714 518.986C210.032 518.743 210.391 518.557 210.792 518.426C211.194 518.295 211.618 518.23 212.066 518.23C212.822 518.23 213.499 518.407 214.096 518.762C214.703 519.117 215.165 519.597 215.482 520.204C215.809 520.811 215.972 521.473 215.972 522.192ZM212.066 519.966C211.609 519.966 211.222 520.092 210.904 520.344C210.596 520.596 210.386 520.946 210.274 521.394H213.928C213.835 521.086 213.7 520.829 213.522 520.624C213.345 520.409 213.13 520.246 212.878 520.134C212.636 520.022 212.365 519.966 212.066 519.966ZM217.427 517.432V515.528H219.471V517.432H217.427ZM217.427 526V518.44H219.471V526H217.427ZM225.129 524.18H226.053V526H224.611C224.06 526 223.58 525.893 223.169 525.678C222.768 525.463 222.46 525.155 222.245 524.754C222.03 524.343 221.923 523.858 221.923 523.298V520.078H220.551V519.644L223.547 516.466H223.925V518.44H226.011V520.078H223.967V523.032C223.967 523.396 224.065 523.681 224.261 523.886C224.466 524.082 224.756 524.18 225.129 524.18Z" fill="white"/>
<path d="M9.77821 207.305L-19.3271 157.397C-22.891 150.862 -22.891 143.138 -19.3271 136.603L9.77821 86.6946C13.3421 80.159 20.4699 76 28.1917 76H85.8083C93.5301 76 100.064 80.159 104.222 86.6946L133.327 136.603C136.891 143.138 136.891 150.862 133.327 157.397L104.222 207.305C100.658 213.841 93.5301 218 85.8083 218H28.1917C20.4699 218 13.3421 213.841 9.77821 207.305Z" fill="url(#paint8_linear)"/>
<path d="M28.5498 149.026H32.4558V151H26.4218V141.2H32.3018V143.16H28.5498V145.092H31.9378V147.01H28.5498V149.026ZM34.0884 142.432V140.528H36.1324V142.432H34.0884ZM34.0884 151V143.44H36.1324V151H34.0884ZM42.4063 143.258C43.2649 143.258 43.9416 143.547 44.4363 144.126C44.9403 144.695 45.1923 145.461 45.1923 146.422V151H43.1483V146.744C43.1483 145.615 42.7096 145.05 41.8323 145.05C41.4869 145.05 41.1836 145.129 40.9223 145.288C40.6703 145.447 40.4743 145.675 40.3343 145.974C40.2036 146.273 40.1383 146.623 40.1383 147.024V151H38.0943V143.44H39.4943L39.9003 144.378C40.0403 144.201 40.1989 144.047 40.3763 143.916C40.5629 143.776 40.7636 143.659 40.9783 143.566C41.1929 143.463 41.4169 143.389 41.6503 143.342C41.8929 143.286 42.1449 143.258 42.4063 143.258ZM56.8908 141.2V143.174H54.1608V151H52.0328V143.174H49.3168V141.2H56.8908ZM60.4326 149.026H64.3386V151H58.3046V141.2H64.1846V143.16H60.4326V145.092H63.8206V147.01H60.4326V149.026ZM72.6349 151L71.9489 149.138H68.0429L67.3709 151H65.1309L68.9669 141.2H70.9689L74.9309 151H72.6349ZM69.9889 143.79L68.7149 147.29H71.2769L69.9889 143.79ZM88.1857 151H86.0297L85.0637 144.602L82.1377 150.986H81.6197L78.6937 144.602L77.7277 151H75.5577L77.0977 141.2H79.2257L81.8717 147.206L84.5317 141.2H86.6597L88.1857 151Z" fill="white"/>
<path d="M141.577 131.305L112.656 81.3975C109.115 74.8619 109.115 67.1381 112.656 60.6025L141.577 10.6946C145.118 4.15899 152.201 0 159.874 0H217.126C224.799 0 231.291 4.15899 235.423 10.6946L264.344 60.6025C267.885 67.1381 267.885 74.8619 264.344 81.3975L235.423 131.305C231.882 137.841 224.799 142 217.126 142H159.874C152.201 142 145.118 137.841 141.577 131.305Z" fill="url(#paint9_linear)"/>
<path d="M154.641 67.05H152.485L151.337 65.734C150.628 66.0513 149.863 66.21 149.041 66.21C147.548 66.21 146.302 65.7247 145.303 64.754C144.314 63.774 143.819 62.556 143.819 61.1C143.819 59.644 144.314 58.4307 145.303 57.46C146.302 56.48 147.548 55.99 149.041 55.99C150.535 55.99 151.776 56.4753 152.765 57.446C153.755 58.4167 154.249 59.6347 154.249 61.1C154.249 61.8373 154.114 62.5233 153.843 63.158C153.573 63.7927 153.195 64.3433 152.709 64.81L154.641 67.05ZM149.041 64.208C149.349 64.208 149.643 64.1707 149.923 64.096L147.977 61.842H150.133L151.323 63.214C151.846 62.6353 152.107 61.9307 152.107 61.1C152.107 60.2133 151.813 59.476 151.225 58.888C150.647 58.2907 149.919 57.992 149.041 57.992C148.173 57.992 147.441 58.2907 146.843 58.888C146.255 59.476 145.961 60.2133 145.961 61.1C145.961 61.9867 146.255 62.7287 146.843 63.326C147.441 63.914 148.173 64.208 149.041 64.208ZM161.826 65.286C161.182 65.902 160.324 66.21 159.25 66.21C158.186 66.21 157.328 65.8973 156.674 65.272C156.03 64.6467 155.708 63.8253 155.708 62.808V58.44H157.752V62.57C157.752 63.1113 157.883 63.536 158.144 63.844C158.415 64.1427 158.784 64.292 159.25 64.292C159.726 64.292 160.095 64.1427 160.356 63.844C160.627 63.536 160.762 63.1113 160.762 62.57V58.44H162.806V62.808C162.806 63.8347 162.48 64.6607 161.826 65.286ZM170.84 58.426H172.366V65.986H170.756L170.588 65.314C169.897 65.9113 169.08 66.21 168.138 66.21C166.999 66.21 166.052 65.832 165.296 65.076C164.549 64.3107 164.176 63.354 164.176 62.206C164.176 61.0673 164.549 60.12 165.296 59.364C166.052 58.608 166.999 58.23 168.138 58.23C169.099 58.23 169.925 58.538 170.616 59.154L170.84 58.426ZM166.822 63.69C167.214 64.082 167.704 64.278 168.292 64.278C168.889 64.278 169.384 64.082 169.776 63.69C170.168 63.298 170.364 62.8033 170.364 62.206C170.364 61.6087 170.168 61.114 169.776 60.722C169.384 60.33 168.894 60.134 168.306 60.134C167.914 60.134 167.559 60.2273 167.242 60.414C166.934 60.5913 166.691 60.8387 166.514 61.156C166.336 61.464 166.248 61.814 166.248 62.206C166.248 62.8033 166.439 63.298 166.822 63.69ZM174.332 66V55.71H176.376V66H174.332ZM178.337 57.432V55.528H180.381V57.432H178.337ZM178.337 66V58.44H180.381V66H178.337ZM186.039 64.18H186.963V66H185.521C184.971 66 184.49 65.8927 184.079 65.678C183.678 65.4633 183.37 65.1553 183.155 64.754C182.941 64.3433 182.833 63.858 182.833 63.298V60.078H181.461V59.644L184.457 56.466H184.835V58.44H186.921V60.078H184.877V63.032C184.877 63.396 184.975 63.6807 185.171 63.886C185.377 64.082 185.666 64.18 186.039 64.18ZM191.539 55.528V57.46H189.383V55.528H191.539ZM194.773 55.528V57.46H192.603V55.528H194.773ZM194.465 58.426H195.991V65.986H194.381L194.213 65.314C193.522 65.9113 192.705 66.21 191.763 66.21C190.624 66.21 189.677 65.832 188.921 65.076C188.174 64.3107 187.801 63.354 187.801 62.206C187.801 61.0673 188.174 60.12 188.921 59.364C189.677 58.608 190.624 58.23 191.763 58.23C192.724 58.23 193.55 58.538 194.241 59.154L194.465 58.426ZM190.447 63.69C190.839 64.082 191.329 64.278 191.917 64.278C192.514 64.278 193.009 64.082 193.401 63.69C193.793 63.298 193.989 62.8033 193.989 62.206C193.989 61.6087 193.793 61.114 193.401 60.722C193.009 60.33 192.519 60.134 191.931 60.134C191.539 60.134 191.184 60.2273 190.867 60.414C190.559 60.5913 190.316 60.8387 190.139 61.156C189.961 61.464 189.873 61.814 189.873 62.206C189.873 62.8033 190.064 63.298 190.447 63.69ZM201.653 64.18H202.577V66H201.135C200.584 66 200.103 65.8927 199.693 65.678C199.291 65.4633 198.983 65.1553 198.769 64.754C198.554 64.3433 198.447 63.858 198.447 63.298V60.078H197.075V59.644L200.071 56.466H200.449V58.44H202.535V60.078H200.491V63.032C200.491 63.396 200.589 63.6807 200.785 63.886C200.99 64.082 201.279 64.18 201.653 64.18ZM213.342 65.286C212.698 65.902 211.839 66.21 210.766 66.21C209.702 66.21 208.843 65.8973 208.19 65.272C207.546 64.6467 207.224 63.8253 207.224 62.808V58.44H209.268V62.57C209.268 63.1113 209.398 63.536 209.66 63.844C209.93 64.1427 210.299 64.292 210.766 64.292C211.242 64.292 211.61 64.1427 211.872 63.844C212.142 63.536 212.278 63.1113 212.278 62.57V58.44H214.322V62.808C214.322 63.8347 213.995 64.6607 213.342 65.286ZM220.493 58.258C221.352 58.258 222.029 58.5473 222.523 59.126C223.027 59.6953 223.279 60.4607 223.279 61.422V66H221.235V61.744C221.235 60.6147 220.797 60.05 219.919 60.05C219.574 60.05 219.271 60.1293 219.009 60.288C218.757 60.4467 218.561 60.6753 218.421 60.974C218.291 61.2727 218.225 61.6227 218.225 62.024V66H216.181V58.44H217.581L217.987 59.378C218.127 59.2007 218.286 59.0467 218.463 58.916C218.65 58.776 218.851 58.6593 219.065 58.566C219.28 58.4633 219.504 58.3887 219.737 58.342C219.98 58.286 220.232 58.258 220.493 58.258ZM230.708 55.71H232.752V66H231.24L231.002 65.37C230.33 65.9393 229.541 66.224 228.636 66.224C227.88 66.224 227.199 66.0513 226.592 65.706C225.985 65.3607 225.509 64.8847 225.164 64.278C224.828 63.662 224.66 62.976 224.66 62.22C224.66 61.464 224.828 60.7827 225.164 60.176C225.509 59.5693 225.985 59.0933 226.592 58.748C227.199 58.4027 227.88 58.23 228.636 58.23C229.401 58.23 230.092 58.4353 230.708 58.846V55.71ZM227.32 63.704C227.712 64.096 228.202 64.292 228.79 64.292C229.387 64.292 229.882 64.096 230.274 63.704C230.666 63.3027 230.862 62.808 230.862 62.22C230.862 61.6227 230.666 61.128 230.274 60.736C229.882 60.344 229.387 60.148 228.79 60.148C228.202 60.148 227.712 60.344 227.32 60.736C226.928 61.128 226.732 61.6227 226.732 62.22C226.732 62.8173 226.928 63.312 227.32 63.704ZM153.951 76.174H150.227V78.33H153.587V80.248H150.227V84H148.099V74.2H153.951V76.174ZM161.502 76.426H163.028V83.986H161.418L161.25 83.314C160.559 83.9113 159.742 84.21 158.8 84.21C157.661 84.21 156.714 83.832 155.958 83.076C155.211 82.3107 154.838 81.354 154.838 80.206C154.838 79.0673 155.211 78.12 155.958 77.364C156.714 76.608 157.661 76.23 158.8 76.23C159.761 76.23 160.587 76.538 161.278 77.154L161.502 76.426ZM157.484 81.69C157.876 82.082 158.366 82.278 158.954 82.278C159.551 82.278 160.046 82.082 160.438 81.69C160.83 81.298 161.026 80.8033 161.026 80.206C161.026 79.6087 160.83 79.114 160.438 78.722C160.046 78.33 159.556 78.134 158.968 78.134C158.576 78.134 158.221 78.2273 157.904 78.414C157.596 78.5913 157.353 78.8387 157.176 79.156C156.998 79.464 156.91 79.814 156.91 80.206C156.91 80.8033 157.101 81.298 157.484 81.69ZM168.508 84.21C167.761 84.21 167.08 84.0373 166.464 83.692C165.857 83.3373 165.376 82.852 165.022 82.236C164.676 81.62 164.504 80.9387 164.504 80.192C164.504 79.0627 164.886 78.12 165.652 77.364C166.417 76.608 167.374 76.23 168.522 76.23C169.502 76.23 170.342 76.5147 171.042 77.084C171.742 77.644 172.185 78.3907 172.372 79.324H170.342C170.174 78.96 169.926 78.6753 169.6 78.47C169.282 78.2553 168.918 78.148 168.508 78.148C167.957 78.148 167.495 78.344 167.122 78.736C166.758 79.128 166.576 79.618 166.576 80.206C166.576 80.794 166.762 81.2887 167.136 81.69C167.509 82.0913 167.966 82.292 168.508 82.292C168.918 82.292 169.282 82.1847 169.6 81.97C169.917 81.746 170.164 81.4287 170.342 81.018H172.4C172.213 81.9793 171.765 82.754 171.056 83.342C170.346 83.9207 169.497 84.21 168.508 84.21ZM178.07 76.258C178.928 76.258 179.605 76.5427 180.1 77.112C180.594 77.6813 180.842 78.4467 180.842 79.408V84H178.798V79.744C178.798 79.1747 178.69 78.75 178.476 78.47C178.27 78.19 177.939 78.05 177.482 78.05C176.968 78.05 176.558 78.2273 176.25 78.582C175.942 78.9367 175.788 79.4173 175.788 80.024V84H173.744V73.71H175.788V77.14C176.404 76.552 177.164 76.258 178.07 76.258ZM191.381 76.44H193.411L190.933 84H189.295L187.573 80.094L185.893 84H184.255L181.749 76.44H183.835L185.319 80.948L187.293 76.496H187.867L189.897 80.962L191.381 76.44ZM194.525 75.432V73.528H196.569V75.432H194.525ZM194.525 84V76.44H196.569V84H194.525ZM201.219 84.21C200.593 84.21 200.038 84.098 199.553 83.874C199.077 83.65 198.703 83.3327 198.433 82.922C198.171 82.5113 198.041 82.04 198.041 81.508H200.029C200.038 81.732 200.094 81.9233 200.197 82.082C200.309 82.2313 200.458 82.3433 200.645 82.418C200.831 82.4833 201.046 82.516 201.289 82.516C201.485 82.516 201.662 82.488 201.821 82.432C201.979 82.376 202.11 82.292 202.213 82.18C202.315 82.0587 202.367 81.9187 202.367 81.76C202.367 81.5267 202.245 81.354 202.003 81.242C201.76 81.13 201.396 81.032 200.911 80.948C200.603 80.9013 200.346 80.8547 200.141 80.808C199.945 80.7613 199.707 80.682 199.427 80.57C199.156 80.4487 198.937 80.3133 198.769 80.164C198.61 80.0147 198.47 79.8093 198.349 79.548C198.227 79.2867 198.167 78.9833 198.167 78.638C198.167 77.9287 198.447 77.35 199.007 76.902C199.567 76.454 200.299 76.23 201.205 76.23C202.119 76.23 202.852 76.4633 203.403 76.93C203.963 77.3873 204.243 77.994 204.243 78.75H202.297C202.297 78.1527 201.919 77.854 201.163 77.854C200.845 77.854 200.598 77.9193 200.421 78.05C200.243 78.1807 200.155 78.358 200.155 78.582C200.155 78.6753 200.178 78.764 200.225 78.848C200.281 78.9227 200.341 78.9833 200.407 79.03C200.481 79.0767 200.593 79.1233 200.743 79.17C200.892 79.2073 201.018 79.2353 201.121 79.254C201.223 79.2727 201.377 79.3007 201.583 79.338C201.76 79.3753 201.886 79.4033 201.961 79.422C202.035 79.4313 202.161 79.4547 202.339 79.492C202.516 79.5293 202.647 79.5667 202.731 79.604C202.824 79.632 202.945 79.674 203.095 79.73C203.253 79.786 203.37 79.8467 203.445 79.912C203.529 79.968 203.627 80.038 203.739 80.122C203.86 80.206 203.953 80.2993 204.019 80.402C204.084 80.5047 204.149 80.6167 204.215 80.738C204.28 80.8593 204.322 80.9993 204.341 81.158C204.369 81.3167 204.383 81.4847 204.383 81.662C204.383 82.4367 204.093 83.0573 203.515 83.524C202.936 83.9813 202.171 84.21 201.219 84.21ZM208.574 84.21C207.949 84.21 207.394 84.098 206.908 83.874C206.432 83.65 206.059 83.3327 205.788 82.922C205.527 82.5113 205.396 82.04 205.396 81.508H207.384C207.394 81.732 207.45 81.9233 207.552 82.082C207.664 82.2313 207.814 82.3433 208 82.418C208.187 82.4833 208.402 82.516 208.644 82.516C208.84 82.516 209.018 82.488 209.176 82.432C209.335 82.376 209.466 82.292 209.568 82.18C209.671 82.0587 209.722 81.9187 209.722 81.76C209.722 81.5267 209.601 81.354 209.358 81.242C209.116 81.13 208.752 81.032 208.266 80.948C207.958 80.9013 207.702 80.8547 207.496 80.808C207.3 80.7613 207.062 80.682 206.782 80.57C206.512 80.4487 206.292 80.3133 206.124 80.164C205.966 80.0147 205.826 79.8093 205.704 79.548C205.583 79.2867 205.522 78.9833 205.522 78.638C205.522 77.9287 205.802 77.35 206.362 76.902C206.922 76.454 207.655 76.23 208.56 76.23C209.475 76.23 210.208 76.4633 210.758 76.93C211.318 77.3873 211.598 77.994 211.598 78.75H209.652C209.652 78.1527 209.274 77.854 208.518 77.854C208.201 77.854 207.954 77.9193 207.776 78.05C207.599 78.1807 207.51 78.358 207.51 78.582C207.51 78.6753 207.534 78.764 207.58 78.848C207.636 78.9227 207.697 78.9833 207.762 79.03C207.837 79.0767 207.949 79.1233 208.098 79.17C208.248 79.2073 208.374 79.2353 208.476 79.254C208.579 79.2727 208.733 79.3007 208.938 79.338C209.116 79.3753 209.242 79.4033 209.316 79.422C209.391 79.4313 209.517 79.4547 209.694 79.492C209.872 79.5293 210.002 79.5667 210.086 79.604C210.18 79.632 210.301 79.674 210.45 79.73C210.609 79.786 210.726 79.8467 210.8 79.912C210.884 79.968 210.982 80.038 211.094 80.122C211.216 80.206 211.309 80.2993 211.374 80.402C211.44 80.5047 211.505 80.6167 211.57 80.738C211.636 80.8593 211.678 80.9993 211.696 81.158C211.724 81.3167 211.738 81.4847 211.738 81.662C211.738 82.4367 211.449 83.0573 210.87 83.524C210.292 83.9813 209.526 84.21 208.574 84.21ZM220.578 80.192C220.578 80.388 220.564 80.5887 220.536 80.794H214.824C214.908 81.3073 215.108 81.704 215.426 81.984C215.752 82.2547 216.168 82.39 216.672 82.39C217.017 82.39 217.33 82.3153 217.61 82.166C217.89 82.0073 218.109 81.7927 218.268 81.522H220.424C220.144 82.3433 219.668 82.9967 218.996 83.482C218.324 83.9673 217.549 84.21 216.672 84.21C215.552 84.21 214.618 83.8273 213.872 83.062C213.125 82.2967 212.752 81.3493 212.752 80.22C212.752 79.772 212.812 79.3427 212.934 78.932C213.064 78.5213 213.246 78.1527 213.48 77.826C213.722 77.4993 214.002 77.2193 214.32 76.986C214.637 76.7433 214.996 76.5567 215.398 76.426C215.799 76.2953 216.224 76.23 216.672 76.23C217.428 76.23 218.104 76.4073 218.702 76.762C219.308 77.1167 219.77 77.5973 220.088 78.204C220.414 78.8107 220.578 79.4733 220.578 80.192ZM216.672 77.966C216.214 77.966 215.827 78.092 215.51 78.344C215.202 78.596 214.992 78.946 214.88 79.394H218.534C218.44 79.086 218.305 78.8293 218.128 78.624C217.95 78.4093 217.736 78.246 217.484 78.134C217.241 78.022 216.97 77.966 216.672 77.966ZM226.345 76.258C227.203 76.258 227.88 76.5473 228.375 77.126C228.879 77.6953 229.131 78.4607 229.131 79.422V84H227.087V79.744C227.087 78.6147 226.648 78.05 225.771 78.05C225.425 78.05 225.122 78.1293 224.861 78.288C224.609 78.4467 224.413 78.6753 224.273 78.974C224.142 79.2727 224.077 79.6227 224.077 80.024V84H222.033V76.44H223.433L223.839 77.378C223.979 77.2007 224.137 77.0467 224.315 76.916C224.501 76.776 224.702 76.6593 224.917 76.566C225.131 76.4633 225.355 76.3887 225.589 76.342C225.831 76.286 226.083 76.258 226.345 76.258Z" fill="white"/>
<path d="M275.885 452.21C274.392 452.21 273.146 451.725 272.147 450.754C271.158 449.774 270.663 448.556 270.663 447.1C270.663 445.644 271.158 444.431 272.147 443.46C273.146 442.48 274.392 441.99 275.885 441.99C276.865 441.99 277.752 442.214 278.545 442.662C279.348 443.101 279.973 443.712 280.421 444.496C280.869 445.271 281.093 446.139 281.093 447.1C281.093 448.565 280.599 449.783 279.609 450.754C278.62 451.725 277.379 452.21 275.885 452.21ZM275.885 450.208C276.464 450.208 276.987 450.077 277.453 449.816C277.92 449.545 278.284 449.172 278.545 448.696C278.816 448.22 278.951 447.688 278.951 447.1C278.951 446.213 278.657 445.476 278.069 444.888C277.491 444.291 276.763 443.992 275.885 443.992C275.017 443.992 274.285 444.291 273.687 444.888C273.099 445.476 272.805 446.213 272.805 447.1C272.805 447.987 273.099 448.729 273.687 449.326C274.285 449.914 275.017 450.208 275.885 450.208ZM286.684 444.23C287.823 444.23 288.766 444.608 289.512 445.364C290.268 446.12 290.646 447.072 290.646 448.22C290.646 449.368 290.268 450.325 289.512 451.09C288.756 451.846 287.814 452.224 286.684 452.224C285.91 452.224 285.214 452.014 284.598 451.594V454.73H282.554V444.44H283.912L284.262 445.126C284.934 444.529 285.742 444.23 286.684 444.23ZM285.032 449.704C285.424 450.096 285.914 450.292 286.502 450.292C287.1 450.292 287.594 450.096 287.986 449.704C288.378 449.312 288.574 448.817 288.574 448.22C288.574 447.828 288.486 447.473 288.308 447.156C288.131 446.839 287.884 446.591 287.566 446.414C287.258 446.237 286.908 446.148 286.516 446.148C286.124 446.148 285.77 446.237 285.452 446.414C285.135 446.591 284.888 446.839 284.71 447.156C284.542 447.473 284.458 447.828 284.458 448.22C284.458 448.817 284.65 449.312 285.032 449.704ZM295.684 450.18H296.608V452H295.166C294.615 452 294.134 451.893 293.724 451.678C293.322 451.463 293.014 451.155 292.8 450.754C292.585 450.343 292.478 449.858 292.478 449.298V446.078H291.106V445.644L294.102 442.466H294.48V444.44H296.566V446.078H294.522V449.032C294.522 449.396 294.62 449.681 294.816 449.886C295.021 450.082 295.31 450.18 295.684 450.18ZM298.003 443.432V441.528H300.047V443.432H298.003ZM298.003 452V444.44H300.047V452H298.003ZM310.605 444.258C311.389 444.258 312.029 444.538 312.523 445.098C313.027 445.658 313.279 446.377 313.279 447.254V452H311.235V447.59C311.235 446.563 310.853 446.05 310.087 446.05C309.789 446.05 309.527 446.125 309.303 446.274C309.089 446.414 308.925 446.624 308.813 446.904C308.701 447.184 308.645 447.52 308.645 447.912V452H306.643V447.59C306.643 446.563 306.275 446.05 305.537 446.05C305.071 446.05 304.707 446.213 304.445 446.54C304.184 446.867 304.053 447.324 304.053 447.912V452H302.009V444.44H303.437L303.815 445.378C304.095 445.033 304.431 444.762 304.823 444.566C305.225 444.361 305.645 444.258 306.083 444.258C306.559 444.258 306.989 444.365 307.371 444.58C307.754 444.795 308.053 445.093 308.267 445.476C308.361 445.345 308.459 445.229 308.561 445.126C308.664 445.014 308.776 444.916 308.897 444.832C309.019 444.739 309.145 444.659 309.275 444.594C309.406 444.519 309.541 444.459 309.681 444.412C309.831 444.365 309.98 444.328 310.129 444.3C310.288 444.272 310.447 444.258 310.605 444.258ZM315.148 443.432V441.528H317.192V443.432H315.148ZM315.148 452V444.44H317.192V452H315.148ZM321.842 452.21C321.216 452.21 320.661 452.098 320.176 451.874C319.7 451.65 319.326 451.333 319.056 450.922C318.794 450.511 318.664 450.04 318.664 449.508H320.652C320.661 449.732 320.717 449.923 320.82 450.082C320.932 450.231 321.081 450.343 321.268 450.418C321.454 450.483 321.669 450.516 321.912 450.516C322.108 450.516 322.285 450.488 322.444 450.432C322.602 450.376 322.733 450.292 322.836 450.18C322.938 450.059 322.99 449.919 322.99 449.76C322.99 449.527 322.868 449.354 322.626 449.242C322.383 449.13 322.019 449.032 321.534 448.948C321.226 448.901 320.969 448.855 320.764 448.808C320.568 448.761 320.33 448.682 320.05 448.57C319.779 448.449 319.56 448.313 319.392 448.164C319.233 448.015 319.093 447.809 318.972 447.548C318.85 447.287 318.79 446.983 318.79 446.638C318.79 445.929 319.07 445.35 319.63 444.902C320.19 444.454 320.922 444.23 321.828 444.23C322.742 444.23 323.475 444.463 324.026 444.93C324.586 445.387 324.866 445.994 324.866 446.75H322.92C322.92 446.153 322.542 445.854 321.786 445.854C321.468 445.854 321.221 445.919 321.044 446.05C320.866 446.181 320.778 446.358 320.778 446.582C320.778 446.675 320.801 446.764 320.848 446.848C320.904 446.923 320.964 446.983 321.03 447.03C321.104 447.077 321.216 447.123 321.366 447.17C321.515 447.207 321.641 447.235 321.744 447.254C321.846 447.273 322 447.301 322.206 447.338C322.383 447.375 322.509 447.403 322.584 447.422C322.658 447.431 322.784 447.455 322.962 447.492C323.139 447.529 323.27 447.567 323.354 447.604C323.447 447.632 323.568 447.674 323.718 447.73C323.876 447.786 323.993 447.847 324.068 447.912C324.152 447.968 324.25 448.038 324.362 448.122C324.483 448.206 324.576 448.299 324.642 448.402C324.707 448.505 324.772 448.617 324.838 448.738C324.903 448.859 324.945 448.999 324.964 449.158C324.992 449.317 325.006 449.485 325.006 449.662C325.006 450.437 324.716 451.057 324.138 451.524C323.559 451.981 322.794 452.21 321.842 452.21ZM335.105 444.258C335.889 444.258 336.529 444.538 337.023 445.098C337.527 445.658 337.779 446.377 337.779 447.254V452H335.735V447.59C335.735 446.563 335.353 446.05 334.587 446.05C334.289 446.05 334.027 446.125 333.803 446.274C333.589 446.414 333.425 446.624 333.313 446.904C333.201 447.184 333.145 447.52 333.145 447.912V452H331.143V447.59C331.143 446.563 330.775 446.05 330.037 446.05C329.571 446.05 329.207 446.213 328.945 446.54C328.684 446.867 328.553 447.324 328.553 447.912V452H326.509V444.44H327.937L328.315 445.378C328.595 445.033 328.931 444.762 329.323 444.566C329.725 444.361 330.145 444.258 330.583 444.258C331.059 444.258 331.489 444.365 331.871 444.58C332.254 444.795 332.553 445.093 332.767 445.476C332.861 445.345 332.959 445.229 333.061 445.126C333.164 445.014 333.276 444.916 333.397 444.832C333.519 444.739 333.645 444.659 333.775 444.594C333.906 444.519 334.041 444.459 334.181 444.412C334.331 444.365 334.48 444.328 334.629 444.3C334.788 444.272 334.947 444.258 335.105 444.258ZM345.668 451.286C345.024 451.902 344.165 452.21 343.092 452.21C342.028 452.21 341.169 451.897 340.516 451.272C339.872 450.647 339.55 449.825 339.55 448.808V444.44H341.594V448.57C341.594 449.111 341.725 449.536 341.986 449.844C342.257 450.143 342.625 450.292 343.092 450.292C343.568 450.292 343.937 450.143 344.198 449.844C344.469 449.536 344.604 449.111 344.604 448.57V444.44H346.648V448.808C346.648 449.835 346.321 450.661 345.668 451.286ZM351.195 452.21C350.57 452.21 350.015 452.098 349.529 451.874C349.053 451.65 348.68 451.333 348.409 450.922C348.148 450.511 348.017 450.04 348.017 449.508H350.005C350.015 449.732 350.071 449.923 350.173 450.082C350.285 450.231 350.435 450.343 350.621 450.418C350.808 450.483 351.023 450.516 351.265 450.516C351.461 450.516 351.639 450.488 351.797 450.432C351.956 450.376 352.087 450.292 352.189 450.18C352.292 450.059 352.343 449.919 352.343 449.76C352.343 449.527 352.222 449.354 351.979 449.242C351.737 449.13 351.373 449.032 350.887 448.948C350.579 448.901 350.323 448.855 350.117 448.808C349.921 448.761 349.683 448.682 349.403 448.57C349.133 448.449 348.913 448.313 348.745 448.164C348.587 448.015 348.447 447.809 348.325 447.548C348.204 447.287 348.143 446.983 348.143 446.638C348.143 445.929 348.423 445.35 348.983 444.902C349.543 444.454 350.276 444.23 351.181 444.23C352.096 444.23 352.829 444.463 353.379 444.93C353.939 445.387 354.219 445.994 354.219 446.75H352.273C352.273 446.153 351.895 445.854 351.139 445.854C350.822 445.854 350.575 445.919 350.397 446.05C350.22 446.181 350.131 446.358 350.131 446.582C350.131 446.675 350.155 446.764 350.201 446.848C350.257 446.923 350.318 446.983 350.383 447.03C350.458 447.077 350.57 447.123 350.719 447.17C350.869 447.207 350.995 447.235 351.097 447.254C351.2 447.273 351.354 447.301 351.559 447.338C351.737 447.375 351.863 447.403 351.937 447.422C352.012 447.431 352.138 447.455 352.315 447.492C352.493 447.529 352.623 447.567 352.707 447.604C352.801 447.632 352.922 447.674 353.071 447.73C353.23 447.786 353.347 447.847 353.421 447.912C353.505 447.968 353.603 448.038 353.715 448.122C353.837 448.206 353.93 448.299 353.995 448.402C354.061 448.505 354.126 448.617 354.191 448.738C354.257 448.859 354.299 448.999 354.317 449.158C354.345 449.317 354.359 449.485 354.359 449.662C354.359 450.437 354.07 451.057 353.491 451.524C352.913 451.981 352.147 452.21 351.195 452.21Z" fill="white"/>
<defs>
<linearGradient id="paint0_linear" x1="317.809" y1="75.038" x2="317.809" y2="217.214" gradientUnits="userSpaceOnUse">
<stop offset="1" stop-color="#EC5131"/>
</linearGradient>
<linearGradient id="paint1_linear" x1="317.809" y1="225.786" x2="317.809" y2="367.962" gradientUnits="userSpaceOnUse">
<stop stop-color="#CA77C4"/>
</linearGradient>
<linearGradient id="paint2_linear" x1="312.31" y1="376.786" x2="312.31" y2="518.962" gradientUnits="userSpaceOnUse">
<stop offset="1" stop-color="#FFA528"/>
</linearGradient>
<linearGradient id="paint3_linear" x1="56.6525" y1="374.615" x2="56.6525" y2="516.791" gradientUnits="userSpaceOnUse">
<stop stop-color="#5E4ECE"/>
</linearGradient>
<linearGradient id="paint4_linear" x1="186.09" y1="299.444" x2="186.09" y2="441.62" gradientUnits="userSpaceOnUse">
<stop offset="1" stop-color="#009FC4"/>
</linearGradient>
<linearGradient id="paint5_linear" x1="186.09" y1="450.444" x2="186.09" y2="592.62" gradientUnits="userSpaceOnUse">
<stop stop-color="#99D5A1"/>
</linearGradient>
<linearGradient id="paint6_linear" x1="188.62" y1="149.444" x2="188.62" y2="291.62" gradientUnits="userSpaceOnUse">
<stop offset="1" stop-color="#4051A0"/>
</linearGradient>
<linearGradient id="paint7_linear" x1="58.4652" y1="224.612" x2="58.4652" y2="367.789" gradientUnits="userSpaceOnUse">
<stop offset="1" stop-color="#A62B8F"/>
</linearGradient>
<linearGradient id="paint8_linear" x1="56.8087" y1="75.7861" x2="56.8087" y2="217.962" gradientUnits="userSpaceOnUse">
<stop offset="1" stop-color="#FFA528"/>
</linearGradient>
<linearGradient id="paint9_linear" x1="188.31" y1="-0.213891" x2="188.31" y2="141.962" gradientUnits="userSpaceOnUse">
<stop stop-color="#76CFE7"/>
</linearGradient>
</defs>
</svg>
