<svg width="88" height="88" viewBox="0 0 88 88" fill="none" xmlns="http://www.w3.org/2000/svg">
<path d="M88 44C88 68.3031 68.3031 88 44 88C19.6969 88 0 68.3031 0 44C0 19.6969 19.6969 0 44 0C68.3031 0 88 19.6969 88 44Z" fill="#FE6A16"/>
<path d="M58.3691 85.5937C75.6082 79.6468 88.0004 63.2672 88.0004 44C88.0004 43.639 88.0004 43.2781 87.9832 42.9171L62.8379 17.7546L23.0488 45.0312L35.3895 57.3718L32.1926 59.4L58.3691 85.5937Z" fill="#F24500"/>
<path d="M50.6168 64.2125V59.8125H37.3824V64.2125C37.3824 66.2063 36.1277 67.9938 34.2543 68.6813L13.9043 76.0891C21.7762 83.4797 32.3637 88 43.9996 88C55.6356 88 66.2231 83.4797 74.0949 76.0891L53.7449 68.6813C51.8715 67.9938 50.6168 66.2234 50.6168 64.2125Z" fill="#FFBEAA"/>
<path d="M74.0957 76.0891L53.7457 68.6813C51.8723 67.9938 50.6176 66.2063 50.6176 64.2125V59.8125H43.9316V88C43.9488 88 43.9832 88 44.0004 88C55.6363 88 66.2238 83.4797 74.0957 76.0891Z" fill="#FAA68E"/>
<path d="M66.4123 41.2328C66.4123 44.3781 63.8685 46.9218 60.7232 46.9218C57.5779 46.9218 55.0342 44.3781 55.0342 41.2328C55.0342 38.0875 57.5779 35.5437 60.7232 35.5437C63.8685 35.5437 66.4123 38.0875 66.4123 41.2328Z" fill="#FFBEAA"/>
<path d="M32.9484 41.2328C32.9484 44.3781 30.4047 46.9218 27.2594 46.9218C24.1141 46.9218 21.5703 44.3781 21.5703 41.2328C21.5703 38.0875 24.1141 35.5437 27.2594 35.5437C30.4047 35.5437 32.9484 38.0875 32.9484 41.2328Z" fill="#FFBEAA"/>
<path d="M51.5623 62.5109L47.7639 64.4531C45.392 65.6734 42.5904 65.6734 40.2186 64.4531L36.4373 62.5109C30.817 59.6234 27.2764 53.8312 27.2764 47.5062V32.7078C27.2764 23.4609 34.7701 15.9844 43.9998 15.9844C53.2295 15.9844 60.7233 23.4781 60.7233 32.7078V47.5062C60.7233 53.8312 57.1998 59.6234 51.5623 62.5109Z" fill="#FFCDBE"/>
<path d="M44.0004 15.9844C43.9832 15.9844 43.9488 15.9844 43.9316 15.9844V65.3641C45.2551 65.3812 46.5785 65.0719 47.7816 64.4531L51.5801 62.5109C57.2004 59.6234 60.741 53.8312 60.741 47.5062V32.7078C60.7238 23.4781 53.2473 15.9844 44.0004 15.9844Z" fill="#FFBEAA"/>
<path d="M22.3438 14.0422V28.7375C22.3438 31.6079 23.5641 34.1688 25.5234 35.9735V44.2579C25.5234 46.1485 27.0703 47.6954 28.9609 47.6954V38.0188C29.975 38.3626 31.0406 38.5516 32.175 38.5516H40.9922C46.4234 38.5516 50.8234 34.1516 50.8234 28.7204V15.761C50.8234 14.8157 50.05 14.0422 49.1047 14.0422H22.3438Z" fill="#414952"/>
<path d="M54.0207 14.0422H52.2848C51.5801 14.0422 50.9785 14.4204 50.6348 14.9875C50.3426 14.4375 49.7754 14.0422 49.1051 14.0422H43.9316V38.1219C47.0426 37.1422 49.5004 34.6672 50.4285 31.5219C50.8926 35.4922 54.2613 38.5688 58.352 38.5688C58.5926 38.5688 58.816 38.5516 59.0566 38.5344V47.7125C60.9473 47.7125 62.4941 46.1657 62.4941 44.275V37.4172C64.7973 36.025 66.3441 33.4813 66.3441 30.5938V26.3657C66.327 19.5422 60.8098 14.0422 54.0207 14.0422Z" fill="#333940"/>
<path d="M57.234 69.2656L43.948 75.6766L30.7652 69.2656L13.3887 75.6078C21.3121 83.2734 32.1059 88 43.9996 88C55.7387 88 66.4121 83.3938 74.3012 75.9L57.234 69.2656Z" fill="#C8FFFA"/>
<path d="M43.9998 88C55.7389 88 66.4123 83.3938 74.3014 75.9L57.2342 69.2656L43.9482 75.6766L43.9998 88Z" fill="#9BF5F0"/>
<path d="M46.7668 83.05H41.2324L39.5137 75.7969H48.4856L46.7668 83.05Z" fill="#4A7AFF"/>
<path d="M40.5801 87.8624C41.7145 87.9483 42.8488 87.9999 44.0004 87.9999C45.1519 87.9999 46.2863 87.9483 47.4207 87.8624L46.7676 83.0327H41.2332L40.5801 87.8624Z" fill="#2864F0"/>
<path d="M53.333 67.3235L44.0518 75.6938L48.6924 82.1047L57.2346 69.2657L53.333 67.3235Z" fill="#E9EDF5"/>
<path d="M34.6672 67.3235L43.9484 75.6938L39.3078 82.1047L30.7656 69.2657L34.6672 67.3235Z" fill="white"/>
<path d="M74.4559 75.7625L57.234 69.2656L51.2012 87.4156C60.1559 85.9375 68.1824 81.7609 74.4559 75.7625Z" fill="#27488F"/>
<path d="M51.2012 87.4156C53.4527 87.0375 55.6527 86.5047 57.7668 85.8L57.2168 83.05L61.5996 81.7266V70.9156L57.234 69.2656L51.2012 87.4156Z" fill="#12254C"/>
<path d="M13.3887 75.6078L30.7652 69.2656L36.7981 87.4156C27.8434 85.9375 19.748 81.7438 13.3887 75.6078Z" fill="#27488F"/>
<path d="M36.7988 87.4156C34.5473 87.0375 32.3473 86.5047 30.2332 85.8L30.7832 83.05L26.4004 81.7266V70.9156L30.766 69.2656L36.7988 87.4156Z" fill="#1B3B6B"/>
</svg>
