<svg width="78" height="158" viewBox="0 0 78 228" fill="none" xmlns="http://www.w3.org/2000/svg">
<path d="M32.6212 219.317C32.6212 219.317 31.0432 221.527 23.6264 223.422C22.0484 223.895 20.3125 224.053 20.3125 226.737C23.7842 226.737 27.5715 226.737 27.5715 226.737L34.9882 225.474V226.737H38.9333C38.9333 226.737 40.038 220.106 37.6709 219.317C35.6195 219.317 32.6212 219.317 32.6212 219.317Z" fill="#212B53"/>
<path d="M32.1479 214.581L32.4636 219.317C33.8838 220.264 35.9352 220.422 37.3554 219.475L37.671 219.317V214.581H32.1479Z" fill="#F8B68F"/>
<path d="M69.8633 220.264C69.8633 220.264 68.2852 222.474 60.8685 224.368C59.2905 224.842 57.5547 225 57.5547 227.684C61.0264 227.684 64.8136 227.684 64.8136 227.684L72.2303 226.421V227.684H76.1754C76.1754 227.684 77.2801 221.053 74.913 220.264C73.0194 220.264 69.8633 220.264 69.8633 220.264Z" fill="#212B53"/>
<path d="M69.5479 215.527L69.8635 220.264C71.2837 221.211 73.3352 221.369 74.7554 220.422L75.071 220.264V215.527H69.5479Z" fill="#F8B68F"/>
<path d="M29.3076 98.3828L31.0434 217.106H39.7226C39.7226 217.106 52.8203 121.275 50.1376 98.3828C47.2972 75.4906 29.3076 98.3828 29.3076 98.3828Z" fill="#212B53"/>
<path d="M38.3027 98.3828C38.3027 98.3828 41.301 134.852 48.2443 155.061C55.1877 175.269 67.6541 217.106 67.6541 217.106H76.6489C76.6489 217.106 61.6576 129.642 65.1293 98.3828H38.3027Z" fill="#043C5E"/>
<path d="M30.5702 37.916C30.5702 37.916 19.8395 62.7027 17.1569 62.7027C14.9476 62.7027 17.9459 42.3366 17.9459 42.3366H8.9511C8.9511 42.3366 -2.25292 77.0695 6.58405 83.5424C15.5788 89.8575 35.1465 65.5445 35.1465 65.5445L30.5702 37.916Z" fill="#15ACB4"/>
<path d="M62.2881 101.541L59.1321 109.592C57.5541 112.75 51.8732 112.75 48.086 111.803C47.4548 111.645 47.297 111.013 47.7704 110.539C49.8218 108.329 55.187 102.33 57.0806 101.067L62.2881 101.541Z" fill="#F8B68F"/>
<path d="M39.4073 32.7061C35.9356 32.7061 32.6217 34.4427 30.8859 37.4424C30.2547 38.5475 29.7812 39.6526 29.7812 40.9157C29.7812 45.1783 29.7812 98.3829 29.7812 98.3829H62.4464V44.7047C62.4464 44.7047 61.8152 32.7061 50.1378 32.7061C45.0881 32.7061 41.6165 32.7061 39.4073 32.7061Z" fill="#15ACB4"/>
<path d="M30.2544 98.3826V46.7568L29.3076 46.9147V98.3826H30.2544Z" fill="url(#paint0_linear)"/>
<path d="M51.4 21.8125L47.9284 34.9163C47.9284 34.9163 44.9302 37.2844 40.9851 36.3371C37.04 35.232 37.8291 32.3902 37.8291 32.3902L40.0382 24.0228H46.1926L51.4 21.8125Z" fill="#F4A086"/>
<path d="M38.7762 26.3912C37.5138 26.0754 36.5669 25.6018 36.0935 24.8124C34.0421 18.3395 42.09 4.44629 42.09 4.44629L54.0831 10.1299L51.8738 20.234C51.2426 22.9179 49.349 25.2861 46.8241 26.3912C44.2993 27.0227 41.4589 27.1806 38.7762 26.3912Z" fill="#F8B68F"/>
<path d="M55.8187 5.39336C53.6094 3.34096 52.347 3.81459 48.2441 3.34096C42.2476 2.70945 39.2493 0.341309 39.2493 0.341309C39.2493 0.341309 35.1464 4.4461 39.4071 6.4985C43.6678 8.39302 48.0864 8.86665 48.0864 8.86665L45.088 21.0232C46.0349 21.6547 46.8239 22.2862 47.4551 23.0756L49.3488 16.129C49.5066 15.3396 50.1378 14.7081 50.9268 14.5502C51.558 14.3924 52.5049 14.5502 52.8205 15.9711C52.1892 18.4971 50.4533 25.2859 50.2955 26.391C50.2955 26.391 50.2956 26.5489 50.4534 26.5489L51.0846 26.7067L56.4499 14.0766C56.2921 14.0766 58.6591 8.07727 55.8187 5.39336Z" fill="#212B53"/>
<path d="M10.8447 42.4943L11.1604 40.7576C11.7916 36.9686 15.421 32.2323 19.2083 30.9692H22.9956L21.891 39.021L16.5257 42.3364H10.8447V42.4943Z" fill="#F8B68F"/>
<path d="M52.0319 14.3925C51.0851 14.0767 49.8227 14.7082 49.3493 15.9713C48.8759 17.0764 49.1915 18.3394 50.1383 18.6552C51.0851 18.9709 52.3475 18.3394 52.8209 17.0764C53.4521 15.9712 52.9787 14.7082 52.0319 14.3925Z" fill="#F8B68F"/>
<path d="M20.1551 38.2318L12.7383 42.4945C12.7383 42.4945 17.3146 42.4945 17.4724 42.4945L25.2048 36.0215C25.2048 36.0215 24.5736 34.9164 22.8378 35.8636C21.2597 36.8109 20.1551 38.2318 20.1551 38.2318Z" fill="#F8B68F"/>
<path d="M58.9744 36.3369C58.9744 36.3369 77.4373 56.8609 77.4373 69.1753C77.4373 81.4897 62.446 103.119 62.446 103.119L55.0293 100.909C55.0293 100.909 61.657 74.0695 61.657 66.965C61.657 59.8606 47.9282 49.4407 47.9282 49.4407" fill="#15ACB4"/>
<path d="M61.1839 66.9653C61.1839 73.1225 55.8185 95.541 54.5561 100.751C54.8717 100.909 55.0295 100.909 55.6608 101.067C57.2388 94.5937 62.2886 72.9646 62.2886 66.9653C62.2886 59.7029 48.8751 49.4409 48.4017 48.9673L47.7705 49.7567C47.7705 49.9145 61.1839 60.1766 61.1839 66.9653Z" fill="url(#paint1_linear)"/>
<path d="M25.047 26.0755C25.047 26.0755 25.5204 34.1272 19.8394 39.8108C19.5238 40.1265 18.8926 40.4423 18.4191 40.4423C17.3145 40.4423 16.5255 39.9687 15.8943 39.6529C15.1053 39.3372 14.6318 38.7056 14.474 38.3899C14.3162 38.0741 14.474 37.6005 14.7896 37.2848C15.8943 35.8639 19.6816 31.2854 18.7348 26.707C21.5753 24.8125 25.047 26.0755 25.047 26.0755Z" fill="#00666A"/>
<path d="M15.263 39.3371C14.7896 39.0214 14.6318 38.8635 14.474 38.3899C14.3162 38.0741 14.474 37.6005 14.7896 37.2847C15.8943 35.8638 19.6815 31.2854 18.7347 26.707C19.6815 26.0755 20.7862 25.7598 21.733 25.7598C21.4174 30.6539 19.8393 33.8115 15.263 39.3371Z" fill="#01898C"/>
<path d="M19.84 31.9179C19.5244 33.023 18.8931 33.8124 18.4197 33.6545C17.9463 33.4967 17.9464 32.5494 18.262 31.4443C18.5776 30.3391 19.2088 29.5497 19.6822 29.7076C20.1556 29.8655 20.1556 30.8128 19.84 31.9179Z" fill="#00666A"/>
<path d="M19.8396 29.7067L19.3662 29.5488V29.8646L19.6818 30.0225L19.8396 29.7067Z" fill="#F59C42"/>
<path d="M18.4193 33.6535L17.9458 33.4956H18.5771L18.4193 33.6535Z" fill="#E8375E"/>
<path d="M19.524 31.9179C19.2084 33.023 18.5773 33.8124 18.1039 33.6545C17.6305 33.4967 17.6304 32.5494 17.946 31.4443C18.2616 30.3391 18.8929 29.5497 19.3663 29.7076C19.8397 29.7076 19.8397 30.8128 19.524 31.9179Z" fill="#15ACB4"/>
<path d="M27.7295 19.6025L28.5185 19.7604C30.2543 19.9183 31.3589 21.4971 31.2011 23.0758L30.8855 25.2861C30.7277 26.8648 29.1497 27.97 27.5717 27.8121L26.7827 27.6542L27.7295 19.6025Z" fill="#00666A"/>
<path d="M1.06095 18.4974C0.271934 24.6546 1.06101 30.0224 2.79685 30.1802C4.5327 30.3381 6.58409 25.6018 7.37311 19.2867C8.16213 13.1295 7.37315 7.76169 5.63731 7.60381C3.90146 7.44594 1.84997 12.3401 1.06095 18.4974Z" fill="#212B53"/>
<path d="M8.00424 15.1816L5.32154 16.6025L4.84814 20.2337L7.21522 22.9176L8.6355 18.3392L8.00424 15.1816Z" fill="white"/>
<path d="M7.37261 19.4446C8.00382 14.2347 7.53045 9.65624 6.42583 8.23535C16.0518 17.2343 28.3605 19.7603 28.3605 19.7603L27.4136 27.6542C27.4136 27.6542 10.6865 24.6545 3.74316 29.8645C5.16339 28.9172 6.7414 24.6545 7.37261 19.4446Z" fill="#FFD247"/>
<path d="M4.69038 18.3394C4.53256 19.2867 4.69034 20.2339 4.84815 20.2339C5.00596 20.2339 5.32163 19.4446 5.47944 18.4973C5.63726 17.5501 5.47939 16.6028 5.32157 16.6028C5.16376 16.4449 4.84819 17.3922 4.69038 18.3394Z" fill="#FFD247"/>
<path d="M14.9478 36.6531C15.2634 36.811 16.0523 37.2846 19.0505 37.2846C21.2598 37.2846 22.2066 34.6007 22.5222 33.1798C22.68 32.7062 22.8378 31.9168 22.2066 31.6011L18.7349 31.1274L14.9478 36.6531Z" fill="#F8B68F"/>
<defs>
<linearGradient id="paint0_linear" x1="30.3155" y1="72.6172" x2="29.2341" y2="72.6172" gradientUnits="userSpaceOnUse">
<stop stop-color="#E0F0EB"/>
<stop offset="1" stop-color="#C0E4EF"/>
</linearGradient>
<linearGradient id="paint1_linear" x1="62.1936" y1="74.9756" x2="47.6267" y2="74.9756" gradientUnits="userSpaceOnUse">
<stop stop-color="#E0F0EB"/>
<stop offset="1" stop-color="#C0E4EF"/>
</linearGradient>
</defs>
</svg>
