<svg width="300" height="300" viewBox="0 0 300 300" fill="none" xmlns="http://www.w3.org/2000/svg">
<path d="M150 0L0 150L150 300L300 150L150 0Z" fill="url(#paint0_linear)"/>
<path d="M45 150L150 45L255 150L150 255L45 150Z" fill="white"/>
<g clip-path="url(#clip0)">
<path d="M183.459 106.47V187H110.831C109.264 187 108 185.737 108 184.171V106.47C108 104.904 109.264 103.641 110.831 103.641H180.602C182.195 103.641 183.459 104.904 183.459 106.47Z" fill="#5F55AF"/>
<path d="M180.602 103.641H145.717V187H183.434V106.47C183.459 104.904 182.195 103.641 180.602 103.641Z" fill="#453D83"/>
<path d="M163.918 97.5781H154.54C153.908 93.2839 150.191 90 145.717 90C141.243 90 137.552 93.2839 136.895 97.5781H127.516C125.949 97.5781 124.685 98.8411 124.685 100.407V112.532C124.685 114.098 125.949 115.361 127.516 115.361H163.918C165.486 115.361 166.75 114.098 166.75 112.532V100.407C166.775 98.8411 165.511 97.5781 163.918 97.5781Z" fill="#EDF5FF"/>
<path d="M135.099 126.577H122.965C121.398 126.577 120.134 127.84 120.134 129.406V141.531C120.134 143.097 121.398 144.36 122.965 144.36H135.099C136.667 144.36 137.956 143.097 137.956 141.531V129.406C137.956 127.84 136.692 126.577 135.099 126.577Z" fill="#97DE3D"/>
<path d="M168.291 138.323H150.292C148.725 138.323 147.461 137.06 147.461 135.469C147.461 133.877 148.725 132.64 150.292 132.64H168.291C169.858 132.64 171.148 133.903 171.148 135.469C171.148 137.035 169.858 138.323 168.291 138.323Z" fill="#D5E8FE"/>
<path d="M135.099 153.858H122.965C121.398 153.858 120.134 155.121 120.134 156.688V168.813C120.134 170.379 121.398 171.642 122.965 171.642H135.099C136.667 171.642 137.956 170.379 137.956 168.813V156.688C137.956 155.121 136.692 153.858 135.099 153.858Z" fill="#FF7B4A"/>
<path d="M164.626 165.579H150.292C148.725 165.579 147.461 164.316 147.461 162.75C147.461 161.184 148.725 159.921 150.292 159.921H164.626C166.193 159.921 167.457 161.184 167.457 162.75C167.457 164.316 166.193 165.579 164.626 165.579Z" fill="#D5E8FE"/>
<path d="M203 167.499C203 178.285 194.253 187.025 183.484 187.025C172.715 187.025 163.943 178.285 163.943 167.499C163.943 156.713 172.69 147.998 183.484 147.998C194.279 147.998 203 156.713 203 167.499Z" fill="#FED843"/>
<path d="M203 167.499C203 156.738 194.228 147.998 183.484 147.998V187C194.228 187 203 178.235 203 167.499Z" fill="#FF9100"/>
<path d="M181.184 176.189C180.451 176.189 179.718 175.886 179.187 175.381L174.637 170.935C173.525 169.823 173.499 168.03 174.586 166.918C175.699 165.807 177.493 165.782 178.606 166.868L181.108 169.318L188.212 161.917C189.299 160.78 191.094 160.755 192.231 161.841C193.369 162.927 193.394 164.721 192.307 165.857L183.207 175.33C182.676 175.886 181.968 176.189 181.21 176.214C181.21 176.189 181.21 176.189 181.184 176.189Z" fill="#97DE3D"/>
<path d="M163.918 115.387C165.485 115.387 166.749 114.124 166.749 112.557V100.432C166.749 98.8663 165.485 97.6033 163.918 97.6033H154.539C153.907 93.309 150.191 90.0251 145.717 90.0251V115.412H163.918V115.387Z" fill="#D5E8FE"/>
<path d="M188.237 161.917L183.459 166.893V175.103L192.332 165.857C193.419 164.721 193.394 162.927 192.256 161.841C191.119 160.755 189.324 160.78 188.237 161.917Z" fill="#59C36A"/>
</g>
<defs>
<linearGradient id="paint0_linear" x1="74.9964" y1="74.9964" x2="225.004" y2="225.004" gradientUnits="userSpaceOnUse">
<stop offset="1.834e-05" stop-color="#E8277E"/>
<stop offset="1" stop-color="#CC0044"/>
</linearGradient>
<clipPath id="clip0">
<rect width="95" height="97" fill="white" transform="translate(108 90)"/>
</clipPath>
</defs>
</svg>
