<svg width="300" height="301" viewBox="0 0 300 301" fill="none" xmlns="http://www.w3.org/2000/svg">
<path d="M150 0L0 150.5L150 301L300 150.5L150 0Z" fill="url(#paint0_linear)"/>
<path d="M44 151L149 46L254 151L149 256L44 151Z" fill="white"/>
<path d="M168.177 111C168.177 111.151 168.177 111.302 168.177 111.454C168.177 119.62 168.177 127.787 168.177 135.954C168.177 136.505 168.231 136.494 167.658 136.494C164.644 136.494 161.641 136.494 158.627 136.494C158.055 136.494 158.109 136.505 158.109 135.986C158.109 131.147 158.109 126.307 158.109 121.468C158.109 120.938 158.141 120.96 157.59 120.96C140.284 120.96 122.979 120.96 105.684 120.96C105.1 120.96 105.133 120.938 105.133 121.511C105.133 138.914 105.133 156.317 105.133 173.72C105.133 174.282 105.111 174.249 105.673 174.249C122.979 174.249 140.284 174.249 157.579 174.249C158.141 174.249 158.109 174.282 158.109 173.72C158.109 168.999 158.109 164.278 158.109 159.558C158.109 159.007 158.066 159.039 158.649 159.039C161.674 159.039 164.688 159.039 167.712 159.039C168.188 159.039 168.188 159.039 168.188 159.504C168.188 167.616 168.188 175.74 168.188 183.853C168.188 183.982 168.188 184.112 168.188 184.252H95V111H168.177Z" fill="#609CD2"/>
<path d="M209.14 143.699C208.752 144.056 208.384 144.402 207.985 144.769C207.877 144.672 207.779 144.596 207.693 144.51C206.71 143.613 205.576 142.954 204.29 142.598C202.464 142.101 200.725 142.317 199.072 143.235C197.668 144.024 196.696 145.179 196.221 146.703C195.734 148.28 195.918 149.803 196.717 151.24C197.495 152.633 198.651 153.562 200.131 154.135C201.373 154.61 202.659 154.696 203.944 154.47C205.662 154.167 206.991 153.26 207.812 151.693C208.017 151.294 208.114 150.829 208.255 150.397C208.276 150.343 208.255 150.278 208.255 150.192C208.125 150.181 208.006 150.17 207.887 150.17C206.645 150.17 205.403 150.17 204.16 150.17C204.074 150.17 203.977 150.17 203.89 150.17C203.696 150.159 203.664 150.127 203.653 149.933C203.642 149.598 203.653 149.263 203.653 148.928C203.653 148.777 203.728 148.701 203.88 148.712C203.944 148.712 203.998 148.712 204.063 148.712C205.9 148.712 207.747 148.712 209.583 148.712C210.005 148.712 210.015 148.723 209.994 149.133C209.94 150.483 209.637 151.769 208.903 152.925C207.985 154.362 206.699 155.301 205.057 155.734C203.134 156.241 201.211 156.198 199.353 155.496C196.89 154.578 195.238 152.817 194.579 150.257C194.06 148.247 194.373 146.314 195.464 144.531C196.318 143.148 197.506 142.155 198.997 141.517C200.358 140.945 201.784 140.794 203.242 140.902C203.944 140.956 204.636 141.096 205.306 141.301C206.256 141.593 207.131 142.057 207.931 142.641C208.298 142.911 208.644 143.213 209 143.505C209.043 143.57 209.076 143.624 209.14 143.699Z" fill="black"/>
<path d="M163.715 142.349C163.434 142.36 163.186 142.36 162.926 142.392C160.582 142.706 158.432 144.348 157.795 146.843C157.287 148.82 157.568 150.678 158.886 152.309C159.707 153.325 160.733 154.059 162.008 154.373C163.369 154.718 164.73 154.675 166.048 154.146C167.604 153.519 168.727 152.45 169.386 150.894C169.808 149.911 169.916 148.874 169.829 147.815C169.721 146.573 169.267 145.46 168.446 144.521C167.193 143.105 165.595 142.382 163.715 142.349ZM171.428 148.42C171.514 151.942 169.127 154.643 166.47 155.604C164.914 156.166 163.326 156.22 161.727 155.831C159.491 155.269 157.86 153.919 156.769 151.899C156.304 151.045 156.088 150.116 156.013 149.155C155.948 148.312 156.002 147.481 156.207 146.67C156.661 144.899 157.611 143.44 159.102 142.349C160.085 141.636 161.166 141.172 162.365 140.988C163.801 140.772 165.238 140.859 166.599 141.409C168.943 142.36 170.521 144.034 171.212 146.497C171.385 147.146 171.46 147.815 171.428 148.42Z" fill="black"/>
<path d="M132.302 152.201C132.723 152.514 133.09 152.795 133.49 153.087C133.425 153.195 133.382 153.281 133.317 153.357C132.334 154.513 131.103 155.301 129.644 155.712C127.743 156.241 125.842 156.209 123.973 155.561C122.32 154.977 121.067 153.886 120.17 152.374C119.274 150.851 119.014 149.198 119.198 147.469C119.393 145.579 120.268 144.045 121.693 142.803C122.957 141.701 124.427 141.107 126.09 140.956C127.419 140.826 128.726 140.934 130.001 141.377C131.329 141.841 132.442 142.619 133.328 143.71C133.382 143.775 133.425 143.861 133.49 143.959C133.123 144.283 132.734 144.553 132.356 144.834C132.302 144.79 132.248 144.769 132.215 144.736C130.757 142.965 128.856 142.23 126.598 142.381C124.74 142.5 123.195 143.289 122.018 144.736C121.197 145.763 120.808 146.951 120.764 148.269C120.743 149.133 120.851 149.976 121.175 150.775C121.585 151.823 122.277 152.666 123.173 153.346C124.491 154.351 126.014 154.653 127.635 154.578C129.32 154.491 130.735 153.832 131.913 152.633C132.032 152.503 132.15 152.363 132.302 152.201Z" fill="black"/>
<path d="M188.205 149.49C187.394 147.794 186.606 146.141 185.817 144.488C185.796 144.488 185.763 144.488 185.742 144.488C185.342 145.32 184.942 146.141 184.543 146.973C184.143 147.805 183.732 148.615 183.343 149.49H188.205ZM192.785 155.68C192.623 155.69 192.526 155.701 192.428 155.701C192.169 155.701 191.899 155.701 191.64 155.701C191.121 155.69 191.219 155.777 190.97 155.269C190.311 153.908 189.652 152.547 188.993 151.175C188.918 151.013 188.81 150.981 188.647 150.991C188.097 150.991 187.546 150.991 186.995 150.991C185.644 150.991 184.294 151.002 182.933 150.991C182.695 150.991 182.576 151.067 182.468 151.283C181.82 152.655 181.161 154.016 180.513 155.388C180.394 155.626 180.265 155.755 179.984 155.723C179.671 155.69 179.357 155.723 179.033 155.712C178.936 155.712 178.839 155.701 178.688 155.69C178.731 155.561 178.752 155.453 178.806 155.366C179.876 153.141 180.945 150.916 182.015 148.69C182.738 147.178 183.462 145.666 184.186 144.153C184.575 143.343 184.964 142.544 185.353 141.733C185.396 141.647 185.45 141.561 185.493 141.463C185.547 141.334 185.634 141.28 185.774 141.28C185.925 141.28 186.022 141.345 186.076 141.474C186.293 141.939 186.519 142.392 186.735 142.846C187.729 144.953 188.734 147.048 189.728 149.155C190.333 150.44 190.938 151.726 191.553 153.011C191.921 153.778 192.288 154.556 192.644 155.323C192.688 155.42 192.72 155.518 192.785 155.68Z" fill="black"/>
<path d="M145.772 141.28H154.154C154.208 141.755 154.208 142.198 154.154 142.673C154.003 142.684 153.874 142.695 153.744 142.695C151.724 142.695 149.693 142.695 147.673 142.695C147.262 142.695 147.262 142.695 147.262 143.116C147.262 144.326 147.262 145.536 147.262 146.746C147.262 146.832 147.262 146.908 147.262 146.994C147.262 147.124 147.327 147.178 147.457 147.178C147.543 147.178 147.64 147.178 147.727 147.178C149.704 147.178 151.67 147.178 153.647 147.178H154.068C154.133 147.664 154.111 148.107 154.09 148.593C153.938 148.604 153.82 148.615 153.69 148.615C151.691 148.615 149.682 148.615 147.684 148.615C147.273 148.615 147.273 148.615 147.273 149.014C147.273 150.635 147.273 152.244 147.273 153.865C147.273 153.908 147.273 153.951 147.273 153.984C147.284 154.232 147.295 154.243 147.532 154.254C147.619 154.254 147.694 154.254 147.781 154.254C149.747 154.254 151.702 154.254 153.668 154.254C153.798 154.254 153.928 154.254 154.079 154.254C154.144 154.74 154.122 155.194 154.09 155.626C153.83 155.701 146.15 155.712 145.782 155.636C145.772 155.539 145.75 155.431 145.75 155.323C145.75 150.743 145.75 146.173 145.75 141.593C145.75 141.517 145.772 141.409 145.772 141.28Z" fill="black"/>
<path d="M137.897 154.253H143.428C143.525 154.534 143.536 155.323 143.45 155.668C143.353 155.679 143.245 155.69 143.137 155.69C140.998 155.69 138.869 155.69 136.731 155.69C136.666 155.69 136.612 155.69 136.547 155.69C136.439 155.69 136.374 155.636 136.374 155.517C136.374 155.431 136.363 155.355 136.363 155.269C136.363 150.732 136.363 146.195 136.363 141.668C136.363 141.258 136.363 141.258 136.795 141.258C137.141 141.258 137.487 141.258 137.865 141.258C137.876 141.431 137.897 141.571 137.897 141.701C137.897 143.245 137.897 144.79 137.897 146.335C137.897 148.82 137.897 151.293 137.897 153.778V154.253Z" fill="black"/>
<defs>
<linearGradient id="paint0_linear" x1="74.9964" y1="75.2464" x2="225.503" y2="225.253" gradientUnits="userSpaceOnUse">
<stop offset="1.834e-05" stop-color="#0085FF"/>
<stop offset="1" stop-color="#00D1FF"/>
</linearGradient>
</defs>
</svg>
