<svg width="301" height="301" viewBox="0 0 301 301" fill="none" xmlns="http://www.w3.org/2000/svg">
<path d="M150.5 0L0 150.5L150.5 301L301 150.5L150.5 0Z" fill="url(#paint0_linear)"/>
<path d="M45 150.906L150.5 46L256 150.906L150.5 256L45 150.906Z" fill="white"/>
<path d="M193 109.479V173.397L151 182.449L109 173.397V109.479C109 108.107 110.094 107 111.45 107H190.528C191.906 107 193 108.107 193 109.479Z" fill="#EDF5FF"/>
<path d="M193 109.479V173.397L151 182.449V107H190.55C191.906 107 193 108.107 193 109.479Z" fill="#D5E8FE"/>
<path d="M193 173.397H109V186.499C109 187.871 110.094 189 111.45 189H190.528C191.884 189 192.978 187.894 192.978 186.499V173.397H193Z" fill="#5F55AF"/>
<path d="M151 189H190.55C191.906 189 193 187.894 193 186.499V173.397H151V189Z" fill="#453D83"/>
<path d="M181.1 124.573C180.728 124.042 180.159 123.665 179.503 123.555L158.831 119.859C158.197 119.748 157.519 119.903 156.994 120.279C156.469 120.655 156.097 121.231 155.987 121.895L153.712 134.975C153.472 136.325 154.369 137.631 155.703 137.852L176.375 141.526C176.528 141.548 176.659 141.57 176.812 141.57C177.994 141.57 179.022 140.729 179.241 139.512L181.516 126.432C181.625 125.79 181.472 125.126 181.1 124.573Z" fill="#59C36A"/>
<path d="M168.303 129.265C168.172 129.265 168.019 129.243 167.866 129.22C166.531 128.977 165.634 127.693 165.875 126.343L167.012 119.814C167.253 118.464 168.522 117.557 169.856 117.8C171.191 118.044 172.087 119.327 171.847 120.677L170.709 127.206C170.512 128.424 169.462 129.265 168.303 129.265Z" fill="#453D83"/>
<path d="M178.563 149.494H157.563C156.207 149.494 155.113 150.601 155.113 151.973V165.252C155.113 166.625 156.207 167.731 157.563 167.731H178.563C179.919 167.731 181.013 166.625 181.013 165.252V151.973C181.013 150.601 179.919 149.494 178.563 149.494Z" fill="#FF9100"/>
<path d="M168.063 157.13C166.707 157.13 165.613 156.023 165.613 154.651V148.011C165.613 146.639 166.707 145.532 168.063 145.532C169.419 145.532 170.513 146.639 170.513 148.011V154.651C170.513 156.023 169.419 157.13 168.063 157.13Z" fill="#453D83"/>
<path d="M144.438 121.607H123.438C122.082 121.607 120.988 122.714 120.988 124.086V137.366C120.988 138.738 122.082 139.844 123.438 139.844H144.438C145.794 139.844 146.888 138.738 146.888 137.366V124.086C146.888 122.714 145.794 121.607 144.438 121.607Z" fill="#FED843"/>
<path d="M133.937 129.243C132.581 129.243 131.465 128.136 131.465 126.764V120.124C131.465 118.752 132.559 117.646 133.937 117.646C135.293 117.646 136.387 118.752 136.387 120.124V126.764C136.387 128.136 135.293 129.243 133.937 129.243Z" fill="#5F55AF"/>
<path d="M148.069 161.379L145.794 148.299C145.684 147.657 145.312 147.059 144.787 146.683C144.262 146.307 143.584 146.152 142.95 146.263L122.278 149.959C121.644 150.069 121.075 150.446 120.681 150.977C120.309 151.508 120.156 152.194 120.266 152.836L122.541 165.916C122.759 167.133 123.787 167.974 124.969 167.974C125.122 167.974 125.253 167.952 125.406 167.93L146.078 164.234C147.412 164.013 148.309 162.729 148.069 161.379Z" fill="#97DE3D"/>
<path d="M133.478 155.669C132.297 155.669 131.269 154.828 131.05 153.611L129.913 147.082C129.672 145.732 130.569 144.426 131.903 144.205C133.238 143.961 134.528 144.869 134.747 146.219L135.884 152.748C136.125 154.098 135.228 155.403 133.894 155.625C133.763 155.669 133.631 155.669 133.478 155.669Z" fill="#5F55AF"/>
<defs>
<linearGradient id="paint0_linear" x1="75.2464" y1="75.2937" x2="225.754" y2="225.801" gradientUnits="userSpaceOnUse">
<stop offset="1.834e-05" stop-color="#011F8B"/>
<stop offset="1" stop-color="#3179DE"/>
</linearGradient>
</defs>
</svg>
