<svg width="301" height="301" viewBox="0 0 301 301" fill="none" xmlns="http://www.w3.org/2000/svg">
<path d="M150.5 0L0 150.5L150.5 301L301 150.5L150.5 0Z" fill="url(#paint0_linear)"/>
<path d="M45 150.5L150.5 45L256 150.5L150.5 256L45 150.5Z" fill="white"/>
<path d="M130.859 173.726L122.005 164.789C120.859 163.632 119.01 163.632 117.865 164.789L100.859 181.927C100.026 182.768 99.7657 184.056 100.234 185.16C100.677 186.264 101.771 187 102.943 187H120.651C121.432 187 122.188 186.685 122.734 186.133L130.859 177.931C132.005 176.775 132.005 174.882 130.859 173.726Z" fill="#7ED8F6"/>
<path d="M120.651 187C121.432 187 122.187 186.685 122.734 186.133L130.859 177.931C132.005 176.775 132.005 174.909 130.859 173.752L126.432 169.283L108.854 187H120.651Z" fill="#6AA9FF"/>
<path d="M155.911 168.574L127.135 139.502C126.328 138.687 125.104 138.424 124.036 138.818C122.969 139.213 122.213 140.238 122.135 141.394C121.953 143.918 121.12 151.173 119.531 154.406C117.578 158.375 114.583 161.424 114.557 161.45C114.01 162.002 113.698 162.765 113.698 163.553C113.698 164.342 114.01 165.104 114.557 165.656L130.052 181.296C130.625 181.874 131.38 182.163 132.135 182.163C132.89 182.163 133.646 181.874 134.219 181.296C134.245 181.27 137.292 178.247 141.198 176.249C144.401 174.646 151.588 173.805 154.088 173.621C155.234 173.542 156.224 172.779 156.64 171.702C157.005 170.598 156.719 169.389 155.911 168.574Z" fill="#6AA9FF"/>
<path d="M154.062 173.62C155.208 173.542 156.198 172.779 156.614 171.702C157.005 170.624 156.745 169.388 155.937 168.574L141.536 154.038L122.292 173.463L130.052 181.296C130.625 181.874 131.38 182.163 132.135 182.163C132.89 182.163 133.646 181.874 134.219 181.296C134.245 181.27 137.292 178.247 141.198 176.249C144.375 174.619 151.562 173.804 154.062 173.62Z" fill="#4895FF"/>
<path d="M197.318 115.608L179.609 97.7337C177.838 95.9726 175.547 95 173.073 95C170.625 95 168.307 95.9726 166.562 97.7074L157.292 107.091C156.745 107.643 156.432 108.406 156.432 109.194C156.432 109.983 156.745 110.745 157.292 111.297L166.146 120.234C167.292 121.391 169.14 121.391 170.286 120.234L175 124.992C173.854 126.149 173.854 128.015 175 129.171L183.854 138.109C184.401 138.661 185.156 138.976 185.937 138.976C186.719 138.976 187.474 138.661 188.021 138.109L197.292 128.751C199.036 126.99 199.974 124.677 199.974 122.179C200 119.682 199.036 117.369 197.318 115.608Z" fill="#453D83"/>
<path d="M175.026 129.171L183.88 138.109C184.427 138.661 185.182 138.976 185.964 138.976C186.745 138.976 187.5 138.661 188.047 138.109L197.318 128.751C199.063 126.99 200 124.677 200 122.179C200 119.709 199.036 117.369 197.318 115.608L188.464 106.671L172.656 122.6L175 124.966C173.88 126.122 173.88 128.015 175.026 129.171Z" fill="#2D2755"/>
<path d="M155.99 172.674L188.099 138.03L157.37 107.013L123.047 139.423L155.99 172.674Z" fill="#5F55AF"/>
<path d="M155.989 172.674L188.099 138.03L172.734 122.521L139.505 156.062L155.989 172.674Z" fill="#453D83"/>
<path d="M175.156 115.319C174.01 114.162 172.161 114.162 171.016 115.319L156.484 129.986C154.036 132.457 154.036 136.453 156.484 138.923C158.932 141.394 162.891 141.394 165.339 138.923L179.87 124.256C181.016 123.099 181.016 121.233 179.87 120.077L175.156 115.319Z" fill="#FED843"/>
<path d="M156.458 138.95C158.906 141.42 162.864 141.42 165.312 138.95L179.843 124.282C180.989 123.126 180.989 121.259 179.843 120.103L177.5 117.737L156.458 138.95Z" fill="#FF9100"/>
<defs>
<linearGradient id="paint0_linear" x1="75.2464" y1="75.2464" x2="225.754" y2="225.754" gradientUnits="userSpaceOnUse">
<stop offset="1.834e-05" stop-color="#F49600"/>
<stop offset="1" stop-color="#E8520E"/>
</linearGradient>
</defs>
</svg>
