<svg width="271" height="235" viewBox="0 0 271 235" fill="none" xmlns="http://www.w3.org/2000/svg">
<path d="M67.6809 235L0 117L67.6809 0H203.319L271 117L203.319 235H67.6809Z" fill="url(#paint0_linear)"/>
<path d="M83.8189 207L32 117.5L83.8189 28H187.181L239 117.5L187.181 207H83.8189Z" fill="url(#paint1_linear)"/>
<path d="M83.8189 207L32 117.5L83.8189 28H187.181L239 117.5L187.181 207H83.8189Z" fill="white"/>
<g clip-path="url(#clip0)">
<path d="M140.589 146.374L125.04 161.916C124.378 162.578 123.506 162.91 122.633 162.91C121.761 162.91 120.889 162.578 120.227 161.916C118.904 160.59 118.904 158.452 120.227 157.127L135.777 141.584C137.1 140.259 139.236 140.259 140.559 141.584C141.912 142.91 141.912 145.048 140.589 146.374Z" fill="#EDF5FF"/>
<path d="M140.589 146.374L125.039 161.916C124.378 162.578 123.505 162.91 122.633 162.91C121.761 162.91 120.889 162.578 120.227 161.916L140.529 141.584C141.912 142.91 141.912 145.048 140.589 146.374Z" fill="#D5E8FE"/>
<path d="M178.756 116.163L165.973 103.361C164.71 102.096 162.695 102.036 161.342 103.211L141.04 120.982C140.348 121.584 139.927 122.488 139.897 123.422C139.867 124.355 140.228 125.259 140.89 125.922L156.379 141.434C157.011 142.066 157.883 142.428 158.785 142.428C158.815 142.428 158.875 142.428 158.905 142.428C159.838 142.398 160.74 141.976 161.342 141.253L178.906 120.771C180.079 119.416 179.989 117.398 178.756 116.163Z" fill="#E63950"/>
<path d="M178.906 120.771L161.342 141.253C160.74 141.976 159.838 142.398 158.905 142.428C158.875 142.428 158.815 142.428 158.785 142.428C157.883 142.428 157.041 142.066 156.379 141.434L148.559 133.602L172.349 109.777L178.756 116.193C179.989 117.398 180.079 119.416 178.906 120.771Z" fill="#AE2538"/>
<path d="M165.552 145.41C165.552 148.241 164.44 150.922 162.455 152.91L154.785 160.59C154.154 161.223 153.281 161.584 152.379 161.584C151.477 161.584 150.635 161.223 149.973 160.59L121.731 132.307C121.1 131.675 120.739 130.801 120.739 129.898C120.739 128.994 121.1 128.151 121.731 127.488L129.401 119.807C131.416 117.789 134.063 116.705 136.89 116.705C139.717 116.705 142.394 117.819 144.379 119.807L162.394 137.849C164.44 139.928 165.552 142.578 165.552 145.41Z" fill="#FF7B4A"/>
<path d="M165.552 145.41C165.552 148.241 164.439 150.922 162.454 152.91L154.785 160.59C154.153 161.223 153.281 161.584 152.379 161.584C151.476 161.584 150.634 161.223 149.973 160.59L135.747 146.343L153.311 128.753L162.424 137.88C164.439 139.928 165.552 142.578 165.552 145.41Z" fill="#E63950"/>
<path d="M190.395 122.398C188.38 124.416 185.733 125.5 182.906 125.5C180.079 125.5 177.402 124.386 175.417 122.398L159.928 106.886C157.913 104.868 156.83 102.217 156.83 99.3856C156.83 96.5543 157.943 93.8735 159.928 91.8856C164.048 87.7591 170.785 87.7591 174.936 91.8856L190.425 107.398C194.516 111.494 194.516 118.241 190.395 122.398Z" fill="#FF7B4A"/>
<path d="M190.395 122.398C188.38 124.416 185.733 125.5 182.906 125.5C180.079 125.5 177.402 124.386 175.417 122.398L167.597 114.566L182.605 99.5362L190.425 107.368C194.515 111.494 194.515 118.241 190.395 122.398Z" fill="#E63950"/>
<path d="M133.13 85.4398C132.258 85.4398 131.385 85.1085 130.754 84.4458C129.43 83.1205 129.43 80.982 130.754 79.6567L146.273 64.0844C147.596 62.7591 149.732 62.7591 151.055 64.0844C152.379 65.4097 152.379 67.5482 151.055 68.8735L135.536 84.4458C134.874 85.1085 134.002 85.4398 133.13 85.4398Z" fill="#EDF5FF"/>
<path d="M151.056 68.8735L135.536 84.4458C134.874 85.1084 134.002 85.4398 133.13 85.4398C132.258 85.4398 131.386 85.1084 130.724 84.4458L130.694 84.4157L150.995 64.0844C152.379 65.4097 152.379 67.5482 151.056 68.8735Z" fill="#D5E8FE"/>
<path d="M130.574 100.259L115.085 84.747C114.423 84.0843 113.521 83.7229 112.588 83.753C111.656 83.7831 110.784 84.2048 110.152 84.8976L92.407 105.229C91.234 106.584 91.2942 108.602 92.5574 109.867L105.34 122.639C106.001 123.301 106.874 123.633 107.746 123.633C108.528 123.633 109.31 123.361 109.941 122.819L130.393 105.229C131.115 104.627 131.536 103.723 131.566 102.789C131.626 101.825 131.266 100.922 130.574 100.259Z" fill="#FF9100"/>
<path d="M131.566 102.789C131.536 103.723 131.115 104.627 130.393 105.229L109.941 122.819C109.309 123.361 108.527 123.633 107.745 123.633C106.873 123.633 106.001 123.301 105.339 122.639L98.9331 116.223L122.723 92.3976L130.543 100.229C131.265 100.922 131.626 101.825 131.566 102.789Z" fill="#FF641A"/>
<path d="M111.565 119.295L96.0759 103.783C91.9254 99.6266 85.2184 99.6266 81.0679 103.783C76.9474 107.91 76.9474 114.657 81.0679 118.813L96.5572 134.325C98.5723 136.343 101.219 137.428 104.046 137.428C106.873 137.428 109.55 136.313 111.535 134.325C113.52 132.337 114.633 129.657 114.633 126.825C114.633 123.994 113.58 121.313 111.565 119.295Z" fill="#FED843"/>
<path d="M114.693 126.795C114.693 129.627 113.58 132.307 111.595 134.295C109.58 136.313 106.933 137.398 104.106 137.398C101.279 137.398 98.6022 136.283 96.6172 134.295L88.7974 126.464L103.805 111.434L111.625 119.265C113.58 121.313 114.693 123.964 114.693 126.795Z" fill="#FF9100"/>
<path d="M149.732 98.6627L142.063 106.313C139.987 108.392 137.28 109.416 134.574 109.416C131.867 109.416 129.13 108.392 127.085 106.313L117.971 97.1868L109.039 88.241C107.054 86.2531 105.941 83.6025 105.941 80.7711C105.941 77.9398 107.054 75.2591 109.039 73.2711L116.708 65.5904C117.34 64.9579 118.212 64.5964 119.114 64.5964C120.017 64.5964 120.859 64.9579 121.52 65.5904L135.536 79.6266L149.762 93.8735C151.055 95.1988 151.055 97.3374 149.732 98.6627Z" fill="#FED843"/>
<path d="M149.732 98.6627L142.063 106.313C139.988 108.392 137.281 109.416 134.574 109.416C131.867 109.416 129.13 108.392 127.085 106.313L117.972 97.1868L135.536 79.5964L149.762 93.8434C151.056 95.1988 151.056 97.3374 149.732 98.6627Z" fill="#FF9100"/>
</g>
<defs>
<linearGradient id="paint0_linear" x1="42.9219" y1="24.725" x2="227.471" y2="209.914" gradientUnits="userSpaceOnUse">
<stop offset="1.834e-05" stop-color="#FFCF0D"/>
<stop offset="1" stop-color="#EDA704"/>
</linearGradient>
<linearGradient id="paint1_linear" x1="64.8667" y1="46.9134" x2="206.04" y2="188.214" gradientUnits="userSpaceOnUse">
<stop stop-color="white"/>
<stop offset="0.2511" stop-color="#FAFAFA"/>
<stop offset="0.5396" stop-color="#ECECEC"/>
<stop offset="0.8455" stop-color="#D5D5D5"/>
<stop offset="1" stop-color="#C7C7C7"/>
</linearGradient>
<clipPath id="clip0">
<rect width="115.493" height="100" fill="white" transform="translate(78 63)"/>
</clipPath>
</defs>
</svg>
