<svg width="300" height="301" viewBox="0 0 300 301" fill="none" xmlns="http://www.w3.org/2000/svg">
<path d="M150 0L0 150.5L150 301L300 150.5L150 0Z" fill="url(#paint0_linear)"/>
<path d="M45 151L150 46L255 151L150 256L45 151Z" fill="white"/>
<path d="M190.418 138.557H109.582L104 144.307V190.304C104 191.783 105.222 193 106.707 193H193.293C194.778 193 196 191.783 196 190.304V144.307L190.418 138.557Z" fill="#5F55AF"/>
<path d="M190.418 138.557H150V192.976H193.293C194.778 192.976 196 191.759 196 190.28V144.307L190.418 138.557Z" fill="#453D83"/>
<path d="M167.322 129.754C165.836 129.754 164.614 128.537 164.614 127.058V118.446C164.614 116.752 163.249 115.392 161.548 115.392H138.452C136.751 115.392 135.385 116.752 135.385 118.446V127.058C135.385 128.537 134.163 129.754 132.678 129.754C131.193 129.754 129.971 128.537 129.971 127.058V118.446C129.971 113.793 133.78 110 138.452 110H161.548C166.22 110 170.029 113.793 170.029 118.446V127.058C170.029 128.561 168.807 129.754 167.322 129.754Z" fill="#5F55AF"/>
<path d="M161.548 110H150V115.392H161.548C163.249 115.392 164.615 116.752 164.615 118.446V127.058C164.615 128.537 165.836 129.754 167.322 129.754C168.807 129.754 170.029 128.537 170.029 127.058V118.446C170.029 113.793 166.22 110 161.548 110Z" fill="#453D83"/>
<path d="M193.293 124.362H106.707C105.222 124.362 104 125.579 104 127.058V144.307C104 148.959 107.809 152.753 112.481 152.753H187.519C192.191 152.753 196 148.959 196 144.307V127.058C196 125.579 194.778 124.362 193.293 124.362Z" fill="#FED843"/>
<path d="M193.293 124.362H150V152.753H187.519C192.191 152.753 196 148.959 196 144.307V127.058C196 125.579 194.778 124.362 193.293 124.362Z" fill="#FF9100"/>
<path d="M158.649 141.253H141.327C139.842 141.253 138.62 140.036 138.62 138.557C138.62 137.078 139.842 135.861 141.327 135.861H158.649C160.135 135.861 161.357 137.078 161.357 138.557C161.357 140.06 160.159 141.253 158.649 141.253Z" fill="#FF9100"/>
<path d="M158.649 135.861H150V141.253H158.649C160.134 141.253 161.356 140.036 161.356 138.557C161.356 137.078 160.158 135.861 158.649 135.861Z" fill="#FF641A"/>
<path d="M144.226 158.86H133.948L131.241 160.291L128.533 158.86H118.255C116.77 158.86 115.548 160.077 115.548 161.556V178.805C115.548 180.284 116.77 181.501 118.255 181.501H144.226C145.711 181.501 146.933 180.284 146.933 178.805V161.556C146.933 160.077 145.711 158.86 144.226 158.86Z" fill="#FED843"/>
<path d="M133.948 158.86V167.305C133.948 168.785 132.726 170.001 131.24 170.001C129.755 170.001 128.533 168.785 128.533 167.305V158.86H133.948Z" fill="#FF9100"/>
<path d="M181.745 158.86H171.466L168.759 160.291L166.052 158.86H155.774C154.288 158.86 153.066 160.077 153.066 161.556V178.805C153.066 180.284 154.288 181.501 155.774 181.501H181.745C183.23 181.501 184.452 180.284 184.452 178.805V161.556C184.452 160.077 183.254 158.86 181.745 158.86Z" fill="#FF9100"/>
<path d="M171.467 158.86V167.305C171.467 168.785 170.245 170.001 168.76 170.001C167.274 170.001 166.052 168.785 166.052 167.305V158.86H171.467Z" fill="#FF641A"/>
<defs>
<linearGradient id="paint0_linear" x1="74.9964" y1="75.2464" x2="225.503" y2="225.253" gradientUnits="userSpaceOnUse">
<stop offset="1.834e-05" stop-color="#0AB2AC"/>
<stop offset="1" stop-color="#00D2CA"/>
</linearGradient>
</defs>
</svg>
