<svg width="68" height="68" viewBox="0 0 68 68" fill="none" xmlns="http://www.w3.org/2000/svg">
<rect width="68" height="68" rx="8" fill="#F4FBFC"/>
<path d="M39.7646 54.3409H29.2354L30.9668 48.6896H38.0332L39.7646 54.3409Z" fill="#90ABBD"/>
<path d="M57 19.5098V44.6641C57 47.2569 54.8906 49.3575 52.3066 49.3575H16.6934C14.1094 49.3487 12 47.2481 12 44.6553V19.5098C12 16.917 14.1094 14.8164 16.6934 14.8164H52.3066C54.8906 14.8076 57 16.917 57 19.5098Z" fill="#56788B"/>
<path d="M57 19.5098V44.6641C57 47.2569 54.8906 49.3575 52.3066 49.3575H50.5488C53.1328 49.3575 55.2422 47.2481 55.2422 44.6641V19.5098C55.2422 16.917 53.1328 14.8164 50.5488 14.8164H52.3066C54.8906 14.8076 57 16.917 57 19.5098Z" fill="#415E6F"/>
<path d="M54.3721 19.3956V42.045C54.3721 43.1964 53.4404 44.128 52.2891 44.128H16.7109C15.5596 44.128 14.6279 43.1964 14.6279 42.045V19.3956C14.6279 18.2443 15.5596 17.3126 16.7109 17.3126H52.2803C53.4316 17.3126 54.3721 18.2443 54.3721 19.3956Z" fill="#D9F0F4"/>
<path d="M54.3721 19.3956V42.045C54.3721 43.1964 53.4404 44.128 52.2891 44.128H50.5312C51.6826 44.128 52.6143 43.1964 52.6143 42.045V19.3956C52.6143 18.2443 51.6826 17.3126 50.5312 17.3126H52.2891C53.4316 17.3126 54.3721 18.2443 54.3721 19.3956Z" fill="#BAE1E5"/>
<path d="M43.1748 53.6816H25.8252C25.4648 53.6816 25.166 53.9805 25.166 54.3408C25.166 54.7012 25.4648 55 25.8252 55H43.1748C43.5351 55 43.834 54.7012 43.834 54.3408C43.834 53.9805 43.5439 53.6816 43.1748 53.6816Z" fill="#56788B"/>
<path d="M20.3232 46.132H17.6338C17.2734 46.132 16.9746 46.4308 16.9746 46.7911C16.9746 47.1515 17.2734 47.4503 17.6338 47.4503H20.3232C20.6836 47.4503 20.9824 47.1515 20.9824 46.7911C20.9824 46.4308 20.6836 46.132 20.3232 46.132Z" fill="#415E6F"/>
<path d="M25.5967 46.132H22.9072C22.5469 46.132 22.248 46.4308 22.248 46.7911C22.248 47.1515 22.5469 47.4503 22.9072 47.4503H25.5967C25.957 47.4503 26.2559 47.1515 26.2559 46.7911C26.2559 46.4308 25.957 46.132 25.5967 46.132Z" fill="#415E6F"/>
<path d="M20.3496 37.5361H17.5283C17.168 37.5361 16.8691 37.835 16.8691 38.1953C16.8691 38.5557 17.168 38.8545 17.5283 38.8545H20.3496C20.71 38.8545 21.0088 38.5557 21.0088 38.1953C21.0088 37.835 20.7188 37.5361 20.3496 37.5361Z" fill="#90ABBD"/>
<path d="M16.8691 41.2715C16.8691 41.6318 17.168 41.9307 17.5283 41.9307H22.1074C22.4678 41.9307 22.7666 41.6318 22.7666 41.2715C22.7666 40.9111 22.4678 40.6123 22.1074 40.6123H17.5283C17.1592 40.6123 16.8691 40.9111 16.8691 41.2715Z" fill="#90ABBD"/>
<path d="M48.9229 25.1172C48.9229 31.8145 44.3525 37.4482 38.165 39.0654C36.9961 39.373 35.7656 39.5312 34.5 39.5312C26.5371 39.5312 20.0771 33.0801 20.0771 25.1172C20.0771 17.1543 26.5371 10.7031 34.5 10.7031C35.7656 10.7031 36.9961 10.8701 38.165 11.1689C44.3525 12.7861 48.9229 18.4199 48.9229 25.1172Z" fill="#D9F0F4"/>
<path d="M48.9228 25.1172C48.9228 31.8145 44.3525 37.4482 38.165 39.0654C43.6055 36.7803 47.4287 31.3926 47.4287 25.1172C47.4287 18.8418 43.6055 13.4629 38.165 11.1689C44.3525 12.7861 48.9228 18.4199 48.9228 25.1172Z" fill="#BAE1E5"/>
<path d="M34.5 10C34.1484 10 33.7969 10.0088 33.4541 10.0352C25.5967 10.5713 19.374 17.1367 19.374 25.1172C19.374 33.1064 25.5967 39.6631 33.4541 40.1992C33.7969 40.2256 34.1484 40.2344 34.5 40.2344C42.8408 40.2344 49.626 33.4492 49.626 25.1172C49.626 16.7852 42.8408 10 34.5 10ZM43.3418 14.5264C46.2158 16.9258 48.1055 20.4766 48.29 24.458H43.9658C43.8779 21.0127 43.0693 17.7695 41.6631 15.1855C42.1816 15.0098 42.6826 14.8164 43.1748 14.6055C43.2363 14.5791 43.2891 14.5527 43.3418 14.5264ZM40.96 36.209C41.3555 36.332 41.7422 36.4727 42.1201 36.6221C41.3115 37.1582 40.4414 37.6152 39.5186 37.9756C40.0283 37.4658 40.5117 36.877 40.96 36.209ZM35.1592 38.8721V35.2598C36.7061 35.3037 38.209 35.4971 39.6152 35.8311C38.332 37.5977 36.7852 38.6523 35.1592 38.8721ZM40.3711 34.6709C38.7363 34.2402 36.9785 33.9941 35.1592 33.9502V31.2256H33.8408V33.9502C32.0215 33.9941 30.2725 34.2402 28.6289 34.6709C27.2402 32.2451 26.4404 29.125 26.3437 25.7852H33.832V28.1494H35.1504V25.7852H42.6387C42.5596 29.1162 41.7598 32.2363 40.3711 34.6709ZM26.3525 24.458C26.4492 21.1182 27.249 17.998 28.6377 15.5723C30.2725 16.0029 32.0303 16.249 33.8496 16.293V24.458H26.3525ZM35.1592 24.458V16.293C36.9785 16.249 38.7275 16.0029 40.3711 15.5723C41.7598 17.998 42.5596 21.1182 42.6562 24.458H35.1592ZM39.6152 14.4033C38.209 14.7373 36.7061 14.9307 35.1592 14.9746V11.3623C36.7852 11.5908 38.332 12.6367 39.6152 14.4033ZM39.5186 12.2588C40.4414 12.6191 41.3115 13.0762 42.1201 13.6123C41.7422 13.7617 41.3555 13.9023 40.96 14.0254C40.5117 13.3574 40.0283 12.7686 39.5186 12.2588ZM33.8408 11.3623V14.9746C32.2939 14.9307 30.791 14.7373 29.3848 14.4033C30.668 12.6367 32.2148 11.5908 33.8408 11.3623ZM29.4814 12.2588C28.9717 12.7686 28.4883 13.3574 28.04 14.0254C27.6445 13.9023 27.2578 13.7617 26.8799 13.6123C27.6885 13.0762 28.5586 12.6191 29.4814 12.2588ZM25.6582 14.5264C26.2031 14.7725 26.7568 14.9922 27.3369 15.1855C25.9307 17.7695 25.1221 21.0127 25.0342 24.458H20.71C20.8945 20.4766 22.7842 16.9346 25.6582 14.5264ZM20.71 25.7764H25.0342C25.1221 29.2217 25.9307 32.4648 27.3369 35.0488C26.7568 35.2422 26.1943 35.4619 25.6582 35.708C22.7842 33.3086 20.8945 29.7578 20.71 25.7764ZM26.8799 36.6221C27.2578 36.4727 27.6445 36.332 28.04 36.209C28.4883 36.877 28.9717 37.4658 29.4814 37.9756C28.5586 37.6152 27.6885 37.1582 26.8799 36.6221ZM29.3848 35.8398C30.791 35.5059 32.2939 35.3125 33.8408 35.2686V38.8809C32.2148 38.6523 30.668 37.5977 29.3848 35.8398ZM43.3418 35.708C43.2891 35.6816 43.2275 35.6553 43.1748 35.6289C42.6826 35.418 42.1816 35.2246 41.6631 35.0488C43.0693 32.4648 43.8779 29.2217 43.9658 25.7764H48.29C48.1055 29.7578 46.2158 33.3086 43.3418 35.708Z" fill="#4DD4F7"/>
<path d="M49.626 25.1172C49.626 33.458 42.8408 40.2344 34.5 40.2344C34.1484 40.2344 33.7969 40.2256 33.4541 40.1992C37.2598 39.9092 40.6787 38.2129 43.1748 35.6289C43.2275 35.6553 43.2891 35.6816 43.3418 35.708C46.2158 33.3086 48.1055 29.7578 48.29 25.7764H47.4111C47.4199 25.5566 47.4287 25.3369 47.4287 25.1172C47.4287 24.8975 47.4287 24.6777 47.4111 24.458H48.29C48.1055 20.4766 46.2158 16.9258 43.3418 14.5264C43.2891 14.5527 43.2275 14.5791 43.1748 14.5967C40.6787 12.0215 37.2598 10.3252 33.4541 10.0352C33.7969 10.0088 34.1484 10 34.5 10C42.8408 10 49.626 16.7852 49.626 25.1172Z" fill="#00C2F3"/>
<path d="M22.0986 19.8877C23.3121 19.8877 24.2959 18.9039 24.2959 17.6904C24.2959 16.4769 23.3121 15.4932 22.0986 15.4932C20.8851 15.4932 19.9014 16.4769 19.9014 17.6904C19.9014 18.9039 20.8851 19.8877 22.0986 19.8877Z" fill="#FF6B81"/>
<path d="M34.5 27.4902C33.2871 27.4902 32.3027 28.4746 32.3027 29.6875C32.3027 30.9004 33.2871 31.8848 34.5 31.8848C35.7129 31.8848 36.6973 30.9004 36.6973 29.6875C36.6973 28.4746 35.7129 27.4902 34.5 27.4902Z" fill="#FF6B81"/>
<path d="M42.8672 22.6387C44.0807 22.6387 45.0645 21.6549 45.0645 20.4414C45.0645 19.2279 44.0807 18.2441 42.8672 18.2441C41.6537 18.2441 40.6699 19.2279 40.6699 20.4414C40.6699 21.6549 41.6537 22.6387 42.8672 22.6387Z" fill="#FF6B81"/>
</svg>
