<svg width="115" height="74" viewBox="0 0 115 74" fill="none" xmlns="http://www.w3.org/2000/svg">
<path d="M73.1768 0.373779C73.1768 0.525016 73.1768 0.676252 73.1768 0.827488C73.1768 8.99425 73.1768 17.161 73.1768 25.3278C73.1768 25.8787 73.2308 25.8679 72.6582 25.8679C69.6443 25.8679 66.6412 25.8679 63.6273 25.8679C63.0547 25.8679 63.1087 25.8787 63.1087 25.3602C63.1087 20.5206 63.1087 15.681 63.1087 10.8415C63.1087 10.3122 63.1411 10.3338 62.5902 10.3338C45.2845 10.3338 27.9787 10.3338 10.6838 10.3338C10.1004 10.3338 10.1328 10.3122 10.1328 10.8847C10.1328 28.2877 10.1328 45.6906 10.1328 63.0936C10.1328 63.6554 10.1112 63.6229 10.673 63.6229C27.9787 63.6229 45.2845 63.6229 62.5794 63.6229C63.1411 63.6229 63.1087 63.6554 63.1087 63.0936C63.1087 58.3729 63.1087 53.6522 63.1087 48.9314C63.1087 48.3805 63.0655 48.4129 63.6489 48.4129C66.6736 48.4129 69.6875 48.4129 72.7122 48.4129C73.1876 48.4129 73.1876 48.4129 73.1876 48.8774C73.1876 56.9902 73.1876 65.1137 73.1876 73.2265C73.1876 73.3561 73.1876 73.4857 73.1876 73.6261H0V0.373779H73.1768Z" fill="#609CD2"/>
<path d="M114.14 33.0731C113.751 33.4296 113.384 33.7753 112.984 34.1425C112.876 34.0453 112.779 33.9697 112.692 33.8833C111.709 32.9867 110.575 32.3277 109.29 31.9712C107.464 31.4743 105.725 31.6904 104.072 32.6086C102.668 33.3972 101.695 34.553 101.22 36.0762C100.734 37.6534 100.918 39.1765 101.717 40.6133C102.495 42.0068 103.651 42.9359 105.131 43.5084C106.373 43.9837 107.658 44.0701 108.944 43.8433C110.662 43.5408 111.99 42.6334 112.811 41.067C113.016 40.6673 113.114 40.2028 113.254 39.7707C113.276 39.7167 113.254 39.6519 113.254 39.5654C113.125 39.5546 113.006 39.5438 112.887 39.5438C111.645 39.5438 110.402 39.5438 109.16 39.5438C109.074 39.5438 108.976 39.5438 108.89 39.5438C108.695 39.533 108.663 39.5006 108.652 39.3062C108.641 38.9713 108.652 38.6364 108.652 38.3015C108.652 38.1503 108.728 38.0747 108.879 38.0855C108.944 38.0855 108.998 38.0855 109.063 38.0855C110.899 38.0855 112.746 38.0855 114.583 38.0855C115.004 38.0855 115.015 38.0963 114.993 38.5068C114.939 39.8571 114.637 41.1426 113.902 42.2985C112.984 43.7352 111.699 44.6751 110.057 45.1072C108.134 45.6149 106.211 45.5717 104.353 44.8695C101.89 43.9513 100.237 42.1905 99.5781 39.6303C99.0595 37.621 99.3728 35.6873 100.464 33.9049C101.317 32.5222 102.506 31.5283 103.996 30.891C105.357 30.3184 106.783 30.1672 108.242 30.2752C108.944 30.3292 109.635 30.4697 110.305 30.6749C111.256 30.9666 112.131 31.4311 112.93 32.0144C113.297 32.2845 113.643 32.587 114 32.8786C114.043 32.9435 114.075 32.9975 114.14 33.0731Z" fill="black"/>
<path d="M68.7145 31.7228C68.4336 31.7336 68.1851 31.7336 67.9259 31.766C65.5817 32.0793 63.432 33.7213 62.7946 36.2167C62.2869 38.1936 62.5678 40.0516 63.8857 41.6828C64.7067 42.6983 65.733 43.4328 67.0077 43.7461C68.3688 44.0918 69.7299 44.0486 71.0478 43.5193C72.6034 42.8927 73.7269 41.8232 74.3858 40.2677C74.8071 39.2846 74.9152 38.2476 74.8287 37.1889C74.7207 35.9466 74.267 34.834 73.446 33.8941C72.1929 32.479 70.5941 31.7552 68.7145 31.7228ZM76.4275 37.7939C76.5139 41.3155 74.1266 44.0162 71.4691 44.9776C69.9136 45.5393 68.3256 45.5933 66.7268 45.2045C64.4907 44.6427 62.8595 43.2924 61.7684 41.2723C61.3039 40.4189 61.0878 39.4899 61.0122 38.5285C60.9474 37.6859 61.0014 36.8541 61.2067 36.0439C61.6604 34.2722 62.611 32.8139 64.1018 31.7228C65.0848 31.0098 66.1651 30.5453 67.3641 30.3617C68.8009 30.1456 70.2376 30.2321 71.5988 30.783C73.9429 31.7336 75.5201 33.408 76.2115 35.871C76.3843 36.5192 76.4599 37.1889 76.4275 37.7939Z" fill="black"/>
<path d="M37.3016 41.575C37.7229 41.8883 38.0902 42.1692 38.4899 42.4608C38.4251 42.5689 38.3819 42.6553 38.317 42.7309C37.334 43.8868 36.1025 44.6754 34.6442 45.0859C32.7429 45.6152 30.8417 45.5828 28.9728 44.9346C27.32 44.3513 26.0669 43.2602 25.1703 41.7479C24.2737 40.2247 24.0144 38.5719 24.1981 36.8435C24.3925 34.953 25.2675 33.4191 26.6935 32.1768C27.9574 31.0749 29.4265 30.4808 31.0901 30.3295C32.4188 30.1999 33.7259 30.3079 35.0007 30.7508C36.3294 31.2153 37.442 31.9931 38.3279 33.0842C38.3819 33.149 38.4251 33.2354 38.4899 33.3326C38.1226 33.6567 37.7337 33.9268 37.3556 34.2077C37.3016 34.1644 37.2476 34.1428 37.2152 34.1104C35.7568 32.3388 33.8556 31.6042 31.5978 31.7555C29.7398 31.8743 28.195 32.6629 27.0175 34.1104C26.1965 35.1367 25.8076 36.325 25.7644 37.6429C25.7428 38.5071 25.8509 39.3497 26.1749 40.1491C26.5854 41.1969 27.2768 42.0395 28.1734 42.7201C29.4913 43.7247 31.0145 44.0272 32.6349 43.9516C34.3201 43.8652 35.7352 43.2062 36.9127 42.0071C37.0315 41.8775 37.1504 41.7371 37.3016 41.575Z" fill="black"/>
<path d="M93.2046 38.8633C92.3944 37.1673 91.6058 35.5145 90.8172 33.8617C90.7956 33.8617 90.7632 33.8617 90.7416 33.8617C90.3419 34.6935 89.9422 35.5145 89.5425 36.3463C89.1428 37.1781 88.7323 37.9883 88.3434 38.8633H93.2046ZM97.7849 45.0532C97.6228 45.064 97.5256 45.0748 97.4284 45.0748C97.1691 45.0748 96.8991 45.0748 96.6398 45.0748C96.1213 45.064 96.2185 45.1504 95.97 44.6427C95.3111 43.2815 94.6521 41.9204 93.9932 40.5485C93.9176 40.3865 93.8095 40.354 93.6475 40.3648C93.0966 40.3648 92.5456 40.3648 91.9947 40.3648C90.6444 40.3648 89.294 40.3756 87.9329 40.3648C87.6953 40.3648 87.5764 40.4405 87.4684 40.6565C86.8203 42.0284 86.1613 43.3896 85.5131 44.7615C85.3943 44.9992 85.2647 45.1288 84.9838 45.0964C84.6705 45.064 84.3573 45.0964 84.0332 45.0856C83.936 45.0856 83.8387 45.0748 83.6875 45.064C83.7307 44.9343 83.7523 44.8263 83.8063 44.7399C84.8758 42.5146 85.9452 40.2892 87.0147 38.0639C87.7385 36.5515 88.4622 35.0392 89.186 33.5268C89.5749 32.7166 89.9638 31.9172 90.3527 31.107C90.3959 31.0206 90.4499 30.9342 90.4931 30.837C90.5471 30.7073 90.6336 30.6533 90.774 30.6533C90.9252 30.6533 91.0225 30.7181 91.0765 30.8478C91.2925 31.3123 91.5194 31.766 91.7354 32.2197C92.7293 34.3262 93.7339 36.4219 94.7277 38.5284C95.3327 39.8139 95.9376 41.0994 96.5534 42.3849C96.9207 43.1519 97.288 43.9297 97.6444 44.6967C97.6877 44.7939 97.7201 44.8911 97.7849 45.0532Z" fill="black"/>
<path d="M50.7716 30.6533H59.1544C59.2084 31.1286 59.2084 31.5715 59.1544 32.0469C59.0032 32.0577 58.8735 32.0685 58.7439 32.0685C56.7238 32.0685 54.693 32.0685 52.6729 32.0685C52.2624 32.0685 52.2624 32.0685 52.2624 32.4898C52.2624 33.6997 52.2624 34.9095 52.2624 36.1194C52.2624 36.2058 52.2624 36.2815 52.2624 36.3679C52.2624 36.4975 52.3272 36.5515 52.4568 36.5515C52.5432 36.5515 52.6405 36.5515 52.7269 36.5515C54.7038 36.5515 56.6698 36.5515 58.6467 36.5515H59.068C59.1328 37.0376 59.1112 37.4806 59.0896 37.9667C58.9384 37.9775 58.8195 37.9883 58.6899 37.9883C56.6914 37.9883 54.6821 37.9883 52.6837 37.9883C52.2732 37.9883 52.2732 37.9883 52.2732 38.388C52.2732 40.0084 52.2732 41.618 52.2732 43.2383C52.2732 43.2815 52.2732 43.3248 52.2732 43.3572C52.284 43.6056 52.2948 43.6164 52.5324 43.6272C52.6188 43.6272 52.6945 43.6272 52.7809 43.6272C54.747 43.6272 56.7022 43.6272 58.6683 43.6272C58.7979 43.6272 58.9276 43.6272 59.0788 43.6272C59.1436 44.1133 59.122 44.5671 59.0896 44.9992C58.8303 45.0748 51.1497 45.0856 50.7824 45.01C50.7716 44.9127 50.75 44.8047 50.75 44.6967C50.75 40.1164 50.75 35.5469 50.75 30.9666C50.75 30.891 50.7716 30.783 50.7716 30.6533Z" fill="black"/>
<path d="M42.8972 43.6274H48.4282C48.5254 43.9082 48.5362 44.6968 48.4498 45.0425C48.3526 45.0533 48.2445 45.0641 48.1365 45.0641C45.9976 45.0641 43.8695 45.0641 41.7306 45.0641C41.6658 45.0641 41.6117 45.0641 41.5469 45.0641C41.4389 45.0641 41.3741 45.0101 41.3741 44.8913C41.3741 44.8048 41.3633 44.7292 41.3633 44.6428C41.3633 40.1057 41.3633 35.5686 41.3633 31.0423C41.3633 30.6318 41.3633 30.6318 41.7954 30.6318C42.1411 30.6318 42.4868 30.6318 42.8648 30.6318C42.8756 30.8047 42.8972 30.9451 42.8972 31.0747C42.8972 32.6195 42.8972 34.1643 42.8972 35.7091C42.8972 38.1936 42.8972 40.6674 42.8972 43.152V43.6274Z" fill="black"/>
</svg>
